<?xml version="1.0" standalone="no"?>
<svg id="A" width="450" height="460" style="border: 1px solid rgb(153, 153, 153);" xmlns="http://www.w3.org/2000/svg"><g transform="translate(60,40)"><g class="bars"><g><rect x="1.7857142857142776" y="365.12698412698415" width="14.285714285714286" height="4.873015873015845" fill="rgb(65, 125, 224)"></rect><rect x="1.7857142857142776" y="351.4232804232804" width="14.285714285714286" height="12.703703703703695" fill="rgb(28, 219, 169)"></rect><rect x="1.7857142857142776" y="337.7195767195767" width="14.285714285714286" height="12.703703703703695" fill="rgb(28, 219, 169)"></rect><rect x="1.7857142857142776" y="324.015873015873" width="14.285714285714286" height="12.703703703703695" fill="rgb(28, 219, 169)"></rect><rect x="1.7857142857142776" y="310.3121693121693" width="14.285714285714286" height="12.703703703703695" fill="rgb(28, 219, 169)"></rect><rect x="1.7857142857142776" y="296.6084656084656" width="14.285714285714286" height="12.703703703703695" fill="rgb(28, 219, 169)"></rect><rect x="1.7857142857142776" y="282.9047619047619" width="14.285714285714286" height="12.703703703703695" fill="rgb(28, 219, 169)"></rect><rect x="1.7857142857142776" y="269.20105820105823" width="14.285714285714286" height="12.703703703703695" fill="rgb(28, 219, 169)"></rect><rect x="1.7857142857142776" y="255.4973544973545" width="14.285714285714286" height="12.703703703703695" fill="rgb(28, 219, 169)"></rect><rect x="1.7857142857142776" y="241.7936507936508" width="14.285714285714286" height="12.703703703703695" fill="rgb(28, 219, 169)"></rect></g><g><rect x="19.642857142857135" y="365.12698412698415" width="14.285714285714286" height="4.873015873015845" fill="rgb(65, 125, 224)"></rect><rect x="19.642857142857135" y="351.4232804232804" width="14.285714285714286" height="12.703703703703695" fill="rgb(28, 219, 169)"></rect><rect x="19.642857142857135" y="337.7195767195767" width="14.285714285714286" height="12.703703703703695" fill="rgb(28, 219, 169)"></rect><rect x="19.642857142857135" y="324.015873015873" width="14.285714285714286" height="12.703703703703695" fill="rgb(28, 219, 169)"></rect><rect x="19.642857142857135" y="310.3121693121693" width="14.285714285714286" height="12.703703703703695" fill="rgb(28, 219, 169)"></rect><rect x="19.642857142857135" y="296.6084656084656" width="14.285714285714286" height="12.703703703703695" fill="rgb(28, 219, 169)"></rect><rect x="19.642857142857135" y="282.9047619047619" width="14.285714285714286" height="12.703703703703695" fill="rgb(28, 219, 169)"></rect><rect x="19.642857142857135" y="269.20105820105823" width="14.285714285714286" height="12.703703703703695" fill="rgb(28, 219, 169)"></rect><rect x="19.642857142857135" y="255.4973544973545" width="14.285714285714286" height="12.703703703703695" fill="rgb(28, 219, 169)"></rect><rect x="19.642857142857135" y="241.7936507936508" width="14.285714285714286" height="12.703703703703695" fill="rgb(28, 219, 169)"></rect><rect x="19.642857142857135" y="228.0899470899471" width="14.285714285714286" height="12.703703703703695" fill="rgb(28, 219, 169)"></rect></g><g><rect x="37.49999999999999" y="365.12698412698415" width="14.285714285714286" height="4.873015873015845" fill="rgb(65, 125, 224)"></rect><rect x="37.49999999999999" y="359.25396825396825" width="14.285714285714286" height="4.873015873015845" fill="rgb(65, 125, 224)"></rect><rect x="37.49999999999999" y="345.55026455026456" width="14.285714285714286" height="12.703703703703695" fill="rgb(28, 219, 169)"></rect><rect x="37.49999999999999" y="331.84656084656086" width="14.285714285714286" height="12.703703703703695" fill="rgb(28, 219, 169)"></rect><rect x="37.49999999999999" y="318.14285714285717" width="14.285714285714286" height="12.703703703703695" fill="rgb(28, 219, 169)"></rect><rect x="37.49999999999999" y="304.4391534391534" width="14.285714285714286" height="12.703703703703695" fill="rgb(28, 219, 169)"></rect><rect x="37.49999999999999" y="290.7354497354497" width="14.285714285714286" height="12.703703703703695" fill="rgb(28, 219, 169)"></rect><rect x="37.49999999999999" y="277.031746031746" width="14.285714285714286" height="12.703703703703695" fill="rgb(28, 219, 169)"></rect><rect x="37.49999999999999" y="263.32804232804233" width="14.285714285714286" height="12.703703703703695" fill="rgb(28, 219, 169)"></rect><rect x="37.49999999999999" y="249.62433862433863" width="14.285714285714286" height="12.703703703703695" fill="rgb(28, 219, 169)"></rect><rect x="37.49999999999999" y="235.92063492063494" width="14.285714285714286" height="12.703703703703695" fill="rgb(28, 219, 169)"></rect><rect x="37.49999999999999" y="222.21693121693121" width="14.285714285714286" height="12.703703703703695" fill="rgb(28, 219, 169)"></rect><rect x="37.49999999999999" y="208.51322751322752" width="14.285714285714286" height="12.703703703703695" fill="rgb(28, 219, 169)"></rect><rect x="37.49999999999999" y="194.80952380952382" width="14.285714285714286" height="12.703703703703695" fill="rgb(28, 219, 169)"></rect><rect x="37.49999999999999" y="181.1058201058201" width="14.285714285714286" height="12.703703703703695" fill="rgb(28, 219, 169)"></rect><rect x="37.49999999999999" y="167.4021164021164" width="14.285714285714286" height="12.703703703703695" fill="rgb(28, 219, 169)"></rect></g><g><rect x="55.35714285714285" y="365.12698412698415" width="14.285714285714286" height="4.873015873015845" fill="rgb(65, 125, 224)"></rect><rect x="55.35714285714285" y="359.25396825396825" width="14.285714285714286" height="4.873015873015845" fill="rgb(65, 125, 224)"></rect><rect x="55.35714285714285" y="345.55026455026456" width="14.285714285714286" height="12.703703703703695" fill="rgb(28, 219, 169)"></rect><rect x="55.35714285714285" y="331.84656084656086" width="14.285714285714286" height="12.703703703703695" fill="rgb(28, 219, 169)"></rect><rect x="55.35714285714285" y="318.14285714285717" width="14.285714285714286" height="12.703703703703695" fill="rgb(28, 219, 169)"></rect><rect x="55.35714285714285" y="304.4391534391534" width="14.285714285714286" height="12.703703703703695" fill="rgb(28, 219, 169)"></rect></g><g><rect x="73.21428571428571" y="365.12698412698415" width="14.285714285714286" height="4.873015873015845" fill="rgb(65, 125, 224)"></rect><rect x="73.21428571428571" y="359.25396825396825" width="14.285714285714286" height="4.873015873015845" fill="rgb(65, 125, 224)"></rect><rect x="73.21428571428571" y="353.3809523809524" width="14.285714285714286" height="4.873015873015845" fill="rgb(65, 125, 224)"></rect><rect x="73.21428571428571" y="347.5079365079365" width="14.285714285714286" height="4.873015873015845" fill="rgb(65, 125, 224)"></rect><rect x="73.21428571428571" y="341.63492063492066" width="14.285714285714286" height="4.873015873015845" fill="rgb(65, 125, 224)"></rect></g><g><rect x="91.07142857142857" y="365.12698412698415" width="14.285714285714286" height="4.873015873015845" fill="rgb(65, 125, 224)"></rect><rect x="91.07142857142857" y="359.25396825396825" width="14.285714285714286" height="4.873015873015845" fill="rgb(65, 125, 224)"></rect><rect x="91.07142857142857" y="353.3809523809524" width="14.285714285714286" height="4.873015873015845" fill="rgb(65, 125, 224)"></rect><rect x="91.07142857142857" y="347.5079365079365" width="14.285714285714286" height="4.873015873015845" fill="rgb(65, 125, 224)"></rect><rect x="91.07142857142857" y="341.63492063492066" width="14.285714285714286" height="4.873015873015845" fill="rgb(65, 125, 224)"></rect></g><g><rect x="108.92857142857142" y="365.12698412698415" width="14.285714285714286" height="4.873015873015845" fill="rgb(65, 125, 224)"></rect><rect x="108.92857142857142" y="359.25396825396825" width="14.285714285714286" height="4.873015873015845" fill="rgb(65, 125, 224)"></rect><rect x="108.92857142857142" y="353.3809523809524" width="14.285714285714286" height="4.873015873015845" fill="rgb(65, 125, 224)"></rect><rect x="108.92857142857142" y="337.7195767195767" width="14.285714285714286" height="14.661375661375644" fill="rgb(40, 234, 141)"></rect><rect x="108.92857142857142" y="322.05820105820106" width="14.285714285714286" height="14.661375661375644" fill="rgb(40, 234, 141)"></rect><rect x="108.92857142857142" y="306.3968253968254" width="14.285714285714286" height="14.661375661375644" fill="rgb(40, 234, 141)"></rect><rect x="108.92857142857142" y="290.7354497354497" width="14.285714285714286" height="14.661375661375644" fill="rgb(40, 234, 141)"></rect></g><g><rect x="126.78571428571428" y="365.12698412698415" width="14.285714285714286" height="4.873015873015845" fill="rgb(65, 125, 224)"></rect><rect x="126.78571428571428" y="359.25396825396825" width="14.285714285714286" height="4.873015873015845" fill="rgb(65, 125, 224)"></rect><rect x="126.78571428571428" y="345.55026455026456" width="14.285714285714286" height="12.703703703703695" fill="rgb(28, 219, 169)"></rect><rect x="126.78571428571428" y="331.84656084656086" width="14.285714285714286" height="12.703703703703695" fill="rgb(28, 219, 169)"></rect><rect x="126.78571428571428" y="318.14285714285717" width="14.285714285714286" height="12.703703703703695" fill="rgb(28, 219, 169)"></rect><rect x="126.78571428571428" y="304.4391534391534" width="14.285714285714286" height="12.703703703703695" fill="rgb(28, 219, 169)"></rect><rect x="126.78571428571428" y="290.7354497354497" width="14.285714285714286" height="12.703703703703695" fill="rgb(28, 219, 169)"></rect><rect x="126.78571428571428" y="271.1587301587302" width="14.285714285714286" height="18.576719576719597" fill="rgb(96, 247, 96)"></rect><rect x="126.78571428571428" y="251.58201058201058" width="14.285714285714286" height="18.576719576719597" fill="rgb(96, 247, 96)"></rect><rect x="126.78571428571428" y="232.005291005291" width="14.285714285714286" height="18.576719576719597" fill="rgb(96, 247, 96)"></rect><rect x="126.78571428571428" y="210.47089947089947" width="14.285714285714286" height="20.534391534391546" fill="rgb(135, 245, 87)"></rect><rect x="126.78571428571428" y="186.978835978836" width="14.285714285714286" height="22.492063492063494" fill="rgb(175, 240, 91)"></rect></g><g><rect x="144.64285714285714" y="365.12698412698415" width="14.285714285714286" height="4.873015873015845" fill="rgb(65, 125, 224)"></rect><rect x="144.64285714285714" y="359.25396825396825" width="14.285714285714286" height="4.873015873015845" fill="rgb(65, 125, 224)"></rect><rect x="144.64285714285714" y="353.3809523809524" width="14.285714285714286" height="4.873015873015845" fill="rgb(65, 125, 224)"></rect><rect x="144.64285714285714" y="347.5079365079365" width="14.285714285714286" height="4.873015873015845" fill="rgb(65, 125, 224)"></rect><rect x="144.64285714285714" y="341.63492063492066" width="14.285714285714286" height="4.873015873015845" fill="rgb(65, 125, 224)"></rect><rect x="144.64285714285714" y="322.05820105820106" width="14.285714285714286" height="18.576719576719597" fill="rgb(96, 247, 96)"></rect><rect x="144.64285714285714" y="302.48148148148147" width="14.285714285714286" height="18.576719576719597" fill="rgb(96, 247, 96)"></rect><rect x="144.64285714285714" y="282.9047619047619" width="14.285714285714286" height="18.576719576719597" fill="rgb(96, 247, 96)"></rect><rect x="144.64285714285714" y="263.32804232804233" width="14.285714285714286" height="18.576719576719597" fill="rgb(96, 247, 96)"></rect><rect x="144.64285714285714" y="243.75132275132276" width="14.285714285714286" height="18.576719576719597" fill="rgb(96, 247, 96)"></rect><rect x="144.64285714285714" y="224.1746031746032" width="14.285714285714286" height="18.576719576719597" fill="rgb(96, 247, 96)"></rect><rect x="144.64285714285714" y="204.5978835978836" width="14.285714285714286" height="18.576719576719597" fill="rgb(96, 247, 96)"></rect></g><g><rect x="162.5" y="365.12698412698415" width="14.285714285714286" height="4.873015873015845" fill="rgb(65, 125, 224)"></rect><rect x="162.5" y="359.25396825396825" width="14.285714285714286" height="4.873015873015845" fill="rgb(65, 125, 224)"></rect><rect x="162.5" y="353.3809523809524" width="14.285714285714286" height="4.873015873015845" fill="rgb(65, 125, 224)"></rect><rect x="162.5" y="347.5079365079365" width="14.285714285714286" height="4.873015873015845" fill="rgb(65, 125, 224)"></rect><rect x="162.5" y="341.63492063492066" width="14.285714285714286" height="4.873015873015845" fill="rgb(65, 125, 224)"></rect><rect x="162.5" y="335.76190476190476" width="14.285714285714286" height="4.873015873015845" fill="rgb(65, 125, 224)"></rect><rect x="162.5" y="329.8888888888889" width="14.285714285714286" height="4.873015873015845" fill="rgb(65, 125, 224)"></rect><rect x="162.5" y="324.015873015873" width="14.285714285714286" height="4.873015873015845" fill="rgb(65, 125, 224)"></rect><rect x="162.5" y="318.14285714285717" width="14.285714285714286" height="4.873015873015845" fill="rgb(65, 125, 224)"></rect><rect x="162.5" y="312.26984126984127" width="14.285714285714286" height="4.873015873015845" fill="rgb(65, 125, 224)"></rect><rect x="162.5" y="306.3968253968254" width="14.285714285714286" height="4.873015873015845" fill="rgb(65, 125, 224)"></rect><rect x="162.5" y="300.5238095238095" width="14.285714285714286" height="4.873015873015845" fill="rgb(65, 125, 224)"></rect><rect x="162.5" y="294.6507936507937" width="14.285714285714286" height="4.873015873015845" fill="rgb(65, 125, 224)"></rect><rect x="162.5" y="288.77777777777777" width="14.285714285714286" height="4.873015873015845" fill="rgb(65, 125, 224)"></rect><rect x="162.5" y="282.9047619047619" width="14.285714285714286" height="4.873015873015845" fill="rgb(65, 125, 224)"></rect><rect x="162.5" y="277.031746031746" width="14.285714285714286" height="4.873015873015845" fill="rgb(65, 125, 224)"></rect><rect x="162.5" y="271.1587301587302" width="14.285714285714286" height="4.873015873015845" fill="rgb(65, 125, 224)"></rect><rect x="162.5" y="265.2857142857143" width="14.285714285714286" height="4.873015873015845" fill="rgb(65, 125, 224)"></rect><rect x="162.5" y="259.41269841269843" width="14.285714285714286" height="4.873015873015845" fill="rgb(65, 125, 224)"></rect><rect x="162.5" y="253.53968253968253" width="14.285714285714286" height="4.873015873015845" fill="rgb(65, 125, 224)"></rect><rect x="162.5" y="247.66666666666669" width="14.285714285714286" height="4.873015873015845" fill="rgb(65, 125, 224)"></rect><rect x="162.5" y="241.7936507936508" width="14.285714285714286" height="4.873015873015845" fill="rgb(65, 125, 224)"></rect><rect x="162.5" y="235.92063492063494" width="14.285714285714286" height="4.873015873015845" fill="rgb(65, 125, 224)"></rect><rect x="162.5" y="230.04761904761907" width="14.285714285714286" height="4.873015873015845" fill="rgb(65, 125, 224)"></rect><rect x="162.5" y="224.1746031746032" width="14.285714285714286" height="4.873015873015845" fill="rgb(65, 125, 224)"></rect><rect x="162.5" y="218.30158730158732" width="14.285714285714286" height="4.873015873015845" fill="rgb(65, 125, 224)"></rect><rect x="162.5" y="212.42857142857144" width="14.285714285714286" height="4.873015873015845" fill="rgb(65, 125, 224)"></rect><rect x="162.5" y="206.55555555555557" width="14.285714285714286" height="4.873015873015845" fill="rgb(65, 125, 224)"></rect><rect x="162.5" y="200.6825396825397" width="14.285714285714286" height="4.873015873015845" fill="rgb(65, 125, 224)"></rect><rect x="162.5" y="194.80952380952382" width="14.285714285714286" height="4.873015873015845" fill="rgb(65, 125, 224)"></rect><rect x="162.5" y="188.93650793650795" width="14.285714285714286" height="4.873015873015845" fill="rgb(65, 125, 224)"></rect><rect x="162.5" y="183.06349206349208" width="14.285714285714286" height="4.873015873015845" fill="rgb(65, 125, 224)"></rect><rect x="162.5" y="177.19047619047618" width="14.285714285714286" height="4.873015873015845" fill="rgb(65, 125, 224)"></rect><rect x="162.5" y="171.31746031746033" width="14.285714285714286" height="4.873015873015845" fill="rgb(65, 125, 224)"></rect><rect x="162.5" y="165.44444444444443" width="14.285714285714286" height="4.873015873015845" fill="rgb(65, 125, 224)"></rect><rect x="162.5" y="159.57142857142858" width="14.285714285714286" height="4.873015873015845" fill="rgb(65, 125, 224)"></rect><rect x="162.5" y="153.69841269841268" width="14.285714285714286" height="4.873015873015845" fill="rgb(65, 125, 224)"></rect><rect x="162.5" y="147.82539682539684" width="14.285714285714286" height="4.873015873015845" fill="rgb(65, 125, 224)"></rect><rect x="162.5" y="141.95238095238093" width="14.285714285714286" height="4.873015873015845" fill="rgb(65, 125, 224)"></rect><rect x="162.5" y="136.0793650793651" width="14.285714285714286" height="4.873015873015845" fill="rgb(65, 125, 224)"></rect><rect x="162.5" y="130.2063492063492" width="14.285714285714286" height="4.873015873015845" fill="rgb(65, 125, 224)"></rect><rect x="162.5" y="124.33333333333334" width="14.285714285714286" height="4.873015873015845" fill="rgb(65, 125, 224)"></rect><rect x="162.5" y="118.46031746031744" width="14.285714285714286" height="4.873015873015845" fill="rgb(65, 125, 224)"></rect><rect x="162.5" y="94.96825396825398" width="14.285714285714286" height="22.492063492063494" fill="rgb(175, 240, 91)"></rect><rect x="162.5" y="71.47619047619048" width="14.285714285714286" height="22.492063492063494" fill="rgb(175, 240, 91)"></rect><rect x="162.5" y="47.98412698412699" width="14.285714285714286" height="22.492063492063494" fill="rgb(175, 240, 91)"></rect><rect x="162.5" y="24.492063492063494" width="14.285714285714286" height="22.492063492063494" fill="rgb(175, 240, 91)"></rect><rect x="162.5" y="1" width="14.285714285714286" height="22.492063492063494" fill="rgb(175, 240, 91)"></rect></g><g><rect x="180.35714285714286" y="365.12698412698415" width="14.285714285714286" height="4.873015873015845" fill="rgb(65, 125, 224)"></rect><rect x="180.35714285714286" y="359.25396825396825" width="14.285714285714286" height="4.873015873015845" fill="rgb(65, 125, 224)"></rect><rect x="180.35714285714286" y="353.3809523809524" width="14.285714285714286" height="4.873015873015845" fill="rgb(65, 125, 224)"></rect><rect x="180.35714285714286" y="347.5079365079365" width="14.285714285714286" height="4.873015873015845" fill="rgb(65, 125, 224)"></rect><rect x="180.35714285714286" y="341.63492063492066" width="14.285714285714286" height="4.873015873015845" fill="rgb(65, 125, 224)"></rect><rect x="180.35714285714286" y="320.1005291005291" width="14.285714285714286" height="20.534391534391546" fill="rgb(135, 245, 87)"></rect><rect x="180.35714285714286" y="298.56613756613757" width="14.285714285714286" height="20.534391534391546" fill="rgb(135, 245, 87)"></rect><rect x="180.35714285714286" y="277.031746031746" width="14.285714285714286" height="20.534391534391546" fill="rgb(135, 245, 87)"></rect><rect x="180.35714285714286" y="255.4973544973545" width="14.285714285714286" height="20.534391534391546" fill="rgb(135, 245, 87)"></rect><rect x="180.35714285714286" y="233.96296296296296" width="14.285714285714286" height="20.534391534391546" fill="rgb(135, 245, 87)"></rect><rect x="180.35714285714286" y="212.42857142857144" width="14.285714285714286" height="20.534391534391546" fill="rgb(135, 245, 87)"></rect><rect x="180.35714285714286" y="190.8941798941799" width="14.285714285714286" height="20.534391534391546" fill="rgb(135, 245, 87)"></rect><rect x="180.35714285714286" y="169.35978835978835" width="14.285714285714286" height="20.534391534391546" fill="rgb(135, 245, 87)"></rect><rect x="180.35714285714286" y="147.82539682539684" width="14.285714285714286" height="20.534391534391546" fill="rgb(135, 245, 87)"></rect><rect x="180.35714285714286" y="126.29100529100529" width="14.285714285714286" height="20.534391534391546" fill="rgb(135, 245, 87)"></rect></g><g><rect x="198.21428571428572" y="365.12698412698415" width="14.285714285714286" height="4.873015873015845" fill="rgb(65, 125, 224)"></rect><rect x="198.21428571428572" y="359.25396825396825" width="14.285714285714286" height="4.873015873015845" fill="rgb(65, 125, 224)"></rect><rect x="198.21428571428572" y="353.3809523809524" width="14.285714285714286" height="4.873015873015845" fill="rgb(65, 125, 224)"></rect><rect x="198.21428571428572" y="339.67724867724866" width="14.285714285714286" height="12.703703703703695" fill="rgb(28, 219, 169)"></rect><rect x="198.21428571428572" y="325.97354497354496" width="14.285714285714286" height="12.703703703703695" fill="rgb(28, 219, 169)"></rect><rect x="198.21428571428572" y="312.26984126984127" width="14.285714285714286" height="12.703703703703695" fill="rgb(28, 219, 169)"></rect><rect x="198.21428571428572" y="292.6931216931217" width="14.285714285714286" height="18.576719576719597" fill="rgb(96, 247, 96)"></rect><rect x="198.21428571428572" y="273.1164021164021" width="14.285714285714286" height="18.576719576719597" fill="rgb(96, 247, 96)"></rect><rect x="198.21428571428572" y="253.53968253968253" width="14.285714285714286" height="18.576719576719597" fill="rgb(96, 247, 96)"></rect><rect x="198.21428571428572" y="230.04761904761907" width="14.285714285714286" height="22.492063492063494" fill="rgb(175, 240, 91)"></rect><rect x="198.21428571428572" y="206.55555555555557" width="14.285714285714286" height="22.492063492063494" fill="rgb(175, 240, 91)"></rect><rect x="198.21428571428572" y="183.06349206349208" width="14.285714285714286" height="22.492063492063494" fill="rgb(175, 240, 91)"></rect><rect x="198.21428571428572" y="159.57142857142858" width="14.285714285714286" height="22.492063492063494" fill="rgb(175, 240, 91)"></rect><rect x="198.21428571428572" y="143.9100529100529" width="14.285714285714286" height="14.661375661375644" fill="rgb(40, 234, 141)"></rect><rect x="198.21428571428572" y="120.41798941798942" width="14.285714285714286" height="22.492063492063494" fill="rgb(175, 240, 91)"></rect><rect x="198.21428571428572" y="96.92592592592592" width="14.285714285714286" height="22.492063492063494" fill="rgb(175, 240, 91)"></rect></g><g><rect x="216.07142857142856" y="357.2962962962963" width="14.285714285714286" height="12.703703703703695" fill="rgb(28, 219, 169)"></rect><rect x="216.07142857142856" y="343.5925925925926" width="14.285714285714286" height="12.703703703703695" fill="rgb(28, 219, 169)"></rect><rect x="216.07142857142856" y="329.8888888888889" width="14.285714285714286" height="12.703703703703695" fill="rgb(28, 219, 169)"></rect><rect x="216.07142857142856" y="316.1851851851852" width="14.285714285714286" height="12.703703703703695" fill="rgb(28, 219, 169)"></rect></g><g><rect x="233.92857142857142" y="365.12698412698415" width="14.285714285714286" height="4.873015873015845" fill="rgb(65, 125, 224)"></rect></g><path class="graph" fill="none" stroke="orange" stroke-width="1.5" d="M8.92857142857142,166.50000000000003L26.785714285714278,165.37878787878785L44.64285714285714,169.58333333333334L62.49999999999999,195.27777777777777L80.35714285714285,277.5L98.21428571428571,277.5L116.07142857142856,189.4047619047619L133.92857142857142,128.47222222222223L151.78571428571428,151.59722222222223L169.64285714285714,248.59375L187.5,113.05555555555554L205.35714285714286,100.20833333333337L223.2142857142857,154.16666666666666L241.07142857142856,277.5"></path><path class="chosenDur" fill="none" stroke="gray" stroke-width="0.4" d="M8.92857142857142,0L26.785714285714278,0L44.64285714285714,0L62.49999999999999,0L80.35714285714285,0L98.21428571428571,0L116.07142857142856,0L133.92857142857142,0L151.78571428571428,0L169.64285714285714,0L187.5,0L205.35714285714286,0L223.2142857142857,0L241.07142857142856,0"></path></g><g class="beschriftung"><text font-size="11px" fill="black" x="125" y="-20" style="font-weight: bold; text-anchor: middle;">Person A: Totale Dauer &amp; Animationszahl pro Aufgabe</text><g transform="translate(310, -5)"><text font-size="11px" fill="black" x="0" y="-5" dy="-0.4ex">Dauer in s</text><rect x="0" y="0" width="15" height="10" fill="rgb(175, 240, 91)"></rect><rect x="0" y="12" width="15" height="10" fill="rgb(135, 245, 87)"></rect><rect x="0" y="24" width="15" height="10" fill="rgb(96, 247, 96)"></rect><rect x="0" y="36" width="15" height="10" fill="rgb(64, 243, 115)"></rect><rect x="0" y="48" width="15" height="10" fill="rgb(40, 234, 141)"></rect><rect x="0" y="60" width="15" height="10" fill="rgb(28, 219, 169)"></rect><rect x="0" y="72" width="15" height="10" fill="rgb(26, 199, 194)"></rect><rect x="0" y="84" width="15" height="10" fill="rgb(33, 176, 213)"></rect><rect x="0" y="96" width="15" height="10" fill="rgb(47, 150, 224)"></rect><rect x="0" y="108" width="15" height="10" fill="rgb(65, 125, 224)"></rect><rect x="0" y="120" width="15" height="10" fill="rgb(84, 101, 214)"></rect><rect x="0" y="132" width="15" height="10" fill="rgb(99, 81, 195)"></rect><rect x="0" y="151.2" width="15" height="2" fill="orange"></rect><rect x="0" y="164.39999999999998" width="15" height="0.4" fill="gray"></rect><text class="legende" font-size="11px" fill="black" x="20" y="12" dy="-0.5ex">3 s</text><text class="legende" font-size="11px" fill="black" x="20" y="24" dy="-0.5ex">2.75 s</text><text class="legende" font-size="11px" fill="black" x="20" y="36" dy="-0.5ex">2.5 s</text><text class="legende" font-size="11px" fill="black" x="20" y="48" dy="-0.5ex">2.25 s</text><text class="legende" font-size="11px" fill="black" x="20" y="60" dy="-0.5ex">2 s</text><text class="legende" font-size="11px" fill="black" x="20" y="72" dy="-0.5ex">1.75 s</text><text class="legende" font-size="11px" fill="black" x="20" y="84" dy="-0.5ex">1.5 s</text><text class="legende" font-size="11px" fill="black" x="20" y="96" dy="-0.5ex">1.25 s</text><text class="legende" font-size="11px" fill="black" x="20" y="108" dy="-0.5ex">1 s</text><text class="legende" font-size="11px" fill="black" x="20" y="120" dy="-0.5ex">0.75 s</text><text class="legende" font-size="11px" fill="black" x="20" y="132" dy="-0.5ex">0.5 s</text><text class="legende" font-size="11px" fill="black" x="20" y="144" dy="-0.5ex">0.25 s</text><text class="legende" font-size="11px" fill="black" x="20" y="156" dy="-0.2ex">Mittel</text><text class="legende" font-size="11px" fill="black" x="20" y="168" dy="-0.2ex">fav. Dauer</text></g><text class="total" x="8.92857142857142" y="240.7936507936508" font-size="11px" fill="black" style="text-anchor: middle;" dy="-0.5ex">10</text><text class="total" x="26.785714285714278" y="227.0899470899471" font-size="11px" fill="black" style="text-anchor: middle;" dy="-0.5ex">11</text><text class="total" x="44.64285714285714" y="166.4021164021164" font-size="11px" fill="black" style="text-anchor: middle;" dy="-0.5ex">16</text><text class="total" x="62.49999999999999" y="303.4391534391534" font-size="11px" fill="black" style="text-anchor: middle;" dy="-0.5ex">6</text><text class="total" x="80.35714285714285" y="340.63492063492066" font-size="11px" fill="black" style="text-anchor: middle;" dy="-0.5ex">5</text><text class="total" x="98.21428571428571" y="340.63492063492066" font-size="11px" fill="black" style="text-anchor: middle;" dy="-0.5ex">5</text><text class="total" x="116.07142857142856" y="289.7354497354497" font-size="11px" fill="black" style="text-anchor: middle;" dy="-0.5ex">7</text><text class="total" x="133.92857142857142" y="185.978835978836" font-size="11px" fill="black" style="text-anchor: middle;" dy="-0.5ex">12</text><text class="total" x="151.78571428571428" y="203.5978835978836" font-size="11px" fill="black" style="text-anchor: middle;" dy="-0.5ex">12</text><text class="total" x="169.64285714285714" y="0" font-size="11px" fill="black" style="text-anchor: middle;" dy="-0.5ex">48</text><text class="total" x="187.5" y="125.29100529100529" font-size="11px" fill="black" style="text-anchor: middle;" dy="-0.5ex">15</text><text class="total" x="205.35714285714286" y="95.92592592592592" font-size="11px" fill="black" style="text-anchor: middle;" dy="-0.5ex">16</text><text class="total" x="223.2142857142857" y="315.1851851851852" font-size="11px" fill="black" style="text-anchor: middle;" dy="-0.5ex">4</text><text class="total" x="241.07142857142856" y="364.12698412698415" font-size="11px" fill="black" style="text-anchor: middle;" dy="-0.5ex">1</text></g><g class="x axis" transform="translate(0,370)" fill="none" font-size="10" font-family="sans-serif" text-anchor="middle"><path class="domain" stroke="currentColor" d="M0.5,6V0.5H250.5V6"></path><g class="tick" opacity="1" transform="translate(8.92857142857142,0)"><line stroke="currentColor" y2="6"></line><text fill="black" y="9" dy=".71em" transform="translate(0,1)" font-size="11px" style="text-anchor: middle;">1</text></g><g class="tick" opacity="1" transform="translate(26.785714285714278,0)"><line stroke="currentColor" y2="6"></line><text fill="black" y="9" dy=".71em" transform="translate(0,1)" font-size="11px" style="text-anchor: middle;">2</text></g><g class="tick" opacity="1" transform="translate(44.64285714285714,0)"><line stroke="currentColor" y2="6"></line><text fill="black" y="9" dy=".71em" transform="translate(0,1)" font-size="11px" style="text-anchor: middle;">3</text></g><g class="tick" opacity="1" transform="translate(62.49999999999999,0)"><line stroke="currentColor" y2="6"></line><text fill="black" y="9" dy=".71em" transform="translate(0,1)" font-size="11px" style="text-anchor: middle;">4</text></g><g class="tick" opacity="1" transform="translate(80.35714285714285,0)"><line stroke="currentColor" y2="6"></line><text fill="black" y="9" dy=".71em" transform="translate(0,1)" font-size="11px" style="text-anchor: middle;">5</text></g><g class="tick" opacity="1" transform="translate(98.21428571428571,0)"><line stroke="currentColor" y2="6"></line><text fill="black" y="9" dy=".71em" transform="translate(0,1)" font-size="11px" style="text-anchor: middle;">6</text></g><g class="tick" opacity="1" transform="translate(116.07142857142856,0)"><line stroke="currentColor" y2="6"></line><text fill="black" y="9" dy=".71em" transform="translate(0,1)" font-size="11px" style="text-anchor: middle;">7</text></g><g class="tick" opacity="1" transform="translate(133.92857142857142,0)"><line stroke="currentColor" y2="6"></line><text fill="black" y="9" dy=".71em" transform="translate(0,1)" font-size="11px" style="text-anchor: middle;">8</text></g><g class="tick" opacity="1" transform="translate(151.78571428571428,0)"><line stroke="currentColor" y2="6"></line><text fill="black" y="9" dy=".71em" transform="translate(0,1)" font-size="11px" style="text-anchor: middle;">9</text></g><g class="tick" opacity="1" transform="translate(169.64285714285714,0)"><line stroke="currentColor" y2="6"></line><text fill="black" y="9" dy=".71em" transform="translate(0,1)" font-size="11px" style="text-anchor: middle;">10</text></g><g class="tick" opacity="1" transform="translate(187.5,0)"><line stroke="currentColor" y2="6"></line><text fill="black" y="9" dy=".71em" transform="translate(0,1)" font-size="11px" style="text-anchor: middle;">11</text></g><g class="tick" opacity="1" transform="translate(205.35714285714286,0)"><line stroke="currentColor" y2="6"></line><text fill="black" y="9" dy=".71em" transform="translate(0,1)" font-size="11px" style="text-anchor: middle;">12</text></g><g class="tick" opacity="1" transform="translate(223.2142857142857,0)"><line stroke="currentColor" y2="6"></line><text fill="black" y="9" dy=".71em" transform="translate(0,1)" font-size="11px" style="text-anchor: middle;">13</text></g><g class="tick" opacity="1" transform="translate(241.07142857142856,0)"><line stroke="currentColor" y2="6"></line><text fill="black" y="9" dy=".71em" transform="translate(0,1)" font-size="11px" style="text-anchor: middle;">14</text></g><text transform="translate(125, 23)" font-size="11px" fill="black" dy=".71em" style="text-anchor: middle;">Aufgaben-Nr.</text></g><g class="y axis" fill="none" font-size="10" font-family="sans-serif" text-anchor="end"><path class="domain" stroke="currentColor" d="M-6,370.5H0.5V0.5H-6"></path><g class="tick" opacity="1" transform="translate(0,370.5)"><line stroke="currentColor" x2="-6"></line><text fill="currentColor" x="-9" dy="0.32em">0</text></g><g class="tick" opacity="1" transform="translate(0,331.34656084656086)"><line stroke="currentColor" x2="-6"></line><text fill="currentColor" x="-9" dy="0.32em">5</text></g><g class="tick" opacity="1" transform="translate(0,292.1931216931217)"><line stroke="currentColor" x2="-6"></line><text fill="currentColor" x="-9" dy="0.32em">10</text></g><g class="tick" opacity="1" transform="translate(0,253.03968253968253)"><line stroke="currentColor" x2="-6"></line><text fill="currentColor" x="-9" dy="0.32em">15</text></g><g class="tick" opacity="1" transform="translate(0,213.8862433862434)"><line stroke="currentColor" x2="-6"></line><text fill="currentColor" x="-9" dy="0.32em">20</text></g><g class="tick" opacity="1" transform="translate(0,174.73280423280426)"><line stroke="currentColor" x2="-6"></line><text fill="currentColor" x="-9" dy="0.32em">25</text></g><g class="tick" opacity="1" transform="translate(0,135.5793650793651)"><line stroke="currentColor" x2="-6"></line><text fill="currentColor" x="-9" dy="0.32em">30</text></g><g class="tick" opacity="1" transform="translate(0,96.42592592592592)"><line stroke="currentColor" x2="-6"></line><text fill="currentColor" x="-9" dy="0.32em">35</text></g><g class="tick" opacity="1" transform="translate(0,57.272486772486786)"><line stroke="currentColor" x2="-6"></line><text fill="currentColor" x="-9" dy="0.32em">40</text></g><g class="tick" opacity="1" transform="translate(0,18.11904761904765)"><line stroke="currentColor" x2="-6"></line><text fill="currentColor" x="-9" dy="0.32em">45</text></g><text transform="translate(-38,185) rotate(-90)" font-size="11px" fill="black" dy=".71em" style="text-anchor: middle;">Totale Dauer in sec</text></g><g class="y axis" transform="translate(250, 0)" fill="none" font-size="10" font-family="sans-serif" text-anchor="start"><path class="domain" stroke="currentColor" d="M6,370.5H0.5V0.5H6"></path><g class="tick" opacity="1" transform="translate(0,370.5)"><line stroke="currentColor" x2="6"></line><text fill="currentColor" x="9" dy="0.32em">0.0</text></g><g class="tick" opacity="1" transform="translate(0,345.8333333333333)"><line stroke="currentColor" x2="6"></line><text fill="currentColor" x="9" dy="0.32em">0.2</text></g><g class="tick" opacity="1" transform="translate(0,321.1666666666667)"><line stroke="currentColor" x2="6"></line><text fill="currentColor" x="9" dy="0.32em">0.4</text></g><g class="tick" opacity="1" transform="translate(0,296.5)"><line stroke="currentColor" x2="6"></line><text fill="currentColor" x="9" dy="0.32em">0.6</text></g><g class="tick" opacity="1" transform="translate(0,271.8333333333333)"><line stroke="currentColor" x2="6"></line><text fill="currentColor" x="9" dy="0.32em">0.8</text></g><g class="tick" opacity="1" transform="translate(0,247.16666666666669)"><line stroke="currentColor" x2="6"></line><text fill="currentColor" x="9" dy="0.32em">1.0</text></g><g class="tick" opacity="1" transform="translate(0,222.5)"><line stroke="currentColor" x2="6"></line><text fill="currentColor" x="9" dy="0.32em">1.2</text></g><g class="tick" opacity="1" transform="translate(0,197.83333333333334)"><line stroke="currentColor" x2="6"></line><text fill="currentColor" x="9" dy="0.32em">1.4</text></g><g class="tick" opacity="1" transform="translate(0,173.16666666666666)"><line stroke="currentColor" x2="6"></line><text fill="currentColor" x="9" dy="0.32em">1.6</text></g><g class="tick" opacity="1" transform="translate(0,148.5)"><line stroke="currentColor" x2="6"></line><text fill="currentColor" x="9" dy="0.32em">1.8</text></g><g class="tick" opacity="1" transform="translate(0,123.83333333333334)"><line stroke="currentColor" x2="6"></line><text fill="currentColor" x="9" dy="0.32em">2.0</text></g><g class="tick" opacity="1" transform="translate(0,99.16666666666663)"><line stroke="currentColor" x2="6"></line><text fill="currentColor" x="9" dy="0.32em">2.2</text></g><g class="tick" opacity="1" transform="translate(0,74.5)"><line stroke="currentColor" x2="6"></line><text fill="currentColor" x="9" dy="0.32em">2.4</text></g><g class="tick" opacity="1" transform="translate(0,49.833333333333314)"><line stroke="currentColor" x2="6"></line><text fill="currentColor" x="9" dy="0.32em">2.6</text></g><g class="tick" opacity="1" transform="translate(0,25.166666666666686)"><line stroke="currentColor" x2="6"></line><text fill="currentColor" x="9" dy="0.32em">2.8</text></g><g class="tick" opacity="1" transform="translate(0,0.5)"><line stroke="currentColor" x2="6"></line><text fill="currentColor" x="9" dy="0.32em">3.0</text></g><text transform="translate(38,185) rotate(-90)" font-size="11px" fill="black" dy="0em" style="text-anchor: middle;">Durchschnittl. Dauer pro Transition in sec</text></g></g></svg>