<?xml version="1.0" encoding="utf-8"?>
<!-- Generator: Adobe Illustrator 21.1.0, SVG Export Plug-In . SVG Version: 6.00 Build 0)  -->
<svg version="1.0" id="Ebene_1" xmlns="http://www.w3.org/2000/svg" xmlns:xlink="http://www.w3.org/1999/xlink" x="0px" y="0px"
	 viewBox="0 0 500 500" style="enable-background:new 0 0 500 500;" xml:space="preserve">
<style type="text/css">
	.st0{opacity:0.8;fill:#2171B5;stroke:#FFFFFF;stroke-width:0.3;enable-background:new    ;}
</style>
<g>
	<polygon class="st0" points="417.3,335.8 416.1,332.2 414.8,329.9 413,327.7 411.2,330.2 411.2,333.3 408.3,336.9 406.3,336.2 
		406.9,338.5 405.4,341.1 401.1,344.3 398.2,347.4 396,347.4 394.2,348.3 391.3,349.4 388.8,349.7 388.1,353 386.3,355.9 
		386.8,360.9 387.7,364.2 388.8,366.9 388.3,370.3 385.9,374.3 385.9,376.3 383.6,377.2 382.7,381 383.2,385.1 385,389.6 
		385.2,394.5 386.8,397.4 390.8,399.4 393.7,400.8 398.2,398.5 402.2,397.2 404.5,390.7 406.5,383.1 409.6,372.5 412.1,365.1 
		414.1,358.8 414.3,354.4 415.9,353.2 416.4,351 415.2,347 416.4,345.4 417.9,348.5 418.8,347 419.5,344.5 418.1,342 	"/>
	<path class="st0" d="M422.9,206l-0.2-1.3h-2l-2.5,1.8l-2.7,0.4l-2.2,0.7h-1.6l-2.9,0.2l-1.8,0.9l-2.5,0.4l-4.5,1.6l-5.6,0.7
		l-4.7,1.3h-2.5l-2.2-2.2l-0.9-2.2l-1.6-0.9l-2.2-1.3l2.9-1.3l0.2-2.2l-1.1-1.6l-2.5-1.6l-1.6-1.8l-2.7-2.9l-2.9-2.9l-6.9-4.9
		l-2.7-2.5l-1.3-4.9l-2.9-6.3l-2.7-2l-2-1.3l-1.8-6.5l-0.7-5.6l1.1-0.9l-1.6-5.4l-0.9-1.1l-5.8-4.9l-0.2-3.6l1.1-0.9l-4.5-6.3
		l-1.6-3.1l-1.8-3.1l-3.8-9l-3.1-5.8l-2-6.1l0.4-0.4l3.6,8.3l2.2,2.5l1.8,1.8l1.1-0.9l1.3-2.9l1.1-4.5l1.3-2.2l-3.4-10.1l-2.5,1.6
		l-4-0.2l-4-1.3l-1.1,2l-1.3-2.9l-3.6-0.7l-4.5,0.4l-2,1.8l-3.8,1.8l-2.5-0.9l-5.2-1.8l-4.9-1.6H292l-1.3-2l-5.2-0.7l-1.6-1.1h-1.8
		l-1.8-2.7l-6.9-1.3l-4.5,0.7l-3.6,2.9l-1.6,2.9l1.1,4.5l-2.5,2.7l-2.5,1.6l-5.4-2.9l-7.2-2.5l-4.5-1.1l-2.5-5.4l-6.7-2.7l-4.3-1.1
		l-2.2,0.4l-6.1-2l-2-0.9l-1.3-2.9h-2.7l-0.9-3.4l3.4-3.1l0.7-5.4l-1.8-1.6V67l2.5-3.1l-0.4-1.1l-4.3,2.2l0.2-3.1l-3.6-0.7l-5.6,2.5
		l-3.6,0.4l-2-1.6h-5.4l-4.7,2.5l-2.5-0.9l-8.5,0.4l-8.5,1.1l-4.9,2l-3.1,2.7l-5.6,1.1l-4.9,3.4h-2.2l-5.4-1.3l-4.9,0.4l-3.1-2.7
		h-3.8l-1.6,3.8l-3.4,6.5l-3.8,2.5l-5.2,2.7l-3.4,4l-0.7,3.1l-2,5.2l1.3,7.4l-4.3,4.9l-2.5,1.6l-4,4l-4.7,0.7l-2.5,2.2l0,0l-3.1,5.8
		l-3.4,2l-1.8,3.6l-0.2,2.9l-1.3,3.4l-1.8,0.9l-2.9,3.6l-1.8,3.8l0.2,1.8l-0.9,2.7l-2,1.6l-0.2,2.5l-0.2,2.2l2.7,2.2l1.3,2.7
		l-0.4,2.7l0.7,2.7l0.7,5.4l-0.7,4.9l-1.3,2.7l0.4,2.9l1.8-1.8l2.5,0.4l2.5-1.1h2.9l2.5,1.6l3.4,1.3l3.1,3.8l3.4,3.6l0.2,3.4
		l0.9,2.9l1.8,1.6l0.4,2l-0.2,1.6l-0.7,0.2L101,202l-0.4,0.7l-1.1,0.2l-3.6-1.3h-2.5l-9.4-0.2l-1.3,0.7l-1.8-0.2l-2.7,0.9l0.2,1.1
		l1.6,1.1v0.9l1.1,1.6l2.2,0.4L86,210l1.6,0.9l0.7,1.1l0.7,2.2l1.3,1.1l1.3,0.7l2,2l2.2,3.1l0.7,3.8l0.9,1.8l2.7,2.7l3.6,2l1.3,0.4
		l3.4,3.4l4.3,2.7l4.7,3.8l5.2,2.5h1.3l0.9,0.2l4.9-1.8l3.6-1.6l6.1-0.9h3.4l3.6,0.9h2.2l4.5,1.3l4.5-1.6l2.9-1.8l8.1-2.9l4-1.1
		l4.3-0.7h4.5h3.8l3.6,3.4l1.6,3.6l2.7,3.1h4l2-1.1l2,0.2l5.4-1.8v1.3l1.3,0.7l1.1,2.2l2.2,0.9l2,3.4l-0.7,4l-1.8,5.6l0.9,0.7
		l-1.1,3.8l-1.3,3.8l-1.1,1.6l-0.2,1.8l3.1,5.2l3.4,4.3l5.2,5.2l4.3,5.4l1.3,3.8l0.7,1.6l-0.4,0.9l2.5,3.1l1.1,3.4l1.6,4.9l-1.8,2.5
		l-0.2,1.1l1.3,3.1l1.3,3.1l1.6,1.8l0.2,2.9l-0.4,3.8l-1.6,2.2l-2.9,3.4l-1.1,2.2l-1.6,4.7l-0.2,2.2l-1.8,4.9l-0.7,4.7l0.4,3.4
		l0.2,4l4,5.2l1.1,3.4l2.7,6.5l2.7,4.5l2,2.2l0.7,2.9l0.2,6.7l1.8,8.5l1.3,4l1.1,5.6l2,4.3l3.8,4.3l3.6,7.6l0,0l2.5,4.9l3.4,5.6
		l0.2,4.7l-1.6,1.1l1.6,4v3.6l0.7,1.6l0.2-0.9l2.2,2.7l1.8,0.2l2.2,2.2l2.2-0.2l3.1-2.2l4.3-0.9l5.2-2.5l2,0.2l3.1-0.7l5.6,1.1
		l2.5-1.1l3.1,0.9l0.7-1.8l2.7-0.2l5.4-2.5l3.8-2.7l3.6-3.6l5.8-6.3l2.9-4.3l1.3-2.9l2.2-2.9l0.9-0.9l3.4-2.9l1.3-2.7l0.7-4.7
		l1.3-4.3l0.4-2.9l-1.3-0.4l-0.4-2.5l2.2-2l6.1-3.1l4.3-1.8l2-2l0.7-2.2l-1.1-0.9l0.9-2.5l0.2-5.4l-0.9,0.2v-1.6l-0.9-3.1l-2.5-4
		l0.4-3.8l2-1.3l3.6-3.8l2-0.9l5.8-5.8l5.8-2.7l4.7-2l3.1-3.4l2-3.6l1.6-3.8l-0.9-2.5l-0.2-8.1l-0.7-4.5l0.2-5.2l-0.9-2.2l-1.8-1.1
		l-2-5.2l-1.8-3.1l0.2-2.5l-0.2-1.6l1.3-3.1l-0.2-1.3l-3.4-1.8l-0.2-2.9l2.2-6.3l2-1.8l0.9-3.4l1.6-2l0.7-3.6l2-0.4l1.3-2l3.6-2
		l1.1-1.1l1.1-2.7l5.6-6.1l4.7-3.8l7.6-5.2l5.2-4l6.1-6.9l4.3-5.6l4.3-7.4l3.1-6.5l2.5-5.8l1.3-5.6l1.1-1.8v-2.7L422.9,206z
		 M335.4,217.2v4.7v-4V217.2z M318,280.4v-0.2V280.4l0.4,0.7L318,280.4z M319.1,308.6l2,1.3L319.1,308.6L319.1,308.6z"/>
</g>
</svg>
