<?xml version="1.0" encoding="UTF-8" standalone="no"?>
<svg width="100%" height="100%" viewBox="0 0 348 394" version="1.1" xmlns="http://www.w3.org/2000/svg">
    <g transform="matrix(1,0,0,1,-75.8,-61.2)">
        <g>
            <path d="M417.3,335.8L416.1,332.2L414.8,329.9L413,327.7L411.2,330.2L411.2,333.3L408.3,336.9L406.3,336.2L406.9,338.5L405.4,341.1L401.1,344.3L398.2,347.4L396,347.4L394.2,348.3L391.3,349.4L388.8,349.7L388.1,353L386.3,355.9L386.8,360.9L387.7,364.2L388.8,366.9L388.3,370.3L385.9,374.3L385.9,376.3L383.6,377.2L382.7,381L383.2,385.1L385,389.6L385.2,394.5L386.8,397.4L390.8,399.4L393.7,400.8L398.2,398.5L402.2,397.2L404.5,390.7L406.5,383.1L409.6,372.5L412.1,365.1L414.1,358.8L414.3,354.4L415.9,353.2L416.4,351L415.2,347L416.4,345.4L417.9,348.5L418.8,347L419.5,344.5L418.1,342L417.3,335.8Z" style="fill-rule:nonzero;"/>
            <path d="M422.9,206L422.7,204.7L420.7,204.7L418.2,206.5L415.5,206.9L413.3,207.6L411.7,207.6L408.8,207.8L407,208.7L404.5,209.1L400,210.7L394.4,211.4L389.7,212.7L387.2,212.7L385,210.5L384.1,208.3L382.5,207.4L380.3,206.1L383.2,204.8L383.4,202.6L382.3,201L379.8,199.4L378.2,197.6L375.5,194.7L372.6,191.8L365.7,186.9L363,184.4L361.7,179.5L358.8,173.2L356.1,171.2L354.1,169.9L352.3,163.4L351.6,157.8L352.7,156.9L351.1,151.5L350.2,150.4L344.4,145.5L344.2,141.9L345.3,141L340.8,134.7L339.2,131.6L337.4,128.5L333.6,119.5L330.5,113.7L328.5,107.6L328.9,107.2L332.5,115.5L334.7,118L336.5,119.8L337.6,118.9L338.9,116L340,111.5L341.3,109.3L337.9,99.2L335.4,100.8L331.4,100.6L327.4,99.3L326.3,101.3L325,98.4L321.4,97.7L316.9,98.1L314.9,99.9L311.1,101.7L308.6,100.8L303.4,99L298.5,97.4L292,97.4L290.7,95.4L285.5,94.7L283.9,93.6L282.1,93.6L280.3,90.9L273.4,89.6L268.9,90.3L265.3,93.2L263.7,96.1L264.8,100.6L262.3,103.3L259.8,104.9L254.4,102L247.2,99.5L242.7,98.4L240.2,93L233.5,90.3L229.2,89.2L227,89.6L220.9,87.6L218.9,86.7L217.6,83.8L214.9,83.8L214,80.4L217.4,77.3L218.1,71.9L216.3,70.3L216.3,67L218.8,63.9L218.4,62.8L214.1,65L214.3,61.9L210.7,61.2L205.1,63.7L201.5,64.1L199.5,62.5L194.1,62.5L189.4,65L186.9,64.1L178.4,64.5L169.9,65.6L165,67.6L161.9,70.3L156.3,71.4L151.4,74.8L149.2,74.8L143.8,73.5L138.9,73.9L135.8,71.2L132,71.2L130.4,75L127,81.5L123.2,84L118,86.7L114.6,90.7L113.9,93.8L111.9,99L113.2,106.4L108.9,111.3L106.4,112.9L102.4,116.9L97.7,117.6L95.2,119.8L92.1,125.6L88.7,127.6L86.9,131.2L86.7,134.1L85.4,137.5L83.6,138.4L80.7,142L78.9,145.8L79.1,147.6L78.2,150.3L76.2,151.9L76,154.4L75.8,156.6L78.5,158.8L79.8,161.5L79.4,164.2L80.1,166.9L80.8,172.3L80.1,177.2L78.8,179.9L79.2,182.8L81,181L83.5,181.4L86,180.3L88.9,180.3L91.4,181.9L94.8,183.2L97.9,187L101.3,190.6L101.5,194L102.4,196.9L104.2,198.5L104.6,200.5L104.4,202.1L103.7,202.3L101,202L100.6,202.7L99.5,202.9L95.9,201.6L93.4,201.6L84,201.4L82.7,202.1L80.9,201.9L78.2,202.8L78.4,203.9L80,205L80,205.9L81.1,207.5L83.3,207.9L86,210L87.6,210.9L88.3,212L89,214.2L90.3,215.3L91.6,216L93.6,218L95.8,221.1L96.5,224.9L97.4,226.7L100.1,229.4L103.7,231.4L105,231.8L108.4,235.2L112.7,237.9L117.4,241.7L122.6,244.2L123.9,244.2L124.8,244.4L129.7,242.6L133.3,241L139.4,240.1L142.8,240.1L146.4,241L148.6,241L153.1,242.3L157.6,240.7L160.5,238.9L168.6,236L172.6,234.9L176.9,234.2L185.2,234.2L188.8,237.6L190.4,241.2L193.1,244.3L197.1,244.3L199.1,243.2L201.1,243.4L206.5,241.6L206.5,242.9L207.8,243.6L208.9,245.8L211.1,246.7L213.1,250.1L212.4,254.1L210.6,259.7L211.5,260.4L210.4,264.2L209.1,268L208,269.6L207.8,271.4L210.9,276.6L214.3,280.9L219.5,286.1L223.8,291.5L225.1,295.3L225.8,296.9L225.4,297.8L227.9,300.9L229,304.3L230.6,309.2L228.8,311.7L228.6,312.8L231.2,319L232.8,320.8L233,323.7L232.6,327.5L231,329.7L228.1,333.1L227,335.3L225.4,340L225.2,342.2L223.4,347.1L222.7,351.8L223.1,355.2L223.3,359.2L227.3,364.4L228.4,367.8L231.1,374.3L233.8,378.8L235.8,381L236.5,383.9L236.7,390.6L238.5,399.1L239.8,403.1L240.9,408.7L242.9,413L246.7,417.3L250.3,424.9L252.8,429.8L256.2,435.4L256.4,440.1L254.8,441.2L256.4,445.2L256.4,448.8L257.1,450.4L257.3,449.5L259.5,452.2L261.3,452.4L263.5,454.6L265.7,454.4L268.8,452.2L273.1,451.3L278.3,448.8L280.3,449L283.4,448.3L289,449.4L291.5,448.3L294.6,449.2L295.3,447.4L298,447.2L303.4,444.7L307.2,442L310.8,438.4L316.6,432.1L319.5,427.8L320.8,424.9L323,422L323.9,421.1L327.3,418.2L328.6,415.5L329.3,410.8L330.6,406.5L331,403.6L329.7,403.2L329.3,400.7L331.5,398.7L337.6,395.6L341.9,393.8L343.9,391.8L344.6,389.6L343.5,388.7L344.4,386.2L344.6,380.8L343.7,381L343.7,379.4L342.8,376.3L340.3,372.3L340.7,368.5L342.7,367.2L346.3,363.4L348.3,362.5L354.1,356.7L359.9,354L364.6,352L367.7,348.6L369.7,345L371.3,341.2L370.4,338.7L370.2,330.6L369.5,326.1L369.7,320.9L368.8,318.7L367,317.6L365,312.4L363.2,309.3L363.4,306.8L363.2,305.2L364.5,302.1L364.3,300.8L360.9,299L360.7,296.1L362.9,289.8L364.9,288L365.8,284.6L367.4,282.6L368.1,279L370.1,278.6L371.4,276.6L375,274.6L376.1,273.5L377.2,270.8L382.8,264.7L387.5,260.9L395.1,255.7L400.3,251.7L406.4,244.8L410.7,239.2L415,231.8L418.1,225.3L420.6,219.5L421.9,213.9L423,212.1L423,209.4L422.9,206ZM335.4,217.2L335.4,221.9L335.4,217.9L335.4,217.2ZM318,280.4L318,280.2L318,280.4L318.4,281.1L318,280.4ZM319.1,308.6L321.1,309.9L319.1,308.6Z" style="fill-rule:nonzero;"/>
        </g>
    </g>
</svg>
