<?xml version="1.0" encoding="UTF-8" standalone="no"?>
<svg width="100%" height="100%" viewBox="0 0 383 387" version="1.1" xmlns="http://www.w3.org/2000/svg">
    <g transform="matrix(1,0,0,1,-63.1,-55.4)">
        <g>
            <path d="M269.3,344.9L270.3,343.8L269.8,342.9L268.5,342.8L266,343.5L264.9,344.6L265,346.7L266.9,347.4L268.9,346.3L269.3,344.9Z" style="fill-rule:nonzero;"/>
            <path d="M422.6,429.8L421.6,429.5L420.7,430.3L420.9,431.3L422.2,431.6L423.6,431.3L424,430.1L423.2,429.4L422.6,429.8Z" style="fill-rule:nonzero;"/>
            <path d="M424.8,427.2L423.7,427.7L424,428.6L425.5,428.1L426.8,427.6L426.8,426.4L425.5,427.1L424.8,427.2Z" style="fill-rule:nonzero;"/>
            <path d="M304.8,397.7L306.4,398.1L307.2,397.3L306.7,396.6L304.4,396.7L304.8,397.7Z" style="fill-rule:nonzero;"/>
            <path d="M292.9,392.6L290.9,390.6L291.2,388.9L293.2,388.6L297,388.5L299.2,388.9L300.9,388.5L302.7,386.2L302.2,385.8L300,387.4L297.4,387.5L294.5,387.2L292.7,386.5L290.8,388.2L290.3,389.1L289.2,392.5L288.9,394.3L288,395.8L288.7,397.4L289.7,397.4L290.1,399.6L289.4,401.7L290.4,402.4L291.8,402.1L291.7,398.8L291.5,396.1L292.9,395.4L292.7,397.6L294.3,398.9L294,399.8L294.6,400.4L296.8,399.5L295.7,401.4L296.6,402.2L297.8,401.5L297.8,400L295.8,397.4L296.2,396.6L294.1,393.7L296.1,392.8L297.1,391.5L298.1,391.8L298.3,390.8L294.1,391.6L292.9,392.6Z" style="fill-rule:nonzero;"/>
            <path d="M299.8,410.6L298.8,412L298.6,412.8L298.9,413.1L300.8,412.6L302.2,410.9L302.2,410.2L302,409.7L299.8,410.6Z" style="fill-rule:nonzero;"/>
            <path d="M309.8,391.3L308.9,390.1L309.2,388.7L310.4,388.9L310.5,386.9L310.4,386.1L309.1,385.9L308.9,384.7L308.1,385.5L307.6,387.3L308.3,390.2L309.2,391.6L309.8,391.3Z" style="fill-rule:nonzero;"/>
            <path d="M311.9,395.9L309.1,396L308.6,397.2L310.2,397.3L311.5,397.1L313.4,397.3L315.3,398.2L314.5,396.5L311.9,395.9Z" style="fill-rule:nonzero;"/>
            <path d="M323.2,402.7L322.8,403.5L323,405.2L324.2,403.6L324.2,402.6L323.7,401.9L323.2,402.7Z" style="fill-rule:nonzero;"/>
            <path d="M293.9,409L292.5,408.3L290.7,408.8L290.7,409.6L293.7,409.9L297.1,409.2L297.4,407.9L295.4,408.8L293.9,409Z" style="fill-rule:nonzero;"/>
            <path d="M274.8,406.7L274,405.2L269.8,404.1L269.3,405L265,404.8L264.6,404.1L263.7,403.9L261.9,403L259.1,402.9L257.5,405.1L259.6,405.3L260,406.3L264.1,407.2L265,406.9L266.7,407.1L269.3,408L271.4,408.4L273.8,408.6L275.9,408.5L278.4,409.4L281,408.5L278.2,407.1L274.8,406.7Z" style="fill-rule:nonzero;"/>
            <path d="M286.5,384.5L285.7,383.5L287,378.4L288.5,378.3L288.7,377.4L286.8,376.7L285.3,376.1L285.2,375.1L284,373.9L283.1,373.9L282,375.7L280.3,377.3L278.2,376.9L280.1,379.9L279,379.8L278.5,380.6L277.5,379.4L276.4,380.8L274.8,382.6L272.1,383.1L271.1,383.5L270.6,385.4L268.8,385.8L267.1,385L267.1,385.3L266,386.6L265.7,388.7L266,390.7L267.1,392.6L268.2,393.2L268.5,396.2L270.4,396.5L271.9,396.4L272.7,397.5L275.4,396.7L276.5,397.4L278.1,397.5L279,398.9L281.6,397.9L281.9,398.7L282.8,395.2L282.9,392.9L285.1,391.3L285,389.2L285.8,387.7L288.5,387.4L286,385.3L286.5,384.5Z" style="fill-rule:nonzero;"/>
            <path d="M290.5,410.7L288.4,411.2L291.4,412.8L292.4,412.8L292.5,412.1L291.7,411.4L290.5,410.7Z" style="fill-rule:nonzero;"/>
            <path d="M288.2,408.3L286.8,408.5L286,407.9L285.4,408.8L284.2,408.8L283.4,410.1L284.6,410.1L286.2,409.8L288.8,409.3L288.2,408.3Z" style="fill-rule:nonzero;"/>
            <path d="M336.8,280.2L335.7,282.6L336,285.6L338.5,285.6L339.7,282.3L343.3,284.4L345.3,281.3L348.7,280.4L348.2,276.9L346.6,278.2L345,277.5L343.3,276.4L340.6,273.1L339.9,275.6L339.2,280L336.8,280.2Z" style="fill-rule:nonzero;"/>
            <path d="M333.6,296.9L330.3,299.8L328.8,298.4L326.4,303.4L324,302.8L319.5,303.6L317.8,305.5L315.5,306.9L314.3,308.6L312.2,309.4L313.1,311.3L314.5,312.1L313.9,314.5L315,315.5L316.5,314.4L318,309.8L315.7,307.8L318.4,307.7L321.1,306.4L322.2,306.2L321.4,307.3L320.1,307L318.8,308.6L318.8,309.9L320.3,310.7L320.9,309.1L322.1,308.5L323,309.4L324.3,307.8L324,306.9L322.5,306.2L325,305.8L325.1,307.9L326.6,308.9L329.8,305.8L333.8,305.6L336.7,304.3L337.9,302.3L337.5,300.9L338.4,298.6L338.3,295.9L340.4,293L340.5,290.6L339.3,286.4L336.9,287L335.9,288.9L336.3,292.2L334.9,295.8L333.6,296.9Z" style="fill-rule:nonzero;"/>
            <path d="M394.6,438.4L394,437.6L393,436.8L391.7,436L390.7,436L391,436.8L392.5,438.5L394,439.8L395.6,440.9L396.8,441.6L397.7,441L396.5,439.9L394.6,438.4Z" style="fill-rule:nonzero;"/>
            <path d="M295,362.3L295.4,363.4L295.2,364.6L295.3,365.7L296.7,365L297.8,364L297.8,363L296.4,363L295,362.3Z" style="fill-rule:nonzero;"/>
            <path d="M297.6,364.8L297.3,366.2L296.7,366.8L296.2,367.4L297.6,369L298.3,368.3L299,366.8L299.8,366L300.2,364.1L298.5,366.3L298.9,364.7L297.6,364.8Z" style="fill-rule:nonzero;"/>
            <path d="M298.4,369.7L297.2,370.6L295.8,371.2L294.9,373.1L295.3,373.8L297,372.5L298.1,372.6L298.8,371.7L300.2,372.8L299.5,373.9L300.1,375.6L302.8,376.9L303.5,375.8L302.8,374.1L303.9,372.9L304.7,375.2L305.5,373.1L305.4,371.8L305.2,370.3L304.8,369.5L304.6,368.3L302.8,367.2L302.9,369L301.3,369.1L300.9,370.1L299.2,370.7L298.4,369.7Z" style="fill-rule:nonzero;"/>
            <path d="M288.6,366.7L290.1,365.4L289.7,363.5L288.5,365.8L287.1,367.4L285.5,368.8L284.4,370.4L287.4,368.2L288.6,366.7Z" style="fill-rule:nonzero;"/>
            <path d="M303.9,364.2L303.3,361.6L302.5,360.8L300.3,360.7L301.7,362.5L301.7,363.4L300.4,363.2L300.8,364.6L301.5,364.7L301.6,366.3L302.7,365.8L302.1,364.4L302.1,363.6L303.9,364.2Z" style="fill-rule:nonzero;"/>
            <path d="M290.6,354.2L290.9,355.2L292,356.5L292.3,355.7L293,356.2L292.3,356.8L292.2,357.8L293.3,358.3L295.4,358L296.8,359.4L297.4,358.5L298.2,359.7L300,360.8L300.2,359.7L299.5,359.1L299.7,358L296.9,356.7L295.9,357L294.7,356.7L294.2,354.8L294.6,352.9L295.9,352.1L296.5,350.1L295.7,348.4L296.1,347.4L295.9,346.8L295.2,347.4L293.8,346.7L292.3,346.8L291.6,349L291.4,352.7L290.5,351.9L290.6,354.2Z" style="fill-rule:nonzero;"/>
            <path d="M291.4,358.5L292.6,360.3L293.6,361.5L294.2,359.5L293.3,358.6L291.4,358.5Z" style="fill-rule:nonzero;"/>
            <path d="M365,397.8L364.1,396.8L363.1,396.3L362.3,395.8L361.1,395.2L360.5,395.7L362.1,396.4L363.4,397.4L364.4,398.1L364.9,399L365.3,400.3L366,399.7L365.9,398.5L365,397.8Z" style="fill-rule:nonzero;"/>
            <path d="M370.3,402.1L369.6,401.6L369.4,400.9L369.1,401.1L369.6,402.8L370.6,404.2L371.6,405.1L372.2,404.9L372.5,404.3L371.4,403.5L370.3,402.1Z" style="fill-rule:nonzero;"/>
            <path d="M362.1,398.8L362.3,400.1L361,400.9L360.4,401.7L359.1,401.9L358.9,400.7L358.6,400.8L358.3,401.9L357.1,402.1L355.1,401.8L354.9,402.5L356.2,403.1L358.1,403.8L359.3,403.8L360.5,403.3L361.7,402.7L362.1,402.1L363.3,401.9L364,400.5L364,399.2L363.5,398.8L362.1,398.8Z" style="fill-rule:nonzero;"/>
            <path d="M358.3,411.8L359,411.4L357.2,411L357.3,410L356,410.1L354.5,407.7L352.5,406.2L352,404.6L354.1,404.4L353.5,403.2L349.7,401.8L349.4,400.5L348.1,399.4L345.5,398.2L341.3,395.7L338.3,395.3L335.9,394.9L334.2,394.1L332.3,393.3L330.3,393.3L327.7,394.7L325.8,397.1L323.5,395.7L322.9,392L322.2,391.3L318.6,390.4L317.4,391.1L314.3,391.6L315.3,392.7L317.3,393.1L318.2,394.5L321.5,394.5L321.7,395.1L320.1,395.1L317.7,395.9L319.4,397L319.4,398L319.9,398.8L320.8,398.6L321.5,397.5L324.9,399.6L326.8,399.8L331.2,401.7L332.3,403.6L332.9,406.1L331.5,406.7L330.5,408.6L333.4,408.5L334,407.8L336.3,408.3L338.3,410.2L340.5,411.3L342,410.7L343.8,409.9L343.5,408.2L344.9,407.4L346.8,406.7L349.8,407.7L351,409.7L352.3,411L354.1,412.5L356.4,412.8L358.3,413.1L358.9,413.7L360.4,413.5L360.7,412.8L358.3,411.8Z" style="fill-rule:nonzero;"/>
            <path d="M339.7,251L341,254.6L340.9,259.3L340.4,261.9L340.7,265.6L340.4,268.9L340.8,271.7L342.3,269.2L344,271.2L344.1,268.9L341.9,265.5L343.3,260.5L346.7,261.6L344.4,255.4L343.4,251.7L343.5,248.1L342.7,244.4L342.1,241.8L341.1,242.3L342,244.1L339.9,245.9L339.7,251Z" style="fill-rule:nonzero;"/>
            <path d="M69.1,239.4L66.7,238.7L63.6,240L63.1,241.7L65.9,242.1L70.1,242L69.9,241.1L70.1,240L69.1,239.4Z" style="fill-rule:nonzero;"/>
            <path d="M426.9,158.5L429.9,158.1L432.2,156.4L432.4,155.4L429.1,153.4L426.9,153.7L424,156.4L424.4,158.6L426.9,158.5Z" style="fill-rule:nonzero;"/>
            <path d="M338,136.3L335.8,139.5L336.2,139.9L340.9,140.8L344.3,140.7L344,138.6L340.8,135.5L338,136.3Z" style="fill-rule:nonzero;"/>
            <path d="M357.9,128.5L360.5,125.1L354.8,122.7L350.6,121.3L350.1,124.2L354.3,127.7L357.9,128.5Z" style="fill-rule:nonzero;"/>
            <path d="M337.5,127.2L345.9,127.4L347.7,120.8L339.4,115.8L333.4,115.4L330.4,117.2L329.2,123.5L333.7,129.2L337.5,127.2Z" style="fill-rule:nonzero;"/>
            <path d="M137.6,148.2L135.3,149.8L135.6,153.7L139.7,155.6L140.3,158.7L147.7,159.6L149,159L144.9,153.2L144.4,147.1L148,139.7L151.4,131.8L158.4,123.6L165.3,119.3L173.3,114.7L174.8,111.7L173.2,107.8L168.8,109.1L164.9,112.7L157.3,114.5L149.8,120.5L144.7,125.2L145.3,129.1L139.9,136.4L142,137.4L137.5,144.1L137.6,148.2Z" style="fill-rule:nonzero;"/>
            <path d="M441.6,186.3L435.4,185.4L435.9,189.6L434.4,188.2L434.7,184.4L428.8,178.5L423.6,174.2L423.6,173.8L420.4,171L413.9,167.9L409.2,168.3L402,166.4L401,169.3L402.8,173.4L400,175.4L396,169.7L391.7,170.4L387.4,169.1L383.4,169.3L380.4,170.6L377.6,168.7L377.9,163.8L376,161L371.5,159.9L362.3,161.2L356.4,155.8L354.5,151.5L334,146.6L331,149.9L332.6,156.7L328.9,155.7L327.2,157.7L322.8,155.5L318.9,157.4L315.3,154.2L313.1,161.6L309.5,158.8L306.7,153.1L308,150L307,145.1L303.3,140.9L299.7,140.9L294.9,139.5L294.8,145.6L285.3,144.4L284.7,140.7L277.4,139.4L273.8,140.7L272.8,142.8L271.6,137.6L269.6,139.1L266.2,137L263.4,135.8L265.1,133.3L271.1,128.5L273.6,125.9L274.2,121.2L272.4,117.7L267.3,113L260.7,112.9L258.6,115.3L258,110.4L253,108.6L256.1,106.1L252.2,102.7L246.8,107L244.6,111.3L244,115.5L239.8,115.3L234.7,120.3L232.8,118.2L226.8,119.1L226,121.7L220,122.9L215.6,127.4L213,127.6L210.4,133.3L212.2,137.7L207.3,138.8L201.8,138.4L197.9,140L198.1,148.3L200.1,154.5L195.9,150.3L191.2,150.7L187.4,153.6L188.4,158.8L186,157.5L186.9,150.5L185.7,146.3L184.6,146.5L185.1,151.9L181,156.8L183.9,162.5L182.1,169.2L182.6,172.8L185.1,173.3L184,177.4L185.3,180.9L183.3,183.7L182.7,186.6L180.2,188.1L179.3,190.1L176.7,189.3L181.1,181L182.1,176.9L179.6,173.1L180.1,164.1L179.4,159.3L178,157L180.2,151.1L179.7,146.9L173.7,144.9L172,146.4L170.5,153.2L166.3,159.7L166.4,161.9L167.6,167.2L166.9,170.3L169.6,170.9L169.7,172.3L172,175.6L170.5,178.8L162.3,171.7L159.2,169.7L152.5,167.7L151.3,169.9L153.7,173.6L151.1,177.7L148.5,174L145.1,176.6L140.8,176.8L139.2,178.9L136.4,178.3L138.6,174.5L136.9,174.2L129,179.5L124.3,182.4L123.7,186.1L120.2,187.3L118.4,185.3L118.4,182L121.3,181.3L120,177.9L113.7,175.9L115.4,179.7L114.3,183.3L116.2,186.8L114.9,190.7L112.8,188.7L110.7,188.4L105.4,193.9L106.9,197.9L105,199.2L99.5,195.9L98.1,197.9L99.5,200.2L99.2,202.7L97.4,201.4L94.5,199.8L94.4,194.3L94.3,191.7L90.6,187.6L92.3,186.9L102.4,191.2L106.1,189.7L108.6,186.7L108.5,182.8L106.8,180L98.2,173L92,171.5L88.3,167.6L86,169.9L82.1,172.5L80.3,173.1L80,177.5L83.5,181.5L81.4,185.9L84,192.3L82.5,197L84.5,200.9L83.6,204.3L87,207.7L86.1,210.2L84,213L79.1,219L81.5,221.2L78.9,223.7L79.2,224.5L77.6,227L78.3,231L77.3,232.3L78.4,233.3L78.6,235.3L79.3,237.7L81.7,238.7L82,239.7L83.2,239.2L85.4,240.2L85.6,242.1L85.1,243.2L86.5,245.8L87.4,246.5L87.3,247.2L88.5,248.1L89.2,249.1L88.3,249.9L86.5,249.8L86.1,250.2L86.6,251.4L87.2,253.8L88,253.9L88.6,253.1L89.3,253.3L91.7,252.9L93.1,255L92.5,255.7L92.7,256.8L94.5,257L95.3,258.6L95.3,259.3L98.2,260.6L99.9,260L101.3,261.7L102.6,261.7L105.9,262.8L105.9,263.8L105,265.6L105.5,267.5L105.1,268.6L102.9,268.8L101.7,269.7L101.6,271.2L103.6,270.7L103.7,271.4L100.4,272.8L101.7,274.1L99.8,276.8L98.1,277.3L100.1,279.2L102.7,280.4L105.6,283.1L105.9,282.7L106,282.7L105.9,282.9L106.7,283.9L108,284.3L109.3,285.4L109.9,287.5L109.6,288.8L111.8,288.5L112.1,288.7L109.7,288.8L107,290.4L105,290.1L102.4,290.6L99.1,289.4L95.4,287.1L91.6,287.2L89,288.1L86.3,290.1L82,289.7L81,292L77.5,292.1L75,294.9L76.4,296.3L75.3,298.6L77,300.2L78.3,303L80.8,302.9L83,304.4L84.6,304.1L85.1,302.9L87.5,303L89.3,304.5L92.7,304.2L94.3,302.6L96.2,303.3L97.6,303.1L96.7,304.2L97.5,305.5L96.9,306.6L97.1,308.7L98.1,308.8L98.5,309.9L97.3,310.9L96.7,312.4L96.7,313.5L96.4,313.9L98.9,315L104,313.6L103.7,315.7L99.2,317L101.5,319.6L100.7,320L100.3,320.9L98.6,321.3L98.1,322.2L97.1,323L94.6,322.6L94.3,323.6L94.2,324.5L93.8,325.9L94.9,325.9L97.5,329.8L98.4,331.7L99.1,332.3L99.7,333.6L99.6,334.2L100.3,335.6L101.5,336.1L102.6,337.1L103.9,339.8L103.8,341.3L104.1,343L105.6,345.3L106.6,345.7L108.2,347.4L108.8,349.4L110,351.4L111.2,352.3L111.4,353.2L112.1,353.9L112.4,354.9L112.5,354.8L112.6,355.7L112.3,356.2L112.5,357.3L112,357.4L112.7,358.4L113.1,360.1L113.5,360.8L113.4,362.1L114,363.5L115.6,363.6L116.3,363.3L117.4,363.4L117.8,362.8L118.4,362.6L118.9,362L119.5,361.9L121.4,361.8L122.8,361.4L124.1,360.4L124.8,360.5L125.8,360.4L127.8,358.7L131.4,357.6L133.7,356.6L133.8,355.8L134.2,354.8L135.8,354.2L135.5,353.3L136,354.4L137,354.3L138.5,353.5L139.8,353.7L140.9,353L140.9,352L141.8,351.4L143.2,351.4L143.7,350.9L143.9,349.7L145.3,348.8L146.3,348.8L146.5,348.5L146.2,346.9L146.6,345.7L147.1,345.1L148.1,345.2L148.9,343.5L150.1,343L150.5,342.3L151.3,340.8L151.3,340.3L150.5,340L149.9,339.2L148.9,337.8L147.6,337.3L145.9,337L144.6,336.1L140.7,329.5L141.5,329.1L143.2,328.6L144.3,329.1L145.3,332.2L147.9,332.5L150.4,333.1L161.8,333.1L166,332.6L167.8,334.5L168.5,336.3L170.1,336.9L169.8,337.2L172.5,339.3L173.2,340.3L172.1,341.2L175.1,344.2L176.7,344.5L180,343L180.4,345.3L180.4,348.2L181.1,351.3L182,355.9L184.1,359.1L184.5,360.6L185.1,363.5L186.3,365.7L187.1,366.8L188,369.1L189.1,372.3L191.2,374.4L192.1,373.7L192.9,372.1L195,371.4L194.3,370.6L195.3,368.8L196.5,368.7L196.5,364.8L197.5,362.6L197.4,360.7L196.9,357.7L197.6,355.9L198.7,355.8L200.7,355L201.8,354.4L201.8,353.3L204.1,351.7L205.8,350.2L208.3,347.4L211.6,345.8L212.8,344.4L212.7,342.6L215.5,342.1L217,342.1L217.3,341.2L218.4,341.4L219,341.7L219.3,341.3L220.3,341.8L221,340.4L220.8,339.4L222.9,339.5L223.8,340.9L224.2,342.1L224.9,344.6L226.6,346.5L227.9,346.8L227.6,347.7L229.4,350.5L229.9,352.7L229.1,355.6L230.5,356.2L231.8,356.4L234.4,354.7L235.9,353.5L236.9,355.5L237.3,358.5L238,361.3L238.8,362.3L238.2,373.5L238.6,374.8L239,373.5L240.1,374.6L241.3,375.9L241.7,377L242.4,377.7L242.9,378.7L242.7,380.2L241.7,379.4L239.7,377.2L236.2,376.8L234.7,376.7L234.9,377.9L237.3,380.4L239,381.7L240.2,383.6L242.2,385L243,386.8L243.7,388.8L245.7,390.7L247.4,393.9L248.5,395.6L250.2,397.5L251.2,398.9L254.1,400.8L256,402.7L258.5,402.7L258.7,398.8L259.3,396L258.2,394.6L256.5,394.4L255.7,393.1L255.3,391.5L254.5,391.4L253.2,390.6L254.1,388.7L252.4,387.7L251.1,385.8L249.9,384.8L249.7,384L249.9,383L249.8,381.5L248.8,380L247.5,378.6L247.3,378.5L246.1,377.3L244.7,377L243.4,375.7L243,373.7L242.1,371.6L240.6,371.5L240.4,369.8L241.1,367.8L241.9,365.6L246.8,364L248.2,364.7L248,363.6L256.5,360.7L259.6,361.3L259.6,361.4L259.3,364.2L255.5,366L256.5,367.4L254.1,367.6L252.1,368.5L253.8,369.8L253.2,371.4L254,372.9L256.8,370.8L258.7,368.9L261.3,367.4L263.2,365.9L263.5,361.8L262.5,357.5L261.1,355.6L259,354.1L256.9,351L255.2,348.5L255.7,346.8L257.6,344.5L260.6,342.4L260.4,342.3L261,342.1L264,342.9L263.5,343.8L266.2,342.9L268.6,342.5L271.8,341.3L273.1,340.1L273.9,340.9L275.3,339.8L277.9,339.5L281.1,337.4L284.2,335.1L286.3,332.1L288.1,328.8L289.8,326L291.1,325.8L291.7,323.8L292,321.7L290.7,320.9L290.2,319.5L291.6,318.8L291.6,316.8L290.1,314.7L288.7,312.2L287.8,309.5L285.4,308L286.6,306.1L288.8,304.7L289.9,303.2L293.1,302.4L292.7,300.9L291.2,300.8L289.2,299.7L286.7,301.7L284.9,300.9L284.8,299.6L282.9,299.1L281.7,297.1L282.9,295.7L285.1,295.6L286.5,293.7L289.1,291.6L291.1,290.5L292.3,292.1L290.5,294.1L291,295.2L289.8,296.6L292.2,295.8L293.9,294.4L297.1,293.5L298.2,294.3L299.5,294.6L299.6,295.1L299,296.7L299.2,297.2L298.7,297.5L298.1,298.8L298.7,299.3L299.3,299.6L299.4,300.1L300.1,299.9L300.4,299.4L301.5,299.9L301.6,299.6L301.6,299.7L303.2,302.1L301.5,302.6L302.5,305.5L302.1,307.6L302.4,309.1L304.4,308.9L306.2,307.8L308.3,307.3L309.2,305.8L309.2,302.6L308.6,300.8L306.6,297.4L306.2,297.9L306.4,297.4L305.1,296.1L304.2,295.6L304.5,295.3L304.6,294L305.6,293.2L307.1,292.7L308,291.8L308.4,291.3L309.6,290.6L309.5,288.4L310.2,287.4L311.2,286.4L311.8,286.5L311.8,286.7L312.1,287.2L312.5,286.2L315.5,283.9L316.9,285.4L318.3,285.4L321.3,283.6L322.8,281.7L325.9,278L329,274.2L329.8,271.9L333.2,267L334.2,261.4L334.4,257.1L336.2,253.4L336.1,250.2L332.8,246L330.3,245.7L328.8,247.6L326.6,246.7L325.5,244.3L321.9,243.8L330.6,234.2L337.9,225.8L345.4,224.5L352.3,225.3L355.1,223.1L358.6,223.8L358.4,227L361.9,226.5L367,225.3L365.1,222.6L370.8,214.9L376.7,213.3L378.6,219.1L384.4,213.9L385.8,209.9L388.6,209.5L386.8,216.3L382.7,220L378.8,224.6L374.7,230.1L371.2,231.1L371.1,233.1L369.2,235.6L368.1,241.2L369.4,249.8L370.4,255.2L371.2,257.7L374.5,254.3L375.2,250.5L378.6,249.6L379.4,245.2L383.4,243.2L382.5,241.5L383.5,238.1L385.6,237.9L385.9,231.9L383.3,230.9L383.2,229.2L385.9,225L386.6,222.1L389.6,222.7L391.8,220.8L392.8,222.5L398.7,218.9L401.9,222.1L402.7,220L406,217.2L409.5,213.9L411.5,213.3L417.8,209.6L422,210.7L422.6,209.4L422.3,207.3L421.3,205.9L419.9,201.7L417.9,198.9L420.8,199.3L423.7,197L423.7,196.2L424.6,194.7L423.7,192.5L423.7,192L426.3,190.8L425.8,192.9L427,194.8L429.6,194.1L431.9,195L432.4,197.3L435.4,198.9L437.1,200.7L439.2,200.9L440.1,199.8L440.2,194.6L443.9,194L446.1,191.6L441.6,186.3ZM99.6,303.3L98.9,302.7L99.6,303.3Z" style="fill-rule:nonzero;"/>
            <path d="M256.9,93.2L257.6,88.6L251.8,81.8L250.1,81L248.2,82.4L244.1,97.5L256.9,93.2Z" style="fill-rule:nonzero;"/>
            <path d="M124,69.5L126.5,72.6L129.2,70.4L129.5,68.2L131.5,67.2L134.5,65.4L135.4,63.4L132,60.3L129.9,62.6L128.6,65.9L128.1,62.1L124.7,62.3L120.3,64.9L125.3,65.3L124,69.5Z" style="fill-rule:nonzero;"/>
            <path d="M230.2,80.1L234,84.7L240.3,88.1L245.3,86.6L245.8,75.7L240.6,62.7L236.2,55.4L231.3,58.7L225.4,68.3L228.5,70.9L230.2,80.1Z" style="fill-rule:nonzero;"/>
            <path d="M373.6,404.5L373.5,404.9L374.4,405.8L375.4,406.3L375.9,406.2L375,405.5L373.6,404.5Z" style="fill-rule:nonzero;"/>
            <path d="M385,411.7L385.3,411.3L384.4,410.1L383.6,408.3L382.8,408.3L383.3,409.7L385,411.7Z" style="fill-rule:nonzero;"/>
            <path d="M385.8,413.4L384.4,412.8L385.3,414.2L386.9,414.2L386.3,413.4L385.8,413.4Z" style="fill-rule:nonzero;"/>
            <path d="M382.3,410.9L380.8,410.5L380.7,411.4L381.2,411.8L382.6,412L383.5,411.9L383,411.4L382.3,410.9Z" style="fill-rule:nonzero;"/>
            <path d="M381.2,408.4L380.6,407.7L378.7,406.6L377.7,406.1L377.4,406.3L378.3,407.1L379.5,407.9L381.3,408.9L381.2,408.4Z" style="fill-rule:nonzero;"/>
            <path d="M305.9,408.6L304.3,408.7L302.3,409.2L302,409.7L302.4,410.2L302.4,410.9L304.3,410.2L306.7,409.2L307.5,408.6L306.6,408.3L305.9,408.6Z" style="fill-rule:nonzero;"/>
            <path d="M80.2,288.2L81.2,287.3L83.9,287.1L84.3,286.4L82.3,285.4L82,284.2L80,283.8L77.7,284.8L78.8,285.6L78.1,287.5L77.6,287.8L77.6,288.4L78.3,289.8L80.2,288.2Z" style="fill-rule:nonzero;"/>
            <path d="M293.4,336.3L294.8,332.3L295,330.8L294,330.1L292.2,332L290.9,334.4L291.2,336.2L292.4,338.3L293.4,336.3Z" style="fill-rule:nonzero;"/>
            <path d="M397.8,426.6L398.6,427.6L399.3,427.3L397.9,426L397.8,426.6Z" style="fill-rule:nonzero;"/>
            <path d="M398.1,425.6L397.7,423.7L396.7,422.9L396.7,424.7L397,425.4L397.5,425.3L398.1,425.6Z" style="fill-rule:nonzero;"/>
        </g>
    </g>
</svg>
