<?xml version="1.0" encoding="utf-8"?>
<!-- Generator: Adobe Illustrator 21.1.0, SVG Export Plug-In . SVG Version: 6.00 Build 0)  -->
<svg version="1.0" id="Ebene_1" xmlns="http://www.w3.org/2000/svg" xmlns:xlink="http://www.w3.org/1999/xlink" x="0px" y="0px"
	 viewBox="0 0 500 500" style="enable-background:new 0 0 500 500;" xml:space="preserve">
<style type="text/css">
</style>
<g>
	<polygon  points="269.3,344.9 270.3,343.8 269.8,342.9 268.5,342.8 266,343.5 264.9,344.6 265,346.7 266.9,347.4
		268.9,346.3 	"/>
	<polygon  points="422.6,429.8 421.6,429.5 420.7,430.3 420.9,431.3 422.2,431.6 423.6,431.3 424,430.1 423.2,429.4 	"/>
	<polygon  points="424.8,427.2 423.7,427.7 424,428.6 425.5,428.1 426.8,427.6 426.8,426.4 425.5,427.1 	"/>
	<polygon  points="304.8,397.7 306.4,398.1 307.2,397.3 306.7,396.6 304.4,396.7 	"/>
	<polygon  points="292.9,392.6 290.9,390.6 291.2,388.9 293.2,388.6 297,388.5 299.2,388.9 300.9,388.5 302.7,386.2
		302.2,385.8 300,387.4 297.4,387.5 294.5,387.2 292.7,386.5 290.8,388.2 290.3,389.1 289.2,392.5 288.9,394.3 288,395.8
		288.7,397.4 289.7,397.4 290.1,399.6 289.4,401.7 290.4,402.4 291.8,402.1 291.7,398.8 291.5,396.1 292.9,395.4 292.7,397.6
		294.3,398.9 294,399.8 294.6,400.4 296.8,399.5 295.7,401.4 296.6,402.2 297.8,401.5 297.8,400 295.8,397.4 296.2,396.6
		294.1,393.7 296.1,392.8 297.1,391.5 298.1,391.8 298.3,390.8 294.1,391.6 	"/>
	<polygon  points="299.8,410.6 298.8,412 298.6,412.8 298.9,413.1 300.8,412.6 302.2,410.9 302.2,410.2 302,409.7 	"/>
	<polygon  points="309.8,391.3 308.9,390.1 309.2,388.7 310.4,388.9 310.5,386.9 310.4,386.1 309.1,385.9 308.9,384.7
		308.1,385.5 307.6,387.3 308.3,390.2 309.2,391.6 	"/>
	<polygon  points="311.9,395.9 309.1,396 308.6,397.2 310.2,397.3 311.5,397.1 313.4,397.3 315.3,398.2 314.5,396.5 	"/>
	<polygon  points="323.2,402.7 322.8,403.5 323,405.2 324.2,403.6 324.2,402.6 323.7,401.9 	"/>
	<polygon  points="293.9,409 292.5,408.3 290.7,408.8 290.7,409.6 293.7,409.9 297.1,409.2 297.4,407.9 295.4,408.8 	"/>
	<polygon  points="274.8,406.7 274,405.2 269.8,404.1 269.3,405 265,404.8 264.6,404.1 263.7,403.9 261.9,403
		259.1,402.9 257.5,405.1 259.6,405.3 260,406.3 264.1,407.2 265,406.9 266.7,407.1 269.3,408 271.4,408.4 273.8,408.6 275.9,408.5
		278.4,409.4 281,408.5 278.2,407.1 	"/>
	<polygon  points="286.5,384.5 285.7,383.5 287,378.4 288.5,378.3 288.7,377.4 286.8,376.7 285.3,376.1 285.2,375.1
		284,373.9 283.1,373.9 282,375.7 280.3,377.3 278.2,376.9 280.1,379.9 279,379.8 278.5,380.6 277.5,379.4 276.4,380.8 274.8,382.6
		272.1,383.1 271.1,383.5 270.6,385.4 268.8,385.8 267.1,385 267.1,385.3 266,386.6 265.7,388.7 266,390.7 267.1,392.6 268.2,393.2
		268.5,396.2 270.4,396.5 271.9,396.4 272.7,397.5 275.4,396.7 276.5,397.4 278.1,397.5 279,398.9 281.6,397.9 281.9,398.7
		282.8,395.2 282.9,392.9 285.1,391.3 285,389.2 285.8,387.7 288.5,387.4 286,385.3 	"/>
	<polygon  points="290.5,410.7 288.4,411.2 291.4,412.8 292.4,412.8 292.5,412.1 291.7,411.4 	"/>
	<polygon  points="288.2,408.3 286.8,408.5 286,407.9 285.4,408.8 284.2,408.8 283.4,410.1 284.6,410.1 286.2,409.8
		288.8,409.3 	"/>
	<polygon  points="336.8,280.2 335.7,282.6 336,285.6 338.5,285.6 339.7,282.3 343.3,284.4 345.3,281.3 348.7,280.4
		348.2,276.9 346.6,278.2 345,277.5 343.3,276.4 340.6,273.1 339.9,275.6 339.2,280 	"/>
	<polygon  points="333.6,296.9 330.3,299.8 328.8,298.4 326.4,303.4 324,302.8 319.5,303.6 317.8,305.5 315.5,306.9
		314.3,308.6 312.2,309.4 313.1,311.3 314.5,312.1 313.9,314.5 315,315.5 316.5,314.4 318,309.8 315.7,307.8 318.4,307.7
		321.1,306.4 322.2,306.2 321.4,307.3 320.1,307 318.8,308.6 318.8,309.9 320.3,310.7 320.9,309.1 322.1,308.5 323,309.4
		324.3,307.8 324,306.9 322.5,306.2 325,305.8 325.1,307.9 326.6,308.9 329.8,305.8 333.8,305.6 336.7,304.3 337.9,302.3
		337.5,300.9 338.4,298.6 338.3,295.9 340.4,293 340.5,290.6 339.3,286.4 336.9,287 335.9,288.9 336.3,292.2 334.9,295.8 	"/>
	<polygon  points="394.6,438.4 394,437.6 393,436.8 391.7,436 390.7,436 391,436.8 392.5,438.5 394,439.8 395.6,440.9
		396.8,441.6 397.7,441 396.5,439.9 	"/>
	<polygon  points="295,362.3 295.4,363.4 295.2,364.6 295.3,365.7 296.7,365 297.8,364 297.8,363 296.4,363 	"/>
	<polygon  points="297.6,364.8 297.3,366.2 296.7,366.8 296.2,367.4 297.6,369 298.3,368.3 299,366.8 299.8,366
		300.2,364.1 298.5,366.3 298.9,364.7 	"/>
	<polygon  points="298.4,369.7 297.2,370.6 295.8,371.2 294.9,373.1 295.3,373.8 297,372.5 298.1,372.6 298.8,371.7
		300.2,372.8 299.5,373.9 300.1,375.6 302.8,376.9 303.5,375.8 302.8,374.1 303.9,372.9 304.7,375.2 305.5,373.1 305.4,371.8
		305.2,370.3 304.8,369.5 304.6,368.3 302.8,367.2 302.9,369 301.3,369.1 300.9,370.1 299.2,370.7 	"/>
	<polygon  points="288.6,366.7 290.1,365.4 289.7,363.5 288.5,365.8 287.1,367.4 285.5,368.8 284.4,370.4 287.4,368.2
		"/>
	<polygon  points="303.9,364.2 303.3,361.6 302.5,360.8 300.3,360.7 301.7,362.5 301.7,363.4 300.4,363.2 300.8,364.6
		301.5,364.7 301.6,366.3 302.7,365.8 302.1,364.4 302.1,363.6 	"/>
	<polygon  points="290.6,354.2 290.9,355.2 292,356.5 292.3,355.7 293,356.2 292.3,356.8 292.2,357.8 293.3,358.3
		295.4,358 296.8,359.4 297.4,358.5 298.2,359.7 300,360.8 300.2,359.7 299.5,359.1 299.7,358 296.9,356.7 295.9,357 294.7,356.7
		294.2,354.8 294.6,352.9 295.9,352.1 296.5,350.1 295.7,348.4 296.1,347.4 295.9,346.8 295.2,347.4 293.8,346.7 292.3,346.8
		291.6,349 291.4,352.7 290.5,351.9 	"/>
	<polygon  points="291.4,358.5 292.6,360.3 293.6,361.5 294.2,359.5 293.3,358.6 	"/>
	<polygon  points="365,397.8 364.1,396.8 363.1,396.3 362.3,395.8 361.1,395.2 360.5,395.7 362.1,396.4 363.4,397.4
		364.4,398.1 364.9,399 365.3,400.3 366,399.7 365.9,398.5 	"/>
	<polygon  points="370.3,402.1 369.6,401.6 369.4,400.9 369.1,401.1 369.6,402.8 370.6,404.2 371.6,405.1 372.2,404.9
		372.5,404.3 371.4,403.5 	"/>
	<polygon  points="362.1,398.8 362.3,400.1 361,400.9 360.4,401.7 359.1,401.9 358.9,400.7 358.6,400.8 358.3,401.9
		357.1,402.1 355.1,401.8 354.9,402.5 356.2,403.1 358.1,403.8 359.3,403.8 360.5,403.3 361.7,402.7 362.1,402.1 363.3,401.9
		364,400.5 364,399.2 363.5,398.8 	"/>
	<polygon  points="358.3,411.8 359,411.4 357.2,411 357.3,410 356,410.1 354.5,407.7 352.5,406.2 352,404.6 354.1,404.4
		353.5,403.2 349.7,401.8 349.4,400.5 348.1,399.4 345.5,398.2 341.3,395.7 338.3,395.3 335.9,394.9 334.2,394.1 332.3,393.3
		330.3,393.3 327.7,394.7 325.8,397.1 323.5,395.7 322.9,392 322.2,391.3 318.6,390.4 317.4,391.1 314.3,391.6 315.3,392.7
		317.3,393.1 318.2,394.5 321.5,394.5 321.7,395.1 320.1,395.1 317.7,395.9 319.4,397 319.4,398 319.9,398.8 320.8,398.6
		321.5,397.5 324.9,399.6 326.8,399.8 331.2,401.7 332.3,403.6 332.9,406.1 331.5,406.7 330.5,408.6 333.4,408.5 334,407.8
		336.3,408.3 338.3,410.2 340.5,411.3 342,410.7 343.8,409.9 343.5,408.2 344.9,407.4 346.8,406.7 349.8,407.7 351,409.7 352.3,411
		354.1,412.5 356.4,412.8 358.3,413.1 358.9,413.7 360.4,413.5 360.7,412.8 	"/>
	<polygon  points="339.7,251 341,254.6 340.9,259.3 340.4,261.9 340.7,265.6 340.4,268.9 340.8,271.7 342.3,269.2
		344,271.2 344.1,268.9 341.9,265.5 343.3,260.5 346.7,261.6 344.4,255.4 343.4,251.7 343.5,248.1 342.7,244.4 342.1,241.8
		341.1,242.3 342,244.1 339.9,245.9 	"/>
	<polygon  points="69.1,239.4 66.7,238.7 63.6,240 63.1,241.7 65.9,242.1 70.1,242 69.9,241.1 70.1,240 	"/>
	<polygon  points="426.9,158.5 429.9,158.1 432.2,156.4 432.4,155.4 429.1,153.4 426.9,153.7 424,156.4 424.4,158.6 	"/>
	<polygon  points="338,136.3 335.8,139.5 336.2,139.9 340.9,140.8 344.3,140.7 344,138.6 340.8,135.5 	"/>
	<polygon  points="357.9,128.5 360.5,125.1 354.8,122.7 350.6,121.3 350.1,124.2 354.3,127.7 	"/>
	<polygon  points="337.5,127.2 345.9,127.4 347.7,120.8 339.4,115.8 333.4,115.4 330.4,117.2 329.2,123.5 333.7,129.2
		"/>
	<polygon  points="137.6,148.2 135.3,149.8 135.6,153.7 139.7,155.6 140.3,158.7 147.7,159.6 149,159 144.9,153.2
		144.4,147.1 148,139.7 151.4,131.8 158.4,123.6 165.3,119.3 173.3,114.7 174.8,111.7 173.2,107.8 168.8,109.1 164.9,112.7
		157.3,114.5 149.8,120.5 144.7,125.2 145.3,129.1 139.9,136.4 142,137.4 137.5,144.1 	"/>
	<path d="M441.6,186.3l-6.2-0.9l0.5,4.2l-1.5-1.4l0.3-3.8l-5.9-5.9l-5.2-4.3v-0.4l-3.2-2.8l-6.5-3.1l-4.7,0.4l-7.2-1.9
		l-1,2.9l1.8,4.1l-2.8,2l-4-5.7l-4.3,0.7l-4.3-1.3l-4,0.2l-3,1.3l-2.8-1.9l0.3-4.9L376,161l-4.5-1.1l-9.2,1.3l-5.9-5.4l-1.9-4.3
		l-20.5-4.9l-3,3.3l1.6,6.8l-3.7-1l-1.7,2l-4.4-2.2l-3.9,1.9l-3.6-3.2l-2.2,7.4l-3.6-2.8l-2.8-5.7l1.3-3.1l-1-4.9l-3.7-4.2h-3.6
		l-4.8-1.4l-0.1,6.1l-9.5-1.2l-0.6-3.7l-7.3-1.3l-3.6,1.3l-1,2.1l-1.2-5.2l-2,1.5l-3.4-2.1l-2.8-1.2l1.7-2.5l6-4.8l2.5-2.6l0.6-4.7
		l-1.8-3.5l-5.1-4.7l-6.6-0.1l-2.1,2.4l-0.6-4.9l-5-1.8l3.1-2.5l-3.9-3.4l-5.4,4.3l-2.2,4.3l-0.6,4.2l-4.2-0.2l-5.1,5l-1.9-2.1
		l-6,0.9l-0.8,2.6l-6,1.2l-4.4,4.5l-2.6,0.2l-2.6,5.7l1.8,4.4l-4.9,1.1l-5.5-0.4l-3.9,1.6l0.2,8.3l2,6.2l-4.2-4.2l-4.7,0.4l-3.8,2.9
		l1,5.2l-2.4-1.3l0.9-7l-1.2-4.2l-1.1,0.2l0.5,5.4l-4.1,4.9l2.9,5.7l-1.8,6.7l0.5,3.6l2.5,0.5l-1.1,4.1l1.3,3.5l-2,2.8l-0.6,2.9
		l-2.5,1.5l-0.9,2l-2.6-0.8l4.4-8.3l1-4.1l-2.5-3.8l0.5-9l-0.7-4.8L178,157l2.2-5.9l-0.5-4.2l-6-2l-1.7,1.5l-1.5,6.8l-4.2,6.5
		l0.1,2.2l1.2,5.3l-0.7,3.1l2.7,0.6l0.1,1.4l2.3,3.3l-1.5,3.2l-8.2-7.1l-3.1-2l-6.7-2l-1.2,2.2l2.4,3.7l-2.6,4.1l-2.6-3.7l-3.4,2.6
		l-4.3,0.2l-1.6,2.1l-2.8-0.6l2.2-3.8l-1.7-0.3l-7.9,5.3l-4.7,2.9l-0.6,3.7l-3.5,1.2l-1.8-2V182l2.9-0.7l-1.3-3.4l-6.3-2l1.7,3.8
		l-1.1,3.6l1.9,3.5l-1.3,3.9l-2.1-2l-2.1-0.3l-5.3,5.5l1.5,4l-1.9,1.3l-5.5-3.3l-1.4,2l1.4,2.3l-0.3,2.5l-1.8-1.3l-2.9-1.6l-0.1-5.5
		l-0.1-2.6l-3.7-4.1l1.7-0.7l10.1,4.3l3.7-1.5l2.5-3l-0.1-3.9l-1.7-2.8l-8.6-7l-6.2-1.5l-3.7-3.9l-2.3,2.3l-3.9,2.6l-1.8,0.6
		l-0.3,4.4l3.5,4l-2.1,4.4l2.6,6.4l-1.5,4.7l2,3.9l-0.9,3.4l3.4,3.4l-0.9,2.5L84,213l-4.9,6l2.4,2.2l-2.6,2.5l0.3,0.8l-1.6,2.5
		l0.7,4l-1,1.3l1.1,1l0.2,2l0.7,2.4l2.4,1l0.3,1l1.2-0.5l2.2,1l0.2,1.9l-0.5,1.1l1.4,2.6l0.9,0.7l-0.1,0.7l1.2,0.9l0.7,1l-0.9,0.8
		l-1.8-0.1l-0.4,0.4l0.5,1.2l0.6,2.4l0.8,0.1l0.6-0.8l0.7,0.2l2.4-0.4l1.4,2.1l-0.6,0.7l0.2,1.1l1.8,0.2l0.8,1.6v0.7l2.9,1.3
		l1.7-0.6l1.4,1.7h1.3l3.3,1.1v1l-0.9,1.8l0.5,1.9l-0.4,1.1l-2.2,0.2l-1.2,0.9l-0.1,1.5l2-0.5l0.1,0.7l-3.3,1.4l1.3,1.3l-1.9,2.7
		l-1.7,0.5l2,1.9l2.6,1.2l2.9,2.7l0.3-0.4h0.1l-0.1,0.2l0.8,1l1.3,0.4l1.3,1.1l0.6,2.1l-0.3,1.3l2.2-0.3l0.3,0.2l-2.4,0.1l-2.7,1.6
		l-2-0.3l-2.6,0.5l-3.3-1.2l-3.7-2.3l-3.8,0.1l-2.6,0.9l-2.7,2l-4.3-0.4l-1,2.3l-3.5,0.1l-2.5,2.8l1.4,1.4l-1.1,2.3l1.7,1.6l1.3,2.8
		l2.5-0.1l2.2,1.5l1.6-0.3l0.5-1.2l2.4,0.1l1.8,1.5l3.4-0.3l1.6-1.6l1.9,0.7l1.4-0.2l-0.9,1.1l0.8,1.3l0,0l-0.6,1.1l0.2,2.1l1,0.1
		l0.4,1.1l-1.2,1l-0.6,1.5v1.1l-0.3,0.4l2.5,1.1l5.1-1.4l-0.3,2.1l-4.5,1.3l2.3,2.6l-0.8,0.4l-0.4,0.9l-1.7,0.4l-0.5,0.9l-1,0.8
		l-2.5-0.4l-0.3,1l-0.1,0.9l-0.4,1.4h1.1l1.2,1.8l1.4,2.1l0.9,1.9l0.7,0.6l0.6,1.3l-0.1,0.6l0.7,1.4l1.2,0.5l1.1,1l1.3,2.7l-0.1,1.5
		l0.3,1.7l1.5,2.3l1,0.4l1.6,1.7l0.6,2l1.2,2l1.2,0.9l0.2,0.9l0.7,0.7l0.3,1l0.1-0.1l0.1,0.9l-0.3,0.5l0.2,1.1l-0.5,0.1l0.7,1
		l0.4,1.7l0.4,0.7l-0.1,1.3l0.6,1.4l1.6,0.1l0.7-0.3l1.1,0.1l0.4-0.6l0.6-0.2l0.5-0.6l0.6-0.1l1.9-0.1l1.4-0.4l1.3-1l0.7,0.1l1-0.1
		l2-1.7l3.6-1.1l2.3-1l0.1-0.8l0.4-1l1.6-0.6l-0.3-0.9l0.5,1.1l1-0.1l1.5-0.8l1.3,0.2l1.1-0.7v-1l0.9-0.6h1.4l0.5-0.5l0.2-1.2
		l1.4-0.9h1l0.2-0.3l-0.3-1.6l0.4-1.2l0.5-0.6l1,0.1l0.8-1.7l1.2-0.5l0.4-0.7l0.8-1.5v-0.5l-0.8-0.3l-0.6-0.8l-1-1.4l-1.3-0.5
		l-1.7-0.3l-1.3-0.9l-3.9-6.6l0.8-0.4l1.7-0.5l1.1,0.5l1,3.1l2.6,0.3l2.5,0.6h7.7h3.7l4.2-0.5l1.8,1.9l0.7,1.8l1.6,0.6l-0.3,0.3
		l2.7,2.1l0.7,1l-1.1,0.9l3,3l1.6,0.3l3.3-1.5l0.4,2.3v2.9l0.7,3.1l0.9,4.6l2.1,3.2l0.4,1.5l0.6,2.9l1.2,2.2l0.8,1.1l0.9,2.3
		l1.1,3.2l2.1,2.1l0.9-0.7l0.8-1.6l2.1-0.7l-0.7-0.8l1-1.8l1.2-0.1v-3.9l1-2.2l-0.1-1.9l-0.5-3l0.7-1.8l1.1-0.1l2-0.8l1.1-0.6v-1.1
		l2.3-1.6l1.7-1.5l2.5-2.8l3.3-1.6l1.2-1.4l-0.1-1.8l2.8-0.5h1.5l0.3-0.9l0,0l1.1,0.2l0.6,0.3l0.3-0.4l1,0.5l0.7-1.4l-0.2-1l2.1,0.1
		l0.9,1.4l0.4,1.2l0.7,2.5l1.7,1.9l1.3,0.3l-0.3,0.9l1.8,2.8l0.5,2.2l-0.8,2.9l1.4,0.6l1.3,0.2l2.6-1.7l1.5-1.2l1,2l0.4,3l0.7,2.8
		l0.8,1l-0.6,11.2l0.4,1.3l0.4-1.3l1.1,1.1l1.2,1.3l0.4,1.1l0.7,0.7l0.5,1l-0.2,1.5l-1-0.8l-2-2.2l-3.5-0.4l-1.5-0.1l0.2,1.2
		l2.4,2.5l1.7,1.3l1.2,1.9l2,1.4l0.8,1.8l0.7,2l2,1.9l1.7,3.2l1.1,1.7l1.7,1.9l1,1.4l2.9,1.9l1.9,1.9h2.5l0.2-3.9l0.6-2.8l-1.1-1.4
		l-1.7-0.2l-0.8-1.3l-0.4-1.6l-0.8-0.1l-1.3-0.8l0.9-1.9l-1.7-1l-1.3-1.9l-1.2-1l-0.2-0.8l0.2-1l-0.1-1.5l-1-1.5l-1.3-1.4l-0.2-0.1
		l0,0l-1.2-1.2l-1.4-0.3l-1.3-1.3l-0.4-2l-0.9-2.1l-1.5-0.1l-0.2-1.7l0.7-2l0.8-2.2l4.9-1.6l1.4,0.7l-0.2-1.1l8.5-2.9l3.1,0.6v0.1
		l-0.3,2.8l-3.8,1.8l1,1.4l-2.4,0.2l-2,0.9l1.7,1.3l-0.6,1.6l0.8,1.5l2.8-2.1l1.9-1.9l2.6-1.5l1.9-1.5l0.3-4.1l-1-4.3l-1.4-1.9
		l-2.1-1.5l-2.1-3.1l-1.7-2.5l0.5-1.7l1.9-2.3l3-2.1l-0.2-0.1l0.6-0.2l3,0.8l-0.5,0.9l2.7-0.9l2.4-0.4l3.2-1.2l1.3-1.2l0.8,0.8
		l1.4-1.1l2.6-0.3l3.2-2.1l3.1-2.3l2.1-3l1.8-3.3l1.7-2.8l1.3-0.2l0.6-2l0.3-2.1l-1.3-0.8l-0.5-1.4l1.4-0.7v-2l-1.5-2.1l-1.4-2.5
		l-0.9-2.7l-2.4-1.5l1.2-1.9l2.2-1.4l1.1-1.5l3.2-0.8l-0.4-1.5l-1.5-0.1l-2-1.1l-2.5,2l-1.8-0.8l-0.1-1.3l-1.9-0.5l-1.2-2l1.2-1.4
		l2.2-0.1l1.4-1.9l2.6-2.1l2-1.1l1.2,1.6l-1.8,2l0.5,1.1l-1.2,1.4l2.4-0.8l1.7-1.4l3.2-0.9l1.1,0.8l1.3,0.3l0.1,0.5l-0.6,1.6
		l0.2,0.5l-0.5,0.3l-0.6,1.3l0.6,0.5l0.6,0.3l0.1,0.5l0.7-0.2l0.3-0.5l1.1,0.5l0.1-0.3l0,0v0.1l1.6,2.4l-1.7,0.5l1,2.9l-0.4,2.1
		l0.3,1.5l2-0.2l1.8-1.1l2.1-0.5l0.9-1.5v-3.2l-0.6-1.8l-2-3.4l-0.4,0.5l0,0l0.2-0.5l-1.3-1.3l-0.9-0.5l0.3-0.3l0.1-1.3l1-0.8
		l1.5-0.5l0.9-0.9l0.4-0.5l1.2-0.7l-0.1-2.2l0.7-1l1-1l0.6,0.1v0.2l0.3,0.5l0.4-1l3-2.3l1.4,1.5h1.4l3-1.8l1.5-1.9l3.1-3.7l3.1-3.8
		l0.8-2.3l3.4-4.9l1-5.6l0.2-4.3l1.8-3.7l-0.1-3.2l-3.3-4.2l-2.5-0.3l-1.5,1.9l-2.2-0.9l-1.1-2.4l-3.6-0.5l8.7-9.6l7.3-8.4l7.5-1.3
		l6.9,0.8l2.8-2.2l3.5,0.7l-0.2,3.2l3.5-0.5l5.1-1.2l-1.9-2.7l5.7-7.7l5.9-1.6l1.9,5.8l5.8-5.2l1.4-4l2.8-0.4l-1.8,6.8l-4.1,3.7
		l-3.9,4.6l-4.1,5.5l-3.5,1l-0.1,2l-1.9,2.5l-1.1,5.6l1.3,8.6l1,5.4l0.8,2.5l3.3-3.4l0.7-3.8l3.4-0.9l0.8-4.4l4-2l-0.9-1.7l1-3.4
		l2.1-0.2l0.3-6l-2.6-1l-0.1-1.7l2.7-4.2l0.7-2.9l3,0.6l2.2-1.9l1,1.7l5.9-3.6l3.2,3.2l0.8-2.1l3.3-2.8l3.5-3.3l2-0.6l6.3-3.7
		l4.2,1.1l0.6-1.3l-0.3-2.1l-1-1.4l-1.4-4.2l-2-2.8l2.9,0.4l2.9-2.3v-0.8l0.9-1.5l-0.9-2.2V192l2.6-1.2l-0.5,2.1l1.2,1.9l2.6-0.7
		l2.3,0.9l0.5,2.3l3,1.6l1.7,1.8l2.1,0.2l0.9-1.1l0.1-5.2l3.7-0.6l2.2-2.4L441.6,186.3z M99.6,303.3l-0.7-0.6l0,0L99.6,303.3
		L99.6,303.3z"/>
	<polygon  points="256.9,93.2 257.6,88.6 251.8,81.8 250.1,81 248.2,82.4 244.1,97.5 	"/>
	<polygon  points="124,69.5 126.5,72.6 129.2,70.4 129.5,68.2 131.5,67.2 134.5,65.4 135.4,63.4 132,60.3 129.9,62.6
		128.6,65.9 128.1,62.1 124.7,62.3 120.3,64.9 125.3,65.3 	"/>
	<polygon  points="230.2,80.1 234,84.7 240.3,88.1 245.3,86.6 245.8,75.7 240.6,62.7 236.2,55.4 231.3,58.7 225.4,68.3
		228.5,70.9 	"/>
	<polygon  points="373.6,404.5 373.5,404.9 374.4,405.8 375.4,406.3 375.9,406.2 375,405.5 	"/>
	<polygon  points="385,411.7 385.3,411.3 384.4,410.1 383.6,408.3 382.8,408.3 383.3,409.7 	"/>
	<polygon  points="385.8,413.4 384.4,412.8 385.3,414.2 386.9,414.2 386.3,413.4 	"/>
	<polygon  points="382.3,410.9 380.8,410.5 380.7,411.4 381.2,411.8 382.6,412 383.5,411.9 383,411.4 	"/>
	<polygon  points="381.2,408.4 380.6,407.7 378.7,406.6 377.7,406.1 377.4,406.3 378.3,407.1 379.5,407.9 381.3,408.9
		"/>
	<polygon  points="305.9,408.6 304.3,408.7 302.3,409.2 302,409.7 302.4,410.2 302.4,410.9 304.3,410.2 306.7,409.2
		307.5,408.6 306.6,408.3 	"/>
	<polygon  points="80.2,288.2 81.2,287.3 83.9,287.1 84.3,286.4 82.3,285.4 82,284.2 80,283.8 77.7,284.8 78.8,285.6
		78.1,287.5 77.6,287.8 77.6,288.4 78.3,289.8 	"/>
	<polygon  points="293.4,336.3 294.8,332.3 295,330.8 294,330.1 292.2,332 290.9,334.4 291.2,336.2 292.4,338.3 	"/>
	<polygon  points="397.8,426.6 398.6,427.6 399.3,427.3 397.9,426 	"/>
	<polygon  points="398.1,425.6 397.7,423.7 396.7,422.9 396.7,424.7 397,425.4 397.5,425.3 	"/>
</g>
</svg>
