<?xml version="1.0" encoding="UTF-8" standalone="no"?>
<svg width="100%" height="100%" viewBox="0 0 366 345" version="1.1" xmlns="http://www.w3.org/2000/svg">
    <g transform="matrix(1,0,0,1,-67,-86.8)">
        <path d="M356.9,396.4L365.7,400.4L370.5,398.8L377.7,396.4L383.3,397.2L384.1,411.6L380.9,416L380.1,426L376.9,422.4L370.5,431.2L368.5,430.4L362.9,430L357.3,419.2L356.1,411.2L350.9,400.8L351.3,395.2L356.9,396.4ZM340.6,116.9L343.8,124.1L349.8,120.5L353,124.5L357.4,128.1L356.6,132.1L359.8,144.9L362.2,146.1L364.6,154.1L363.8,158.9L366.6,165.3L376.6,170.5L383,174.9L389,179.3L387.8,181.7L393,187.7L396.6,198.1L400.2,196.1L403.8,200.5L406.2,198.9L407.8,209.3L414.2,215.3L418.6,218.9L425.8,226.9L428.2,234.9L428.6,240.5L427.8,246.9L432.2,255.7L431.8,264.9L430.2,269.7L427.8,278.9L427.8,284.9L426.2,292.5L422.2,302.1L415.4,307.3L412.2,315.7L409,321.3L406.2,330.9L402.6,336.5L400.2,344.9L399,352.9L399.4,356.5L394.2,360.5L384.2,360.9L375.8,365.7L371.8,370.1L366.2,374.9L358.6,369.7L353,367.7L354.6,361.7L349.8,363.7L341.8,372.1L333.8,368.9L328.6,366.9L323.4,366.1L314.6,362.9L308.6,355.7L307,346.9L305,341.3L300.6,336.9L291.8,335.7L294.6,330.5L292.6,322.1L288.2,329.7L280.2,331.7L285,325.7L286.2,319.3L289.8,314.1L289,306.1L281.8,315.3L276.2,318.9L272.6,327.7L265.4,323.3L265.8,317.3L260.2,309.3L255.4,305.3L257,302.9L245.4,296.5L239,296.1L230.2,290.9L213.8,292.1L202.2,296.1L191.8,299.7L183,298.9L173.4,304.5L165.4,306.9L163.8,312.5L160.6,316.9L153,317.3L147.4,318.1L139.4,316.1L133,317.3L126.6,317.7L121.4,323.7L118.6,323.3L114.2,326.5L109.8,330.1L103,329.7L97,329.7L87.4,322.5L82.6,320.5L82.6,314.1L87,312.5L88.6,310.1L88.2,306.1L89.4,298.5L88.2,292.1L83.8,281L82.2,275L82.6,269L79,262.2L78.6,259L74.6,255L73.4,247L68.2,239L67,234.6L71,239L67.8,229.8L72.2,232.6L75,236.6L75,231.4L70.6,223.4L69.8,220.2L67.8,217.4L68.6,211.8L70.6,209.4L71.8,204.6L71,199L74.6,191.8L75.4,199.4L79.4,192.6L86.6,189.4L91,185.4L97.8,181.8L101.8,181L104.2,182.2L111.4,178.6L117,177.4L118.2,175.4L120.6,174.6L125.8,175L135.4,172.2L140.2,167.8L142.6,162.6L147.8,157.8L148.2,153.8L148.6,148.6L155,140.6L159,148.6L163,146.6L159.8,142.2L162.6,137.8L166.6,139.8L167.8,132.6L172.6,127.8L174.6,124.2L179,122.6L179,120L183,121.2L183,118.8L187,117.6L191.4,116.4L198.2,120.8L203.4,126.4L209,126.4L214.6,127.2L212.6,122L217,114.4L221,112L219.4,109.6L223.4,104.4L229,101.2L233.8,102.4L241.4,100.8L241.4,96L234.6,92.8L239.4,91.6L245.4,94L250.2,97.6L257.8,100L260.2,99.2L265.8,102L271,99.2L274.6,100L276.6,98.4L280.6,102.8L278.2,107.6L274.6,111.2L271.4,111.6L272.6,115.2L269.8,120L266.6,124.8L267.4,127.6L274.6,132.8L281.4,136L286.2,139.2L292.6,144.8L295,144.8L299.8,147.2L301,150L309.8,153.2L315.8,150L317.4,144.8L319.4,140.8L320.6,135.6L323.4,128L322.2,123.6L323,120.8L321.8,115.6L323,108.4L324.6,106.4L323,103.2L325,98.4L326.6,93.2L327,90.4L330.2,86.8L332.6,91.2L333.4,97.2L335.8,98.4L336.2,102.4L339.4,107.2L340.2,112.4L340.6,116.9Z" style="fill-rule:nonzero;"/>
    </g>
</svg>
