<?xml version="1.0" encoding="utf-8"?>
<!-- Generator: Adobe Illustrator 21.1.0, SVG Export Plug-In . SVG Version: 6.00 Build 0)  -->
<svg version="1.0" id="Ebene_1" xmlns="http://www.w3.org/2000/svg" xmlns:xlink="http://www.w3.org/1999/xlink" x="0px" y="0px"
	 viewBox="0 0 500 500" style="enable-background:new 0 0 500 500;" xml:space="preserve">
<style type="text/css">
</style>
<path class="st0" d="M356.9,396.4l8.8,4l4.8-1.6l7.2-2.4l5.6,0.8l0.8,14.4l-3.2,4.4l-0.8,10l-3.2-3.6l-6.4,8.8l-2-0.8l-5.6-0.4
	l-5.6-10.8l-1.2-8l-5.2-10.4l0.4-5.6L356.9,396.4z M340.6,116.9l3.2,7.2l6-3.6l3.2,4l4.4,3.6l-0.8,4l2,8l1.2,4.8l2.4,1.2l2.4,8
	l-0.8,4.8l2.8,6.4l10,5.2l6.4,4.4l6,4.4l-1.2,2.4l5.2,6l3.6,10.4l3.6-2l3.6,4.4l2.4-1.6l1.6,10.4l6.4,6l4.4,3.6l7.2,8l2.4,8l0.4,5.6
	l-0.8,6.4l4.4,8.8l-0.4,9.2l-1.6,4.8l-2.4,9.2v6l-1.6,7.6l-4,9.6l-6.8,5.2l-3.2,8.4l-3.2,5.6l-2.8,9.6l-3.6,5.6l-2.4,8.4l-1.2,8
	l0.4,3.6l-5.2,4l-10,0.4l-8.4,4.8l-4,4.4l-5.6,4.8l-7.6-5.2l-5.6-2l1.6-6l-4.8,2l-8,8.4l-8-3.2l-5.2-2l-5.2-0.8l-8.8-3.2l-6-7.2
	l-1.6-8.8l-2-5.6l-4.4-4.4l-8.8-1.2l2.8-5.2l-2-8.4l-4.4,7.6l-8,2l4.8-6l1.2-6.4l3.6-5.2l-0.8-8l-7.2,9.2l-5.6,3.6l-3.6,8.8
	l-7.2-4.4l0.4-6l-5.6-8l-4.8-4l1.6-2.4l-11.6-6.4l-6.4-0.4l-8.8-5.2l-16.4,1.2l-11.6,4l-10.4,3.6l-8.8-0.8l-9.6,5.6l-8,2.4l-1.6,5.6
	l-3.2,4.4l-7.6,0.4l-5.6,0.8l-8-2l-6.4,1.2l-6.4,0.4l-5.2,6l-2.8-0.4l-4.4,3.2l-4.4,3.6l-6.8-0.4h-6l-9.6-7.2l-4.8-2v-6.4l4.4-1.6
	l1.6-2.4l-0.4-4l1.2-7.6l-1.2-6.4L83.8,281l-1.6-6l0.4-6l-3.6-6.8l-0.4-3.2l-4-4l-1.2-8l-5.2-8l-1.2-4.4l4,4.4l-3.2-9.2l4.4,2.8
	l2.8,4v-5.2l-4.4-8l-0.8-3.2l-2-2.8l0.8-5.6l2-2.4l1.2-4.8l-0.8-5.6l3.6-7.2l0.8,7.6l4-6.8l7.2-3.2l4.4-4l6.8-3.6l4-0.8l2.4,1.2
	l7.2-3.6l5.6-1.2l1.2-2l2.4-0.8l5.2,0.4l9.6-2.8l4.8-4.4l2.4-5.2l5.2-4.8l0.4-4l0.4-5.2l6.4-8l4,8l4-2l-3.2-4.4l2.8-4.4l4,2l1.2-7.2
	l4.8-4.8l2-3.6l4.4-1.6V120l4,1.2v-2.4l4-1.2l4.4-1.2l6.8,4.4l5.2,5.6h5.6l5.6,0.8l-2-5.2l4.4-7.6l4-2.4l-1.6-2.4l4-5.2l5.6-3.2
	l4.8,1.2l7.6-1.6v-4.8l-6.8-3.2l4.8-1.2l6,2.4l4.8,3.6l7.6,2.4l2.4-0.8l5.6,2.8l5.2-2.8l3.6,0.8l2-1.6l4,4.4l-2.4,4.8l-3.6,3.6
	l-3.2,0.4l1.2,3.6l-2.8,4.8l-3.2,4.8l0.8,2.8l7.2,5.2l6.8,3.2l4.8,3.2l6.4,5.6h2.4l4.8,2.4l1.2,2.8l8.8,3.2l6-3.2l1.6-5.2l2-4
	l1.2-5.2l2.8-7.6l-1.2-4.4l0.8-2.8l-1.2-5.2l1.2-7.2l1.6-2l-1.6-3.2l2-4.8l1.6-5.2l0.4-2.8l3.2-3.6l2.4,4.4l0.8,6l2.4,1.2l0.4,4
	l3.2,4.8l0.8,5.2L340.6,116.9z"/>
</svg>
