<?xml version="1.0" encoding="utf-8"?>
<!-- Generator: Adobe Illustrator 21.1.0, SVG Export Plug-In . SVG Version: 6.00 Build 0)  -->
<svg version="1.0" id="Ebene_1" xmlns="http://www.w3.org/2000/svg" xmlns:xlink="http://www.w3.org/1999/xlink"
	 xml:space="preserve">
<g>
	<polygon class="st0" points="219.5,255.8 220.5,259.9 226.4,265.8 230,257.3 228.2,252.2 	"/>
	<polygon class="st0" points="209.7,383.9 211.8,378 210.7,371 206.9,374.1 205.9,376.9 207.1,382.3 	"/>
	<polygon class="st0" points="123.3,260.4 126.4,255.5 128.4,258.6 126.4,263 127.6,265.8 134.8,267.6 134.8,267.6 138.7,273.8 
		137.9,279.7 137.9,279.7 129.2,278.7 128.2,285.1 131.2,290.2 125.1,293.3 126.9,296.9 135.9,298.5 135.9,298.5 130.7,300.5 
		122.2,310.3 125.3,312.1 129.4,308.5 134.8,309.5 138.7,305.4 141.3,307.2 151.3,304.6 159,304.6 164.4,299.8 162.1,294.9 
		164.9,292.3 165.7,286.1 158.8,284.3 157,280.5 153.4,269.1 149.5,267.6 144.1,255.5 143.9,254.2 137.7,253.7 143.1,244.2 
		144.4,235.4 138.2,235.4 132.3,236.7 138.4,224.9 131.2,225.9 126.6,224.9 122.2,233.9 119.9,245.2 123,250.4 	"/>
	<polygon class="st0" points="306.5,428.9 302.1,428.4 297.4,428.7 294.4,426.3 293.1,429.4 300.3,430.7 300.3,432 308.8,431.2 
		309.3,429.2 306.2,430.2 	"/>
	<polygon class="st0" points="106,296.2 116.3,290.8 120.7,282 119.7,275.1 122.8,268.1 116.6,261.9 111.7,262.5 107.3,267.1 
		99.3,274.8 102.4,284.8 97.8,294.9 	"/>
	<polygon class="st0" points="242.1,408.6 236.2,409.4 229.3,408.6 228.5,412.4 236.7,416 239.6,417.1 244.2,419.7 245.2,416 
		244.4,413.7 246.5,407.8 	"/>
	<polygon class="st0" points="206.9,387.7 203.5,387.2 204.8,391.6 205.1,400.9 207.4,402.9 209.7,400.4 212.3,400.9 213.3,390.8 
		209.7,385.2 	"/>
	<polygon class="st0" points="188.9,225.4 197.1,231.1 204.8,228.5 216.4,215.4 220.3,222.3 224.6,238 229.5,250.1 231.6,259.9 
		238.3,259.6 241.6,251.4 248.6,252.2 251.9,242.4 254.2,223.9 260.1,221.3 265.5,208.2 260.1,201.7 255.8,193.2 260.1,175.8 
		271.5,164.7 280.7,153.9 279.7,145.4 285.4,135.6 295.4,131.8 303.6,138.4 304.1,144.4 300.3,147.2 286.9,161.9 281.8,170.1 
		278.9,177.6 281.8,188.9 280.5,200.7 286.1,204.6 289.5,211 299,208.7 309.3,204.3 319.8,203.3 332.2,187.8 337.6,180.6 
		339.9,174.2 331.2,165.5 333.7,156.7 328.3,146.7 332.4,134.6 325.5,117.9 330.9,106.5 321.9,96.3 322.9,84.9 327.5,83.4 
		337.6,76.7 331.2,66.2 338.6,61.5 320.3,48.4 309.8,52 299.2,51.2 290.2,65.9 280.7,64.9 267.9,72.3 251.9,92.9 242.1,104.7 
		228,133.6 217.4,152.9 205.9,166.7 190.4,177.6 185,185.5 186.8,213.1 	"/>
	<polygon class="st0" points="389.8,318 389.8,315.2 381.3,312.4 377.7,312.4 374.1,308.2 369.7,309.5 362.3,306.4 362.5,304.6 
		360.5,300.5 355.6,300 355.3,297.2 356.6,295.4 353,290 346.8,290.8 345,290.5 343.8,292.6 341.4,292 340.2,286.1 338.6,282.8 
		339.9,282 344.5,282.3 346.8,280.2 345,277.4 341.2,275.8 341.4,274 339.1,272.2 335.5,265.5 336.8,263 336,258.1 330.4,255.5 
		327.3,256.8 326.5,254.2 320.3,251.6 318.5,245.5 318,240.1 315.2,237.8 317.8,234.2 316,223.9 320.1,217.4 319.3,215.4 
		313.1,215.6 307,213.8 299.5,215.4 292,218.7 292.6,225.1 296.4,229 298.5,227.7 298,234.2 296.7,242.6 292,242.6 287.4,234.7 
		282,238.3 278.9,245.2 278.9,252.9 280,261.7 286.1,263.5 288.7,265 288.2,267.9 288.7,270.4 277.9,270.7 270.7,269.4 265,269.4 
		264.5,266.8 258.9,265.3 251.4,268.6 242.4,273.3 238.3,276.1 235.7,273 229,269.1 225.7,271.7 219.7,273.5 219.7,270.2 
		213.8,267.9 213.8,263.7 212.3,258.9 216.4,251.4 218.2,252.4 219.7,248.6 216.4,247 215.6,243.9 217.4,240.6 217.7,234.9 
		213.1,238 211,240.8 205.9,241.6 204.1,244.7 203,247.8 203.3,258.3 205.6,264 205.9,269.7 207.4,273.5 203.3,278.4 202.3,276.3 
		197.4,276.9 196.3,278.9 191.4,278.7 183.5,282.8 178.3,296.7 175.2,299.2 175.2,299.2 170.6,301 165.5,303.1 163.7,310.6 
		150,317.5 144.6,313.7 146.4,323.9 136.6,321.6 129.2,323.4 129.7,329.9 138.7,333.2 142.8,337.6 149,346.6 148,363 144.9,367.7 
		135.4,367.4 130.5,367.9 124.3,366.7 116.6,366.7 109.4,365.1 101.1,371 103.5,374.4 103.2,380 103.5,382.6 104.5,385.4 
		104.7,388.8 103.5,393.4 103.2,396.5 100.9,399.1 100.4,404.2 101.7,407 104.2,407.6 104.7,412.2 104,417.8 107.1,417.1 
		110.1,418.1 112.5,416.3 117.9,417.3 119.4,421.5 121.7,424 124.6,424.5 126.9,422 130.5,419.4 135.9,419.4 143.3,419.4 
		147.5,413.7 151.8,412.2 153.1,407.3 156.5,404 154.4,399.8 156.5,393.7 160.1,389.3 160.6,386.7 168,385.2 173.7,380 173.4,375.4 
		174,370.5 182.4,367.9 194,370.3 199.4,365.6 201.7,365.1 205.1,361.2 207.9,360.2 212.5,362.8 215.4,363.8 217.2,371.8 
		221.3,376.2 226.7,381.3 231.1,384.9 235.4,385.4 238,388.5 241.9,389.8 243.4,393.2 246,394.2 247.8,398 249.9,402.4 248.8,404 
		247.5,408.1 247.5,410.1 249.9,409.6 252.9,403.2 255.5,402.9 256.3,398.8 251.9,396.2 254.5,391.1 259.4,392.4 262.7,396 
		263.7,393.2 263.2,391.9 258.1,387.7 254,385.4 248.6,382.6 250.4,381.1 248.8,379.5 244.4,379.5 237.8,373.1 234.9,366.4 
		229.5,362.3 227.5,358.2 228.2,355.8 228,351.7 232.6,348.9 237.2,349.9 236,350.7 235.7,351 235.7,353.8 237.2,356.6 239,353 
		242.9,354.3 242.9,357.1 245.7,360.5 244.4,361.2 249.3,367.2 254.7,369.5 258.1,372.3 263.7,375.4 263.7,375.4 266.1,376.9 
		267.9,379.5 268.9,380 269.9,381.3 269.1,383.6 268.6,389 269.1,392.6 272.5,395.2 272.5,396.8 273.5,397.5 274,399.6 276.9,404 
		279.2,407.3 280.2,412.2 282.5,418.1 287.2,421.2 291,421.2 289,414.8 292.6,414 290.8,410.1 296.2,412.2 296.2,408.1 293.3,405.8 
		290,402.4 292.3,400.6 289.2,397.3 287.9,392.6 289.2,390.8 292.3,395 295.4,395 298.5,393.7 294.4,389.3 301.3,387.2 304.4,388 
		308,388.3 309.5,387.5 311.3,382.6 308.5,380.5 314.4,378 319.3,379 317.5,374.6 319.6,368.7 322.7,365.4 324.2,355.6 326,356.4 
		328.8,354.6 328.8,352.5 333.2,346.3 335.5,341.7 340.9,340.7 341.2,343.8 350.2,345.8 352,347.9 346.3,350.7 345.3,352.2 
		351.7,354.6 350.4,358.4 353.8,360.2 361.8,355.3 367.9,354 369.2,351 363.3,351.5 360.5,349.4 360,344.3 365.1,341.2 370.5,340.7 
		374.4,337.8 379,337.3 379.3,333.5 382.3,330.9 388,330.4 388.8,327.5 387.5,322.7 	"/>
</g>
</svg>
