<?xml version="1.0" encoding="UTF-8" standalone="no"?>
<svg width="100%" height="100%" viewBox="0 0 292 384" version="1.1" xmlns="http://www.w3.org/2000/svg">
    <g transform="matrix(1,0,0,1,-97.8,-48.4)">
        <g>
            <path d="M219.5,255.8L220.5,259.9L226.4,265.8L230,257.3L228.2,252.2L219.5,255.8Z" style="fill-rule:nonzero;"/>
            <path d="M209.7,383.9L211.8,378L210.7,371L206.9,374.1L205.9,376.9L207.1,382.3L209.7,383.9Z" style="fill-rule:nonzero;"/>
            <path d="M123.3,260.4L126.4,255.5L128.4,258.6L126.4,263L127.6,265.8L134.8,267.6L138.7,273.8L137.9,279.7L129.2,278.7L128.2,285.1L131.2,290.2L125.1,293.3L126.9,296.9L135.9,298.5L130.7,300.5L122.2,310.3L125.3,312.1L129.4,308.5L134.8,309.5L138.7,305.4L141.3,307.2L151.3,304.6L159,304.6L164.4,299.8L162.1,294.9L164.9,292.3L165.7,286.1L158.8,284.3L157,280.5L153.4,269.1L149.5,267.6L144.1,255.5L143.9,254.2L137.7,253.7L143.1,244.2L144.4,235.4L138.2,235.4L132.3,236.7L138.4,224.9L131.2,225.9L126.6,224.9L122.2,233.9L119.9,245.2L123,250.4L123.3,260.4Z" style="fill-rule:nonzero;"/>
            <path d="M306.5,428.9L302.1,428.4L297.4,428.7L294.4,426.3L293.1,429.4L300.3,430.7L300.3,432L308.8,431.2L309.3,429.2L306.2,430.2L306.5,428.9Z" style="fill-rule:nonzero;"/>
            <path d="M106,296.2L116.3,290.8L120.7,282L119.7,275.1L122.8,268.1L116.6,261.9L111.7,262.5L107.3,267.1L99.3,274.8L102.4,284.8L97.8,294.9L106,296.2Z" style="fill-rule:nonzero;"/>
            <path d="M242.1,408.6L236.2,409.4L229.3,408.6L228.5,412.4L236.7,416L239.6,417.1L244.2,419.7L245.2,416L244.4,413.7L246.5,407.8L242.1,408.6Z" style="fill-rule:nonzero;"/>
            <path d="M206.9,387.7L203.5,387.2L204.8,391.6L205.1,400.9L207.4,402.9L209.7,400.4L212.3,400.9L213.3,390.8L209.7,385.2L206.9,387.7Z" style="fill-rule:nonzero;"/>
            <path d="M188.9,225.4L197.1,231.1L204.8,228.5L216.4,215.4L220.3,222.3L224.6,238L229.5,250.1L231.6,259.9L238.3,259.6L241.6,251.4L248.6,252.2L251.9,242.4L254.2,223.9L260.1,221.3L265.5,208.2L260.1,201.7L255.8,193.2L260.1,175.8L271.5,164.7L280.7,153.9L279.7,145.4L285.4,135.6L295.4,131.8L303.6,138.4L304.1,144.4L300.3,147.2L286.9,161.9L281.8,170.1L278.9,177.6L281.8,188.9L280.5,200.7L286.1,204.6L289.5,211L299,208.7L309.3,204.3L319.8,203.3L332.2,187.8L337.6,180.6L339.9,174.2L331.2,165.5L333.7,156.7L328.3,146.7L332.4,134.6L325.5,117.9L330.9,106.5L321.9,96.3L322.9,84.9L327.5,83.4L337.6,76.7L331.2,66.2L338.6,61.5L320.3,48.4L309.8,52L299.2,51.2L290.2,65.9L280.7,64.9L267.9,72.3L251.9,92.9L242.1,104.7L228,133.6L217.4,152.9L205.9,166.7L190.4,177.6L185,185.5L186.8,213.1L188.9,225.4Z" style="fill-rule:nonzero;"/>
            <path d="M389.8,318L389.8,315.2L381.3,312.4L377.7,312.4L374.1,308.2L369.7,309.5L362.3,306.4L362.5,304.6L360.5,300.5L355.6,300L355.3,297.2L356.6,295.4L353,290L346.8,290.8L345,290.5L343.8,292.6L341.4,292L340.2,286.1L338.6,282.8L339.9,282L344.5,282.3L346.8,280.2L345,277.4L341.2,275.8L341.4,274L339.1,272.2L335.5,265.5L336.8,263L336,258.1L330.4,255.5L327.3,256.8L326.5,254.2L320.3,251.6L318.5,245.5L318,240.1L315.2,237.8L317.8,234.2L316,223.9L320.1,217.4L319.3,215.4L313.1,215.6L307,213.8L299.5,215.4L292,218.7L292.6,225.1L296.4,229L298.5,227.7L298,234.2L296.7,242.6L292,242.6L287.4,234.7L282,238.3L278.9,245.2L278.9,252.9L280,261.7L286.1,263.5L288.7,265L288.2,267.9L288.7,270.4L277.9,270.7L270.7,269.4L265,269.4L264.5,266.8L258.9,265.3L251.4,268.6L242.4,273.3L238.3,276.1L235.7,273L229,269.1L225.7,271.7L219.7,273.5L219.7,270.2L213.8,267.9L213.8,263.7L212.3,258.9L216.4,251.4L218.2,252.4L219.7,248.6L216.4,247L215.6,243.9L217.4,240.6L217.7,234.9L213.1,238L211,240.8L205.9,241.6L204.1,244.7L203,247.8L203.3,258.3L205.6,264L205.9,269.7L207.4,273.5L203.3,278.4L202.3,276.3L197.4,276.9L196.3,278.9L191.4,278.7L183.5,282.8L178.3,296.7L175.2,299.2L170.6,301L165.5,303.1L163.7,310.6L150,317.5L144.6,313.7L146.4,323.9L136.6,321.6L129.2,323.4L129.7,329.9L138.7,333.2L142.8,337.6L149,346.6L148,363L144.9,367.7L135.4,367.4L130.5,367.9L124.3,366.7L116.6,366.7L109.4,365.1L101.1,371L103.5,374.4L103.2,380L103.5,382.6L104.5,385.4L104.7,388.8L103.5,393.4L103.2,396.5L100.9,399.1L100.4,404.2L101.7,407L104.2,407.6L104.7,412.2L104,417.8L107.1,417.1L110.1,418.1L112.5,416.3L117.9,417.3L119.4,421.5L121.7,424L124.6,424.5L126.9,422L130.5,419.4L143.3,419.4L147.5,413.7L151.8,412.2L153.1,407.3L156.5,404L154.4,399.8L156.5,393.7L160.1,389.3L160.6,386.7L168,385.2L173.7,380L173.4,375.4L174,370.5L182.4,367.9L194,370.3L199.4,365.6L201.7,365.1L205.1,361.2L207.9,360.2L212.5,362.8L215.4,363.8L217.2,371.8L221.3,376.2L226.7,381.3L231.1,384.9L235.4,385.4L238,388.5L241.9,389.8L243.4,393.2L246,394.2L247.8,398L249.9,402.4L248.8,404L247.5,408.1L247.5,410.1L249.9,409.6L252.9,403.2L255.5,402.9L256.3,398.8L251.9,396.2L254.5,391.1L259.4,392.4L262.7,396L263.7,393.2L263.2,391.9L258.1,387.7L254,385.4L248.6,382.6L250.4,381.1L248.8,379.5L244.4,379.5L237.8,373.1L234.9,366.4L229.5,362.3L227.5,358.2L228.2,355.8L228,351.7L232.6,348.9L237.2,349.9L236,350.7L235.7,351L235.7,353.8L237.2,356.6L239,353L242.9,354.3L242.9,357.1L245.7,360.5L244.4,361.2L249.3,367.2L254.7,369.5L258.1,372.3L263.7,375.4L266.1,376.9L267.9,379.5L268.9,380L269.9,381.3L269.1,383.6L268.6,389L269.1,392.6L272.5,395.2L272.5,396.8L273.5,397.5L274,399.6L276.9,404L279.2,407.3L280.2,412.2L282.5,418.1L287.2,421.2L291,421.2L289,414.8L292.6,414L290.8,410.1L296.2,412.2L296.2,408.1L293.3,405.8L290,402.4L292.3,400.6L289.2,397.3L287.9,392.6L289.2,390.8L292.3,395L295.4,395L298.5,393.7L294.4,389.3L301.3,387.2L304.4,388L308,388.3L309.5,387.5L311.3,382.6L308.5,380.5L314.4,378L319.3,379L317.5,374.6L319.6,368.7L322.7,365.4L324.2,355.6L326,356.4L328.8,354.6L328.8,352.5L333.2,346.3L335.5,341.7L340.9,340.7L341.2,343.8L350.2,345.8L352,347.9L346.3,350.7L345.3,352.2L351.7,354.6L350.4,358.4L353.8,360.2L361.8,355.3L367.9,354L369.2,351L363.3,351.5L360.5,349.4L360,344.3L365.1,341.2L370.5,340.7L374.4,337.8L379,337.3L379.3,333.5L382.3,330.9L388,330.4L388.8,327.5L387.5,322.7L389.8,318Z" style="fill-rule:nonzero;"/>
        </g>
    </g>
</svg>
