<?xml version="1.0" encoding="utf-8"?>
<!-- Generator: Adobe Illustrator 21.1.0, SVG Export Plug-In . SVG Version: 6.00 Build 0)  -->
<svg version="1.0" id="Ebene_1" xmlns="http://www.w3.org/2000/svg" xmlns:xlink="http://www.w3.org/1999/xlink" x="0px" y="0px"
	 viewBox="0 0 500 500" style="enable-background:new 0 0 500 500;" xml:space="preserve">
<style type="text/css">
</style>
<g>
	<polygon class="st0" points="437.6,89.9 430.3,86.5 418.5,93 412.3,99 415,89.5 413,83.3 408.3,88.6 401,82.6 392.5,84.6 
		391.3,81.4 404.3,79.7 413.6,78.9 418.1,71.8 402.9,55.8 383.6,53.1 375.1,55.2 372,62.9 363.5,62 355.4,73.7 355.6,81.5 
		361.3,90.8 356.3,85.2 352.9,83.8 347.2,77.1 340.8,86.9 338.1,81.5 330.6,81.6 323.2,84.4 317.4,88.8 318.4,96.2 314.8,97.9 
		306.4,108.6 304.3,114.3 310.8,119.3 309.8,124.2 301,130.4 291.8,136.4 291.5,141 296.9,145.7 307.3,148.6 302.4,149.1 296,152.5 
		300.1,159.1 302.9,162.3 308.8,161.6 315.3,161.2 320.4,161.9 326.9,167.7 326.9,171.6 330,175.2 332.9,184.6 334.8,190.5 
		336.3,193.6 333.6,200.9 335.6,202.9 338.1,201.8 340.2,204.4 344.4,209 339.5,207.1 337.2,207.2 336.3,211.1 336.5,215.9 
		339.5,218.1 341.6,217.2 342.9,216.1 345.7,213.6 345.1,219.1 344.2,221.8 340.5,224.3 338.2,231.8 339.8,233.9 338.9,238.4 
		342.3,243.8 342.6,248.9 343.9,252.6 348,259.2 349.6,264.2 352,267 356.8,267 360.3,271 363.7,270.7 365,265.9 366,261.7 
		365.1,257.7 369,253.4 370.2,249.8 370.2,245.8 372.2,242.3 375.7,240.9 378.9,239.4 380.7,239.2 385.9,235 389.3,228.4 
		391.7,225.9 394.4,225.9 401.5,223.7 408.1,218.3 414.6,212.2 411.3,211.8 404.9,211.5 407.6,207.7 406.8,202.5 409.8,206.8 
		411.6,209.6 415.9,208.2 414.9,202.2 411.7,197.5 408.4,195.5 409.7,193.4 414.5,196.7 414.5,193.2 411.5,187.6 414.9,187.6 
		418.3,186.3 419.1,183.3 416.3,179.7 421.6,179.1 418.5,171.2 421.1,170.3 420.5,162 416.1,156.6 420,153.3 423.7,152.8 
		420.9,145.7 420.8,132.6 422.7,124.2 425.6,114.3 419.9,113.7 427.7,111.2 429.1,107.8 439,96.9 	"/>
	<polygon class="st0" points="232.3,219.8 235.6,221.8 237.1,219.5 235.7,216.8 234.9,215.6 233.5,214.3 230.9,212.2 229.2,215.3 
		227.1,217.5 230.4,220.6 	"/>
	<polygon class="st0" points="228.1,203.4 230.5,204 234.4,201 234.8,194 231.2,190.5 233.5,186.4 232.8,184 228.5,185 225.7,183.2 
		222.7,187.5 225.3,192.9 220.4,191.9 220.4,194.4 226.4,200.5 	"/>
	<polygon class="st0" points="227.1,173.8 231,172.9 232.1,165.7 232,160.6 230.1,155.8 230,157.3 226.6,156.7 223,160.2 
		220.4,159.9 220.5,167.6 224.5,166.8 224.5,172.4 	"/>
	<polygon class="st0" points="240.4,198.3 242.9,192.3 245.8,190.8 249.5,183.2 244.9,181.1 239.9,180.8 237.4,183.1 236.1,186.8 
		236.1,190.9 237.6,198 	"/>
	<polygon class="st0" points="240.7,176.6 242,173 241.1,170.1 239,166.7 235.5,169.3 234.2,173.5 237.2,176 	"/>
	<polygon class="st0" points="255.2,178.4 260.2,178.2 267.2,176.8 270.3,177.9 273.9,176 275.4,173.5 274.8,169.6 272.3,166 
		268.3,165.3 263.4,166.2 259.6,168.3 256.1,167.4 252.8,167 251.3,164.7 248.5,162.4 249,158.6 246.9,155.2 242.1,155.2 
		239.4,151.8 234.4,151.2 233.5,155.6 236.2,158.8 241.2,160.1 243.7,164.5 244,169.3 244.9,174.4 251.3,177.4 	"/>
	<polygon class="st0" points="272.8,187.5 275.5,191.9 276.2,192.4 278.9,191.3 281.5,191.6 284,191.8 283.8,189.5 279.6,184.8 
		274.1,183.9 272.9,184.4 	"/>
	<polygon class="st0" points="215.6,186.9 213.8,184.9 210.6,185.3 209.8,186.4 213.5,192.3 	"/>
	<polygon class="st0" points="304.3,212.4 302.1,209.5 296.3,206.6 293.7,201.8 289.2,203.5 288.9,200.2 285.6,196.5 280.3,192.4 
		278,195.6 273.2,198 273.6,192.7 269.4,184.1 263.2,187.6 261,194.2 259.1,189.1 260.8,183.7 254.5,185.9 252,189.3 250.2,196.6 
		250.9,204.4 254.4,204.4 251.8,207.8 253.8,210.3 257.8,211.4 262.9,213.5 271.7,215.1 276.1,214.3 277.4,212.1 279.3,214.6 
		281.5,215 284,219.3 282.4,221 287.3,223.2 291.1,226.4 292,228.7 292.7,231.4 289.6,237.4 288.7,240.4 289.6,242.5 284.5,243.3 
		280,243.4 278.4,247.6 280.4,249.5 287.4,248.6 287.4,247 290.9,249.8 294.6,252.7 293.7,254.2 296.6,256.7 301.8,259.8 
		308.4,261.8 308,260 305.5,256.8 302,252.1 308.1,256.4 311.2,257.8 312.1,254 310.5,248.5 309.5,247 306.2,244.4 303.6,240.9 
		304,237.5 307.1,236.8 310.9,242.4 313.9,244.9 318.1,238.1 318.9,233.8 315.1,233.4 311.5,227.6 307.7,226.2 302,222 306.5,218.9 
			"/>
	<polygon class="st0" points="286.6,230.5 286.9,229.6 286.9,226.9 285,225 282.7,225.9 281.7,229.5 282.3,232.6 285,232.3 	"/>
	<polygon class="st0" points="250.2,97.4 251.9,103.6 256.2,108.7 264.6,107.7 270,109.4 266.3,114.6 264.4,113.2 257.8,112.5 
		258.8,119.7 262.3,124.9 261.6,129.4 257.3,132.4 255.4,137 259.4,139.3 262.7,146.6 256.2,141.7 254.7,142.6 255.9,150.7 
		251.4,153.2 251.7,158.2 256.3,158.7 259.9,160 267.1,158.4 273.3,161.2 279.9,155 279.9,152.4 275.7,152.8 275.4,150.4 
		278.8,147.1 280,142.6 283.7,139.3 286,135.1 284,129 285.7,126.8 282.4,125.2 289.8,123.8 291.3,121.2 296.3,118.9 300.4,107.3 
		304.4,103 310.1,93.4 304.9,93.5 307.2,89.8 313,86.4 318.9,78.7 319,73.8 314.5,68.6 309.3,66 302.8,64.4 297.6,62.8 292.3,61.5 
		285.3,64.9 284,62.8 276.7,63.7 272.3,65.9 269.1,69.1 267.3,79.2 264.6,74.1 261.6,73.2 258.1,80.1 253.3,83 250.5,83.5 
		246.9,86.8 247.4,92.6 	"/>
	<polygon class="st0" points="275.8,263.2 276.8,260.6 276.1,259.5 275.2,259.4 274.2,261 274.1,261.3 274.7,262.8 	"/>
	<polygon class="st0" points="274.7,252.1 273,250.3 271.2,250.8 271,248.1 268.2,246.4 265.6,244.5 264.2,243 262.9,243.8 
		262.5,241.3 260.9,240.7 260,246.1 259.7,250.4 257.6,253.1 260.9,252.6 261.7,255.8 265.1,253 267.5,250.1 268.9,252.6 
		272.6,253.8 	"/>
	<polygon class="st0" points="224.3,213.3 219.9,209.9 215.9,206.3 215.1,200.9 213.6,193.3 210.9,190 208.5,188.6 206.4,189.7 
		208.1,198.1 206.9,201.3 204.9,193.5 202.6,190.8 199.9,195 196.4,190.8 191.1,193.3 192.3,189.4 190.1,187.9 183.6,192.9 
		181.9,196.1 179.9,202.1 184.2,204 187.9,203.9 182.3,206.9 183.5,209.6 186.9,209.7 192.1,209.2 196.8,210.9 193.6,212.1 
		190.1,211.8 186.4,213 184.8,213.7 187.8,219.2 189.9,218.4 193.2,220.2 194.5,223.4 198.8,222.8 204.9,221.8 209.5,219.6 
		212.2,219.2 216.4,221 220.8,222.1 221.6,219.6 220.1,216.9 224.1,216.4 	"/>
	<polygon class="st0" points="265.2,259.1 265.8,260.5 267.5,260.6 270.4,257.7 270.4,256.6 267.1,256.6 	"/>
	<polygon class="st0" points="241.5,147.1 241.8,145.8 240.1,143.7 235.2,143.4 235.8,146.6 240.4,147.4 	"/>
	<polygon class="st0" points="170.6,206.8 177,203.2 177,199.9 180,194.3 186,188.6 189.1,186.4 186.5,182.8 184.2,180.2 178,179.7 
		174.6,177.9 166.4,179.3 168.7,184.6 166.6,190.2 164.9,196.1 163.8,199.4 169.3,203.5 	"/>
	<polygon class="st0" points="319,316.6 316.5,315 313.3,314 312.5,314.3 314.7,316.1 317.8,317.3 319,317.2 	"/>
	<polygon class="st0" points="169.7,319.3 168.8,317.4 166.4,315.9 165.2,314.1 164.3,312.8 162.1,312.4 160.6,311.9 158,311 
		157.8,311.9 158.8,313.9 161.2,314.5 161.7,315.6 163.8,316.9 164.5,318.2 168.5,319.9 	"/>
	<path class="st0" d="M321.8,324.9l-2.5,3.9l-3.9,0.5l-3.1-1.7l-0.7-2.7l-0.7-3.8l2.2-2.5l-2.1-1.8l-3.6,0.3l-5.1,3.1l-3.8,4.7
		l-2,0.5l2.8-3.3l3.5-4.8l3.1-1.6l2-2.7l2.6-0.2h3.6l5.2,0.7l4.1-0.6l3.1-3.1l3.9-1.4l1.7-1.4l1.7-1.5l-0.2-4.5l-1-1.5l-1.9-0.5
		l-1-3.5l-1.6-1.4l-3.8-1.1l-2.1-2.5l-3.2-2.5l1-2.8l-2.7-5.4l-3.2-6l-1.9-4.3l-1.6,2.2l-2.3,5.2l-3.5,2.6l-1.7-2.8l-2.2-0.7
		l-0.9-6.1l0.1-4.2l-4.3-0.4l-0.7-1.9l-3-3l-2.2-1.8l-2,1.4l-2.5-0.5l-4.2-1.4l-1.7,1.2l0.9,7.9l1.1,4.4l-2.9,5l3,3.5l1.6,3.8l0.2,3
		l-1.4,3l-2.8,3l-3.8,1.9l1.7,2.2l1.3,6.4l-1.3,4.1l-1.8,1.3l-3.6-3.7l-1.7-4.5l-0.7-4.2l0.4-3.6l-2.7-0.4l-3.9-0.2l-2.6-1.8l-3-1.2
		l-1.7-2l-2.5-1.7l-4.5-1.9l-3.4,0.9l-1.2-3.4l-1.1-4.3l-3.5-0.7l0.1-5.5l1-3.8l2.7-5.7l3-4.3l2.8-0.6l0.2-3.5l1.9-2.3l3.4-0.3
		l2.8-3.8l0.7-2.5l2.3-4.9l0.7-3l2.5,1.8l3.4-1l4.7-4.3l0.3-3.1l-1.7-3.4l1.8-3.5l-0.1-3.3l-3.2-3.4l-3.6-1.1l-3.4-0.5l-0.1,7.6
		l-1.8,5.7l-2.6,4.6l-2.3-4.3l0.7-4.8l-2.9-4.4l-3.2,5.2v-6.9l-4.3-1.5l2.1-3.5l-3.3-8.3l-2.5-3.4l-3.2-1.3l-2.9,5.5l-0.2,8.1
		l2.8,2.9l2.6,4.3l-1.1,6.6l-1.9-0.2l-1.5,5.1V225l-3.7-2.2l-2.1,1.2l0.3,4.1l-3.5-0.1l-3.7,1.1l-4.3-2.9l-2.7,0.5l-2.5-3.5
		l-1.9-1.6l-1.9,0.6l-3,0.3l-1.6,2.2l2.5,2.8l-2.7,3.2l-2.6-3.8l-2,1.2l-6.5,0.7l-4.4-1.4l3.4-3.2l-3.3-3.4l-2.3,0.4l-3.3-1.2
		l-5.7-2.5l-3.7-2.9l-2.9-0.4l-1,2l-3,1.2l-0.3-5.3l-3.2,4.8l-4.1-6.3l-1.7-0.7l-0.5,3.4l-1.8,1.6l-1.7-2.9l-3.9,1.8l-3.6,3.1
		l-3.6-0.9l-2.9,2.1l-2.1,2.9l-2.6-0.6l-3.8-3.3l-4.5-1.7l-0.3-0.1l-2.7-1l-3.6-2.1l-3.2,1.2l-1.8-1l-4.7-0.6l-5.1-2.2l-2.5,0.7
		L100,209l0.1-1.7l-4.1-0.4l-1.1,1.4l-1.7-3.3l-3.8-1.6l-3.7,3.9l-2.2-0.5l-4.6,3.2l-2.3,0.9l-2.5,3.4l-0.5,3.4l-3.1,3.1l-4.3,0.2
		l-1.4,3.5l3.3,2l2.3,2.8l1.7,3.1l3,2.3l1.9,3.7l-5.1,0.2l0.3-3h-2l-5.4,3l-3.4,2.5l3.1,3.4l1.1,2.3l3.5,1.4l3.4-0.6l1.9,1.3
		l0.7-1.3l2.6-1.3l1.5-0.1l-1.8,2.1l1.4,1l0.4,2.6l-1.8,1.7l-1.7-0.4l-1.9,2.6l-1.7-0.9l-1.9,0.4l-0.9,2.8l-1.9,2.9l-1,3l1.8,2.1
		v2.8l1.7,1.2l2,2.2l3.2-1l1.6,1.7l-0.4,1.7l0.2,2.8H78l2.5-1.9l0.9,2.3l0.6-1.7l1.6,2.3l1.3-1.7l0.7,0.9l2.8-1.4l-1.3,2.8l-0.4,3.4
		l-1.8,1.6l-0.5,0.9l-3.3,2.7l-1.2,1.8l-3,0.5l-2.6,2.3l-2.3,1.3l-2.7,1.9l0.4,0.7l4.2-1.2l2-1.4l2.5-1.5l2.2-1.2l1.7,0.3l2.9-1.8
		l0.7-2l3.7-2.2l0.6-2l2.5-1.4l2.6-1.9l2.2-3.3l-1.8-2.2l3.5-3.4l1.6-3.3l3.1-2.8l0.6,1.3l-2.6,1.5l-1.1,4.8l0.3,2.8l2.7-1l2.1-1.6
		l2.8-1l1.4-0.3l-0.5-3.4l2.7-1.1l2.9,2.1l4.8,2.2l3.3-0.4l4.3,1.7l2.3,1l5,4.9l2.9,1.3l3.9,0.1l2.3,0.3l1.3,4.3l3.1,3.5l0.6,3.7
		l2.1,1.4l1.3,1.6l1.4-2l-0.1-2.7l-4.2-2.8l-2.5-5.1l-1.5-3.3l-2.2-2.1l-1.6-1.9l-1.2-2.2l0.2-0.1l1.3,2.5l1.6,1.9l2.2,2.1l1.5,3.3
		l2.5,5.1l4.2,2.8l0.1,2.7l-1.4,2v2.1l2.9,3l0.4,3.3l3.1,1.7l-0.3,2.5l1.4,3.4l4.4,1.6l1.7,1.6l4.7,3.6h0.2l0.7,2.8l0.4,3l-0.6,1
		l-1.3-3.4l-3.5-1.3l-0.3,0.7l0.7,1.7l0.7,3.1l0.4,4.7l-0.3,3.1l-0.3,3.1l-1,3.1l0.7,2.6l0.1,2.8l-0.5,2.7l1.3,1.7l0.3,2.6l1.9,2.6
		l1.1,1.1l-0.1,0.7l2,4.2l2.3,3l0.2,1.7l0.6,0.4l2.2,0.3l0.9,0.7l1.4,0.1l0.2,0.9l1.2,0.3l1.6,1.7l0.4,1.5l2.8-0.2l3.1-0.3l-0.2,0.5
		l3.6,1.4l5.5,2h4.8h1.6v0.2h-1.9h-4.8l-5.5-2l-3.6-1.4l0.2-0.5l-3.1,0.3l-2.8,0.2l1,2.6l1.2,2.2l0.9,1.8l0.9,1.7l1.4,0.7l1.8,1.9
		l-0.1,1.3l-0.9,1.1l-1-0.1l-0.2,0.2l1.4,1.6l1.5,0.6l0.6,0.7l0.3-0.3l1.7,1.2l1.2,0.9l0.3,1.5l-0.1,1.9l1.3,0.6l1.7,1.3l1.6,1.5
		l0.6,1.6h0.4l1.1-1l0.1-0.4l-0.9-1.2l-1-1.2l-1.2-0.1l-0.1-1.4l-0.6-1.3l-0.7-1.2l-0.9-2.6l-1.5-1.4l-0.5-1l-0.7-0.7l-0.5-1.8h-0.4
		l-0.3-1l-0.3-0.2l-0.4-0.6l-1.8-1.9l-0.9-1.2l-0.2-2.1l-0.4-1.4l0.4-1.2l1.4,0.7l0.9-0.1l1.7,1.2v1.1l0.9,2.1l1.3,2.1l0.1,0.9
		l1.2,1.4l1.4,1.5l1.3,0.2l0.6,1.9l1.4,1.3l1.3,0.6l-0.3,1.7l0.4,0.6l2,1.1l1.2,1.7l2.5,2l2.1,2.7l0.9,1.3l0.2,1.1l0.9,1.2v0.9
		l-0.5,0.6l0.2,0.7l-0.9,0.2l0.5,1.3l1.2,1.6l2.6,1.5l1,1.2l2.5,0.9l1.4,0.1l0.6,0.6l2,1.2l2.8,1.2l1.8,0.3l2.2,1.2l1.8,0.4l1.7,0.6
		l1.2-0.2l1.9-1l1.4-0.2l2,0.6l1.3,0.9l2.8,2.7l0.1-0.7l0.3-0.6l-0.3-0.4l1.2-2h3.1l0.1-0.7l0,0l0.4,0.1l-0.1,0.9h-3.1l-1.2,2
		l0.3,0.4l-0.3,0.6l-0.1,0.7l1.3,1.1l1.1,0.5h1.5l1.3,0.4l0,0l0,0l0.6,0.5l1.4,0.1l1,0.5l0.9,0.2h1.4l0.3-0.5l0,0l0.7,0.2l0.4,0.7
		l-0.2,0.2l-0.4-0.4l-0.3,0.4l1.2,1.2l1.1,0.7l0.5,0.9l1.2,1l0.9,0.7l0.5-0.5l1.6,0.6l0.5-0.3l0.7,0.2l0.4,0.5l0.7,0.2l0.5-0.5
		l-0.3-0.4l-0.1-0.6l0.5-0.6l-0.2-0.6l0.2-1.1l0.3-0.2l-0.1-1.1l-0.1-0.6l0.1-1.1l0.2-1l0.5-0.9l-0.2-1l0.1-0.5l0.2-0.2h-0.9
		l-0.3,0.3l-0.9,0.3h-0.6l-0.5,0.3l-0.5-0.1l-0.4-0.4l-0.2,0.1l-0.3,0.6l0.2-1l0.2-0.1l0.4,0.4l0.5,0.1l0.5-0.3h0.6l0.9-0.3l0.3-0.3
		h0.9l-0.6-0.6l-0.9-0.4l-0.7-0.5l-0.7-0.4l-0.4-0.1l-1.1-0.3l-0.5,0.2l-0.6,0.1l-0.5-0.2l-0.7-0.1l-0.3,0.3l-0.7,0.3l-1.1,0.1
		L257,415l-0.4,0.1l-0.2-0.2h-0.6l-0.5,0.4l-0.2-0.1l-0.2,0.1l-0.3-0.1l-0.2,0.4l-0.7-0.4h-0.7v-0.1h0.5l0.4-0.9l0.4-0.1l0.4-0.6
		l0.3-1.3l-0.1-0.2l0.2-1l-0.2-0.4l0.4-1.1v-0.6h-0.4v-0.4h-0.4l-0.9,1.5l-0.2-0.1l0.9-1.5h0.4h0.5l0.6,0.6l0.6-2l0.3-1.1l-0.4-0.4
		l0.5-1.6l1.3-1.5l0.1-1.3l-0.5-0.5l-1.5,0.2l-2.1-0.1l-2.6,0.6l-1.6,0.6l-0.4,0.7l-0.2,2.1l-0.5,1.5l-1.5,1.1l-1.5,0.4l-1.8,0.4
		l-1.8,0.2l-2.1,0.7l-1-1.1l-2.6-0.6l-1-1.3l-0.5-1.5l-1.6-1.9l-0.5-2l-0.7-1.3l-0.4-1.4l0.2-1.3l0.2-3.5l0.4-1.9l0.9-2.2h0.3
		l-0.4-1l-0.1-1.3V385l0.5-1.3l1.3-1.3l2.5-1.2l2.2-2l2-0.6l1.5-0.2l1.8,0.6l2.1-0.3l1.8,1.5l1.7,0.1l1-0.5l0.9,0.4l0.4-0.3
		l-0.5-0.5v-1.2l-0.4-0.7l1-0.4l1.8-0.2l2.1,0.3l2.8-0.3l1.5,0.6l1.2,1.3l0.4,0.1l2.5-1.3l1,0.4l1.9,2.3l0.6,1.5l-0.5,1.8l0.3,1.1
		l1.2,2.1l1.3,2.3l1,0.6l0.4,1.2l1.2,0.3l0.7-0.3l0.6-1.6l0.1-1.1l0.1-1.8l-1.2-3.2v-1.2l-1.1-1.9l-0.9-2.3l-0.4-1.9l0.3-2l1.2-1.7
		l1.4-1.4l2.7-1.9l0.3-1l1.2-1.1l1.2-0.2l1.6-1.7l2.5-0.9l1.5-2.2l-0.3-3l-0.2-1.1l-0.7-0.2l-0.1-2.9l-1.7-1l1.6,0.5l-0.5-1.9
		l0.4-1.4l0.3,2.6l1.3,1.2l-0.7,2l0.2,0.1l1.4-2.5l0.5-1.3V352l-0.6-0.5l-0.5-1.7l0.7,0.7l0.5,0.2l0.2,0.9l1.8-2.5l0.5-2.2l-0.7-0.1
		l0.7-0.9l-0.1,0.4h1.5l3.4-1l-0.7-0.6l-3.5,0.6l2-1l1.4-0.1l1.1-0.2l1.8-0.5l1.2,0.1l1.6-0.5l0.2-1l-0.7-0.7l0.2,1.2l-1-0.1
		l-0.7-1.7v-1.7l0.4-0.7l1.3-2l2.6-1l2.5-1.2l2.6-1.6l-0.4-1.2l-1.6-1.9v-4.8l-1-1l1.1,1.1v4.8l1.6,1.9l2.7-0.4l3.8-0.1l-4.2,2.8
		l0.1,2.9l1.8,0.2l2.7-2.5l2.5-1.4l5.3-2l3-2.2l-1.6-1.3L321.8,324.9z M135.9,276.6l-2.1-3.1l-1.7-2.1l-2.1-1.3h0.1l2.3,1.4l1.7,2.1
		L135.9,276.6L135.9,276.6z M218.7,380.9l-2-0.9l-1.3-0.9l-0.6-1.5l-0.9-1.5l-1.4-1.3l-1.3-0.9l-0.9-1h-3.8v-0.2h4.2l0.9,1l1.3,0.9
		l1.4,1.3l0.9,1.5l0.6,1.5l1.5,1l1.7,0.7L218.7,380.9z M255.4,419.8l0.5,0.2l0.1,0.1l-0.5-0.2l-1.1,0.3v-0.1L255.4,419.8z
		 M254.3,419.8L254.3,419.8l-0.6-0.3l-0.1-0.1L254.3,419.8z M253,418.9l0.1,0.1l-0.5-0.1v-0.1L253,418.9z M248.1,411.5v-1.4h2.2h2.2
		v-0.4l0.3-0.1l0.2,0.1l-0.3,0.1v0.4v0.1h-2h-2.2v1.4h-1.1l0.9,0.9l0.9,0.5l0.2,0.4l-0.3-0.1l-0.3-0.5l-0.9-0.5l-0.9-0.9H248.1z
		 M232.2,389.4l-1.7-0.6l-1.9-0.9l-0.6-1.3l-0.5-1.9l-1.4-1.6l-0.9-1.6l-1.2-1.9l-1.7-1.1l-1.6,0.1l0.1-0.1l2-0.1l1.7,1.1l1.2,1.9
		l0.9,1.6l1.4,1.6l0.5,1.9l0.6,1.3l1.9,0.9l1.7,0.6L232.2,389.4z M239.5,318.2l-0.4-1.9h0.1L239.5,318.2L239.5,318.2z M263.2,326.2
		l-0.2-1l0.1,0.1L263.2,326.2L263.2,326.2z M263.7,326.9h-0.1l0.1-0.3l0.1,0.1L263.7,326.9z M264.8,327.4l-0.1-0.6l0.1-0.1l0.1,0.9
		L264.8,327.4z M266.1,329.2L266,329l0.3-0.6l-0.2-0.3l0,0l0.3,0.4L266.1,329.2z M269,338.6l-1.2,1.8l-0.5,1.2v0.3l0.2,0.3l0,0
		l-0.3-0.4v-0.3l0.5-1.2L269,338.6l0.6-2l-0.5-2.9l-0.5-3.1l0.1,0.1l0.5,3.1l0.5,2.9L269,338.6z M301.5,324.2l-0.7-0.9l0,0
		L301.5,324.2L301.5,324.2z"/>
	<polygon class="st0" points="340,318.7 338.3,319.4 339.1,316.7 336.6,315.5 335.5,316.5 333.4,315.4 334.3,314.1 332.7,313.3 
		331.1,314.5 332.7,311.2 334,308.8 334.5,307.7 333.3,307.5 331.2,308.9 329.7,311.1 327.2,317.1 325.2,319.3 326.3,320.3 
		324.8,321.6 325.1,322.6 329.8,322.8 332.3,322.5 334.7,323.4 333,325.1 334.5,325.2 337.2,322.1 337.9,322.6 337.3,325.4 
		338.9,326.1 340,326 341.1,322.9 340.3,320.6 	"/>
	<polygon class="st0" points="314.4,326.4 313.6,324.6 312.6,325.6 313.2,326.8 316.3,328.3 317.2,328.1 318.4,326.7 316.1,326.8 	
		"/>
	<polygon class="st0" points="238.8,124.7 243.2,124.6 241.2,128 241.2,132.6 243.8,137.6 248.8,139.1 253.1,138.2 257.6,128.9 
		260.9,125.1 258,120.8 256.2,111.6 252.2,108.8 248.2,105.6 245.1,97.4 239.4,98.2 240.5,101.8 238,102.9 236.3,107.5 234.6,113.9 
		236.1,120.2 	"/>
	<polygon class="st0" points="216.4,133.5 214,137.2 219.5,137.6 223.4,141.4 227.4,142.7 226.4,137.8 224.6,132 218.1,127.4 
		213.3,125.6 213.5,130.5 	"/>
	<polygon class="st0" points="203.2,134.4 199.9,131.8 198.6,131.3 196.1,135 196.1,136.7 200.2,136.7 	"/>
	<polygon class="st0" points="178.5,162.6 183,158.3 185.2,157.7 187.1,154.1 187.4,145.7 184.3,147.3 180.5,147.2 175.5,154.2 
		171.4,162 174.7,164.1 	"/>
	<polygon class="st0" points="231.1,140.6 233,143.2 236.7,140.9 237.2,136.6 234.3,132.4 232.9,131.5 229.8,131 230,136.1 	"/>
	<polygon class="st0" points="201.9,145 202.6,141.6 199.2,139.8 195.7,141 193.8,144.6 197.4,148.2 	"/>
	<polygon class="st0" points="183.5,170.6 186.9,172.4 197.9,171.2 192.9,175.3 193.2,178.3 197,178.1 203.1,174.2 211.3,172.7 
		212.8,168.2 212.3,163.4 209.8,163 207.6,164.7 206.7,161.2 205.7,156 203.3,154.9 201,158.7 204.4,168.2 200.2,167.4 195.9,161.6 
		189.1,158.2 186.8,161 	"/>
	<polygon class="st0" points="281.3,432.8 280.4,432.2 279.6,431.4 278.6,431 277.2,430.9 277.3,430.7 275.9,430.6 275.1,431.3 
		273.6,431.9 272.5,432.5 271.3,432.7 270.7,432.1 270.5,432.3 269.5,432.2 269.5,431.7 268.7,430.9 268.9,430.8 267.7,429.7 
		266.7,428.8 266.1,427.4 265.6,427.9 264.8,427.7 264.4,427.2 263.6,427 263.1,427.3 261.5,426.6 261.2,427 260.7,427.4 
		261.3,427.7 261,428.5 261,429.2 261.3,429.7 262,430 262.6,430.6 263.1,430.1 263,429.3 263.6,429.7 263.7,430.5 264.6,430.8 
		265.6,431.3 266.2,432 266.3,432.5 266,432.9 266.5,433.5 267.7,434 267.7,434.1 268,434.4 268.1,433.7 269.2,433.7 269.8,434 
		270.8,434.2 271.3,435.2 272.1,435.3 272.4,434.9 272.8,436.4 274,436.2 274.3,435.9 274.9,435.6 273.8,434.3 274,433.8 
		274.5,433.7 275.5,433 276,432.2 277.1,432.1 278.3,432.7 278.7,433.6 279.3,433.8 278.7,434.4 279.2,435.7 280.1,436.5 
		280.4,435.2 281.1,435.4 281.6,434.6 281,433.2 	"/>
	<polygon class="st0" points="97.6,280.8 96.3,281.6 94,283.2 94.5,285.3 95.7,286.5 98.2,284.8 100.2,282.5 99.2,281.2 	"/>
</g>
</svg>
