<?xml version="1.0" encoding="UTF-8" standalone="no"?>
<svg width="100%" height="100%" viewBox="0 0 378 384" version="1.1" xmlns="http://www.w3.org/2000/svg">
    <g transform="matrix(1,0,0,1,-61.4,-53.1)">
        <g>
            <path d="M437.6,89.9L430.3,86.5L418.5,93L412.3,99L415,89.5L413,83.3L408.3,88.6L401,82.6L392.5,84.6L391.3,81.4L404.3,79.7L413.6,78.9L418.1,71.8L402.9,55.8L383.6,53.1L375.1,55.2L372,62.9L363.5,62L355.4,73.7L355.6,81.5L361.3,90.8L356.3,85.2L352.9,83.8L347.2,77.1L340.8,86.9L338.1,81.5L330.6,81.6L323.2,84.4L317.4,88.8L318.4,96.2L314.8,97.9L306.4,108.6L304.3,114.3L310.8,119.3L309.8,124.2L301,130.4L291.8,136.4L291.5,141L296.9,145.7L307.3,148.6L302.4,149.1L296,152.5L300.1,159.1L302.9,162.3L308.8,161.6L315.3,161.2L320.4,161.9L326.9,167.7L326.9,171.6L330,175.2L332.9,184.6L334.8,190.5L336.3,193.6L333.6,200.9L335.6,202.9L338.1,201.8L340.2,204.4L344.4,209L339.5,207.1L337.2,207.2L336.3,211.1L336.5,215.9L339.5,218.1L341.6,217.2L342.9,216.1L345.7,213.6L345.1,219.1L344.2,221.8L340.5,224.3L338.2,231.8L339.8,233.9L338.9,238.4L342.3,243.8L342.6,248.9L343.9,252.6L348,259.2L349.6,264.2L352,267L356.8,267L360.3,271L363.7,270.7L365,265.9L366,261.7L365.1,257.7L369,253.4L370.2,249.8L370.2,245.8L372.2,242.3L375.7,240.9L378.9,239.4L380.7,239.2L385.9,235L389.3,228.4L391.7,225.9L394.4,225.9L401.5,223.7L408.1,218.3L414.6,212.2L411.3,211.8L404.9,211.5L407.6,207.7L406.8,202.5L409.8,206.8L411.6,209.6L415.9,208.2L414.9,202.2L411.7,197.5L408.4,195.5L409.7,193.4L414.5,196.7L414.5,193.2L411.5,187.6L414.9,187.6L418.3,186.3L419.1,183.3L416.3,179.7L421.6,179.1L418.5,171.2L421.1,170.3L420.5,162L416.1,156.6L420,153.3L423.7,152.8L420.9,145.7L420.8,132.6L422.7,124.2L425.6,114.3L419.9,113.7L427.7,111.2L429.1,107.8L439,96.9L437.6,89.9Z" style="fill-rule:nonzero;"/>
            <path d="M232.3,219.8L235.6,221.8L237.1,219.5L235.7,216.8L234.9,215.6L233.5,214.3L230.9,212.2L229.2,215.3L227.1,217.5L230.4,220.6L232.3,219.8Z" style="fill-rule:nonzero;"/>
            <path d="M228.1,203.4L230.5,204L234.4,201L234.8,194L231.2,190.5L233.5,186.4L232.8,184L228.5,185L225.7,183.2L222.7,187.5L225.3,192.9L220.4,191.9L220.4,194.4L226.4,200.5L228.1,203.4Z" style="fill-rule:nonzero;"/>
            <path d="M227.1,173.8L231,172.9L232.1,165.7L232,160.6L230.1,155.8L230,157.3L226.6,156.7L223,160.2L220.4,159.9L220.5,167.6L224.5,166.8L224.5,172.4L227.1,173.8Z" style="fill-rule:nonzero;"/>
            <path d="M240.4,198.3L242.9,192.3L245.8,190.8L249.5,183.2L244.9,181.1L239.9,180.8L237.4,183.1L236.1,186.8L236.1,190.9L237.6,198L240.4,198.3Z" style="fill-rule:nonzero;"/>
            <path d="M240.7,176.6L242,173L241.1,170.1L239,166.7L235.5,169.3L234.2,173.5L237.2,176L240.7,176.6Z" style="fill-rule:nonzero;"/>
            <path d="M255.2,178.4L260.2,178.2L267.2,176.8L270.3,177.9L273.9,176L275.4,173.5L274.8,169.6L272.3,166L268.3,165.3L263.4,166.2L259.6,168.3L256.1,167.4L252.8,167L251.3,164.7L248.5,162.4L249,158.6L246.9,155.2L242.1,155.2L239.4,151.8L234.4,151.2L233.5,155.6L236.2,158.8L241.2,160.1L243.7,164.5L244,169.3L244.9,174.4L251.3,177.4L255.2,178.4Z" style="fill-rule:nonzero;"/>
            <path d="M272.8,187.5L275.5,191.9L276.2,192.4L278.9,191.3L281.5,191.6L284,191.8L283.8,189.5L279.6,184.8L274.1,183.9L272.9,184.4L272.8,187.5Z" style="fill-rule:nonzero;"/>
            <path d="M215.6,186.9L213.8,184.9L210.6,185.3L209.8,186.4L213.5,192.3L215.6,186.9Z" style="fill-rule:nonzero;"/>
            <path d="M304.3,212.4L302.1,209.5L296.3,206.6L293.7,201.8L289.2,203.5L288.9,200.2L285.6,196.5L280.3,192.4L278,195.6L273.2,198L273.6,192.7L269.4,184.1L263.2,187.6L261,194.2L259.1,189.1L260.8,183.7L254.5,185.9L252,189.3L250.2,196.6L250.9,204.4L254.4,204.4L251.8,207.8L253.8,210.3L257.8,211.4L262.9,213.5L271.7,215.1L276.1,214.3L277.4,212.1L279.3,214.6L281.5,215L284,219.3L282.4,221L287.3,223.2L291.1,226.4L292,228.7L292.7,231.4L289.6,237.4L288.7,240.4L289.6,242.5L284.5,243.3L280,243.4L278.4,247.6L280.4,249.5L287.4,248.6L287.4,247L290.9,249.8L294.6,252.7L293.7,254.2L296.6,256.7L301.8,259.8L308.4,261.8L308,260L305.5,256.8L302,252.1L308.1,256.4L311.2,257.8L312.1,254L310.5,248.5L309.5,247L306.2,244.4L303.6,240.9L304,237.5L307.1,236.8L310.9,242.4L313.9,244.9L318.1,238.1L318.9,233.8L315.1,233.4L311.5,227.6L307.7,226.2L302,222L306.5,218.9L304.3,212.4Z" style="fill-rule:nonzero;"/>
            <path d="M286.6,230.5L286.9,229.6L286.9,226.9L285,225L282.7,225.9L281.7,229.5L282.3,232.6L285,232.3L286.6,230.5Z" style="fill-rule:nonzero;"/>
            <path d="M250.2,97.4L251.9,103.6L256.2,108.7L264.6,107.7L270,109.4L266.3,114.6L264.4,113.2L257.8,112.5L258.8,119.7L262.3,124.9L261.6,129.4L257.3,132.4L255.4,137L259.4,139.3L262.7,146.6L256.2,141.7L254.7,142.6L255.9,150.7L251.4,153.2L251.7,158.2L256.3,158.7L259.9,160L267.1,158.4L273.3,161.2L279.9,155L279.9,152.4L275.7,152.8L275.4,150.4L278.8,147.1L280,142.6L283.7,139.3L286,135.1L284,129L285.7,126.8L282.4,125.2L289.8,123.8L291.3,121.2L296.3,118.9L300.4,107.3L304.4,103L310.1,93.4L304.9,93.5L307.2,89.8L313,86.4L318.9,78.7L319,73.8L314.5,68.6L309.3,66L302.8,64.4L297.6,62.8L292.3,61.5L285.3,64.9L284,62.8L276.7,63.7L272.3,65.9L269.1,69.1L267.3,79.2L264.6,74.1L261.6,73.2L258.1,80.1L253.3,83L250.5,83.5L246.9,86.8L247.4,92.6L250.2,97.4Z" style="fill-rule:nonzero;"/>
            <path d="M275.8,263.2L276.8,260.6L276.1,259.5L275.2,259.4L274.2,261L274.1,261.3L274.7,262.8L275.8,263.2Z" style="fill-rule:nonzero;"/>
            <path d="M274.7,252.1L273,250.3L271.2,250.8L271,248.1L268.2,246.4L265.6,244.5L264.2,243L262.9,243.8L262.5,241.3L260.9,240.7L260,246.1L259.7,250.4L257.6,253.1L260.9,252.6L261.7,255.8L265.1,253L267.5,250.1L268.9,252.6L272.6,253.8L274.7,252.1Z" style="fill-rule:nonzero;"/>
            <path d="M224.3,213.3L219.9,209.9L215.9,206.3L215.1,200.9L213.6,193.3L210.9,190L208.5,188.6L206.4,189.7L208.1,198.1L206.9,201.3L204.9,193.5L202.6,190.8L199.9,195L196.4,190.8L191.1,193.3L192.3,189.4L190.1,187.9L183.6,192.9L181.9,196.1L179.9,202.1L184.2,204L187.9,203.9L182.3,206.9L183.5,209.6L186.9,209.7L192.1,209.2L196.8,210.9L193.6,212.1L190.1,211.8L186.4,213L184.8,213.7L187.8,219.2L189.9,218.4L193.2,220.2L194.5,223.4L198.8,222.8L204.9,221.8L209.5,219.6L212.2,219.2L216.4,221L220.8,222.1L221.6,219.6L220.1,216.9L224.1,216.4L224.3,213.3Z" style="fill-rule:nonzero;"/>
            <path d="M265.2,259.1L265.8,260.5L267.5,260.6L270.4,257.7L270.4,256.6L267.1,256.6L265.2,259.1Z" style="fill-rule:nonzero;"/>
            <path d="M241.5,147.1L241.8,145.8L240.1,143.7L235.2,143.4L235.8,146.6L240.4,147.4L241.5,147.1Z" style="fill-rule:nonzero;"/>
            <path d="M170.6,206.8L177,203.2L177,199.9L180,194.3L186,188.6L189.1,186.4L186.5,182.8L184.2,180.2L178,179.7L174.6,177.9L166.4,179.3L168.7,184.6L166.6,190.2L164.9,196.1L163.8,199.4L169.3,203.5L170.6,206.8Z" style="fill-rule:nonzero;"/>
            <path d="M319,316.6L316.5,315L313.3,314L312.5,314.3L314.7,316.1L317.8,317.3L319,317.2L319,316.6Z" style="fill-rule:nonzero;"/>
            <path d="M169.7,319.3L168.8,317.4L166.4,315.9L165.2,314.1L164.3,312.8L162.1,312.4L160.6,311.9L158,311L157.8,311.9L158.8,313.9L161.2,314.5L161.7,315.6L163.8,316.9L164.5,318.2L168.5,319.9L169.7,319.3Z" style="fill-rule:nonzero;"/>
            <path d="M321.8,324.9L319.3,328.8L315.4,329.3L312.3,327.6L311.6,324.9L310.9,321.1L313.1,318.6L311,316.8L307.4,317.1L302.3,320.2L298.5,324.9L296.5,325.4L299.3,322.1L302.8,317.3L305.9,315.7L307.9,313L310.5,312.8L314.1,312.8L319.3,313.5L323.4,312.9L326.5,309.8L330.4,308.4L332.1,307L333.8,305.5L333.6,301L332.6,299.5L330.7,299L329.7,295.5L328.1,294.1L324.3,293L322.2,290.5L319,288L320,285.2L317.3,279.8L314.1,273.8L312.2,269.5L310.6,271.7L308.3,276.9L304.8,279.5L303.1,276.7L300.9,276L300,269.9L300.1,265.7L295.8,265.3L295.1,263.4L292.1,260.4L289.9,258.6L287.9,260L285.4,259.5L281.2,258.1L279.5,259.3L280.4,267.2L281.5,271.6L278.6,276.6L281.6,280.1L283.2,283.9L283.4,286.9L282,289.9L279.2,292.9L275.4,294.8L277.1,297L278.4,303.4L277.1,307.5L275.3,308.8L271.7,305.1L270,300.6L269.3,296.4L269.7,292.8L267,292.4L263.1,292.2L260.5,290.4L257.5,289.2L255.8,287.2L253.3,285.5L248.8,283.6L245.4,284.5L244.2,281.1L243.1,276.8L239.6,276.1L239.7,270.6L240.7,266.8L243.4,261.1L246.4,256.8L249.2,256.2L249.4,252.7L251.3,250.4L254.7,250.1L257.5,246.3L258.2,243.8L260.5,238.9L261.2,235.9L263.7,237.7L267.1,236.7L271.8,232.4L272.1,229.3L270.4,225.9L272.2,222.4L272.1,219.1L268.9,215.7L265.3,214.6L261.9,214.1L261.8,221.7L260,227.4L257.4,232L255.1,227.7L255.8,222.9L252.9,218.5L249.7,223.7L249.7,216.8L245.4,215.3L247.5,211.8L244.2,203.5L241.7,200.1L238.5,198.8L235.6,204.3L235.4,212.4L238.2,215.3L240.8,219.6L239.7,226.2L237.8,226L236.3,231.1L236.3,225L232.6,222.8L230.5,224L230.8,228.1L227.3,228L223.6,229.1L219.3,226.2L216.6,226.7L214.1,223.2L212.2,221.6L210.3,222.2L207.3,222.5L205.7,224.7L208.2,227.5L205.5,230.7L202.9,226.9L200.9,228.1L194.4,228.8L190,227.4L193.4,224.2L190.1,220.8L187.8,221.2L184.5,220L178.8,217.5L175.1,214.6L172.2,214.2L171.2,216.2L168.2,217.4L167.9,212.1L164.7,216.9L160.6,210.6L158.9,209.9L158.4,213.3L156.6,214.9L154.9,212L151,213.8L147.4,216.9L143.8,216L140.9,218.1L138.8,221L136.2,220.4L132.4,217.1L127.9,215.4L127.6,215.3L124.9,214.3L121.3,212.2L118.1,213.4L116.3,212.4L111.6,211.8L106.5,209.6L104,210.3L100,209L100.1,207.3L96,206.9L94.9,208.3L93.2,205L89.4,203.4L85.7,207.3L83.5,206.8L78.9,210L76.6,210.9L74.1,214.3L73.6,217.7L70.5,220.8L66.2,221L64.8,224.5L68.1,226.5L70.4,229.3L72.1,232.4L75.1,234.7L77,238.4L71.9,238.6L72.2,235.6L70.2,235.6L64.8,238.6L61.4,241.1L64.5,244.5L65.6,246.8L69.1,248.2L72.5,247.6L74.4,248.9L75.1,247.6L77.7,246.3L79.2,246.2L77.4,248.3L78.8,249.3L79.2,251.9L77.4,253.6L75.7,253.2L73.8,255.8L72.1,254.9L70.2,255.3L69.3,258.1L67.4,261L66.4,264L68.2,266.1L68.2,268.9L69.9,270.1L71.9,272.3L75.1,271.3L76.7,273L76.3,274.7L76.5,277.5L78,277.5L80.5,275.6L81.4,277.9L82,276.2L83.6,278.5L84.9,276.8L85.6,277.7L88.4,276.3L87.1,279.1L86.7,282.5L84.9,284.1L84.4,285L81.1,287.7L79.9,289.5L76.9,290L74.3,292.3L72,293.6L69.3,295.5L69.7,296.2L73.9,295L75.9,293.6L78.4,292.1L80.6,290.9L82.3,291.2L85.2,289.4L85.9,287.4L89.6,285.2L90.2,283.2L92.7,281.8L95.3,279.9L97.5,276.6L95.7,274.4L99.2,271L100.8,267.7L103.9,264.9L104.5,266.2L101.9,267.7L100.8,272.5L101.1,275.3L103.8,274.3L105.9,272.7L108.7,271.7L110.1,271.4L109.6,268L112.3,266.9L115.2,269L120,271.2L123.3,270.8L127.6,272.5L129.9,273.5L134.9,278.4L137.8,279.7L141.7,279.8L144,280.1L145.3,284.4L148.4,287.9L149,291.6L151.1,293L152.4,294.6L153.8,292.6L153.7,289.9L149.5,287.1L147,282L145.5,278.7L143.3,276.6L141.7,274.7L140.5,272.5L140.7,272.4L142,274.9L143.6,276.8L145.8,278.9L147.3,282.2L149.8,287.3L154,290.1L154.1,292.8L152.7,294.8L152.7,296.9L155.6,299.9L156,303.2L159.1,304.9L158.8,307.4L160.2,310.8L164.6,312.4L166.3,314L171,317.6L171.2,317.6L171.9,320.4L172.3,323.4L171.7,324.4L170.4,321L166.9,319.7L166.6,320.4L167.3,322.1L168,325.2L168.4,329.9L168.1,333L167.8,336.1L166.8,339.2L167.5,341.8L167.6,344.6L167.1,347.3L168.4,349L168.7,351.6L170.6,354.2L171.7,355.3L171.6,356L173.6,360.2L175.9,363.2L176.1,364.9L176.7,365.3L178.9,365.6L179.8,366.3L181.2,366.4L181.4,367.3L182.6,367.6L184.2,369.3L184.6,370.8L187.4,370.6L190.5,370.3L190.3,370.8L193.9,372.2L199.4,374.2L205.8,374.2L205.8,374.4L203.9,374.4L199.1,374.4L193.6,372.4L190,371L190.2,370.5L187.1,370.8L184.3,371L185.3,373.6L186.5,375.8L187.4,377.6L188.3,379.3L189.7,380L191.5,381.9L191.4,383.2L190.5,384.3L189.5,384.2L189.3,384.4L190.7,386L192.2,386.6L192.8,387.3L193.1,387L194.8,388.2L196,389.1L196.3,390.6L196.2,392.5L197.5,393.1L199.2,394.4L200.8,395.9L201.4,397.5L201.8,397.5L202.9,396.5L203,396.1L202.1,394.9L201.1,393.7L199.9,393.6L199.8,392.2L199.2,390.9L198.5,389.7L197.6,387.1L196.1,385.7L195.6,384.7L194.9,384L194.4,382.2L194,382.2L193.7,381.2L193.4,381L193,380.4L191.2,378.5L190.3,377.3L190.1,375.2L189.7,373.8L190.1,372.6L191.5,373.3L192.4,373.2L194.1,374.4L194.1,375.5L195,377.6L196.3,379.7L196.4,380.6L197.6,382L199,383.5L200.3,383.7L200.9,385.6L202.3,386.9L203.6,387.5L203.3,389.2L203.7,389.8L205.7,390.9L206.9,392.6L209.4,394.6L211.5,397.3L212.4,398.6L212.6,399.7L213.5,400.9L213.5,401.8L213,402.4L213.2,403.1L212.3,403.3L212.8,404.6L214,406.2L216.6,407.7L217.6,408.9L220.1,409.8L221.5,409.9L222.1,410.5L224.1,411.7L226.9,412.9L228.7,413.2L230.9,414.4L232.7,414.8L234.4,415.4L235.6,415.2L237.5,414.2L238.9,414L240.9,414.6L242.2,415.5L245,418.2L245.1,417.5L245.4,416.9L245.1,416.5L246.3,414.5L249.4,414.5L249.5,413.8L249.9,413.9L249.8,414.8L246.7,414.8L245.5,416.8L245.8,417.2L245.5,417.8L245.4,418.5L246.7,419.6L247.8,420.1L249.3,420.1L250.6,420.5L251.2,421L252.6,421.1L253.6,421.6L254.5,421.8L255.9,421.8L256.2,421.3L256.9,421.5L257.3,422.2L257.1,422.4L256.7,422L256.4,422.4L257.6,423.6L258.7,424.3L259.2,425.2L260.4,426.2L261.3,426.9L261.8,426.4L263.4,427L263.9,426.7L264.6,426.9L265,427.4L265.7,427.6L266.2,427.1L265.9,426.7L265.8,426.1L266.3,425.5L266.1,424.9L266.3,423.8L266.6,423.6L266.5,422.5L266.4,421.9L266.5,420.8L266.7,419.8L267.2,418.9L267,417.9L267.1,417.4L267.3,417.2L266.4,417.2L266.1,417.5L265.2,417.8L264.6,417.8L264.1,418.1L263.6,418L263.2,417.6L263,417.7L262.7,418.3L262.9,417.3L263.1,417.2L263.5,417.6L264,417.7L264.5,417.4L265.1,417.4L266,417.1L266.3,416.8L267.2,416.8L266.6,416.2L265.7,415.8L265,415.3L264.3,414.9L263.9,414.8L262.8,414.5L262.3,414.7L261.7,414.8L261.2,414.6L260.5,414.5L260.2,414.8L259.5,415.1L258.4,415.2L257,415L256.6,415.1L256.4,414.9L255.8,414.9L255.3,415.3L255.1,415.2L254.9,415.3L254.6,415.2L254.4,415.6L253.7,415.2L253,415.2L253,415.1L253.5,415.1L253.9,414.2L254.3,414.1L254.7,413.5L255,412.2L254.9,412L255.1,411L254.9,410.6L255.3,409.5L255.3,408.9L254.9,408.9L254.9,408.5L254.5,408.5L253.6,410L253.4,409.9L254.3,408.4L255.2,408.4L255.8,409L256.4,407L256.7,405.9L256.3,405.5L256.8,403.9L258.1,402.4L258.2,401.1L257.7,400.6L256.2,400.8L254.1,400.7L251.5,401.3L249.9,401.9L249.5,402.6L249.3,404.7L248.8,406.2L247.3,407.3L245.8,407.7L244,408.1L242.2,408.3L240.1,409L239.1,407.9L236.5,407.3L235.5,406L235,404.5L233.4,402.6L232.9,400.6L232.2,399.3L231.8,397.9L232,396.6L232.2,393.1L232.6,391.2L233.5,389L233.8,389L233.4,388L233.3,386.7L233.3,385L233.8,383.7L235.1,382.4L237.6,381.2L239.8,379.2L241.8,378.6L243.3,378.4L245.1,379L247.2,378.7L249,380.2L250.7,380.3L251.7,379.8L252.6,380.2L253,379.9L252.5,379.4L252.5,378.2L252.1,377.5L253.1,377.1L254.9,376.9L257,377.2L259.8,376.9L261.3,377.5L262.5,378.8L262.9,378.9L265.4,377.6L266.4,378L268.3,380.3L268.9,381.8L268.4,383.6L268.7,384.7L269.9,386.8L271.2,389.1L272.2,389.7L272.6,390.9L273.8,391.2L274.5,390.9L275.1,389.3L275.2,388.2L275.3,386.4L274.1,383.2L274.1,382L273,380.1L272.1,377.8L271.7,375.9L272,373.9L273.2,372.2L274.6,370.8L277.3,368.9L277.6,367.9L278.8,366.8L280,366.6L281.6,364.9L284.1,364L285.6,361.8L285.3,358.8L285.1,357.7L284.4,357.5L284.3,354.6L282.6,353.6L284.2,354.1L283.7,352.2L284.1,350.8L284.4,353.4L285.7,354.6L285,356.6L285.2,356.7L286.6,354.2L287.1,352.9L287.1,352L286.5,351.5L286,349.8L286.7,350.5L287.2,350.7L287.4,351.6L289.2,349.1L289.7,346.9L289,346.8L289.7,345.9L289.6,346.3L291.1,346.3L294.5,345.3L293.8,344.7L290.3,345.3L292.3,344.3L293.7,344.2L294.8,344L296.6,343.5L297.8,343.6L299.4,343.1L299.6,342.1L298.9,341.4L299.1,342.6L298.1,342.5L297.4,340.8L297.4,339.1L297.8,338.4L299.1,336.4L301.7,335.4L304.2,334.2L306.8,332.6L306.4,331.4L304.8,329.5L304.8,324.7L303.8,323.7L304.9,324.8L304.9,329.6L306.5,331.5L309.2,331.1L313,331L308.8,333.8L308.9,336.7L310.7,336.9L313.4,334.4L315.9,333L321.2,331L324.2,328.8L322.6,327.5L321.8,324.9ZM135.9,276.6L133.8,273.5L132.1,271.4L130,270.1L130.1,270.1L132.4,271.5L134.1,273.6L135.9,276.6ZM218.7,380.9L216.7,380L215.4,379.1L214.8,377.6L213.9,376.1L212.5,374.8L211.2,373.9L210.3,372.9L206.5,372.9L206.5,372.7L210.7,372.7L211.6,373.7L212.9,374.6L214.3,375.9L215.2,377.4L215.8,378.9L217.3,379.9L219,380.6L218.7,380.9ZM255.4,419.8L255.9,420L256,420.1L255.5,419.9L254.4,420.2L254.4,420.1L255.4,419.8ZM254.3,419.8L253.7,419.5L253.6,419.4L254.3,419.8ZM253,418.9L253.1,419L252.6,418.9L252.6,418.8L253,418.9ZM248.1,411.5L248.1,410.1L252.5,410.1L252.5,409.7L252.8,409.6L253,409.7L252.7,409.8L252.7,410.3L250.7,410.3L248.5,410.3L248.5,411.7L247.4,411.7L248.3,412.6L249.2,413.1L249.4,413.5L249.1,413.4L248.8,412.9L247.9,412.4L247,411.5L248.1,411.5ZM232.2,389.4L230.5,388.8L228.6,387.9L228,386.6L227.5,384.7L226.1,383.1L225.2,381.5L224,379.6L222.3,378.5L220.7,378.6L220.8,378.5L222.8,378.4L224.5,379.5L225.7,381.4L226.6,383L228,384.6L228.5,386.5L229.1,387.8L231,388.7L232.7,389.3L232.2,389.4ZM239.5,318.2L239.1,316.3L239.2,316.3L239.5,318.2ZM263.2,326.2L263,325.2L263.1,325.3L263.2,326.2ZM263.7,326.9L263.6,326.9L263.7,326.6L263.8,326.7L263.7,326.9ZM264.8,327.4L264.7,326.8L264.8,326.7L264.9,327.6L264.8,327.4ZM266.1,329.2L266,329L266.3,328.4L266.1,328.1L266.4,328.5L266.1,329.2ZM269,338.6L267.8,340.4L267.3,341.6L267.3,341.9L267.5,342.2L267.2,341.8L267.2,341.5L267.7,340.3L269,338.6L269.6,336.6L269.1,333.7L268.6,330.6L268.7,330.7L269.2,333.8L269.7,336.7L269,338.6ZM301.5,324.2L300.8,323.3L301.5,324.2Z" style="fill-rule:nonzero;"/>
            <path d="M340,318.7L338.3,319.4L339.1,316.7L336.6,315.5L335.5,316.5L333.4,315.4L334.3,314.1L332.7,313.3L331.1,314.5L332.7,311.2L334,308.8L334.5,307.7L333.3,307.5L331.2,308.9L329.7,311.1L327.2,317.1L325.2,319.3L326.3,320.3L324.8,321.6L325.1,322.6L329.8,322.8L332.3,322.5L334.7,323.4L333,325.1L334.5,325.2L337.2,322.1L337.9,322.6L337.3,325.4L338.9,326.1L340,326L341.1,322.9L340.3,320.6L340,318.7Z" style="fill-rule:nonzero;"/>
            <path d="M314.4,326.4L313.6,324.6L312.6,325.6L313.2,326.8L316.3,328.3L317.2,328.1L318.4,326.7L316.1,326.8L314.4,326.4Z" style="fill-rule:nonzero;"/>
            <path d="M238.8,124.7L243.2,124.6L241.2,128L241.2,132.6L243.8,137.6L248.8,139.1L253.1,138.2L257.6,128.9L260.9,125.1L258,120.8L256.2,111.6L252.2,108.8L248.2,105.6L245.1,97.4L239.4,98.2L240.5,101.8L238,102.9L236.3,107.5L234.6,113.9L236.1,120.2L238.8,124.7Z" style="fill-rule:nonzero;"/>
            <path d="M216.4,133.5L214,137.2L219.5,137.6L223.4,141.4L227.4,142.7L226.4,137.8L224.6,132L218.1,127.4L213.3,125.6L213.5,130.5L216.4,133.5Z" style="fill-rule:nonzero;"/>
            <path d="M203.2,134.4L199.9,131.8L198.6,131.3L196.1,135L196.1,136.7L200.2,136.7L203.2,134.4Z" style="fill-rule:nonzero;"/>
            <path d="M178.5,162.6L183,158.3L185.2,157.7L187.1,154.1L187.4,145.7L184.3,147.3L180.5,147.2L175.5,154.2L171.4,162L174.7,164.1L178.5,162.6Z" style="fill-rule:nonzero;"/>
            <path d="M231.1,140.6L233,143.2L236.7,140.9L237.2,136.6L234.3,132.4L232.9,131.5L229.8,131L230,136.1L231.1,140.6Z" style="fill-rule:nonzero;"/>
            <path d="M201.9,145L202.6,141.6L199.2,139.8L195.7,141L193.8,144.6L197.4,148.2L201.9,145Z" style="fill-rule:nonzero;"/>
            <path d="M183.5,170.6L186.9,172.4L197.9,171.2L192.9,175.3L193.2,178.3L197,178.1L203.1,174.2L211.3,172.7L212.8,168.2L212.3,163.4L209.8,163L207.6,164.7L206.7,161.2L205.7,156L203.3,154.9L201,158.7L204.4,168.2L200.2,167.4L195.9,161.6L189.1,158.2L186.8,161L183.5,170.6Z" style="fill-rule:nonzero;"/>
            <path d="M281.3,432.8L280.4,432.2L279.6,431.4L278.6,431L277.2,430.9L277.3,430.7L275.9,430.6L275.1,431.3L273.6,431.9L272.5,432.5L271.3,432.7L270.7,432.1L270.5,432.3L269.5,432.2L269.5,431.7L268.7,430.9L268.9,430.8L267.7,429.7L266.7,428.8L266.1,427.4L265.6,427.9L264.8,427.7L264.4,427.2L263.6,427L263.1,427.3L261.5,426.6L261.2,427L260.7,427.4L261.3,427.7L261,428.5L261,429.2L261.3,429.7L262,430L262.6,430.6L263.1,430.1L263,429.3L263.6,429.7L263.7,430.5L264.6,430.8L265.6,431.3L266.2,432L266.3,432.5L266,432.9L266.5,433.5L267.7,434L267.7,434.1L268,434.4L268.1,433.7L269.2,433.7L269.8,434L270.8,434.2L271.3,435.2L272.1,435.3L272.4,434.9L272.8,436.4L274,436.2L274.3,435.9L274.9,435.6L273.8,434.3L274,433.8L274.5,433.7L275.5,433L276,432.2L277.1,432.1L278.3,432.7L278.7,433.6L279.3,433.8L278.7,434.4L279.2,435.7L280.1,436.5L280.4,435.2L281.1,435.4L281.6,434.6L281,433.2L281.3,432.8Z" style="fill-rule:nonzero;"/>
            <path d="M97.6,280.8L96.3,281.6L94,283.2L94.5,285.3L95.7,286.5L98.2,284.8L100.2,282.5L99.2,281.2L97.6,280.8Z" style="fill-rule:nonzero;"/>
        </g>
    </g>
</svg>
