<?xml version="1.0" encoding="utf-8"?>
<!-- Generator: Adobe Illustrator 21.1.0, SVG Export Plug-In . SVG Version: 6.00 Build 0)  -->
<svg version="1.0" id="Ebene_1" xmlns="http://www.w3.org/2000/svg" xmlns:xlink="http://www.w3.org/1999/xlink" x="0px" y="0px"
	 viewBox="0 0 500 500" style="enable-background:new 0 0 500 500;" xml:space="preserve">
<style type="text/css">
</style>
<g>
	<path class="st0" d="M156.8,124.8l-3.5,2l-2.6,1.1l0.4,2l-2,3.3l-0.9,3l-1.7,0.7l0.9,4.6l-1.1,1.3l3,2.2l2-2.4l1.1,2.2l-2.6,3.7
		v-0.2l-3.9,3l-1.5,3.5l2.4,4.8l-1.5,2.2l3.5,2l3.9,3.3l1.5,3.7l2,2.2l4.6,10l4.8,9.4l4.1,6.7l-0.9,1.5l2,4.1l3.9,3l8.9,5.7l9.8,5.2
		l0.4,2.2l5,3l2.6-1.3l1.3-2.6l0.4,0.7l-1.3,2.4l-2.6,1.3l1.1,7.4l0.4,8.7l-1.5,12l-1.5,11.3l-0.9,10.7l-2.8,6.7l0.7,7l-1.5,4.8
		l1.1,8.7l-2.2,8.7l-3.5,9.6l-3,9.8l-2.2,0.2l0.4,7l1.5,6.1l-2.2,4.3l-1.7,12.2l-1.5,9.6l3,0.9l1.5-8.5l3.3,1.7l-2.6,14.1l-5.4-2.4
		l-1.7,11.5l-4.8,6.3l7.4,2.2l-5.2,5.7l-2.2,7.2l0.7,13l2.4,5.2l-1.3,4.6l1.5,5l6.1,4.6l5.7,5.7l5.7,2.6l2.2-0.2l0.9-7.8l4.3-3
		l2.4-2h3.5l2.2,0.4l-3.3-4.6l-1.5-8.3l2-3.7l4.6-3l3.3-8.9l5.9-4.1l1.7-6.5l-4.8-1.5l-4.8-5.2l1.5-5.2l3.9-3.7h4.6l1.1-3.7l0.7-7
		l3.9-4.1l4.6-2.2l-1.5-3.5l-2.6,2.2l-3.3-2l-0.7-6.5l2-1.7l4.8,2.4l5-0.9l3-2.4l-0.9-3.3l1.1-4.8l-1.1-3.7l5.4,0.7l10-1.3l7.4-3.5
		l4.8-8l0.2-3l-3-2.6l0.7-4.1l-6.3-5.2l0.4-3l2.8,3l3.3-0.2l4.6,2.6l2.6-0.7l3.7,1.3l5.7-3.3l2.2-3.7l-1.3-3.3l2.2-2.8l-2.8-3.9
		l-3.9-3.3l-5-3.7l-1.7,0.2l-5-4.3l1.7-0.2l5,4.3l1.7-0.2l5,3.7l3.9,3.3l2.8,3.9l-2.2,2.8l1.3,3.3l3.3-3.5l2.2-5.7l3.3-2.8l4.3-4.6
		l5.4-10l3.5-3l1.1-2.8l0.9-5.7l-0.9-3l0.7-4.1l4.1-5.4l5.9-4.3l5.4-1.5l3.5-2.4l7.8-2h5.4l1.1-3.3l3.9-2.4l0.9-5.4l5-7l0.9-7l1.5-2
		l0.4-3.5l1.3-7.8l-0.4-9.6l1.3-3.7h1.3l3.7-4.3l3-5.7l7-7l2.6-3.3l2-8.3l-0.9-3l-1.7-6.3l-1.7-1.5l-4.1-0.2l-3.7-1.5l-6.3-5.4
		l-7.4-4.1l-7.4,0.2l-9.6-2.6l-5.7,1.5l0.9-2.8l-2.4-2.8l-8.3-3l-6.3-1.7l-3.7,3.3l-0.2-5l-8.7-0.9l-1.5-1.5l3.7-4.1l-0.2-3.5
		l-2.6-0.9l-2.8-8.7l-1.3-2.8l-1.7,0.2l-2.8,4.6l-1.5,3.7l-2,2l0,0l1.1-1.1l1.7-3.7l2.8-4.6l-0.9-2l-5.2-4.1l-3.7-1.1l-1.7-0.7
		l-2.6,4.3l0.4,3.5l2,2.8l-0.9,2.2l-0.4,2.2l-0.7,1.1h-0.2l0.4-0.9l0.4-2.2l0.9-2.2l-2-2.8l-0.4-3.5l2.6-4.3l-5.2-1.3l-3.9,0.4
		l-0.4,0.9l-5.7-1.1l0,0l-2-1.7l-2.6-2.4l-2-0.2l-0.2-2.6l-3-3.3l-3.3-1.7l-3.9,3.5l-0.2,0.9l0,0l0.4-1.7l3.9-2.8l-2-1.1l-2.6,0.2
		L246,85l-3.7-2.4l-3.9-0.4l-1.7-2.4l4.1-1.5h-5.9l-6.1,0.2v1.3l-2.8,1.5l-3.7-0.7l-2.8-2.2l-5.2,0.4h-4.3l-0.2-1.7l-3.3-2.8h-3.5
		l-1.7-3.5l-1.7,1.5l0.7,2.4l-6.1,2l0.2,3.7l1.5,1.7l-1.1,3.7l-2.2,0.2l-2-3.9l2.2-2.8v-2.6l-1.5-2.2l2.8-0.7l0.2-0.7l0,0l0.9-1.7
		l-1.3-1.3L192,70l-2.4,2.4l-2,1.1l-3.9,2.6l-3.9-0.4l-0.4,1.1h-3l-2.8,2.4l-0.9,4.1V85l-2,0.4l-3.7,3.5l-2.6-0.2l-0.7,0.7l1.1,3
		l-0.9,1.5l-1.5-0.4l-0.7,2.4l2,2.6l0.9,4.1l-1.1,1.3l1.1,4.6l-0.9,2.8l1.7,1.1l-2,2.6l-2.2,3l-2.4,0.4l-1.1,1.7l0.2,2.4l-1.7,0.4
		l0.7,1.5 M150.1,150.5v0.4l-0.9,0.7v-0.4L150.1,150.5z M186.2,422.8L186.2,422.8l2.4-0.4v0.2L186.2,422.8z"/>
</g>
</svg>
