<?xml version="1.0" encoding="UTF-8" standalone="no"?>
<svg width="100%" height="100%" viewBox="0 0 232 379" version="1.1" xmlns="http://www.w3.org/2000/svg">
    <g transform="matrix(1,0,0,1,-144.4,-70)">
        <path d="M156.8,124.8L153.3,126.8L150.7,127.9L151.1,129.9L149.1,133.2L148.2,136.2L146.5,136.9L147.4,141.5L146.3,142.8L149.3,145L151.3,142.6L152.4,144.8L149.8,148.5L149.8,148.3L145.9,151.3L144.4,154.8L146.8,159.6L145.3,161.8L148.8,163.8L152.7,167.1L154.2,170.8L156.2,173L160.8,183L165.6,192.4L169.7,199.1L168.8,200.6L170.8,204.7L174.7,207.7L183.6,213.4L193.4,218.6L193.8,220.8L198.8,223.8L201.4,222.5L202.7,219.9L203.1,220.6L201.8,223L199.2,224.3L200.3,231.7L200.7,240.4L199.2,252.4L197.7,263.7L196.8,274.4L194,281.1L194.7,288.1L193.2,292.9L194.3,301.6L192.1,310.3L188.6,319.9L185.6,329.7L183.4,329.9L183.8,336.9L185.3,343L183.1,347.3L181.4,359.5L179.9,369.1L182.9,370L184.4,361.5L187.7,363.2L185.1,377.3L179.7,374.9L178,386.4L173.2,392.7L180.6,394.9L175.4,400.6L173.2,407.8L173.9,420.8L176.3,426L175,430.6L176.5,435.6L182.6,440.2L188.3,445.9L194,448.5L196.2,448.3L197.1,440.5L201.4,437.5L203.8,435.5L207.3,435.5L209.5,435.9L206.2,431.3L204.7,423L206.7,419.3L211.3,416.3L214.6,407.4L220.5,403.3L222.2,396.8L217.4,395.3L212.6,390.1L214.1,384.9L218,381.2L222.6,381.2L223.7,377.5L224.4,370.5L228.3,366.4L232.9,364.2L231.4,360.7L228.8,362.9L225.5,360.9L224.8,354.4L226.8,352.7L231.6,355.1L236.6,354.2L239.6,351.8L238.7,348.5L239.8,343.7L238.7,340L244.1,340.7L254.1,339.4L261.5,335.9L266.3,327.9L266.5,324.9L263.5,322.3L264.2,318.2L257.9,313L258.3,310L261.1,313L264.4,312.8L269,315.4L271.6,314.7L275.3,316L281,312.7L283.2,309L281.9,305.7L284.1,302.9L281.3,299L277.4,295.7L272.4,292L270.7,292.2L265.7,287.9L267.4,287.7L272.4,292L274.1,291.8L279.1,295.5L283,298.8L285.8,302.7L283.6,305.5L284.9,308.8L288.2,305.3L290.4,299.6L293.7,296.8L298,292.2L303.4,282.2L306.9,279.2L308,276.4L308.9,270.7L308,267.7L308.7,263.6L312.8,258.2L318.7,253.9L324.1,252.4L327.6,250L335.4,248L340.8,248L341.9,244.7L345.8,242.3L346.7,236.9L351.7,229.9L352.6,222.9L354.1,220.9L354.5,217.4L355.8,209.6L355.4,200L356.7,196.3L358,196.3L361.7,192L364.7,186.3L371.7,179.3L374.3,176L376.3,167.7L375.4,164.7L373.7,158.4L372,156.9L367.9,156.7L364.2,155.2L357.9,149.8L350.5,145.7L343.1,145.9L333.5,143.3L327.8,144.8L328.7,142L326.3,139.2L318,136.2L311.7,134.5L308,137.8L307.8,132.8L299.1,131.9L297.6,130.4L301.3,126.3L301.1,122.8L298.5,121.9L295.7,113.2L294.4,110.4L292.7,110.6L289.9,115.2L288.4,118.9L286.4,120.9L287.5,119.8L289.2,116.1L292,111.5L291.1,109.5L285.9,105.4L282.2,104.3L280.5,103.6L277.9,107.9L278.3,111.4L280.3,114.2L279.4,116.4L279,118.6L278.3,119.7L278.1,119.7L278.5,118.8L278.9,116.6L279.8,114.4L277.8,111.6L277.4,108.1L280,103.8L274.8,102.5L270.9,102.9L270.5,103.8L264.8,102.7L262.8,101L260.2,98.6L258.2,98.4L258,95.8L255,92.5L251.7,90.8L247.8,94.3L247.6,95.2L248,93.5L251.9,90.7L249.9,89.6L247.3,89.8L246,85L242.3,82.6L238.4,82.2L236.7,79.8L240.8,78.3L234.9,78.3L228.8,78.5L228.8,79.8L226,81.3L222.3,80.6L219.5,78.4L214.3,78.8L210,78.8L209.8,77.1L206.5,74.3L203,74.3L201.3,70.8L199.6,72.3L200.3,74.7L194.2,76.7L194.4,80.4L195.9,82.1L194.8,85.8L192.6,86L190.6,82.1L192.8,79.3L192.8,76.7L191.3,74.5L194.1,73.8L194.3,73.1L195.2,71.4L193.9,70.1L192,70L189.6,72.4L187.6,73.5L183.7,76.1L179.8,75.7L179.4,76.8L176.4,76.8L173.6,79.2L172.7,83.3L172.7,85L170.7,85.4L167,88.9L164.4,88.7L163.7,89.4L164.8,92.4L163.9,93.9L162.4,93.5L161.7,95.9L163.7,98.5L164.6,102.6L163.5,103.9L164.6,108.5L163.7,111.3L165.4,112.4L163.4,115L161.2,118L158.8,118.4L157.7,120.1L157.9,122.5L156.2,122.9L156.9,124.4M150.1,150.5L150.1,150.9L149.2,151.6L149.2,151.2L150.1,150.5ZM186.2,422.8L188.6,422.4L188.6,422.6L186.2,422.8Z" style="fill-rule:nonzero;"/>
    </g>
</svg>
