<?xml version="1.0" standalone="no"?>
<svg id="C" width="450" height="460" style="border: 1px solid rgb(153, 153, 153);" xmlns="http://www.w3.org/2000/svg"><g transform="translate(60,40)"><g class="bars"><g><rect x="1.7857142857142776" y="349.3414634146341" width="14.285714285714286" height="20.65853658536588" fill="rgb(175, 240, 91)"></rect></g><g><rect x="19.642857142857135" y="349.3414634146341" width="14.285714285714286" height="20.65853658536588" fill="rgb(175, 240, 91)"></rect><rect x="19.642857142857135" y="327.6829268292683" width="14.285714285714286" height="20.65853658536588" fill="rgb(175, 240, 91)"></rect><rect x="19.642857142857135" y="306.0243902439024" width="14.285714285714286" height="20.65853658536588" fill="rgb(175, 240, 91)"></rect><rect x="19.642857142857135" y="284.3658536585366" width="14.285714285714286" height="20.65853658536588" fill="rgb(175, 240, 91)"></rect></g><g><rect x="37.49999999999999" y="349.3414634146341" width="14.285714285714286" height="20.65853658536588" fill="rgb(175, 240, 91)"></rect></g><g><rect x="55.35714285714285" y="349.3414634146341" width="14.285714285714286" height="20.65853658536588" fill="rgb(175, 240, 91)"></rect><rect x="55.35714285714285" y="327.6829268292683" width="14.285714285714286" height="20.65853658536588" fill="rgb(175, 240, 91)"></rect><rect x="55.35714285714285" y="306.0243902439024" width="14.285714285714286" height="20.65853658536588" fill="rgb(175, 240, 91)"></rect><rect x="55.35714285714285" y="284.3658536585366" width="14.285714285714286" height="20.65853658536588" fill="rgb(175, 240, 91)"></rect><rect x="55.35714285714285" y="262.70731707317077" width="14.285714285714286" height="20.65853658536588" fill="rgb(175, 240, 91)"></rect><rect x="55.35714285714285" y="241.0487804878049" width="14.285714285714286" height="20.65853658536588" fill="rgb(175, 240, 91)"></rect><rect x="55.35714285714285" y="219.39024390243904" width="14.285714285714286" height="20.65853658536588" fill="rgb(175, 240, 91)"></rect><rect x="55.35714285714285" y="197.73170731707316" width="14.285714285714286" height="20.65853658536588" fill="rgb(175, 240, 91)"></rect><rect x="55.35714285714285" y="176.0731707317073" width="14.285714285714286" height="20.65853658536588" fill="rgb(175, 240, 91)"></rect></g><g><rect x="73.21428571428571" y="349.3414634146341" width="14.285714285714286" height="20.65853658536588" fill="rgb(175, 240, 91)"></rect><rect x="73.21428571428571" y="327.6829268292683" width="14.285714285714286" height="20.65853658536588" fill="rgb(175, 240, 91)"></rect><rect x="73.21428571428571" y="306.0243902439024" width="14.285714285714286" height="20.65853658536588" fill="rgb(175, 240, 91)"></rect><rect x="73.21428571428571" y="284.3658536585366" width="14.285714285714286" height="20.65853658536588" fill="rgb(175, 240, 91)"></rect><rect x="73.21428571428571" y="262.70731707317077" width="14.285714285714286" height="20.65853658536588" fill="rgb(175, 240, 91)"></rect></g><g><rect x="91.07142857142857" y="349.3414634146341" width="14.285714285714286" height="20.65853658536588" fill="rgb(175, 240, 91)"></rect><rect x="91.07142857142857" y="327.6829268292683" width="14.285714285714286" height="20.65853658536588" fill="rgb(175, 240, 91)"></rect><rect x="91.07142857142857" y="306.0243902439024" width="14.285714285714286" height="20.65853658536588" fill="rgb(175, 240, 91)"></rect></g><g><rect x="108.92857142857142" y="349.3414634146341" width="14.285714285714286" height="20.65853658536588" fill="rgb(175, 240, 91)"></rect><rect x="108.92857142857142" y="327.6829268292683" width="14.285714285714286" height="20.65853658536588" fill="rgb(175, 240, 91)"></rect><rect x="108.92857142857142" y="306.0243902439024" width="14.285714285714286" height="20.65853658536588" fill="rgb(175, 240, 91)"></rect><rect x="108.92857142857142" y="284.3658536585366" width="14.285714285714286" height="20.65853658536588" fill="rgb(175, 240, 91)"></rect><rect x="108.92857142857142" y="262.70731707317077" width="14.285714285714286" height="20.65853658536588" fill="rgb(175, 240, 91)"></rect><rect x="108.92857142857142" y="241.0487804878049" width="14.285714285714286" height="20.65853658536588" fill="rgb(175, 240, 91)"></rect></g><g><rect x="126.78571428571428" y="349.3414634146341" width="14.285714285714286" height="20.65853658536588" fill="rgb(175, 240, 91)"></rect><rect x="126.78571428571428" y="327.6829268292683" width="14.285714285714286" height="20.65853658536588" fill="rgb(175, 240, 91)"></rect><rect x="126.78571428571428" y="306.0243902439024" width="14.285714285714286" height="20.65853658536588" fill="rgb(175, 240, 91)"></rect><rect x="126.78571428571428" y="284.3658536585366" width="14.285714285714286" height="20.65853658536588" fill="rgb(175, 240, 91)"></rect><rect x="126.78571428571428" y="262.70731707317077" width="14.285714285714286" height="20.65853658536588" fill="rgb(175, 240, 91)"></rect><rect x="126.78571428571428" y="241.0487804878049" width="14.285714285714286" height="20.65853658536588" fill="rgb(175, 240, 91)"></rect><rect x="126.78571428571428" y="219.39024390243904" width="14.285714285714286" height="20.65853658536588" fill="rgb(175, 240, 91)"></rect><rect x="126.78571428571428" y="197.73170731707316" width="14.285714285714286" height="20.65853658536588" fill="rgb(175, 240, 91)"></rect><rect x="126.78571428571428" y="176.0731707317073" width="14.285714285714286" height="20.65853658536588" fill="rgb(175, 240, 91)"></rect><rect x="126.78571428571428" y="154.41463414634148" width="14.285714285714286" height="20.65853658536588" fill="rgb(175, 240, 91)"></rect><rect x="126.78571428571428" y="132.7560975609756" width="14.285714285714286" height="20.65853658536588" fill="rgb(175, 240, 91)"></rect></g><g><rect x="144.64285714285714" y="349.3414634146341" width="14.285714285714286" height="20.65853658536588" fill="rgb(175, 240, 91)"></rect><rect x="144.64285714285714" y="327.6829268292683" width="14.285714285714286" height="20.65853658536588" fill="rgb(175, 240, 91)"></rect><rect x="144.64285714285714" y="306.0243902439024" width="14.285714285714286" height="20.65853658536588" fill="rgb(175, 240, 91)"></rect><rect x="144.64285714285714" y="284.3658536585366" width="14.285714285714286" height="20.65853658536588" fill="rgb(175, 240, 91)"></rect><rect x="144.64285714285714" y="262.70731707317077" width="14.285714285714286" height="20.65853658536588" fill="rgb(175, 240, 91)"></rect><rect x="144.64285714285714" y="241.0487804878049" width="14.285714285714286" height="20.65853658536588" fill="rgb(175, 240, 91)"></rect><rect x="144.64285714285714" y="219.39024390243904" width="14.285714285714286" height="20.65853658536588" fill="rgb(175, 240, 91)"></rect><rect x="144.64285714285714" y="197.73170731707316" width="14.285714285714286" height="20.65853658536588" fill="rgb(175, 240, 91)"></rect><rect x="144.64285714285714" y="176.0731707317073" width="14.285714285714286" height="20.65853658536588" fill="rgb(175, 240, 91)"></rect><rect x="144.64285714285714" y="154.41463414634148" width="14.285714285714286" height="20.65853658536588" fill="rgb(175, 240, 91)"></rect></g><g><rect x="162.5" y="349.3414634146341" width="14.285714285714286" height="20.65853658536588" fill="rgb(175, 240, 91)"></rect><rect x="162.5" y="327.6829268292683" width="14.285714285714286" height="20.65853658536588" fill="rgb(175, 240, 91)"></rect><rect x="162.5" y="306.0243902439024" width="14.285714285714286" height="20.65853658536588" fill="rgb(175, 240, 91)"></rect><rect x="162.5" y="284.3658536585366" width="14.285714285714286" height="20.65853658536588" fill="rgb(175, 240, 91)"></rect><rect x="162.5" y="262.70731707317077" width="14.285714285714286" height="20.65853658536588" fill="rgb(175, 240, 91)"></rect><rect x="162.5" y="241.0487804878049" width="14.285714285714286" height="20.65853658536588" fill="rgb(175, 240, 91)"></rect></g><g><rect x="180.35714285714286" y="349.3414634146341" width="14.285714285714286" height="20.65853658536588" fill="rgb(175, 240, 91)"></rect><rect x="180.35714285714286" y="327.6829268292683" width="14.285714285714286" height="20.65853658536588" fill="rgb(175, 240, 91)"></rect><rect x="180.35714285714286" y="306.0243902439024" width="14.285714285714286" height="20.65853658536588" fill="rgb(175, 240, 91)"></rect><rect x="180.35714285714286" y="284.3658536585366" width="14.285714285714286" height="20.65853658536588" fill="rgb(175, 240, 91)"></rect><rect x="180.35714285714286" y="262.70731707317077" width="14.285714285714286" height="20.65853658536588" fill="rgb(175, 240, 91)"></rect><rect x="180.35714285714286" y="241.0487804878049" width="14.285714285714286" height="20.65853658536588" fill="rgb(175, 240, 91)"></rect><rect x="180.35714285714286" y="219.39024390243904" width="14.285714285714286" height="20.65853658536588" fill="rgb(175, 240, 91)"></rect></g><g><rect x="198.21428571428572" y="349.3414634146341" width="14.285714285714286" height="20.65853658536588" fill="rgb(175, 240, 91)"></rect><rect x="198.21428571428572" y="327.6829268292683" width="14.285714285714286" height="20.65853658536588" fill="rgb(175, 240, 91)"></rect><rect x="198.21428571428572" y="318.6585365853659" width="14.285714285714286" height="8.024390243902417" fill="rgb(33, 176, 213)"></rect><rect x="198.21428571428572" y="297" width="14.285714285714286" height="20.65853658536588" fill="rgb(175, 240, 91)"></rect><rect x="198.21428571428572" y="275.3414634146342" width="14.285714285714286" height="20.65853658536588" fill="rgb(175, 240, 91)"></rect><rect x="198.21428571428572" y="253.6829268292683" width="14.285714285714286" height="20.65853658536588" fill="rgb(175, 240, 91)"></rect><rect x="198.21428571428572" y="232.02439024390245" width="14.285714285714286" height="20.65853658536588" fill="rgb(175, 240, 91)"></rect><rect x="198.21428571428572" y="210.3658536585366" width="14.285714285714286" height="20.65853658536588" fill="rgb(175, 240, 91)"></rect><rect x="198.21428571428572" y="188.70731707317074" width="14.285714285714286" height="20.65853658536588" fill="rgb(175, 240, 91)"></rect><rect x="198.21428571428572" y="167.04878048780486" width="14.285714285714286" height="20.65853658536588" fill="rgb(175, 240, 91)"></rect><rect x="198.21428571428572" y="145.39024390243904" width="14.285714285714286" height="20.65853658536588" fill="rgb(175, 240, 91)"></rect><rect x="198.21428571428572" y="123.73170731707316" width="14.285714285714286" height="20.65853658536588" fill="rgb(175, 240, 91)"></rect><rect x="198.21428571428572" y="102.07317073170731" width="14.285714285714286" height="20.65853658536588" fill="rgb(175, 240, 91)"></rect><rect x="198.21428571428572" y="80.41463414634143" width="14.285714285714286" height="20.65853658536588" fill="rgb(175, 240, 91)"></rect><rect x="198.21428571428572" y="73.1951219512195" width="14.285714285714286" height="6.219512195121979" fill="rgb(47, 150, 224)"></rect><rect x="198.21428571428572" y="58.756097560975604" width="14.285714285714286" height="13.439024390243901" fill="rgb(40, 234, 141)"></rect><rect x="198.21428571428572" y="51.53658536585368" width="14.285714285714286" height="6.219512195121979" fill="rgb(47, 150, 224)"></rect><rect x="198.21428571428572" y="37.097560975609724" width="14.285714285714286" height="13.439024390243901" fill="rgb(40, 234, 141)"></rect><rect x="198.21428571428572" y="29.878048780487802" width="14.285714285714286" height="6.219512195121979" fill="rgb(47, 150, 224)"></rect><rect x="198.21428571428572" y="22.65853658536588" width="14.285714285714286" height="6.219512195121979" fill="rgb(47, 150, 224)"></rect><rect x="198.21428571428572" y="1" width="14.285714285714286" height="20.65853658536588" fill="rgb(175, 240, 91)"></rect></g><g><rect x="216.07142857142856" y="363.780487804878" width="14.285714285714286" height="6.219512195121979" fill="rgb(47, 150, 224)"></rect><rect x="216.07142857142856" y="356.5609756097561" width="14.285714285714286" height="6.219512195121979" fill="rgb(47, 150, 224)"></rect><rect x="216.07142857142856" y="342.1219512195122" width="14.285714285714286" height="13.439024390243901" fill="rgb(40, 234, 141)"></rect><rect x="216.07142857142856" y="333.0975609756098" width="14.285714285714286" height="8.024390243902417" fill="rgb(33, 176, 213)"></rect><rect x="216.07142857142856" y="311.4390243902439" width="14.285714285714286" height="20.65853658536588" fill="rgb(175, 240, 91)"></rect><rect x="216.07142857142856" y="302.4146341463415" width="14.285714285714286" height="8.024390243902417" fill="rgb(33, 176, 213)"></rect><rect x="216.07142857142856" y="293.390243902439" width="14.285714285714286" height="8.024390243902417" fill="rgb(33, 176, 213)"></rect><rect x="216.07142857142856" y="284.3658536585366" width="14.285714285714286" height="8.024390243902417" fill="rgb(33, 176, 213)"></rect><rect x="216.07142857142856" y="275.3414634146342" width="14.285714285714286" height="8.024390243902417" fill="rgb(33, 176, 213)"></rect><rect x="216.07142857142856" y="266.3170731707317" width="14.285714285714286" height="8.024390243902417" fill="rgb(33, 176, 213)"></rect><rect x="216.07142857142856" y="257.2926829268293" width="14.285714285714286" height="8.024390243902417" fill="rgb(33, 176, 213)"></rect><rect x="216.07142857142856" y="248.2682926829268" width="14.285714285714286" height="8.024390243902417" fill="rgb(33, 176, 213)"></rect></g><g><rect x="233.92857142857142" y="363.780487804878" width="14.285714285714286" height="6.219512195121979" fill="rgb(47, 150, 224)"></rect><rect x="233.92857142857142" y="356.5609756097561" width="14.285714285714286" height="6.219512195121979" fill="rgb(47, 150, 224)"></rect><rect x="233.92857142857142" y="349.3414634146341" width="14.285714285714286" height="6.219512195121979" fill="rgb(47, 150, 224)"></rect><rect x="233.92857142857142" y="342.1219512195122" width="14.285714285714286" height="6.219512195121979" fill="rgb(47, 150, 224)"></rect><rect x="233.92857142857142" y="334.9024390243902" width="14.285714285714286" height="6.219512195121979" fill="rgb(47, 150, 224)"></rect><rect x="233.92857142857142" y="318.6585365853659" width="14.285714285714286" height="15.243902439024396" fill="rgb(64, 243, 115)"></rect></g><path class="graph" fill="none" stroke="orange" stroke-width="1.5" d="M8.92857142857142,0L26.785714285714278,0L44.64285714285714,0L62.49999999999999,0L80.35714285714285,0L98.21428571428571,0L116.07142857142856,0L133.92857142857142,0L151.78571428571428,0L169.64285714285714,0L187.5,0L205.35714285714286,69.00793650793645L223.2142857142857,195.27777777777777L241.07142857142856,220.97222222222223"></path><path class="chosenDur" fill="none" stroke="gray" stroke-width="0.4" d="M8.92857142857142,0L26.785714285714278,0L44.64285714285714,0L62.49999999999999,0L80.35714285714285,0L98.21428571428571,0L116.07142857142856,0L133.92857142857142,0L151.78571428571428,0L169.64285714285714,0L187.5,0L205.35714285714286,0L223.2142857142857,0L241.07142857142856,0"></path></g><g class="beschriftung"><text font-size="11px" fill="black" x="125" y="-20" style="font-weight: bold; text-anchor: middle;">Person C: Totale Dauer &amp; Animationszahl pro Aufgabe</text><g transform="translate(310, -5)"><text font-size="11px" fill="black" x="0" y="-5" dy="-0.4ex">Dauer in s</text><rect x="0" y="0" width="15" height="10" fill="rgb(175, 240, 91)"></rect><rect x="0" y="12" width="15" height="10" fill="rgb(135, 245, 87)"></rect><rect x="0" y="24" width="15" height="10" fill="rgb(96, 247, 96)"></rect><rect x="0" y="36" width="15" height="10" fill="rgb(64, 243, 115)"></rect><rect x="0" y="48" width="15" height="10" fill="rgb(40, 234, 141)"></rect><rect x="0" y="60" width="15" height="10" fill="rgb(28, 219, 169)"></rect><rect x="0" y="72" width="15" height="10" fill="rgb(26, 199, 194)"></rect><rect x="0" y="84" width="15" height="10" fill="rgb(33, 176, 213)"></rect><rect x="0" y="96" width="15" height="10" fill="rgb(47, 150, 224)"></rect><rect x="0" y="108" width="15" height="10" fill="rgb(65, 125, 224)"></rect><rect x="0" y="120" width="15" height="10" fill="rgb(84, 101, 214)"></rect><rect x="0" y="132" width="15" height="10" fill="rgb(99, 81, 195)"></rect><rect x="0" y="151.2" width="15" height="2" fill="orange"></rect><rect x="0" y="164.39999999999998" width="15" height="0.4" fill="gray"></rect><text class="legende" font-size="11px" fill="black" x="20" y="12" dy="-0.5ex">3 s</text><text class="legende" font-size="11px" fill="black" x="20" y="24" dy="-0.5ex">2.75 s</text><text class="legende" font-size="11px" fill="black" x="20" y="36" dy="-0.5ex">2.5 s</text><text class="legende" font-size="11px" fill="black" x="20" y="48" dy="-0.5ex">2.25 s</text><text class="legende" font-size="11px" fill="black" x="20" y="60" dy="-0.5ex">2 s</text><text class="legende" font-size="11px" fill="black" x="20" y="72" dy="-0.5ex">1.75 s</text><text class="legende" font-size="11px" fill="black" x="20" y="84" dy="-0.5ex">1.5 s</text><text class="legende" font-size="11px" fill="black" x="20" y="96" dy="-0.5ex">1.25 s</text><text class="legende" font-size="11px" fill="black" x="20" y="108" dy="-0.5ex">1 s</text><text class="legende" font-size="11px" fill="black" x="20" y="120" dy="-0.5ex">0.75 s</text><text class="legende" font-size="11px" fill="black" x="20" y="132" dy="-0.5ex">0.5 s</text><text class="legende" font-size="11px" fill="black" x="20" y="144" dy="-0.5ex">0.25 s</text><text class="legende" font-size="11px" fill="black" x="20" y="156" dy="-0.2ex">Mittel</text><text class="legende" font-size="11px" fill="black" x="20" y="168" dy="-0.2ex">fav. Dauer</text></g><text class="total" x="8.92857142857142" y="348.3414634146341" font-size="11px" fill="black" style="text-anchor: middle;" dy="-0.5ex">1</text><text class="total" x="26.785714285714278" y="283.3658536585366" font-size="11px" fill="black" style="text-anchor: middle;" dy="-0.5ex">4</text><text class="total" x="44.64285714285714" y="348.3414634146341" font-size="11px" fill="black" style="text-anchor: middle;" dy="-0.5ex">1</text><text class="total" x="62.49999999999999" y="175.0731707317073" font-size="11px" fill="black" style="text-anchor: middle;" dy="-0.5ex">9</text><text class="total" x="80.35714285714285" y="261.70731707317077" font-size="11px" fill="black" style="text-anchor: middle;" dy="-0.5ex">5</text><text class="total" x="98.21428571428571" y="305.0243902439024" font-size="11px" fill="black" style="text-anchor: middle;" dy="-0.5ex">3</text><text class="total" x="116.07142857142856" y="240.0487804878049" font-size="11px" fill="black" style="text-anchor: middle;" dy="-0.5ex">6</text><text class="total" x="133.92857142857142" y="131.7560975609756" font-size="11px" fill="black" style="text-anchor: middle;" dy="-0.5ex">11</text><text class="total" x="151.78571428571428" y="153.41463414634148" font-size="11px" fill="black" style="text-anchor: middle;" dy="-0.5ex">10</text><text class="total" x="169.64285714285714" y="240.0487804878049" font-size="11px" fill="black" style="text-anchor: middle;" dy="-0.5ex">6</text><text class="total" x="187.5" y="218.39024390243904" font-size="11px" fill="black" style="text-anchor: middle;" dy="-0.5ex">7</text><text class="total" x="205.35714285714286" y="0" font-size="11px" fill="black" style="text-anchor: middle;" dy="-0.5ex">21</text><text class="total" x="223.2142857142857" y="247.2682926829268" font-size="11px" fill="black" style="text-anchor: middle;" dy="-0.5ex">12</text><text class="total" x="241.07142857142856" y="317.6585365853659" font-size="11px" fill="black" style="text-anchor: middle;" dy="-0.5ex">6</text></g><g class="x axis" transform="translate(0,370)" fill="none" font-size="10" font-family="sans-serif" text-anchor="middle"><path class="domain" stroke="currentColor" d="M0.5,6V0.5H250.5V6"></path><g class="tick" opacity="1" transform="translate(8.92857142857142,0)"><line stroke="currentColor" y2="6"></line><text fill="black" y="9" dy=".71em" transform="translate(0,1)" font-size="11px" style="text-anchor: middle;">1</text></g><g class="tick" opacity="1" transform="translate(26.785714285714278,0)"><line stroke="currentColor" y2="6"></line><text fill="black" y="9" dy=".71em" transform="translate(0,1)" font-size="11px" style="text-anchor: middle;">2</text></g><g class="tick" opacity="1" transform="translate(44.64285714285714,0)"><line stroke="currentColor" y2="6"></line><text fill="black" y="9" dy=".71em" transform="translate(0,1)" font-size="11px" style="text-anchor: middle;">3</text></g><g class="tick" opacity="1" transform="translate(62.49999999999999,0)"><line stroke="currentColor" y2="6"></line><text fill="black" y="9" dy=".71em" transform="translate(0,1)" font-size="11px" style="text-anchor: middle;">4</text></g><g class="tick" opacity="1" transform="translate(80.35714285714285,0)"><line stroke="currentColor" y2="6"></line><text fill="black" y="9" dy=".71em" transform="translate(0,1)" font-size="11px" style="text-anchor: middle;">5</text></g><g class="tick" opacity="1" transform="translate(98.21428571428571,0)"><line stroke="currentColor" y2="6"></line><text fill="black" y="9" dy=".71em" transform="translate(0,1)" font-size="11px" style="text-anchor: middle;">6</text></g><g class="tick" opacity="1" transform="translate(116.07142857142856,0)"><line stroke="currentColor" y2="6"></line><text fill="black" y="9" dy=".71em" transform="translate(0,1)" font-size="11px" style="text-anchor: middle;">7</text></g><g class="tick" opacity="1" transform="translate(133.92857142857142,0)"><line stroke="currentColor" y2="6"></line><text fill="black" y="9" dy=".71em" transform="translate(0,1)" font-size="11px" style="text-anchor: middle;">8</text></g><g class="tick" opacity="1" transform="translate(151.78571428571428,0)"><line stroke="currentColor" y2="6"></line><text fill="black" y="9" dy=".71em" transform="translate(0,1)" font-size="11px" style="text-anchor: middle;">9</text></g><g class="tick" opacity="1" transform="translate(169.64285714285714,0)"><line stroke="currentColor" y2="6"></line><text fill="black" y="9" dy=".71em" transform="translate(0,1)" font-size="11px" style="text-anchor: middle;">10</text></g><g class="tick" opacity="1" transform="translate(187.5,0)"><line stroke="currentColor" y2="6"></line><text fill="black" y="9" dy=".71em" transform="translate(0,1)" font-size="11px" style="text-anchor: middle;">11</text></g><g class="tick" opacity="1" transform="translate(205.35714285714286,0)"><line stroke="currentColor" y2="6"></line><text fill="black" y="9" dy=".71em" transform="translate(0,1)" font-size="11px" style="text-anchor: middle;">12</text></g><g class="tick" opacity="1" transform="translate(223.2142857142857,0)"><line stroke="currentColor" y2="6"></line><text fill="black" y="9" dy=".71em" transform="translate(0,1)" font-size="11px" style="text-anchor: middle;">13</text></g><g class="tick" opacity="1" transform="translate(241.07142857142856,0)"><line stroke="currentColor" y2="6"></line><text fill="black" y="9" dy=".71em" transform="translate(0,1)" font-size="11px" style="text-anchor: middle;">14</text></g><text transform="translate(125, 23)" font-size="11px" fill="black" dy=".71em" style="text-anchor: middle;">Aufgaben-Nr.</text></g><g class="y axis" fill="none" font-size="10" font-family="sans-serif" text-anchor="end"><path class="domain" stroke="currentColor" d="M-6,370.5H0.5V0.5H-6"></path><g class="tick" opacity="1" transform="translate(0,370.5)"><line stroke="currentColor" x2="-6"></line><text fill="currentColor" x="-9" dy="0.32em">0</text></g><g class="tick" opacity="1" transform="translate(0,334.4024390243902)"><line stroke="currentColor" x2="-6"></line><text fill="currentColor" x="-9" dy="0.32em">5</text></g><g class="tick" opacity="1" transform="translate(0,298.3048780487805)"><line stroke="currentColor" x2="-6"></line><text fill="currentColor" x="-9" dy="0.32em">10</text></g><g class="tick" opacity="1" transform="translate(0,262.20731707317077)"><line stroke="currentColor" x2="-6"></line><text fill="currentColor" x="-9" dy="0.32em">15</text></g><g class="tick" opacity="1" transform="translate(0,226.10975609756096)"><line stroke="currentColor" x2="-6"></line><text fill="currentColor" x="-9" dy="0.32em">20</text></g><g class="tick" opacity="1" transform="translate(0,190.01219512195124)"><line stroke="currentColor" x2="-6"></line><text fill="currentColor" x="-9" dy="0.32em">25</text></g><g class="tick" opacity="1" transform="translate(0,153.91463414634148)"><line stroke="currentColor" x2="-6"></line><text fill="currentColor" x="-9" dy="0.32em">30</text></g><g class="tick" opacity="1" transform="translate(0,117.81707317073167)"><line stroke="currentColor" x2="-6"></line><text fill="currentColor" x="-9" dy="0.32em">35</text></g><g class="tick" opacity="1" transform="translate(0,81.71951219512192)"><line stroke="currentColor" x2="-6"></line><text fill="currentColor" x="-9" dy="0.32em">40</text></g><g class="tick" opacity="1" transform="translate(0,45.6219512195122)"><line stroke="currentColor" x2="-6"></line><text fill="currentColor" x="-9" dy="0.32em">45</text></g><g class="tick" opacity="1" transform="translate(0,9.524390243902474)"><line stroke="currentColor" x2="-6"></line><text fill="currentColor" x="-9" dy="0.32em">50</text></g><text transform="translate(-38,185) rotate(-90)" font-size="11px" fill="black" dy=".71em" style="text-anchor: middle;">Totale Dauer in sec</text></g><g class="y axis" transform="translate(250, 0)" fill="none" font-size="10" font-family="sans-serif" text-anchor="start"><path class="domain" stroke="currentColor" d="M6,370.5H0.5V0.5H6"></path><g class="tick" opacity="1" transform="translate(0,370.5)"><line stroke="currentColor" x2="6"></line><text fill="currentColor" x="9" dy="0.32em">0.0</text></g><g class="tick" opacity="1" transform="translate(0,345.8333333333333)"><line stroke="currentColor" x2="6"></line><text fill="currentColor" x="9" dy="0.32em">0.2</text></g><g class="tick" opacity="1" transform="translate(0,321.1666666666667)"><line stroke="currentColor" x2="6"></line><text fill="currentColor" x="9" dy="0.32em">0.4</text></g><g class="tick" opacity="1" transform="translate(0,296.5)"><line stroke="currentColor" x2="6"></line><text fill="currentColor" x="9" dy="0.32em">0.6</text></g><g class="tick" opacity="1" transform="translate(0,271.8333333333333)"><line stroke="currentColor" x2="6"></line><text fill="currentColor" x="9" dy="0.32em">0.8</text></g><g class="tick" opacity="1" transform="translate(0,247.16666666666669)"><line stroke="currentColor" x2="6"></line><text fill="currentColor" x="9" dy="0.32em">1.0</text></g><g class="tick" opacity="1" transform="translate(0,222.5)"><line stroke="currentColor" x2="6"></line><text fill="currentColor" x="9" dy="0.32em">1.2</text></g><g class="tick" opacity="1" transform="translate(0,197.83333333333334)"><line stroke="currentColor" x2="6"></line><text fill="currentColor" x="9" dy="0.32em">1.4</text></g><g class="tick" opacity="1" transform="translate(0,173.16666666666666)"><line stroke="currentColor" x2="6"></line><text fill="currentColor" x="9" dy="0.32em">1.6</text></g><g class="tick" opacity="1" transform="translate(0,148.5)"><line stroke="currentColor" x2="6"></line><text fill="currentColor" x="9" dy="0.32em">1.8</text></g><g class="tick" opacity="1" transform="translate(0,123.83333333333334)"><line stroke="currentColor" x2="6"></line><text fill="currentColor" x="9" dy="0.32em">2.0</text></g><g class="tick" opacity="1" transform="translate(0,99.16666666666663)"><line stroke="currentColor" x2="6"></line><text fill="currentColor" x="9" dy="0.32em">2.2</text></g><g class="tick" opacity="1" transform="translate(0,74.5)"><line stroke="currentColor" x2="6"></line><text fill="currentColor" x="9" dy="0.32em">2.4</text></g><g class="tick" opacity="1" transform="translate(0,49.833333333333314)"><line stroke="currentColor" x2="6"></line><text fill="currentColor" x="9" dy="0.32em">2.6</text></g><g class="tick" opacity="1" transform="translate(0,25.166666666666686)"><line stroke="currentColor" x2="6"></line><text fill="currentColor" x="9" dy="0.32em">2.8</text></g><g class="tick" opacity="1" transform="translate(0,0.5)"><line stroke="currentColor" x2="6"></line><text fill="currentColor" x="9" dy="0.32em">3.0</text></g><text transform="translate(38,185) rotate(-90)" font-size="11px" fill="black" dy="0em" style="text-anchor: middle;">Durchschnittl. Dauer pro Transition in sec</text></g></g></svg>