<?xml version="1.0" standalone="no"?>
<svg id="B" width="450" height="460" style="border: 1px solid rgb(153, 153, 153);" xmlns="http://www.w3.org/2000/svg"><g transform="translate(60,40)"><g class="bars"><g><rect x="1.7857142857142776" y="251.6451612903226" width="14.285714285714286" height="118.35483870967741" fill="rgb(96, 247, 96)"></rect><rect x="1.7857142857142776" y="132.29032258064518" width="14.285714285714286" height="118.35483870967741" fill="rgb(96, 247, 96)"></rect><rect x="1.7857142857142776" y="12.935483870967744" width="14.285714285714286" height="118.35483870967741" fill="rgb(96, 247, 96)"></rect></g><g><rect x="19.642857142857135" y="335.19354838709677" width="14.285714285714286" height="34.80645161290323" fill="rgb(65, 125, 224)"></rect></g><g><rect x="37.49999999999999" y="251.6451612903226" width="14.285714285714286" height="118.35483870967741" fill="rgb(96, 247, 96)"></rect><rect x="37.49999999999999" y="132.29032258064518" width="14.285714285714286" height="118.35483870967741" fill="rgb(96, 247, 96)"></rect><rect x="37.49999999999999" y="12.935483870967744" width="14.285714285714286" height="118.35483870967741" fill="rgb(96, 247, 96)"></rect></g><g><rect x="55.35714285714285" y="335.19354838709677" width="14.285714285714286" height="34.80645161290323" fill="rgb(65, 125, 224)"></rect><rect x="55.35714285714285" y="299.38709677419354" width="14.285714285714286" height="34.80645161290323" fill="rgb(65, 125, 224)"></rect></g><g><rect x="73.21428571428571" y="335.19354838709677" width="14.285714285714286" height="34.80645161290323" fill="rgb(65, 125, 224)"></rect><rect x="73.21428571428571" y="299.38709677419354" width="14.285714285714286" height="34.80645161290323" fill="rgb(65, 125, 224)"></rect><rect x="73.21428571428571" y="263.5806451612903" width="14.285714285714286" height="34.80645161290323" fill="rgb(65, 125, 224)"></rect><rect x="73.21428571428571" y="227.7741935483871" width="14.285714285714286" height="34.80645161290323" fill="rgb(65, 125, 224)"></rect></g><g><rect x="91.07142857142857" y="335.19354838709677" width="14.285714285714286" height="34.80645161290323" fill="rgb(65, 125, 224)"></rect><rect x="91.07142857142857" y="299.38709677419354" width="14.285714285714286" height="34.80645161290323" fill="rgb(65, 125, 224)"></rect></g><g><rect x="108.92857142857142" y="335.19354838709677" width="14.285714285714286" height="34.80645161290323" fill="rgb(65, 125, 224)"></rect><rect x="108.92857142857142" y="299.38709677419354" width="14.285714285714286" height="34.80645161290323" fill="rgb(65, 125, 224)"></rect><rect x="108.92857142857142" y="263.5806451612903" width="14.285714285714286" height="34.80645161290323" fill="rgb(65, 125, 224)"></rect></g><g><rect x="126.78571428571428" y="335.19354838709677" width="14.285714285714286" height="34.80645161290323" fill="rgb(65, 125, 224)"></rect><rect x="126.78571428571428" y="299.38709677419354" width="14.285714285714286" height="34.80645161290323" fill="rgb(65, 125, 224)"></rect><rect x="126.78571428571428" y="263.5806451612903" width="14.285714285714286" height="34.80645161290323" fill="rgb(65, 125, 224)"></rect><rect x="126.78571428571428" y="132.29032258064518" width="14.285714285714286" height="130.29032258064518" fill="rgb(135, 245, 87)"></rect><rect x="126.78571428571428" y="1" width="14.285714285714286" height="130.29032258064518" fill="rgb(135, 245, 87)"></rect></g><g><rect x="144.64285714285714" y="239.70967741935482" width="14.285714285714286" height="130.29032258064518" fill="rgb(135, 245, 87)"></rect><rect x="144.64285714285714" y="108.41935483870964" width="14.285714285714286" height="130.29032258064518" fill="rgb(135, 245, 87)"></rect></g><g><rect x="162.5" y="251.6451612903226" width="14.285714285714286" height="118.35483870967741" fill="rgb(96, 247, 96)"></rect><rect x="162.5" y="132.29032258064518" width="14.285714285714286" height="118.35483870967741" fill="rgb(96, 247, 96)"></rect></g><g><rect x="180.35714285714286" y="239.70967741935482" width="14.285714285714286" height="130.29032258064518" fill="rgb(135, 245, 87)"></rect><rect x="180.35714285714286" y="108.41935483870964" width="14.285714285714286" height="130.29032258064518" fill="rgb(135, 245, 87)"></rect></g><g><rect x="198.21428571428572" y="335.19354838709677" width="14.285714285714286" height="34.80645161290323" fill="rgb(65, 125, 224)"></rect><rect x="198.21428571428572" y="275.51612903225805" width="14.285714285714286" height="58.67741935483872" fill="rgb(33, 176, 213)"></rect><rect x="198.21428571428572" y="180.03225806451613" width="14.285714285714286" height="94.48387096774195" fill="rgb(40, 234, 141)"></rect></g><g><rect x="216.07142857142856" y="335.19354838709677" width="14.285714285714286" height="34.80645161290323" fill="rgb(65, 125, 224)"></rect></g><g><rect x="233.92857142857142" y="299.38709677419354" width="14.285714285714286" height="70.61290322580646" fill="rgb(26, 199, 194)"></rect><rect x="233.92857142857142" y="227.7741935483871" width="14.285714285714286" height="70.61290322580646" fill="rgb(26, 199, 194)"></rect><rect x="233.92857142857142" y="132.29032258064518" width="14.285714285714286" height="94.48387096774195" fill="rgb(40, 234, 141)"></rect><rect x="233.92857142857142" y="36.80645161290323" width="14.285714285714286" height="94.48387096774195" fill="rgb(40, 234, 141)"></rect></g><path class="graph" fill="none" stroke="orange" stroke-width="1.5" d="M8.92857142857142,61.66666666666663L26.785714285714278,277.5L44.64285714285714,61.66666666666663L62.49999999999999,277.5L80.35714285714285,277.5L98.21428571428571,277.5L116.07142857142856,277.5L133.92857142857142,178.83333333333331L151.78571428571428,30.83333333333337L169.64285714285714,61.66666666666663L187.5,30.83333333333337L205.35714285714286,205.55555555555557L223.2142857142857,277.5L241.07142857142856,154.16666666666666"></path><path class="chosenDur" fill="none" stroke="gray" stroke-width="0.4" d="M8.92857142857142,123.33333333333334L26.785714285714278,123.33333333333334L44.64285714285714,123.33333333333334L62.49999999999999,123.33333333333334L80.35714285714285,123.33333333333334L98.21428571428571,123.33333333333334L116.07142857142856,123.33333333333334L133.92857142857142,123.33333333333334L151.78571428571428,123.33333333333334L169.64285714285714,123.33333333333334L187.5,123.33333333333334L205.35714285714286,123.33333333333334L223.2142857142857,123.33333333333334L241.07142857142856,123.33333333333334"></path></g><g class="beschriftung"><text font-size="11px" fill="black" x="125" y="-20" style="font-weight: bold; text-anchor: middle;">Person B: Totale Dauer &amp; Animationszahl pro Aufgabe</text><g transform="translate(310, -5)"><text font-size="11px" fill="black" x="0" y="-5" dy="-0.4ex">Dauer in s</text><rect x="0" y="0" width="15" height="10" fill="rgb(175, 240, 91)"></rect><rect x="0" y="12" width="15" height="10" fill="rgb(135, 245, 87)"></rect><rect x="0" y="24" width="15" height="10" fill="rgb(96, 247, 96)"></rect><rect x="0" y="36" width="15" height="10" fill="rgb(64, 243, 115)"></rect><rect x="0" y="48" width="15" height="10" fill="rgb(40, 234, 141)"></rect><rect x="0" y="60" width="15" height="10" fill="rgb(28, 219, 169)"></rect><rect x="0" y="72" width="15" height="10" fill="rgb(26, 199, 194)"></rect><rect x="0" y="84" width="15" height="10" fill="rgb(33, 176, 213)"></rect><rect x="0" y="96" width="15" height="10" fill="rgb(47, 150, 224)"></rect><rect x="0" y="108" width="15" height="10" fill="rgb(65, 125, 224)"></rect><rect x="0" y="120" width="15" height="10" fill="rgb(84, 101, 214)"></rect><rect x="0" y="132" width="15" height="10" fill="rgb(99, 81, 195)"></rect><rect x="0" y="151.2" width="15" height="2" fill="orange"></rect><rect x="0" y="164.39999999999998" width="15" height="0.4" fill="gray"></rect><text class="legende" font-size="11px" fill="black" x="20" y="12" dy="-0.5ex">3 s</text><text class="legende" font-size="11px" fill="black" x="20" y="24" dy="-0.5ex">2.75 s</text><text class="legende" font-size="11px" fill="black" x="20" y="36" dy="-0.5ex">2.5 s</text><text class="legende" font-size="11px" fill="black" x="20" y="48" dy="-0.5ex">2.25 s</text><text class="legende" font-size="11px" fill="black" x="20" y="60" dy="-0.5ex">2 s</text><text class="legende" font-size="11px" fill="black" x="20" y="72" dy="-0.5ex">1.75 s</text><text class="legende" font-size="11px" fill="black" x="20" y="84" dy="-0.5ex">1.5 s</text><text class="legende" font-size="11px" fill="black" x="20" y="96" dy="-0.5ex">1.25 s</text><text class="legende" font-size="11px" fill="black" x="20" y="108" dy="-0.5ex">1 s</text><text class="legende" font-size="11px" fill="black" x="20" y="120" dy="-0.5ex">0.75 s</text><text class="legende" font-size="11px" fill="black" x="20" y="132" dy="-0.5ex">0.5 s</text><text class="legende" font-size="11px" fill="black" x="20" y="144" dy="-0.5ex">0.25 s</text><text class="legende" font-size="11px" fill="black" x="20" y="156" dy="-0.2ex">Mittel</text><text class="legende" font-size="11px" fill="black" x="20" y="168" dy="-0.2ex">fav. Dauer</text></g><text class="total" x="8.92857142857142" y="11.935483870967744" font-size="11px" fill="black" style="text-anchor: middle;" dy="-0.5ex">3</text><text class="total" x="26.785714285714278" y="334.19354838709677" font-size="11px" fill="black" style="text-anchor: middle;" dy="-0.5ex">1</text><text class="total" x="44.64285714285714" y="11.935483870967744" font-size="11px" fill="black" style="text-anchor: middle;" dy="-0.5ex">3</text><text class="total" x="62.49999999999999" y="298.38709677419354" font-size="11px" fill="black" style="text-anchor: middle;" dy="-0.5ex">2</text><text class="total" x="80.35714285714285" y="226.7741935483871" font-size="11px" fill="black" style="text-anchor: middle;" dy="-0.5ex">4</text><text class="total" x="98.21428571428571" y="298.38709677419354" font-size="11px" fill="black" style="text-anchor: middle;" dy="-0.5ex">2</text><text class="total" x="116.07142857142856" y="262.5806451612903" font-size="11px" fill="black" style="text-anchor: middle;" dy="-0.5ex">3</text><text class="total" x="133.92857142857142" y="0" font-size="11px" fill="black" style="text-anchor: middle;" dy="-0.5ex">5</text><text class="total" x="151.78571428571428" y="107.41935483870964" font-size="11px" fill="black" style="text-anchor: middle;" dy="-0.5ex">2</text><text class="total" x="169.64285714285714" y="131.29032258064518" font-size="11px" fill="black" style="text-anchor: middle;" dy="-0.5ex">2</text><text class="total" x="187.5" y="107.41935483870964" font-size="11px" fill="black" style="text-anchor: middle;" dy="-0.5ex">2</text><text class="total" x="205.35714285714286" y="179.03225806451613" font-size="11px" fill="black" style="text-anchor: middle;" dy="-0.5ex">3</text><text class="total" x="223.2142857142857" y="334.19354838709677" font-size="11px" fill="black" style="text-anchor: middle;" dy="-0.5ex">1</text><text class="total" x="241.07142857142856" y="35.80645161290323" font-size="11px" fill="black" style="text-anchor: middle;" dy="-0.5ex">4</text></g><g class="x axis" transform="translate(0,370)" fill="none" font-size="10" font-family="sans-serif" text-anchor="middle"><path class="domain" stroke="currentColor" d="M0.5,6V0.5H250.5V6"></path><g class="tick" opacity="1" transform="translate(8.92857142857142,0)"><line stroke="currentColor" y2="6"></line><text fill="black" y="9" dy=".71em" transform="translate(0,1)" font-size="11px" style="text-anchor: middle;">1</text></g><g class="tick" opacity="1" transform="translate(26.785714285714278,0)"><line stroke="currentColor" y2="6"></line><text fill="black" y="9" dy=".71em" transform="translate(0,1)" font-size="11px" style="text-anchor: middle;">2</text></g><g class="tick" opacity="1" transform="translate(44.64285714285714,0)"><line stroke="currentColor" y2="6"></line><text fill="black" y="9" dy=".71em" transform="translate(0,1)" font-size="11px" style="text-anchor: middle;">3</text></g><g class="tick" opacity="1" transform="translate(62.49999999999999,0)"><line stroke="currentColor" y2="6"></line><text fill="black" y="9" dy=".71em" transform="translate(0,1)" font-size="11px" style="text-anchor: middle;">4</text></g><g class="tick" opacity="1" transform="translate(80.35714285714285,0)"><line stroke="currentColor" y2="6"></line><text fill="black" y="9" dy=".71em" transform="translate(0,1)" font-size="11px" style="text-anchor: middle;">5</text></g><g class="tick" opacity="1" transform="translate(98.21428571428571,0)"><line stroke="currentColor" y2="6"></line><text fill="black" y="9" dy=".71em" transform="translate(0,1)" font-size="11px" style="text-anchor: middle;">6</text></g><g class="tick" opacity="1" transform="translate(116.07142857142856,0)"><line stroke="currentColor" y2="6"></line><text fill="black" y="9" dy=".71em" transform="translate(0,1)" font-size="11px" style="text-anchor: middle;">7</text></g><g class="tick" opacity="1" transform="translate(133.92857142857142,0)"><line stroke="currentColor" y2="6"></line><text fill="black" y="9" dy=".71em" transform="translate(0,1)" font-size="11px" style="text-anchor: middle;">8</text></g><g class="tick" opacity="1" transform="translate(151.78571428571428,0)"><line stroke="currentColor" y2="6"></line><text fill="black" y="9" dy=".71em" transform="translate(0,1)" font-size="11px" style="text-anchor: middle;">9</text></g><g class="tick" opacity="1" transform="translate(169.64285714285714,0)"><line stroke="currentColor" y2="6"></line><text fill="black" y="9" dy=".71em" transform="translate(0,1)" font-size="11px" style="text-anchor: middle;">10</text></g><g class="tick" opacity="1" transform="translate(187.5,0)"><line stroke="currentColor" y2="6"></line><text fill="black" y="9" dy=".71em" transform="translate(0,1)" font-size="11px" style="text-anchor: middle;">11</text></g><g class="tick" opacity="1" transform="translate(205.35714285714286,0)"><line stroke="currentColor" y2="6"></line><text fill="black" y="9" dy=".71em" transform="translate(0,1)" font-size="11px" style="text-anchor: middle;">12</text></g><g class="tick" opacity="1" transform="translate(223.2142857142857,0)"><line stroke="currentColor" y2="6"></line><text fill="black" y="9" dy=".71em" transform="translate(0,1)" font-size="11px" style="text-anchor: middle;">13</text></g><g class="tick" opacity="1" transform="translate(241.07142857142856,0)"><line stroke="currentColor" y2="6"></line><text fill="black" y="9" dy=".71em" transform="translate(0,1)" font-size="11px" style="text-anchor: middle;">14</text></g><text transform="translate(125, 23)" font-size="11px" fill="black" dy=".71em" style="text-anchor: middle;">Aufgaben-Nr.</text></g><g class="y axis" fill="none" font-size="10" font-family="sans-serif" text-anchor="end"><path class="domain" stroke="currentColor" d="M-6,370.5H0.5V0.5H-6"></path><g class="tick" opacity="1" transform="translate(0,370.5)"><line stroke="currentColor" x2="-6"></line><text fill="currentColor" x="-9" dy="0.32em">0</text></g><g class="tick" opacity="1" transform="translate(0,322.758064516129)"><line stroke="currentColor" x2="-6"></line><text fill="currentColor" x="-9" dy="0.32em">1</text></g><g class="tick" opacity="1" transform="translate(0,275.01612903225805)"><line stroke="currentColor" x2="-6"></line><text fill="currentColor" x="-9" dy="0.32em">2</text></g><g class="tick" opacity="1" transform="translate(0,227.2741935483871)"><line stroke="currentColor" x2="-6"></line><text fill="currentColor" x="-9" dy="0.32em">3</text></g><g class="tick" opacity="1" transform="translate(0,179.53225806451613)"><line stroke="currentColor" x2="-6"></line><text fill="currentColor" x="-9" dy="0.32em">4</text></g><g class="tick" opacity="1" transform="translate(0,131.79032258064518)"><line stroke="currentColor" x2="-6"></line><text fill="currentColor" x="-9" dy="0.32em">5</text></g><g class="tick" opacity="1" transform="translate(0,84.0483870967742)"><line stroke="currentColor" x2="-6"></line><text fill="currentColor" x="-9" dy="0.32em">6</text></g><g class="tick" opacity="1" transform="translate(0,36.30645161290323)"><line stroke="currentColor" x2="-6"></line><text fill="currentColor" x="-9" dy="0.32em">7</text></g><text transform="translate(-38,185) rotate(-90)" font-size="11px" fill="black" dy=".71em" style="text-anchor: middle;">Totale Dauer in sec</text></g><g class="y axis" transform="translate(250, 0)" fill="none" font-size="10" font-family="sans-serif" text-anchor="start"><path class="domain" stroke="currentColor" d="M6,370.5H0.5V0.5H6"></path><g class="tick" opacity="1" transform="translate(0,370.5)"><line stroke="currentColor" x2="6"></line><text fill="currentColor" x="9" dy="0.32em">0.0</text></g><g class="tick" opacity="1" transform="translate(0,345.8333333333333)"><line stroke="currentColor" x2="6"></line><text fill="currentColor" x="9" dy="0.32em">0.2</text></g><g class="tick" opacity="1" transform="translate(0,321.1666666666667)"><line stroke="currentColor" x2="6"></line><text fill="currentColor" x="9" dy="0.32em">0.4</text></g><g class="tick" opacity="1" transform="translate(0,296.5)"><line stroke="currentColor" x2="6"></line><text fill="currentColor" x="9" dy="0.32em">0.6</text></g><g class="tick" opacity="1" transform="translate(0,271.8333333333333)"><line stroke="currentColor" x2="6"></line><text fill="currentColor" x="9" dy="0.32em">0.8</text></g><g class="tick" opacity="1" transform="translate(0,247.16666666666669)"><line stroke="currentColor" x2="6"></line><text fill="currentColor" x="9" dy="0.32em">1.0</text></g><g class="tick" opacity="1" transform="translate(0,222.5)"><line stroke="currentColor" x2="6"></line><text fill="currentColor" x="9" dy="0.32em">1.2</text></g><g class="tick" opacity="1" transform="translate(0,197.83333333333334)"><line stroke="currentColor" x2="6"></line><text fill="currentColor" x="9" dy="0.32em">1.4</text></g><g class="tick" opacity="1" transform="translate(0,173.16666666666666)"><line stroke="currentColor" x2="6"></line><text fill="currentColor" x="9" dy="0.32em">1.6</text></g><g class="tick" opacity="1" transform="translate(0,148.5)"><line stroke="currentColor" x2="6"></line><text fill="currentColor" x="9" dy="0.32em">1.8</text></g><g class="tick" opacity="1" transform="translate(0,123.83333333333334)"><line stroke="currentColor" x2="6"></line><text fill="currentColor" x="9" dy="0.32em">2.0</text></g><g class="tick" opacity="1" transform="translate(0,99.16666666666663)"><line stroke="currentColor" x2="6"></line><text fill="currentColor" x="9" dy="0.32em">2.2</text></g><g class="tick" opacity="1" transform="translate(0,74.5)"><line stroke="currentColor" x2="6"></line><text fill="currentColor" x="9" dy="0.32em">2.4</text></g><g class="tick" opacity="1" transform="translate(0,49.833333333333314)"><line stroke="currentColor" x2="6"></line><text fill="currentColor" x="9" dy="0.32em">2.6</text></g><g class="tick" opacity="1" transform="translate(0,25.166666666666686)"><line stroke="currentColor" x2="6"></line><text fill="currentColor" x="9" dy="0.32em">2.8</text></g><g class="tick" opacity="1" transform="translate(0,0.5)"><line stroke="currentColor" x2="6"></line><text fill="currentColor" x="9" dy="0.32em">3.0</text></g><text transform="translate(38,185) rotate(-90)" font-size="11px" fill="black" dy="0em" style="text-anchor: middle;">Durchschnittl. Dauer pro Transition in sec</text></g></g></svg>