<?xml version="1.0" standalone="no"?>
<svg id="E" width="450" height="460" style="border: 1px solid rgb(153, 153, 153);" xmlns="http://www.w3.org/2000/svg"><g transform="translate(60,40)"><g class="bars"><g><rect x="1.7857142857142776" y="338.9527559055118" width="14.285714285714286" height="31.04724409448818" fill="rgb(135, 245, 87)"></rect></g><g><rect x="19.642857142857135" y="362.25984251968504" width="14.285714285714286" height="7.740157480314963" fill="rgb(65, 125, 224)"></rect><rect x="19.642857142857135" y="353.5196850393701" width="14.285714285714286" height="7.740157480314963" fill="rgb(65, 125, 224)"></rect></g><g><rect x="37.49999999999999" y="362.25984251968504" width="14.285714285714286" height="7.740157480314963" fill="rgb(65, 125, 224)"></rect><rect x="37.49999999999999" y="353.5196850393701" width="14.285714285714286" height="7.740157480314963" fill="rgb(65, 125, 224)"></rect><rect x="37.49999999999999" y="344.7795275590551" width="14.285714285714286" height="7.740157480314963" fill="rgb(65, 125, 224)"></rect><rect x="37.49999999999999" y="336.03937007874015" width="14.285714285714286" height="7.740157480314963" fill="rgb(65, 125, 224)"></rect><rect x="37.49999999999999" y="301.0787401574803" width="14.285714285714286" height="33.96062992125985" fill="rgb(175, 240, 91)"></rect><rect x="37.49999999999999" y="266.11811023622045" width="14.285714285714286" height="33.96062992125985" fill="rgb(175, 240, 91)"></rect></g><g><rect x="55.35714285714285" y="362.25984251968504" width="14.285714285714286" height="7.740157480314963" fill="rgb(65, 125, 224)"></rect><rect x="55.35714285714285" y="353.5196850393701" width="14.285714285714286" height="7.740157480314963" fill="rgb(65, 125, 224)"></rect><rect x="55.35714285714285" y="344.7795275590551" width="14.285714285714286" height="7.740157480314963" fill="rgb(65, 125, 224)"></rect></g><g><rect x="73.21428571428571" y="362.25984251968504" width="14.285714285714286" height="7.740157480314963" fill="rgb(65, 125, 224)"></rect><rect x="73.21428571428571" y="353.5196850393701" width="14.285714285714286" height="7.740157480314963" fill="rgb(65, 125, 224)"></rect><rect x="73.21428571428571" y="327.2992125984252" width="14.285714285714286" height="25.22047244094489" fill="rgb(64, 243, 115)"></rect><rect x="73.21428571428571" y="301.0787401574803" width="14.285714285714286" height="25.22047244094489" fill="rgb(64, 243, 115)"></rect><rect x="73.21428571428571" y="274.85826771653547" width="14.285714285714286" height="25.22047244094489" fill="rgb(64, 243, 115)"></rect><rect x="73.21428571428571" y="248.63779527559055" width="14.285714285714286" height="25.22047244094489" fill="rgb(64, 243, 115)"></rect></g><g><rect x="91.07142857142857" y="362.25984251968504" width="14.285714285714286" height="7.740157480314963" fill="rgb(65, 125, 224)"></rect><rect x="91.07142857142857" y="353.5196850393701" width="14.285714285714286" height="7.740157480314963" fill="rgb(65, 125, 224)"></rect><rect x="91.07142857142857" y="324.38582677165357" width="14.285714285714286" height="28.133858267716505" fill="rgb(96, 247, 96)"></rect><rect x="91.07142857142857" y="295.251968503937" width="14.285714285714286" height="28.133858267716505" fill="rgb(96, 247, 96)"></rect><rect x="91.07142857142857" y="266.11811023622045" width="14.285714285714286" height="28.133858267716505" fill="rgb(96, 247, 96)"></rect></g><g><rect x="108.92857142857142" y="362.25984251968504" width="14.285714285714286" height="7.740157480314963" fill="rgb(65, 125, 224)"></rect><rect x="108.92857142857142" y="353.5196850393701" width="14.285714285714286" height="7.740157480314963" fill="rgb(65, 125, 224)"></rect><rect x="108.92857142857142" y="344.7795275590551" width="14.285714285714286" height="7.740157480314963" fill="rgb(65, 125, 224)"></rect></g><g><rect x="126.78571428571428" y="365.1732283464567" width="14.285714285714286" height="4.82677165354329" fill="rgb(84, 101, 214)"></rect><rect x="126.78571428571428" y="359.34645669291336" width="14.285714285714286" height="4.82677165354329" fill="rgb(84, 101, 214)"></rect><rect x="126.78571428571428" y="324.38582677165357" width="14.285714285714286" height="33.96062992125985" fill="rgb(175, 240, 91)"></rect><rect x="126.78571428571428" y="289.4251968503937" width="14.285714285714286" height="33.96062992125985" fill="rgb(175, 240, 91)"></rect><rect x="126.78571428571428" y="254.46456692913387" width="14.285714285714286" height="33.96062992125985" fill="rgb(175, 240, 91)"></rect><rect x="126.78571428571428" y="219.50393700787401" width="14.285714285714286" height="33.96062992125985" fill="rgb(175, 240, 91)"></rect><rect x="126.78571428571428" y="184.54330708661416" width="14.285714285714286" height="33.96062992125985" fill="rgb(175, 240, 91)"></rect><rect x="126.78571428571428" y="149.5826771653543" width="14.285714285714286" height="33.96062992125985" fill="rgb(175, 240, 91)"></rect><rect x="126.78571428571428" y="140.84251968503938" width="14.285714285714286" height="7.740157480314963" fill="rgb(65, 125, 224)"></rect><rect x="126.78571428571428" y="117.53543307086613" width="14.285714285714286" height="22.307086614173215" fill="rgb(40, 234, 141)"></rect><rect x="126.78571428571428" y="94.22834645669292" width="14.285714285714286" height="22.307086614173215" fill="rgb(40, 234, 141)"></rect><rect x="126.78571428571428" y="70.9212598425197" width="14.285714285714286" height="22.307086614173215" fill="rgb(40, 234, 141)"></rect><rect x="126.78571428571428" y="47.61417322834643" width="14.285714285714286" height="22.307086614173215" fill="rgb(40, 234, 141)"></rect><rect x="126.78571428571428" y="24.307086614173215" width="14.285714285714286" height="22.307086614173215" fill="rgb(40, 234, 141)"></rect><rect x="126.78571428571428" y="1" width="14.285714285714286" height="22.307086614173215" fill="rgb(40, 234, 141)"></rect></g><g><rect x="144.64285714285714" y="362.25984251968504" width="14.285714285714286" height="7.740157480314963" fill="rgb(65, 125, 224)"></rect><rect x="144.64285714285714" y="353.5196850393701" width="14.285714285714286" height="7.740157480314963" fill="rgb(65, 125, 224)"></rect><rect x="144.64285714285714" y="330.21259842519686" width="14.285714285714286" height="22.307086614173215" fill="rgb(40, 234, 141)"></rect><rect x="144.64285714285714" y="306.90551181102364" width="14.285714285714286" height="22.307086614173215" fill="rgb(40, 234, 141)"></rect><rect x="144.64285714285714" y="283.59842519685037" width="14.285714285714286" height="22.307086614173215" fill="rgb(40, 234, 141)"></rect><rect x="144.64285714285714" y="260.29133858267716" width="14.285714285714286" height="22.307086614173215" fill="rgb(40, 234, 141)"></rect></g><g><rect x="162.5" y="362.25984251968504" width="14.285714285714286" height="7.740157480314963" fill="rgb(65, 125, 224)"></rect><rect x="162.5" y="353.5196850393701" width="14.285714285714286" height="7.740157480314963" fill="rgb(65, 125, 224)"></rect><rect x="162.5" y="330.21259842519686" width="14.285714285714286" height="22.307086614173215" fill="rgb(40, 234, 141)"></rect><rect x="162.5" y="306.90551181102364" width="14.285714285714286" height="22.307086614173215" fill="rgb(40, 234, 141)"></rect><rect x="162.5" y="271.9448818897638" width="14.285714285714286" height="33.96062992125985" fill="rgb(175, 240, 91)"></rect></g><g><rect x="180.35714285714286" y="362.25984251968504" width="14.285714285714286" height="7.740157480314963" fill="rgb(65, 125, 224)"></rect><rect x="180.35714285714286" y="338.9527559055118" width="14.285714285714286" height="22.307086614173215" fill="rgb(40, 234, 141)"></rect><rect x="180.35714285714286" y="315.64566929133855" width="14.285714285714286" height="22.307086614173215" fill="rgb(40, 234, 141)"></rect><rect x="180.35714285714286" y="292.33858267716533" width="14.285714285714286" height="22.307086614173215" fill="rgb(40, 234, 141)"></rect><rect x="180.35714285714286" y="269.0314960629921" width="14.285714285714286" height="22.307086614173215" fill="rgb(40, 234, 141)"></rect></g><g><rect x="198.21428571428572" y="362.25984251968504" width="14.285714285714286" height="7.740157480314963" fill="rgb(65, 125, 224)"></rect><rect x="198.21428571428572" y="359.34645669291336" width="14.285714285714286" height="1.9133858267716732" fill="rgb(99, 81, 195)"></rect><rect x="198.21428571428572" y="341.8661417322835" width="14.285714285714286" height="16.480314960629926" fill="rgb(26, 199, 194)"></rect><rect x="198.21428571428572" y="324.38582677165357" width="14.285714285714286" height="16.480314960629926" fill="rgb(26, 199, 194)"></rect><rect x="198.21428571428572" y="295.251968503937" width="14.285714285714286" height="28.133858267716505" fill="rgb(96, 247, 96)"></rect><rect x="198.21428571428572" y="260.29133858267716" width="14.285714285714286" height="33.96062992125985" fill="rgb(175, 240, 91)"></rect><rect x="198.21428571428572" y="242.81102362204726" width="14.285714285714286" height="16.480314960629926" fill="rgb(26, 199, 194)"></rect></g><g><rect x="216.07142857142856" y="362.25984251968504" width="14.285714285714286" height="7.740157480314963" fill="rgb(65, 125, 224)"></rect><rect x="216.07142857142856" y="344.7795275590551" width="14.285714285714286" height="16.480314960629926" fill="rgb(26, 199, 194)"></rect><rect x="216.07142857142856" y="327.2992125984252" width="14.285714285714286" height="16.480314960629926" fill="rgb(26, 199, 194)"></rect><rect x="216.07142857142856" y="309.81889763779526" width="14.285714285714286" height="16.480314960629926" fill="rgb(26, 199, 194)"></rect></g><g><rect x="233.92857142857142" y="362.25984251968504" width="14.285714285714286" height="7.740157480314963" fill="rgb(65, 125, 224)"></rect><rect x="233.92857142857142" y="353.5196850393701" width="14.285714285714286" height="7.740157480314963" fill="rgb(65, 125, 224)"></rect><rect x="233.92857142857142" y="344.7795275590551" width="14.285714285714286" height="7.740157480314963" fill="rgb(65, 125, 224)"></rect><rect x="233.92857142857142" y="321.4724409448819" width="14.285714285714286" height="22.307086614173215" fill="rgb(40, 234, 141)"></rect><rect x="233.92857142857142" y="298.1653543307086" width="14.285714285714286" height="22.307086614173215" fill="rgb(40, 234, 141)"></rect></g><path class="graph" fill="none" stroke="orange" stroke-width="1.5" d="M8.92857142857142,30.83333333333337L26.785714285714278,277.5L44.64285714285714,185L62.49999999999999,277.5L80.35714285714285,154.16666666666666L98.21428571428571,148L116.07142857142856,277.5L133.92857142857142,108.9444444444444L151.78571428571428,174.72222222222223L169.64285714285714,160.33333333333334L187.5,154.16666666666666L205.35714285714286,176.19047619047618L223.2142857142857,208.125L241.07142857142856,215.83333333333331"></path><path class="chosenDur" fill="none" stroke="gray" stroke-width="0.4" d="M8.92857142857142,185L26.785714285714278,185L44.64285714285714,185L62.49999999999999,185L80.35714285714285,185L98.21428571428571,185L116.07142857142856,185L133.92857142857142,185L151.78571428571428,185L169.64285714285714,185L187.5,185L205.35714285714286,185L223.2142857142857,185L241.07142857142856,185"></path></g><g class="beschriftung"><text font-size="11px" fill="black" x="125" y="-20" style="font-weight: bold; text-anchor: middle;">Person E: Totale Dauer &amp; Animationszahl pro Aufgabe</text><g transform="translate(310, -5)"><text font-size="11px" fill="black" x="0" y="-5" dy="-0.4ex">Dauer in s</text><rect x="0" y="0" width="15" height="10" fill="rgb(175, 240, 91)"></rect><rect x="0" y="12" width="15" height="10" fill="rgb(135, 245, 87)"></rect><rect x="0" y="24" width="15" height="10" fill="rgb(96, 247, 96)"></rect><rect x="0" y="36" width="15" height="10" fill="rgb(64, 243, 115)"></rect><rect x="0" y="48" width="15" height="10" fill="rgb(40, 234, 141)"></rect><rect x="0" y="60" width="15" height="10" fill="rgb(28, 219, 169)"></rect><rect x="0" y="72" width="15" height="10" fill="rgb(26, 199, 194)"></rect><rect x="0" y="84" width="15" height="10" fill="rgb(33, 176, 213)"></rect><rect x="0" y="96" width="15" height="10" fill="rgb(47, 150, 224)"></rect><rect x="0" y="108" width="15" height="10" fill="rgb(65, 125, 224)"></rect><rect x="0" y="120" width="15" height="10" fill="rgb(84, 101, 214)"></rect><rect x="0" y="132" width="15" height="10" fill="rgb(99, 81, 195)"></rect><rect x="0" y="151.2" width="15" height="2" fill="orange"></rect><rect x="0" y="164.39999999999998" width="15" height="0.4" fill="gray"></rect><text class="legende" font-size="11px" fill="black" x="20" y="12" dy="-0.5ex">3 s</text><text class="legende" font-size="11px" fill="black" x="20" y="24" dy="-0.5ex">2.75 s</text><text class="legende" font-size="11px" fill="black" x="20" y="36" dy="-0.5ex">2.5 s</text><text class="legende" font-size="11px" fill="black" x="20" y="48" dy="-0.5ex">2.25 s</text><text class="legende" font-size="11px" fill="black" x="20" y="60" dy="-0.5ex">2 s</text><text class="legende" font-size="11px" fill="black" x="20" y="72" dy="-0.5ex">1.75 s</text><text class="legende" font-size="11px" fill="black" x="20" y="84" dy="-0.5ex">1.5 s</text><text class="legende" font-size="11px" fill="black" x="20" y="96" dy="-0.5ex">1.25 s</text><text class="legende" font-size="11px" fill="black" x="20" y="108" dy="-0.5ex">1 s</text><text class="legende" font-size="11px" fill="black" x="20" y="120" dy="-0.5ex">0.75 s</text><text class="legende" font-size="11px" fill="black" x="20" y="132" dy="-0.5ex">0.5 s</text><text class="legende" font-size="11px" fill="black" x="20" y="144" dy="-0.5ex">0.25 s</text><text class="legende" font-size="11px" fill="black" x="20" y="156" dy="-0.2ex">Mittel</text><text class="legende" font-size="11px" fill="black" x="20" y="168" dy="-0.2ex">fav. Dauer</text></g><text class="total" x="8.92857142857142" y="337.9527559055118" font-size="11px" fill="black" style="text-anchor: middle;" dy="-0.5ex">1</text><text class="total" x="26.785714285714278" y="352.5196850393701" font-size="11px" fill="black" style="text-anchor: middle;" dy="-0.5ex">2</text><text class="total" x="44.64285714285714" y="265.11811023622045" font-size="11px" fill="black" style="text-anchor: middle;" dy="-0.5ex">6</text><text class="total" x="62.49999999999999" y="343.7795275590551" font-size="11px" fill="black" style="text-anchor: middle;" dy="-0.5ex">3</text><text class="total" x="80.35714285714285" y="247.63779527559055" font-size="11px" fill="black" style="text-anchor: middle;" dy="-0.5ex">6</text><text class="total" x="98.21428571428571" y="265.11811023622045" font-size="11px" fill="black" style="text-anchor: middle;" dy="-0.5ex">5</text><text class="total" x="116.07142857142856" y="343.7795275590551" font-size="11px" fill="black" style="text-anchor: middle;" dy="-0.5ex">3</text><text class="total" x="133.92857142857142" y="0" font-size="11px" fill="black" style="text-anchor: middle;" dy="-0.5ex">15</text><text class="total" x="151.78571428571428" y="259.29133858267716" font-size="11px" fill="black" style="text-anchor: middle;" dy="-0.5ex">6</text><text class="total" x="169.64285714285714" y="270.9448818897638" font-size="11px" fill="black" style="text-anchor: middle;" dy="-0.5ex">5</text><text class="total" x="187.5" y="268.0314960629921" font-size="11px" fill="black" style="text-anchor: middle;" dy="-0.5ex">5</text><text class="total" x="205.35714285714286" y="241.81102362204726" font-size="11px" fill="black" style="text-anchor: middle;" dy="-0.5ex">7</text><text class="total" x="223.2142857142857" y="308.81889763779526" font-size="11px" fill="black" style="text-anchor: middle;" dy="-0.5ex">4</text><text class="total" x="241.07142857142856" y="297.1653543307086" font-size="11px" fill="black" style="text-anchor: middle;" dy="-0.5ex">5</text></g><g class="x axis" transform="translate(0,370)" fill="none" font-size="10" font-family="sans-serif" text-anchor="middle"><path class="domain" stroke="currentColor" d="M0.5,6V0.5H250.5V6"></path><g class="tick" opacity="1" transform="translate(8.92857142857142,0)"><line stroke="currentColor" y2="6"></line><text fill="black" y="9" dy=".71em" transform="translate(0,1)" font-size="11px" style="text-anchor: middle;">1</text></g><g class="tick" opacity="1" transform="translate(26.785714285714278,0)"><line stroke="currentColor" y2="6"></line><text fill="black" y="9" dy=".71em" transform="translate(0,1)" font-size="11px" style="text-anchor: middle;">2</text></g><g class="tick" opacity="1" transform="translate(44.64285714285714,0)"><line stroke="currentColor" y2="6"></line><text fill="black" y="9" dy=".71em" transform="translate(0,1)" font-size="11px" style="text-anchor: middle;">3</text></g><g class="tick" opacity="1" transform="translate(62.49999999999999,0)"><line stroke="currentColor" y2="6"></line><text fill="black" y="9" dy=".71em" transform="translate(0,1)" font-size="11px" style="text-anchor: middle;">4</text></g><g class="tick" opacity="1" transform="translate(80.35714285714285,0)"><line stroke="currentColor" y2="6"></line><text fill="black" y="9" dy=".71em" transform="translate(0,1)" font-size="11px" style="text-anchor: middle;">5</text></g><g class="tick" opacity="1" transform="translate(98.21428571428571,0)"><line stroke="currentColor" y2="6"></line><text fill="black" y="9" dy=".71em" transform="translate(0,1)" font-size="11px" style="text-anchor: middle;">6</text></g><g class="tick" opacity="1" transform="translate(116.07142857142856,0)"><line stroke="currentColor" y2="6"></line><text fill="black" y="9" dy=".71em" transform="translate(0,1)" font-size="11px" style="text-anchor: middle;">7</text></g><g class="tick" opacity="1" transform="translate(133.92857142857142,0)"><line stroke="currentColor" y2="6"></line><text fill="black" y="9" dy=".71em" transform="translate(0,1)" font-size="11px" style="text-anchor: middle;">8</text></g><g class="tick" opacity="1" transform="translate(151.78571428571428,0)"><line stroke="currentColor" y2="6"></line><text fill="black" y="9" dy=".71em" transform="translate(0,1)" font-size="11px" style="text-anchor: middle;">9</text></g><g class="tick" opacity="1" transform="translate(169.64285714285714,0)"><line stroke="currentColor" y2="6"></line><text fill="black" y="9" dy=".71em" transform="translate(0,1)" font-size="11px" style="text-anchor: middle;">10</text></g><g class="tick" opacity="1" transform="translate(187.5,0)"><line stroke="currentColor" y2="6"></line><text fill="black" y="9" dy=".71em" transform="translate(0,1)" font-size="11px" style="text-anchor: middle;">11</text></g><g class="tick" opacity="1" transform="translate(205.35714285714286,0)"><line stroke="currentColor" y2="6"></line><text fill="black" y="9" dy=".71em" transform="translate(0,1)" font-size="11px" style="text-anchor: middle;">12</text></g><g class="tick" opacity="1" transform="translate(223.2142857142857,0)"><line stroke="currentColor" y2="6"></line><text fill="black" y="9" dy=".71em" transform="translate(0,1)" font-size="11px" style="text-anchor: middle;">13</text></g><g class="tick" opacity="1" transform="translate(241.07142857142856,0)"><line stroke="currentColor" y2="6"></line><text fill="black" y="9" dy=".71em" transform="translate(0,1)" font-size="11px" style="text-anchor: middle;">14</text></g><text transform="translate(125, 23)" font-size="11px" fill="black" dy=".71em" style="text-anchor: middle;">Aufgaben-Nr.</text></g><g class="y axis" fill="none" font-size="10" font-family="sans-serif" text-anchor="end"><path class="domain" stroke="currentColor" d="M-6,370.5H0.5V0.5H-6"></path><g class="tick" opacity="1" transform="translate(0,370.5)"><line stroke="currentColor" x2="-6"></line><text fill="currentColor" x="-9" dy="0.32em">0</text></g><g class="tick" opacity="1" transform="translate(0,312.23228346456693)"><line stroke="currentColor" x2="-6"></line><text fill="currentColor" x="-9" dy="0.32em">5</text></g><g class="tick" opacity="1" transform="translate(0,253.96456692913387)"><line stroke="currentColor" x2="-6"></line><text fill="currentColor" x="-9" dy="0.32em">10</text></g><g class="tick" opacity="1" transform="translate(0,195.6968503937008)"><line stroke="currentColor" x2="-6"></line><text fill="currentColor" x="-9" dy="0.32em">15</text></g><g class="tick" opacity="1" transform="translate(0,137.42913385826773)"><line stroke="currentColor" x2="-6"></line><text fill="currentColor" x="-9" dy="0.32em">20</text></g><g class="tick" opacity="1" transform="translate(0,79.16141732283461)"><line stroke="currentColor" x2="-6"></line><text fill="currentColor" x="-9" dy="0.32em">25</text></g><g class="tick" opacity="1" transform="translate(0,20.8937007874016)"><line stroke="currentColor" x2="-6"></line><text fill="currentColor" x="-9" dy="0.32em">30</text></g><text transform="translate(-38,185) rotate(-90)" font-size="11px" fill="black" dy=".71em" style="text-anchor: middle;">Totale Dauer in sec</text></g><g class="y axis" transform="translate(250, 0)" fill="none" font-size="10" font-family="sans-serif" text-anchor="start"><path class="domain" stroke="currentColor" d="M6,370.5H0.5V0.5H6"></path><g class="tick" opacity="1" transform="translate(0,370.5)"><line stroke="currentColor" x2="6"></line><text fill="currentColor" x="9" dy="0.32em">0.0</text></g><g class="tick" opacity="1" transform="translate(0,345.8333333333333)"><line stroke="currentColor" x2="6"></line><text fill="currentColor" x="9" dy="0.32em">0.2</text></g><g class="tick" opacity="1" transform="translate(0,321.1666666666667)"><line stroke="currentColor" x2="6"></line><text fill="currentColor" x="9" dy="0.32em">0.4</text></g><g class="tick" opacity="1" transform="translate(0,296.5)"><line stroke="currentColor" x2="6"></line><text fill="currentColor" x="9" dy="0.32em">0.6</text></g><g class="tick" opacity="1" transform="translate(0,271.8333333333333)"><line stroke="currentColor" x2="6"></line><text fill="currentColor" x="9" dy="0.32em">0.8</text></g><g class="tick" opacity="1" transform="translate(0,247.16666666666669)"><line stroke="currentColor" x2="6"></line><text fill="currentColor" x="9" dy="0.32em">1.0</text></g><g class="tick" opacity="1" transform="translate(0,222.5)"><line stroke="currentColor" x2="6"></line><text fill="currentColor" x="9" dy="0.32em">1.2</text></g><g class="tick" opacity="1" transform="translate(0,197.83333333333334)"><line stroke="currentColor" x2="6"></line><text fill="currentColor" x="9" dy="0.32em">1.4</text></g><g class="tick" opacity="1" transform="translate(0,173.16666666666666)"><line stroke="currentColor" x2="6"></line><text fill="currentColor" x="9" dy="0.32em">1.6</text></g><g class="tick" opacity="1" transform="translate(0,148.5)"><line stroke="currentColor" x2="6"></line><text fill="currentColor" x="9" dy="0.32em">1.8</text></g><g class="tick" opacity="1" transform="translate(0,123.83333333333334)"><line stroke="currentColor" x2="6"></line><text fill="currentColor" x="9" dy="0.32em">2.0</text></g><g class="tick" opacity="1" transform="translate(0,99.16666666666663)"><line stroke="currentColor" x2="6"></line><text fill="currentColor" x="9" dy="0.32em">2.2</text></g><g class="tick" opacity="1" transform="translate(0,74.5)"><line stroke="currentColor" x2="6"></line><text fill="currentColor" x="9" dy="0.32em">2.4</text></g><g class="tick" opacity="1" transform="translate(0,49.833333333333314)"><line stroke="currentColor" x2="6"></line><text fill="currentColor" x="9" dy="0.32em">2.6</text></g><g class="tick" opacity="1" transform="translate(0,25.166666666666686)"><line stroke="currentColor" x2="6"></line><text fill="currentColor" x="9" dy="0.32em">2.8</text></g><g class="tick" opacity="1" transform="translate(0,0.5)"><line stroke="currentColor" x2="6"></line><text fill="currentColor" x="9" dy="0.32em">3.0</text></g><text transform="translate(38,185) rotate(-90)" font-size="11px" fill="black" dy="0em" style="text-anchor: middle;">Durchschnittl. Dauer pro Transition in sec</text></g></g></svg>