<?xml version="1.0" standalone="no"?>
<svg id="D" width="450" height="460" style="border: 1px solid rgb(153, 153, 153);" xmlns="http://www.w3.org/2000/svg"><g transform="translate(60,40)"><g class="bars"><g><rect x="1.7857142857142776" y="366.17391304347825" width="14.285714285714286" height="3.826086956521749" fill="rgb(65, 125, 224)"></rect><rect x="1.7857142857142776" y="361.3478260869565" width="14.285714285714286" height="3.826086956521749" fill="rgb(65, 125, 224)"></rect><rect x="1.7857142857142776" y="356.52173913043475" width="14.285714285714286" height="3.826086956521749" fill="rgb(65, 125, 224)"></rect><rect x="1.7857142857142776" y="351.69565217391306" width="14.285714285714286" height="3.826086956521749" fill="rgb(65, 125, 224)"></rect><rect x="1.7857142857142776" y="346.8695652173913" width="14.285714285714286" height="3.826086956521749" fill="rgb(65, 125, 224)"></rect><rect x="1.7857142857142776" y="342.04347826086956" width="14.285714285714286" height="3.826086956521749" fill="rgb(65, 125, 224)"></rect><rect x="1.7857142857142776" y="337.2173913043478" width="14.285714285714286" height="3.826086956521749" fill="rgb(65, 125, 224)"></rect><rect x="1.7857142857142776" y="332.39130434782606" width="14.285714285714286" height="3.826086956521749" fill="rgb(65, 125, 224)"></rect></g><g><rect x="19.642857142857135" y="366.17391304347825" width="14.285714285714286" height="3.826086956521749" fill="rgb(65, 125, 224)"></rect><rect x="19.642857142857135" y="361.3478260869565" width="14.285714285714286" height="3.826086956521749" fill="rgb(65, 125, 224)"></rect><rect x="19.642857142857135" y="356.52173913043475" width="14.285714285714286" height="3.826086956521749" fill="rgb(65, 125, 224)"></rect><rect x="19.642857142857135" y="351.69565217391306" width="14.285714285714286" height="3.826086956521749" fill="rgb(65, 125, 224)"></rect><rect x="19.642857142857135" y="346.8695652173913" width="14.285714285714286" height="3.826086956521749" fill="rgb(65, 125, 224)"></rect><rect x="19.642857142857135" y="342.04347826086956" width="14.285714285714286" height="3.826086956521749" fill="rgb(65, 125, 224)"></rect><rect x="19.642857142857135" y="337.2173913043478" width="14.285714285714286" height="3.826086956521749" fill="rgb(65, 125, 224)"></rect><rect x="19.642857142857135" y="332.39130434782606" width="14.285714285714286" height="3.826086956521749" fill="rgb(65, 125, 224)"></rect></g><g><rect x="37.49999999999999" y="366.17391304347825" width="14.285714285714286" height="3.826086956521749" fill="rgb(65, 125, 224)"></rect><rect x="37.49999999999999" y="361.3478260869565" width="14.285714285714286" height="3.826086956521749" fill="rgb(65, 125, 224)"></rect><rect x="37.49999999999999" y="356.52173913043475" width="14.285714285714286" height="3.826086956521749" fill="rgb(65, 125, 224)"></rect><rect x="37.49999999999999" y="351.69565217391306" width="14.285714285714286" height="3.826086956521749" fill="rgb(65, 125, 224)"></rect><rect x="37.49999999999999" y="346.8695652173913" width="14.285714285714286" height="3.826086956521749" fill="rgb(65, 125, 224)"></rect><rect x="37.49999999999999" y="342.04347826086956" width="14.285714285714286" height="3.826086956521749" fill="rgb(65, 125, 224)"></rect><rect x="37.49999999999999" y="337.2173913043478" width="14.285714285714286" height="3.826086956521749" fill="rgb(65, 125, 224)"></rect><rect x="37.49999999999999" y="332.39130434782606" width="14.285714285714286" height="3.826086956521749" fill="rgb(65, 125, 224)"></rect><rect x="37.49999999999999" y="327.5652173913044" width="14.285714285714286" height="3.826086956521749" fill="rgb(65, 125, 224)"></rect><rect x="37.49999999999999" y="322.7391304347826" width="14.285714285714286" height="3.826086956521749" fill="rgb(65, 125, 224)"></rect><rect x="37.49999999999999" y="317.9130434782609" width="14.285714285714286" height="3.826086956521749" fill="rgb(65, 125, 224)"></rect></g><g><rect x="55.35714285714285" y="366.17391304347825" width="14.285714285714286" height="3.826086956521749" fill="rgb(65, 125, 224)"></rect><rect x="55.35714285714285" y="361.3478260869565" width="14.285714285714286" height="3.826086956521749" fill="rgb(65, 125, 224)"></rect><rect x="55.35714285714285" y="356.52173913043475" width="14.285714285714286" height="3.826086956521749" fill="rgb(65, 125, 224)"></rect><rect x="55.35714285714285" y="351.69565217391306" width="14.285714285714286" height="3.826086956521749" fill="rgb(65, 125, 224)"></rect></g><g><rect x="73.21428571428571" y="366.17391304347825" width="14.285714285714286" height="3.826086956521749" fill="rgb(65, 125, 224)"></rect><rect x="73.21428571428571" y="361.3478260869565" width="14.285714285714286" height="3.826086956521749" fill="rgb(65, 125, 224)"></rect><rect x="73.21428571428571" y="356.52173913043475" width="14.285714285714286" height="3.826086956521749" fill="rgb(65, 125, 224)"></rect><rect x="73.21428571428571" y="351.69565217391306" width="14.285714285714286" height="3.826086956521749" fill="rgb(65, 125, 224)"></rect><rect x="73.21428571428571" y="346.8695652173913" width="14.285714285714286" height="3.826086956521749" fill="rgb(65, 125, 224)"></rect><rect x="73.21428571428571" y="342.04347826086956" width="14.285714285714286" height="3.826086956521749" fill="rgb(65, 125, 224)"></rect><rect x="73.21428571428571" y="337.2173913043478" width="14.285714285714286" height="3.826086956521749" fill="rgb(65, 125, 224)"></rect><rect x="73.21428571428571" y="317.9130434782609" width="14.285714285714286" height="18.30434782608694" fill="rgb(175, 240, 91)"></rect><rect x="73.21428571428571" y="298.6086956521739" width="14.285714285714286" height="18.30434782608694" fill="rgb(175, 240, 91)"></rect><rect x="73.21428571428571" y="279.30434782608694" width="14.285714285714286" height="18.30434782608694" fill="rgb(175, 240, 91)"></rect><rect x="73.21428571428571" y="260" width="14.285714285714286" height="18.30434782608694" fill="rgb(175, 240, 91)"></rect><rect x="73.21428571428571" y="255.17391304347825" width="14.285714285714286" height="3.826086956521749" fill="rgb(65, 125, 224)"></rect></g><g><rect x="91.07142857142857" y="366.17391304347825" width="14.285714285714286" height="3.826086956521749" fill="rgb(65, 125, 224)"></rect><rect x="91.07142857142857" y="361.3478260869565" width="14.285714285714286" height="3.826086956521749" fill="rgb(65, 125, 224)"></rect><rect x="91.07142857142857" y="356.52173913043475" width="14.285714285714286" height="3.826086956521749" fill="rgb(65, 125, 224)"></rect><rect x="91.07142857142857" y="351.69565217391306" width="14.285714285714286" height="3.826086956521749" fill="rgb(65, 125, 224)"></rect><rect x="91.07142857142857" y="346.8695652173913" width="14.285714285714286" height="3.826086956521749" fill="rgb(65, 125, 224)"></rect><rect x="91.07142857142857" y="342.04347826086956" width="14.285714285714286" height="3.826086956521749" fill="rgb(65, 125, 224)"></rect><rect x="91.07142857142857" y="337.2173913043478" width="14.285714285714286" height="3.826086956521749" fill="rgb(65, 125, 224)"></rect><rect x="91.07142857142857" y="332.39130434782606" width="14.285714285714286" height="3.826086956521749" fill="rgb(65, 125, 224)"></rect><rect x="91.07142857142857" y="327.5652173913044" width="14.285714285714286" height="3.826086956521749" fill="rgb(65, 125, 224)"></rect><rect x="91.07142857142857" y="322.7391304347826" width="14.285714285714286" height="3.826086956521749" fill="rgb(65, 125, 224)"></rect><rect x="91.07142857142857" y="317.9130434782609" width="14.285714285714286" height="3.826086956521749" fill="rgb(65, 125, 224)"></rect><rect x="91.07142857142857" y="313.0869565217391" width="14.285714285714286" height="3.826086956521749" fill="rgb(65, 125, 224)"></rect><rect x="91.07142857142857" y="308.2608695652174" width="14.285714285714286" height="3.826086956521749" fill="rgb(65, 125, 224)"></rect><rect x="91.07142857142857" y="303.4347826086956" width="14.285714285714286" height="3.826086956521749" fill="rgb(65, 125, 224)"></rect><rect x="91.07142857142857" y="284.1304347826087" width="14.285714285714286" height="18.30434782608694" fill="rgb(175, 240, 91)"></rect><rect x="91.07142857142857" y="264.82608695652175" width="14.285714285714286" height="18.30434782608694" fill="rgb(175, 240, 91)"></rect><rect x="91.07142857142857" y="260" width="14.285714285714286" height="3.826086956521749" fill="rgb(65, 125, 224)"></rect></g><g><rect x="108.92857142857142" y="366.17391304347825" width="14.285714285714286" height="3.826086956521749" fill="rgb(65, 125, 224)"></rect><rect x="108.92857142857142" y="361.3478260869565" width="14.285714285714286" height="3.826086956521749" fill="rgb(65, 125, 224)"></rect><rect x="108.92857142857142" y="356.52173913043475" width="14.285714285714286" height="3.826086956521749" fill="rgb(65, 125, 224)"></rect><rect x="108.92857142857142" y="351.69565217391306" width="14.285714285714286" height="3.826086956521749" fill="rgb(65, 125, 224)"></rect><rect x="108.92857142857142" y="346.8695652173913" width="14.285714285714286" height="3.826086956521749" fill="rgb(65, 125, 224)"></rect><rect x="108.92857142857142" y="342.04347826086956" width="14.285714285714286" height="3.826086956521749" fill="rgb(65, 125, 224)"></rect><rect x="108.92857142857142" y="322.7391304347826" width="14.285714285714286" height="18.30434782608694" fill="rgb(175, 240, 91)"></rect><rect x="108.92857142857142" y="317.9130434782609" width="14.285714285714286" height="3.826086956521749" fill="rgb(65, 125, 224)"></rect></g><g><rect x="126.78571428571428" y="366.17391304347825" width="14.285714285714286" height="3.826086956521749" fill="rgb(65, 125, 224)"></rect><rect x="126.78571428571428" y="361.3478260869565" width="14.285714285714286" height="3.826086956521749" fill="rgb(65, 125, 224)"></rect><rect x="126.78571428571428" y="356.52173913043475" width="14.285714285714286" height="3.826086956521749" fill="rgb(65, 125, 224)"></rect><rect x="126.78571428571428" y="351.69565217391306" width="14.285714285714286" height="3.826086956521749" fill="rgb(65, 125, 224)"></rect><rect x="126.78571428571428" y="346.8695652173913" width="14.285714285714286" height="3.826086956521749" fill="rgb(65, 125, 224)"></rect><rect x="126.78571428571428" y="342.04347826086956" width="14.285714285714286" height="3.826086956521749" fill="rgb(65, 125, 224)"></rect><rect x="126.78571428571428" y="337.2173913043478" width="14.285714285714286" height="3.826086956521749" fill="rgb(65, 125, 224)"></rect><rect x="126.78571428571428" y="317.9130434782609" width="14.285714285714286" height="18.30434782608694" fill="rgb(175, 240, 91)"></rect><rect x="126.78571428571428" y="313.0869565217391" width="14.285714285714286" height="3.826086956521749" fill="rgb(65, 125, 224)"></rect><rect x="126.78571428571428" y="293.7826086956522" width="14.285714285714286" height="18.30434782608694" fill="rgb(175, 240, 91)"></rect><rect x="126.78571428571428" y="288.95652173913044" width="14.285714285714286" height="3.826086956521749" fill="rgb(65, 125, 224)"></rect><rect x="126.78571428571428" y="284.1304347826087" width="14.285714285714286" height="3.826086956521749" fill="rgb(65, 125, 224)"></rect><rect x="126.78571428571428" y="279.30434782608694" width="14.285714285714286" height="3.826086956521749" fill="rgb(65, 125, 224)"></rect><rect x="126.78571428571428" y="274.47826086956525" width="14.285714285714286" height="3.826086956521749" fill="rgb(65, 125, 224)"></rect><rect x="126.78571428571428" y="255.17391304347825" width="14.285714285714286" height="18.30434782608694" fill="rgb(175, 240, 91)"></rect><rect x="126.78571428571428" y="250.3478260869565" width="14.285714285714286" height="3.826086956521749" fill="rgb(65, 125, 224)"></rect><rect x="126.78571428571428" y="245.52173913043478" width="14.285714285714286" height="3.826086956521749" fill="rgb(65, 125, 224)"></rect><rect x="126.78571428571428" y="240.69565217391303" width="14.285714285714286" height="3.826086956521749" fill="rgb(65, 125, 224)"></rect><rect x="126.78571428571428" y="235.8695652173913" width="14.285714285714286" height="3.826086956521749" fill="rgb(65, 125, 224)"></rect><rect x="126.78571428571428" y="231.04347826086956" width="14.285714285714286" height="3.826086956521749" fill="rgb(65, 125, 224)"></rect></g><g><rect x="144.64285714285714" y="366.17391304347825" width="14.285714285714286" height="3.826086956521749" fill="rgb(65, 125, 224)"></rect><rect x="144.64285714285714" y="361.3478260869565" width="14.285714285714286" height="3.826086956521749" fill="rgb(65, 125, 224)"></rect><rect x="144.64285714285714" y="356.52173913043475" width="14.285714285714286" height="3.826086956521749" fill="rgb(65, 125, 224)"></rect><rect x="144.64285714285714" y="351.69565217391306" width="14.285714285714286" height="3.826086956521749" fill="rgb(65, 125, 224)"></rect><rect x="144.64285714285714" y="332.39130434782606" width="14.285714285714286" height="18.30434782608694" fill="rgb(175, 240, 91)"></rect><rect x="144.64285714285714" y="313.0869565217391" width="14.285714285714286" height="18.30434782608694" fill="rgb(175, 240, 91)"></rect><rect x="144.64285714285714" y="293.7826086956522" width="14.285714285714286" height="18.30434782608694" fill="rgb(175, 240, 91)"></rect><rect x="144.64285714285714" y="274.47826086956525" width="14.285714285714286" height="18.30434782608694" fill="rgb(175, 240, 91)"></rect><rect x="144.64285714285714" y="255.17391304347825" width="14.285714285714286" height="18.30434782608694" fill="rgb(175, 240, 91)"></rect><rect x="144.64285714285714" y="235.8695652173913" width="14.285714285714286" height="18.30434782608694" fill="rgb(175, 240, 91)"></rect><rect x="144.64285714285714" y="216.56521739130434" width="14.285714285714286" height="18.30434782608694" fill="rgb(175, 240, 91)"></rect><rect x="144.64285714285714" y="197.26086956521738" width="14.285714285714286" height="18.30434782608694" fill="rgb(175, 240, 91)"></rect><rect x="144.64285714285714" y="177.95652173913044" width="14.285714285714286" height="18.30434782608694" fill="rgb(175, 240, 91)"></rect><rect x="144.64285714285714" y="173.1304347826087" width="14.285714285714286" height="3.826086956521749" fill="rgb(65, 125, 224)"></rect><rect x="144.64285714285714" y="171.52173913043478" width="14.285714285714286" height="0.6086956521739353" fill="rgb(99, 81, 195)"></rect><rect x="144.64285714285714" y="166.69565217391303" width="14.285714285714286" height="3.826086956521749" fill="rgb(65, 125, 224)"></rect><rect x="144.64285714285714" y="153.82608695652172" width="14.285714285714286" height="11.869565217391312" fill="rgb(40, 234, 141)"></rect><rect x="144.64285714285714" y="144.17391304347825" width="14.285714285714286" height="8.652173913043498" fill="rgb(26, 199, 194)"></rect><rect x="144.64285714285714" y="134.52173913043478" width="14.285714285714286" height="8.652173913043498" fill="rgb(26, 199, 194)"></rect><rect x="144.64285714285714" y="124.86956521739128" width="14.285714285714286" height="8.652173913043498" fill="rgb(26, 199, 194)"></rect></g><g><rect x="162.5" y="366.17391304347825" width="14.285714285714286" height="3.826086956521749" fill="rgb(65, 125, 224)"></rect><rect x="162.5" y="361.3478260869565" width="14.285714285714286" height="3.826086956521749" fill="rgb(65, 125, 224)"></rect><rect x="162.5" y="356.52173913043475" width="14.285714285714286" height="3.826086956521749" fill="rgb(65, 125, 224)"></rect><rect x="162.5" y="351.69565217391306" width="14.285714285714286" height="3.826086956521749" fill="rgb(65, 125, 224)"></rect><rect x="162.5" y="346.8695652173913" width="14.285714285714286" height="3.826086956521749" fill="rgb(65, 125, 224)"></rect><rect x="162.5" y="342.04347826086956" width="14.285714285714286" height="3.826086956521749" fill="rgb(65, 125, 224)"></rect><rect x="162.5" y="337.2173913043478" width="14.285714285714286" height="3.826086956521749" fill="rgb(65, 125, 224)"></rect><rect x="162.5" y="332.39130434782606" width="14.285714285714286" height="3.826086956521749" fill="rgb(65, 125, 224)"></rect><rect x="162.5" y="327.5652173913044" width="14.285714285714286" height="3.826086956521749" fill="rgb(65, 125, 224)"></rect><rect x="162.5" y="322.7391304347826" width="14.285714285714286" height="3.826086956521749" fill="rgb(65, 125, 224)"></rect><rect x="162.5" y="317.9130434782609" width="14.285714285714286" height="3.826086956521749" fill="rgb(65, 125, 224)"></rect><rect x="162.5" y="313.0869565217391" width="14.285714285714286" height="3.826086956521749" fill="rgb(65, 125, 224)"></rect><rect x="162.5" y="308.2608695652174" width="14.285714285714286" height="3.826086956521749" fill="rgb(65, 125, 224)"></rect><rect x="162.5" y="303.4347826086956" width="14.285714285714286" height="3.826086956521749" fill="rgb(65, 125, 224)"></rect><rect x="162.5" y="298.6086956521739" width="14.285714285714286" height="3.826086956521749" fill="rgb(65, 125, 224)"></rect><rect x="162.5" y="293.7826086956522" width="14.285714285714286" height="3.826086956521749" fill="rgb(65, 125, 224)"></rect><rect x="162.5" y="288.95652173913044" width="14.285714285714286" height="3.826086956521749" fill="rgb(65, 125, 224)"></rect></g><g><rect x="180.35714285714286" y="366.17391304347825" width="14.285714285714286" height="3.826086956521749" fill="rgb(65, 125, 224)"></rect><rect x="180.35714285714286" y="356.52173913043475" width="14.285714285714286" height="8.652173913043498" fill="rgb(26, 199, 194)"></rect><rect x="180.35714285714286" y="346.8695652173913" width="14.285714285714286" height="8.652173913043498" fill="rgb(26, 199, 194)"></rect><rect x="180.35714285714286" y="337.2173913043478" width="14.285714285714286" height="8.652173913043498" fill="rgb(26, 199, 194)"></rect><rect x="180.35714285714286" y="327.5652173913044" width="14.285714285714286" height="8.652173913043498" fill="rgb(26, 199, 194)"></rect><rect x="180.35714285714286" y="317.9130434782609" width="14.285714285714286" height="8.652173913043498" fill="rgb(26, 199, 194)"></rect><rect x="180.35714285714286" y="308.2608695652174" width="14.285714285714286" height="8.652173913043498" fill="rgb(26, 199, 194)"></rect><rect x="180.35714285714286" y="298.6086956521739" width="14.285714285714286" height="8.652173913043498" fill="rgb(26, 199, 194)"></rect><rect x="180.35714285714286" y="293.7826086956522" width="14.285714285714286" height="3.826086956521749" fill="rgb(65, 125, 224)"></rect><rect x="180.35714285714286" y="288.95652173913044" width="14.285714285714286" height="3.826086956521749" fill="rgb(65, 125, 224)"></rect><rect x="180.35714285714286" y="284.1304347826087" width="14.285714285714286" height="3.826086956521749" fill="rgb(65, 125, 224)"></rect><rect x="180.35714285714286" y="279.30434782608694" width="14.285714285714286" height="3.826086956521749" fill="rgb(65, 125, 224)"></rect><rect x="180.35714285714286" y="274.47826086956525" width="14.285714285714286" height="3.826086956521749" fill="rgb(65, 125, 224)"></rect><rect x="180.35714285714286" y="269.6521739130435" width="14.285714285714286" height="3.826086956521749" fill="rgb(65, 125, 224)"></rect><rect x="180.35714285714286" y="264.82608695652175" width="14.285714285714286" height="3.826086956521749" fill="rgb(65, 125, 224)"></rect><rect x="180.35714285714286" y="260" width="14.285714285714286" height="3.826086956521749" fill="rgb(65, 125, 224)"></rect><rect x="180.35714285714286" y="255.17391304347825" width="14.285714285714286" height="3.826086956521749" fill="rgb(65, 125, 224)"></rect><rect x="180.35714285714286" y="250.3478260869565" width="14.285714285714286" height="3.826086956521749" fill="rgb(65, 125, 224)"></rect><rect x="180.35714285714286" y="245.52173913043478" width="14.285714285714286" height="3.826086956521749" fill="rgb(65, 125, 224)"></rect><rect x="180.35714285714286" y="240.69565217391303" width="14.285714285714286" height="3.826086956521749" fill="rgb(65, 125, 224)"></rect><rect x="180.35714285714286" y="235.8695652173913" width="14.285714285714286" height="3.826086956521749" fill="rgb(65, 125, 224)"></rect><rect x="180.35714285714286" y="216.56521739130434" width="14.285714285714286" height="18.30434782608694" fill="rgb(175, 240, 91)"></rect><rect x="180.35714285714286" y="197.26086956521738" width="14.285714285714286" height="18.30434782608694" fill="rgb(175, 240, 91)"></rect></g><g><rect x="198.21428571428572" y="366.17391304347825" width="14.285714285714286" height="3.826086956521749" fill="rgb(65, 125, 224)"></rect><rect x="198.21428571428572" y="361.3478260869565" width="14.285714285714286" height="3.826086956521749" fill="rgb(65, 125, 224)"></rect><rect x="198.21428571428572" y="356.52173913043475" width="14.285714285714286" height="3.826086956521749" fill="rgb(65, 125, 224)"></rect><rect x="198.21428571428572" y="351.69565217391306" width="14.285714285714286" height="3.826086956521749" fill="rgb(65, 125, 224)"></rect><rect x="198.21428571428572" y="346.8695652173913" width="14.285714285714286" height="3.826086956521749" fill="rgb(65, 125, 224)"></rect><rect x="198.21428571428572" y="342.04347826086956" width="14.285714285714286" height="3.826086956521749" fill="rgb(65, 125, 224)"></rect><rect x="198.21428571428572" y="322.7391304347826" width="14.285714285714286" height="18.30434782608694" fill="rgb(175, 240, 91)"></rect><rect x="198.21428571428572" y="303.4347826086956" width="14.285714285714286" height="18.30434782608694" fill="rgb(175, 240, 91)"></rect><rect x="198.21428571428572" y="284.1304347826087" width="14.285714285714286" height="18.30434782608694" fill="rgb(175, 240, 91)"></rect><rect x="198.21428571428572" y="264.82608695652175" width="14.285714285714286" height="18.30434782608694" fill="rgb(175, 240, 91)"></rect><rect x="198.21428571428572" y="255.17391304347825" width="14.285714285714286" height="8.652173913043498" fill="rgb(26, 199, 194)"></rect><rect x="198.21428571428572" y="245.52173913043478" width="14.285714285714286" height="8.652173913043498" fill="rgb(26, 199, 194)"></rect><rect x="198.21428571428572" y="235.8695652173913" width="14.285714285714286" height="8.652173913043498" fill="rgb(26, 199, 194)"></rect><rect x="198.21428571428572" y="226.2173913043478" width="14.285714285714286" height="8.652173913043498" fill="rgb(26, 199, 194)"></rect><rect x="198.21428571428572" y="216.56521739130434" width="14.285714285714286" height="8.652173913043498" fill="rgb(26, 199, 194)"></rect><rect x="198.21428571428572" y="206.91304347826087" width="14.285714285714286" height="8.652173913043498" fill="rgb(26, 199, 194)"></rect><rect x="198.21428571428572" y="197.26086956521738" width="14.285714285714286" height="8.652173913043498" fill="rgb(26, 199, 194)"></rect><rect x="198.21428571428572" y="187.6086956521739" width="14.285714285714286" height="8.652173913043498" fill="rgb(26, 199, 194)"></rect><rect x="198.21428571428572" y="168.30434782608697" width="14.285714285714286" height="18.30434782608694" fill="rgb(175, 240, 91)"></rect><rect x="198.21428571428572" y="149" width="14.285714285714286" height="18.30434782608694" fill="rgb(175, 240, 91)"></rect><rect x="198.21428571428572" y="129.69565217391303" width="14.285714285714286" height="18.30434782608694" fill="rgb(175, 240, 91)"></rect><rect x="198.21428571428572" y="110.39130434782606" width="14.285714285714286" height="18.30434782608694" fill="rgb(175, 240, 91)"></rect><rect x="198.21428571428572" y="100.73913043478262" width="14.285714285714286" height="8.652173913043498" fill="rgb(26, 199, 194)"></rect><rect x="198.21428571428572" y="81.43478260869563" width="14.285714285714286" height="18.30434782608694" fill="rgb(175, 240, 91)"></rect></g><g><rect x="216.07142857142856" y="366.17391304347825" width="14.285714285714286" height="3.826086956521749" fill="rgb(65, 125, 224)"></rect><rect x="216.07142857142856" y="361.3478260869565" width="14.285714285714286" height="3.826086956521749" fill="rgb(65, 125, 224)"></rect><rect x="216.07142857142856" y="348.4782608695652" width="14.285714285714286" height="11.869565217391312" fill="rgb(40, 234, 141)"></rect><rect x="216.07142857142856" y="335.60869565217394" width="14.285714285714286" height="11.869565217391312" fill="rgb(40, 234, 141)"></rect><rect x="216.07142857142856" y="322.7391304347826" width="14.285714285714286" height="11.869565217391312" fill="rgb(40, 234, 141)"></rect><rect x="216.07142857142856" y="309.8695652173913" width="14.285714285714286" height="11.869565217391312" fill="rgb(40, 234, 141)"></rect><rect x="216.07142857142856" y="297" width="14.285714285714286" height="11.869565217391312" fill="rgb(40, 234, 141)"></rect><rect x="216.07142857142856" y="284.1304347826087" width="14.285714285714286" height="11.869565217391312" fill="rgb(40, 234, 141)"></rect><rect x="216.07142857142856" y="271.2608695652174" width="14.285714285714286" height="11.869565217391312" fill="rgb(40, 234, 141)"></rect><rect x="216.07142857142856" y="258.39130434782606" width="14.285714285714286" height="11.869565217391312" fill="rgb(40, 234, 141)"></rect><rect x="216.07142857142856" y="245.52173913043478" width="14.285714285714286" height="11.869565217391312" fill="rgb(40, 234, 141)"></rect><rect x="216.07142857142856" y="232.65217391304347" width="14.285714285714286" height="11.869565217391312" fill="rgb(40, 234, 141)"></rect><rect x="216.07142857142856" y="219.78260869565216" width="14.285714285714286" height="11.869565217391312" fill="rgb(40, 234, 141)"></rect><rect x="216.07142857142856" y="206.91304347826087" width="14.285714285714286" height="11.869565217391312" fill="rgb(40, 234, 141)"></rect><rect x="216.07142857142856" y="194.04347826086956" width="14.285714285714286" height="11.869565217391312" fill="rgb(40, 234, 141)"></rect><rect x="216.07142857142856" y="181.17391304347825" width="14.285714285714286" height="11.869565217391312" fill="rgb(40, 234, 141)"></rect><rect x="216.07142857142856" y="168.30434782608697" width="14.285714285714286" height="11.869565217391312" fill="rgb(40, 234, 141)"></rect><rect x="216.07142857142856" y="155.43478260869566" width="14.285714285714286" height="11.869565217391312" fill="rgb(40, 234, 141)"></rect><rect x="216.07142857142856" y="142.56521739130434" width="14.285714285714286" height="11.869565217391312" fill="rgb(40, 234, 141)"></rect><rect x="216.07142857142856" y="129.69565217391303" width="14.285714285714286" height="11.869565217391312" fill="rgb(40, 234, 141)"></rect><rect x="216.07142857142856" y="116.82608695652172" width="14.285714285714286" height="11.869565217391312" fill="rgb(40, 234, 141)"></rect><rect x="216.07142857142856" y="103.95652173913044" width="14.285714285714286" height="11.869565217391312" fill="rgb(40, 234, 141)"></rect><rect x="216.07142857142856" y="91.08695652173913" width="14.285714285714286" height="11.869565217391312" fill="rgb(40, 234, 141)"></rect><rect x="216.07142857142856" y="78.21739130434781" width="14.285714285714286" height="11.869565217391312" fill="rgb(40, 234, 141)"></rect><rect x="216.07142857142856" y="65.3478260869565" width="14.285714285714286" height="11.869565217391312" fill="rgb(40, 234, 141)"></rect><rect x="216.07142857142856" y="52.47826086956519" width="14.285714285714286" height="11.869565217391312" fill="rgb(40, 234, 141)"></rect><rect x="216.07142857142856" y="39.60869565217388" width="14.285714285714286" height="11.869565217391312" fill="rgb(40, 234, 141)"></rect><rect x="216.07142857142856" y="26.739130434782624" width="14.285714285714286" height="11.869565217391312" fill="rgb(40, 234, 141)"></rect><rect x="216.07142857142856" y="13.869565217391312" width="14.285714285714286" height="11.869565217391312" fill="rgb(40, 234, 141)"></rect><rect x="216.07142857142856" y="1" width="14.285714285714286" height="11.869565217391312" fill="rgb(40, 234, 141)"></rect></g><g><rect x="233.92857142857142" y="366.17391304347825" width="14.285714285714286" height="3.826086956521749" fill="rgb(65, 125, 224)"></rect><rect x="233.92857142857142" y="356.52173913043475" width="14.285714285714286" height="8.652173913043498" fill="rgb(26, 199, 194)"></rect><rect x="233.92857142857142" y="346.8695652173913" width="14.285714285714286" height="8.652173913043498" fill="rgb(26, 199, 194)"></rect><rect x="233.92857142857142" y="337.2173913043478" width="14.285714285714286" height="8.652173913043498" fill="rgb(26, 199, 194)"></rect><rect x="233.92857142857142" y="327.5652173913044" width="14.285714285714286" height="8.652173913043498" fill="rgb(26, 199, 194)"></rect><rect x="233.92857142857142" y="317.9130434782609" width="14.285714285714286" height="8.652173913043498" fill="rgb(26, 199, 194)"></rect><rect x="233.92857142857142" y="298.6086956521739" width="14.285714285714286" height="18.30434782608694" fill="rgb(175, 240, 91)"></rect><rect x="233.92857142857142" y="279.30434782608694" width="14.285714285714286" height="18.30434782608694" fill="rgb(175, 240, 91)"></rect><rect x="233.92857142857142" y="260" width="14.285714285714286" height="18.30434782608694" fill="rgb(175, 240, 91)"></rect><rect x="233.92857142857142" y="240.69565217391303" width="14.285714285714286" height="18.30434782608694" fill="rgb(175, 240, 91)"></rect><rect x="233.92857142857142" y="221.3913043478261" width="14.285714285714286" height="18.30434782608694" fill="rgb(175, 240, 91)"></rect><rect x="233.92857142857142" y="202.08695652173915" width="14.285714285714286" height="18.30434782608694" fill="rgb(175, 240, 91)"></rect><rect x="233.92857142857142" y="194.04347826086956" width="14.285714285714286" height="7.043478260869563" fill="rgb(33, 176, 213)"></rect><rect x="233.92857142857142" y="174.7391304347826" width="14.285714285714286" height="18.30434782608694" fill="rgb(175, 240, 91)"></rect></g><path class="graph" fill="none" stroke="orange" stroke-width="1.5" d="M8.92857142857142,277.5L26.785714285714278,277.5L44.64285714285714,277.5L62.49999999999999,277.5L80.35714285714285,185L98.21428571428571,244.8529411764706L116.07142857142856,242.8125L133.92857142857142,235.875L151.78571428571428,134.12499999999997L169.64285714285714,277.5L187.5,225.2173913043478L205.35714285714286,138.75L223.2142857142857,133.6111111111111L241.07142857142856,101.3095238095238"></path><path class="chosenDur" fill="none" stroke="gray" stroke-width="0.4" d="M8.92857142857142,185L26.785714285714278,185L44.64285714285714,185L62.49999999999999,185L80.35714285714285,185L98.21428571428571,185L116.07142857142856,185L133.92857142857142,185L151.78571428571428,185L169.64285714285714,185L187.5,185L205.35714285714286,185L223.2142857142857,185L241.07142857142856,185"></path></g><g class="beschriftung"><text font-size="11px" fill="black" x="125" y="-20" style="font-weight: bold; text-anchor: middle;">Person D: Totale Dauer &amp; Animationszahl pro Aufgabe</text><g transform="translate(310, -5)"><text font-size="11px" fill="black" x="0" y="-5" dy="-0.4ex">Dauer in s</text><rect x="0" y="0" width="15" height="10" fill="rgb(175, 240, 91)"></rect><rect x="0" y="12" width="15" height="10" fill="rgb(135, 245, 87)"></rect><rect x="0" y="24" width="15" height="10" fill="rgb(96, 247, 96)"></rect><rect x="0" y="36" width="15" height="10" fill="rgb(64, 243, 115)"></rect><rect x="0" y="48" width="15" height="10" fill="rgb(40, 234, 141)"></rect><rect x="0" y="60" width="15" height="10" fill="rgb(28, 219, 169)"></rect><rect x="0" y="72" width="15" height="10" fill="rgb(26, 199, 194)"></rect><rect x="0" y="84" width="15" height="10" fill="rgb(33, 176, 213)"></rect><rect x="0" y="96" width="15" height="10" fill="rgb(47, 150, 224)"></rect><rect x="0" y="108" width="15" height="10" fill="rgb(65, 125, 224)"></rect><rect x="0" y="120" width="15" height="10" fill="rgb(84, 101, 214)"></rect><rect x="0" y="132" width="15" height="10" fill="rgb(99, 81, 195)"></rect><rect x="0" y="151.2" width="15" height="2" fill="orange"></rect><rect x="0" y="164.39999999999998" width="15" height="0.4" fill="gray"></rect><text class="legende" font-size="11px" fill="black" x="20" y="12" dy="-0.5ex">3 s</text><text class="legende" font-size="11px" fill="black" x="20" y="24" dy="-0.5ex">2.75 s</text><text class="legende" font-size="11px" fill="black" x="20" y="36" dy="-0.5ex">2.5 s</text><text class="legende" font-size="11px" fill="black" x="20" y="48" dy="-0.5ex">2.25 s</text><text class="legende" font-size="11px" fill="black" x="20" y="60" dy="-0.5ex">2 s</text><text class="legende" font-size="11px" fill="black" x="20" y="72" dy="-0.5ex">1.75 s</text><text class="legende" font-size="11px" fill="black" x="20" y="84" dy="-0.5ex">1.5 s</text><text class="legende" font-size="11px" fill="black" x="20" y="96" dy="-0.5ex">1.25 s</text><text class="legende" font-size="11px" fill="black" x="20" y="108" dy="-0.5ex">1 s</text><text class="legende" font-size="11px" fill="black" x="20" y="120" dy="-0.5ex">0.75 s</text><text class="legende" font-size="11px" fill="black" x="20" y="132" dy="-0.5ex">0.5 s</text><text class="legende" font-size="11px" fill="black" x="20" y="144" dy="-0.5ex">0.25 s</text><text class="legende" font-size="11px" fill="black" x="20" y="156" dy="-0.2ex">Mittel</text><text class="legende" font-size="11px" fill="black" x="20" y="168" dy="-0.2ex">fav. Dauer</text></g><text class="total" x="8.92857142857142" y="331.39130434782606" font-size="11px" fill="black" style="text-anchor: middle;" dy="-0.5ex">8</text><text class="total" x="26.785714285714278" y="331.39130434782606" font-size="11px" fill="black" style="text-anchor: middle;" dy="-0.5ex">8</text><text class="total" x="44.64285714285714" y="316.9130434782609" font-size="11px" fill="black" style="text-anchor: middle;" dy="-0.5ex">11</text><text class="total" x="62.49999999999999" y="350.69565217391306" font-size="11px" fill="black" style="text-anchor: middle;" dy="-0.5ex">4</text><text class="total" x="80.35714285714285" y="254.17391304347825" font-size="11px" fill="black" style="text-anchor: middle;" dy="-0.5ex">12</text><text class="total" x="98.21428571428571" y="259" font-size="11px" fill="black" style="text-anchor: middle;" dy="-0.5ex">17</text><text class="total" x="116.07142857142856" y="316.9130434782609" font-size="11px" fill="black" style="text-anchor: middle;" dy="-0.5ex">8</text><text class="total" x="133.92857142857142" y="230.04347826086956" font-size="11px" fill="black" style="text-anchor: middle;" dy="-0.5ex">20</text><text class="total" x="151.78571428571428" y="123.86956521739128" font-size="11px" fill="black" style="text-anchor: middle;" dy="-0.5ex">20</text><text class="total" x="169.64285714285714" y="287.95652173913044" font-size="11px" fill="black" style="text-anchor: middle;" dy="-0.5ex">17</text><text class="total" x="187.5" y="196.26086956521738" font-size="11px" fill="black" style="text-anchor: middle;" dy="-0.5ex">23</text><text class="total" x="205.35714285714286" y="80.43478260869563" font-size="11px" fill="black" style="text-anchor: middle;" dy="-0.5ex">24</text><text class="total" x="223.2142857142857" y="0" font-size="11px" fill="black" style="text-anchor: middle;" dy="-0.5ex">30</text><text class="total" x="241.07142857142856" y="173.7391304347826" font-size="11px" fill="black" style="text-anchor: middle;" dy="-0.5ex">14</text></g><g class="x axis" transform="translate(0,370)" fill="none" font-size="10" font-family="sans-serif" text-anchor="middle"><path class="domain" stroke="currentColor" d="M0.5,6V0.5H250.5V6"></path><g class="tick" opacity="1" transform="translate(8.92857142857142,0)"><line stroke="currentColor" y2="6"></line><text fill="black" y="9" dy=".71em" transform="translate(0,1)" font-size="11px" style="text-anchor: middle;">1</text></g><g class="tick" opacity="1" transform="translate(26.785714285714278,0)"><line stroke="currentColor" y2="6"></line><text fill="black" y="9" dy=".71em" transform="translate(0,1)" font-size="11px" style="text-anchor: middle;">2</text></g><g class="tick" opacity="1" transform="translate(44.64285714285714,0)"><line stroke="currentColor" y2="6"></line><text fill="black" y="9" dy=".71em" transform="translate(0,1)" font-size="11px" style="text-anchor: middle;">3</text></g><g class="tick" opacity="1" transform="translate(62.49999999999999,0)"><line stroke="currentColor" y2="6"></line><text fill="black" y="9" dy=".71em" transform="translate(0,1)" font-size="11px" style="text-anchor: middle;">4</text></g><g class="tick" opacity="1" transform="translate(80.35714285714285,0)"><line stroke="currentColor" y2="6"></line><text fill="black" y="9" dy=".71em" transform="translate(0,1)" font-size="11px" style="text-anchor: middle;">5</text></g><g class="tick" opacity="1" transform="translate(98.21428571428571,0)"><line stroke="currentColor" y2="6"></line><text fill="black" y="9" dy=".71em" transform="translate(0,1)" font-size="11px" style="text-anchor: middle;">6</text></g><g class="tick" opacity="1" transform="translate(116.07142857142856,0)"><line stroke="currentColor" y2="6"></line><text fill="black" y="9" dy=".71em" transform="translate(0,1)" font-size="11px" style="text-anchor: middle;">7</text></g><g class="tick" opacity="1" transform="translate(133.92857142857142,0)"><line stroke="currentColor" y2="6"></line><text fill="black" y="9" dy=".71em" transform="translate(0,1)" font-size="11px" style="text-anchor: middle;">8</text></g><g class="tick" opacity="1" transform="translate(151.78571428571428,0)"><line stroke="currentColor" y2="6"></line><text fill="black" y="9" dy=".71em" transform="translate(0,1)" font-size="11px" style="text-anchor: middle;">9</text></g><g class="tick" opacity="1" transform="translate(169.64285714285714,0)"><line stroke="currentColor" y2="6"></line><text fill="black" y="9" dy=".71em" transform="translate(0,1)" font-size="11px" style="text-anchor: middle;">10</text></g><g class="tick" opacity="1" transform="translate(187.5,0)"><line stroke="currentColor" y2="6"></line><text fill="black" y="9" dy=".71em" transform="translate(0,1)" font-size="11px" style="text-anchor: middle;">11</text></g><g class="tick" opacity="1" transform="translate(205.35714285714286,0)"><line stroke="currentColor" y2="6"></line><text fill="black" y="9" dy=".71em" transform="translate(0,1)" font-size="11px" style="text-anchor: middle;">12</text></g><g class="tick" opacity="1" transform="translate(223.2142857142857,0)"><line stroke="currentColor" y2="6"></line><text fill="black" y="9" dy=".71em" transform="translate(0,1)" font-size="11px" style="text-anchor: middle;">13</text></g><g class="tick" opacity="1" transform="translate(241.07142857142856,0)"><line stroke="currentColor" y2="6"></line><text fill="black" y="9" dy=".71em" transform="translate(0,1)" font-size="11px" style="text-anchor: middle;">14</text></g><text transform="translate(125, 23)" font-size="11px" fill="black" dy=".71em" style="text-anchor: middle;">Aufgaben-Nr.</text></g><g class="y axis" fill="none" font-size="10" font-family="sans-serif" text-anchor="end"><path class="domain" stroke="currentColor" d="M-6,370.5H0.5V0.5H-6"></path><g class="tick" opacity="1" transform="translate(0,370.5)"><line stroke="currentColor" x2="-6"></line><text fill="currentColor" x="-9" dy="0.32em">0</text></g><g class="tick" opacity="1" transform="translate(0,338.32608695652175)"><line stroke="currentColor" x2="-6"></line><text fill="currentColor" x="-9" dy="0.32em">5</text></g><g class="tick" opacity="1" transform="translate(0,306.1521739130435)"><line stroke="currentColor" x2="-6"></line><text fill="currentColor" x="-9" dy="0.32em">10</text></g><g class="tick" opacity="1" transform="translate(0,273.97826086956525)"><line stroke="currentColor" x2="-6"></line><text fill="currentColor" x="-9" dy="0.32em">15</text></g><g class="tick" opacity="1" transform="translate(0,241.80434782608697)"><line stroke="currentColor" x2="-6"></line><text fill="currentColor" x="-9" dy="0.32em">20</text></g><g class="tick" opacity="1" transform="translate(0,209.6304347826087)"><line stroke="currentColor" x2="-6"></line><text fill="currentColor" x="-9" dy="0.32em">25</text></g><g class="tick" opacity="1" transform="translate(0,177.45652173913044)"><line stroke="currentColor" x2="-6"></line><text fill="currentColor" x="-9" dy="0.32em">30</text></g><g class="tick" opacity="1" transform="translate(0,145.28260869565216)"><line stroke="currentColor" x2="-6"></line><text fill="currentColor" x="-9" dy="0.32em">35</text></g><g class="tick" opacity="1" transform="translate(0,113.10869565217394)"><line stroke="currentColor" x2="-6"></line><text fill="currentColor" x="-9" dy="0.32em">40</text></g><g class="tick" opacity="1" transform="translate(0,80.93478260869563)"><line stroke="currentColor" x2="-6"></line><text fill="currentColor" x="-9" dy="0.32em">45</text></g><g class="tick" opacity="1" transform="translate(0,48.76086956521738)"><line stroke="currentColor" x2="-6"></line><text fill="currentColor" x="-9" dy="0.32em">50</text></g><g class="tick" opacity="1" transform="translate(0,16.586956521739125)"><line stroke="currentColor" x2="-6"></line><text fill="currentColor" x="-9" dy="0.32em">55</text></g><text transform="translate(-38,185) rotate(-90)" font-size="11px" fill="black" dy=".71em" style="text-anchor: middle;">Totale Dauer in sec</text></g><g class="y axis" transform="translate(250, 0)" fill="none" font-size="10" font-family="sans-serif" text-anchor="start"><path class="domain" stroke="currentColor" d="M6,370.5H0.5V0.5H6"></path><g class="tick" opacity="1" transform="translate(0,370.5)"><line stroke="currentColor" x2="6"></line><text fill="currentColor" x="9" dy="0.32em">0.0</text></g><g class="tick" opacity="1" transform="translate(0,345.8333333333333)"><line stroke="currentColor" x2="6"></line><text fill="currentColor" x="9" dy="0.32em">0.2</text></g><g class="tick" opacity="1" transform="translate(0,321.1666666666667)"><line stroke="currentColor" x2="6"></line><text fill="currentColor" x="9" dy="0.32em">0.4</text></g><g class="tick" opacity="1" transform="translate(0,296.5)"><line stroke="currentColor" x2="6"></line><text fill="currentColor" x="9" dy="0.32em">0.6</text></g><g class="tick" opacity="1" transform="translate(0,271.8333333333333)"><line stroke="currentColor" x2="6"></line><text fill="currentColor" x="9" dy="0.32em">0.8</text></g><g class="tick" opacity="1" transform="translate(0,247.16666666666669)"><line stroke="currentColor" x2="6"></line><text fill="currentColor" x="9" dy="0.32em">1.0</text></g><g class="tick" opacity="1" transform="translate(0,222.5)"><line stroke="currentColor" x2="6"></line><text fill="currentColor" x="9" dy="0.32em">1.2</text></g><g class="tick" opacity="1" transform="translate(0,197.83333333333334)"><line stroke="currentColor" x2="6"></line><text fill="currentColor" x="9" dy="0.32em">1.4</text></g><g class="tick" opacity="1" transform="translate(0,173.16666666666666)"><line stroke="currentColor" x2="6"></line><text fill="currentColor" x="9" dy="0.32em">1.6</text></g><g class="tick" opacity="1" transform="translate(0,148.5)"><line stroke="currentColor" x2="6"></line><text fill="currentColor" x="9" dy="0.32em">1.8</text></g><g class="tick" opacity="1" transform="translate(0,123.83333333333334)"><line stroke="currentColor" x2="6"></line><text fill="currentColor" x="9" dy="0.32em">2.0</text></g><g class="tick" opacity="1" transform="translate(0,99.16666666666663)"><line stroke="currentColor" x2="6"></line><text fill="currentColor" x="9" dy="0.32em">2.2</text></g><g class="tick" opacity="1" transform="translate(0,74.5)"><line stroke="currentColor" x2="6"></line><text fill="currentColor" x="9" dy="0.32em">2.4</text></g><g class="tick" opacity="1" transform="translate(0,49.833333333333314)"><line stroke="currentColor" x2="6"></line><text fill="currentColor" x="9" dy="0.32em">2.6</text></g><g class="tick" opacity="1" transform="translate(0,25.166666666666686)"><line stroke="currentColor" x2="6"></line><text fill="currentColor" x="9" dy="0.32em">2.8</text></g><g class="tick" opacity="1" transform="translate(0,0.5)"><line stroke="currentColor" x2="6"></line><text fill="currentColor" x="9" dy="0.32em">3.0</text></g><text transform="translate(38,185) rotate(-90)" font-size="11px" fill="black" dy="0em" style="text-anchor: middle;">Durchschnittl. Dauer pro Transition in sec</text></g></g></svg>