<?xml version="1.0" standalone="no"?>
<svg id="Gesamt" width="450" height="460" style="border: 1px solid rgb(153, 153, 153);" xmlns="http://www.w3.org/2000/svg"><g transform="translate(60,40)"><g class="bars"><g><rect x="1.7857142857142776" y="369.15" width="14.285714285714286" height="0.8500000000000227" fill="rgb(65, 125, 224)"></rect><rect x="1.7857142857142776" y="367.3" width="14.285714285714286" height="0.8500000000000227" fill="rgb(65, 125, 224)"></rect><rect x="1.7857142857142776" y="365.45" width="14.285714285714286" height="0.8500000000000227" fill="rgb(65, 125, 224)"></rect><rect x="1.7857142857142776" y="363.6" width="14.285714285714286" height="0.8500000000000227" fill="rgb(65, 125, 224)"></rect><rect x="1.7857142857142776" y="361.75" width="14.285714285714286" height="0.8500000000000227" fill="rgb(65, 125, 224)"></rect><rect x="1.7857142857142776" y="359.9" width="14.285714285714286" height="0.8500000000000227" fill="rgb(65, 125, 224)"></rect><rect x="1.7857142857142776" y="358.05" width="14.285714285714286" height="0.8500000000000227" fill="rgb(65, 125, 224)"></rect><rect x="1.7857142857142776" y="356.2" width="14.285714285714286" height="0.8500000000000227" fill="rgb(65, 125, 224)"></rect><rect x="1.7857142857142776" y="354.35" width="14.285714285714286" height="0.8500000000000227" fill="rgb(65, 125, 224)"></rect><rect x="1.7857142857142776" y="351.26666666666665" width="14.285714285714286" height="2.0833333333333144" fill="rgb(33, 176, 213)"></rect><rect x="1.7857142857142776" y="348.18333333333334" width="14.285714285714286" height="2.0833333333333144" fill="rgb(33, 176, 213)"></rect><rect x="1.7857142857142776" y="343.8666666666667" width="14.285714285714286" height="3.316666666666663" fill="rgb(28, 219, 169)"></rect><rect x="1.7857142857142776" y="339.55" width="14.285714285714286" height="3.316666666666663" fill="rgb(28, 219, 169)"></rect><rect x="1.7857142857142776" y="335.23333333333335" width="14.285714285714286" height="3.316666666666663" fill="rgb(28, 219, 169)"></rect><rect x="1.7857142857142776" y="330.9166666666667" width="14.285714285714286" height="3.316666666666663" fill="rgb(28, 219, 169)"></rect><rect x="1.7857142857142776" y="326.6" width="14.285714285714286" height="3.316666666666663" fill="rgb(28, 219, 169)"></rect><rect x="1.7857142857142776" y="322.28333333333336" width="14.285714285714286" height="3.316666666666663" fill="rgb(28, 219, 169)"></rect><rect x="1.7857142857142776" y="317.96666666666664" width="14.285714285714286" height="3.316666666666663" fill="rgb(28, 219, 169)"></rect><rect x="1.7857142857142776" y="313.65" width="14.285714285714286" height="3.316666666666663" fill="rgb(28, 219, 169)"></rect><rect x="1.7857142857142776" y="309.3333333333333" width="14.285714285714286" height="3.316666666666663" fill="rgb(28, 219, 169)"></rect><rect x="1.7857142857142776" y="303.1666666666667" width="14.285714285714286" height="5.166666666666686" fill="rgb(96, 247, 96)"></rect><rect x="1.7857142857142776" y="297" width="14.285714285714286" height="5.166666666666686" fill="rgb(96, 247, 96)"></rect><rect x="1.7857142857142776" y="290.8333333333333" width="14.285714285714286" height="5.166666666666686" fill="rgb(96, 247, 96)"></rect><rect x="1.7857142857142776" y="284.05" width="14.285714285714286" height="5.78333333333336" fill="rgb(135, 245, 87)"></rect><rect x="1.7857142857142776" y="276.65" width="14.285714285714286" height="6.399999999999977" fill="rgb(175, 240, 91)"></rect></g><g><rect x="19.642857142857135" y="369.15" width="14.285714285714286" height="0.8500000000000227" fill="rgb(65, 125, 224)"></rect><rect x="19.642857142857135" y="367.3" width="14.285714285714286" height="0.8500000000000227" fill="rgb(65, 125, 224)"></rect><rect x="19.642857142857135" y="365.45" width="14.285714285714286" height="0.8500000000000227" fill="rgb(65, 125, 224)"></rect><rect x="19.642857142857135" y="363.6" width="14.285714285714286" height="0.8500000000000227" fill="rgb(65, 125, 224)"></rect><rect x="19.642857142857135" y="361.75" width="14.285714285714286" height="0.8500000000000227" fill="rgb(65, 125, 224)"></rect><rect x="19.642857142857135" y="359.9" width="14.285714285714286" height="0.8500000000000227" fill="rgb(65, 125, 224)"></rect><rect x="19.642857142857135" y="358.05" width="14.285714285714286" height="0.8500000000000227" fill="rgb(65, 125, 224)"></rect><rect x="19.642857142857135" y="356.2" width="14.285714285714286" height="0.8500000000000227" fill="rgb(65, 125, 224)"></rect><rect x="19.642857142857135" y="354.35" width="14.285714285714286" height="0.8500000000000227" fill="rgb(65, 125, 224)"></rect><rect x="19.642857142857135" y="352.5" width="14.285714285714286" height="0.8500000000000227" fill="rgb(65, 125, 224)"></rect><rect x="19.642857142857135" y="350.65" width="14.285714285714286" height="0.8500000000000227" fill="rgb(65, 125, 224)"></rect><rect x="19.642857142857135" y="348.8" width="14.285714285714286" height="0.8500000000000227" fill="rgb(65, 125, 224)"></rect><rect x="19.642857142857135" y="346.95" width="14.285714285714286" height="0.8500000000000227" fill="rgb(65, 125, 224)"></rect><rect x="19.642857142857135" y="342.6333333333333" width="14.285714285714286" height="3.316666666666663" fill="rgb(28, 219, 169)"></rect><rect x="19.642857142857135" y="338.31666666666666" width="14.285714285714286" height="3.316666666666663" fill="rgb(28, 219, 169)"></rect><rect x="19.642857142857135" y="334" width="14.285714285714286" height="3.316666666666663" fill="rgb(28, 219, 169)"></rect><rect x="19.642857142857135" y="329.68333333333334" width="14.285714285714286" height="3.316666666666663" fill="rgb(28, 219, 169)"></rect><rect x="19.642857142857135" y="325.3666666666667" width="14.285714285714286" height="3.316666666666663" fill="rgb(28, 219, 169)"></rect><rect x="19.642857142857135" y="321.05" width="14.285714285714286" height="3.316666666666663" fill="rgb(28, 219, 169)"></rect><rect x="19.642857142857135" y="316.73333333333335" width="14.285714285714286" height="3.316666666666663" fill="rgb(28, 219, 169)"></rect><rect x="19.642857142857135" y="312.4166666666667" width="14.285714285714286" height="3.316666666666663" fill="rgb(28, 219, 169)"></rect><rect x="19.642857142857135" y="308.1" width="14.285714285714286" height="3.316666666666663" fill="rgb(28, 219, 169)"></rect><rect x="19.642857142857135" y="303.7833333333333" width="14.285714285714286" height="3.316666666666663" fill="rgb(28, 219, 169)"></rect><rect x="19.642857142857135" y="296.3833333333333" width="14.285714285714286" height="6.399999999999977" fill="rgb(175, 240, 91)"></rect><rect x="19.642857142857135" y="288.98333333333335" width="14.285714285714286" height="6.399999999999977" fill="rgb(175, 240, 91)"></rect><rect x="19.642857142857135" y="281.5833333333333" width="14.285714285714286" height="6.399999999999977" fill="rgb(175, 240, 91)"></rect><rect x="19.642857142857135" y="274.18333333333334" width="14.285714285714286" height="6.399999999999977" fill="rgb(175, 240, 91)"></rect></g><g><rect x="37.49999999999999" y="369.15" width="14.285714285714286" height="0.8500000000000227" fill="rgb(65, 125, 224)"></rect><rect x="37.49999999999999" y="367.3" width="14.285714285714286" height="0.8500000000000227" fill="rgb(65, 125, 224)"></rect><rect x="37.49999999999999" y="365.45" width="14.285714285714286" height="0.8500000000000227" fill="rgb(65, 125, 224)"></rect><rect x="37.49999999999999" y="363.6" width="14.285714285714286" height="0.8500000000000227" fill="rgb(65, 125, 224)"></rect><rect x="37.49999999999999" y="361.75" width="14.285714285714286" height="0.8500000000000227" fill="rgb(65, 125, 224)"></rect><rect x="37.49999999999999" y="359.9" width="14.285714285714286" height="0.8500000000000227" fill="rgb(65, 125, 224)"></rect><rect x="37.49999999999999" y="358.05" width="14.285714285714286" height="0.8500000000000227" fill="rgb(65, 125, 224)"></rect><rect x="37.49999999999999" y="356.2" width="14.285714285714286" height="0.8500000000000227" fill="rgb(65, 125, 224)"></rect><rect x="37.49999999999999" y="354.35" width="14.285714285714286" height="0.8500000000000227" fill="rgb(65, 125, 224)"></rect><rect x="37.49999999999999" y="352.5" width="14.285714285714286" height="0.8500000000000227" fill="rgb(65, 125, 224)"></rect><rect x="37.49999999999999" y="350.65" width="14.285714285714286" height="0.8500000000000227" fill="rgb(65, 125, 224)"></rect><rect x="37.49999999999999" y="348.8" width="14.285714285714286" height="0.8500000000000227" fill="rgb(65, 125, 224)"></rect><rect x="37.49999999999999" y="346.95" width="14.285714285714286" height="0.8500000000000227" fill="rgb(65, 125, 224)"></rect><rect x="37.49999999999999" y="345.1" width="14.285714285714286" height="0.8500000000000227" fill="rgb(65, 125, 224)"></rect><rect x="37.49999999999999" y="343.25" width="14.285714285714286" height="0.8500000000000227" fill="rgb(65, 125, 224)"></rect><rect x="37.49999999999999" y="341.4" width="14.285714285714286" height="0.8500000000000227" fill="rgb(65, 125, 224)"></rect><rect x="37.49999999999999" y="339.55" width="14.285714285714286" height="0.8500000000000227" fill="rgb(65, 125, 224)"></rect><rect x="37.49999999999999" y="336.4666666666667" width="14.285714285714286" height="2.0833333333333144" fill="rgb(33, 176, 213)"></rect><rect x="37.49999999999999" y="333.3833333333333" width="14.285714285714286" height="2.0833333333333144" fill="rgb(33, 176, 213)"></rect><rect x="37.49999999999999" y="329.06666666666666" width="14.285714285714286" height="3.316666666666663" fill="rgb(28, 219, 169)"></rect><rect x="37.49999999999999" y="324.75" width="14.285714285714286" height="3.316666666666663" fill="rgb(28, 219, 169)"></rect><rect x="37.49999999999999" y="320.43333333333334" width="14.285714285714286" height="3.316666666666663" fill="rgb(28, 219, 169)"></rect><rect x="37.49999999999999" y="316.1166666666667" width="14.285714285714286" height="3.316666666666663" fill="rgb(28, 219, 169)"></rect><rect x="37.49999999999999" y="311.8" width="14.285714285714286" height="3.316666666666663" fill="rgb(28, 219, 169)"></rect><rect x="37.49999999999999" y="307.48333333333335" width="14.285714285714286" height="3.316666666666663" fill="rgb(28, 219, 169)"></rect><rect x="37.49999999999999" y="303.1666666666667" width="14.285714285714286" height="3.316666666666663" fill="rgb(28, 219, 169)"></rect><rect x="37.49999999999999" y="298.85" width="14.285714285714286" height="3.316666666666663" fill="rgb(28, 219, 169)"></rect><rect x="37.49999999999999" y="294.5333333333333" width="14.285714285714286" height="3.316666666666663" fill="rgb(28, 219, 169)"></rect><rect x="37.49999999999999" y="290.2166666666667" width="14.285714285714286" height="3.316666666666663" fill="rgb(28, 219, 169)"></rect><rect x="37.49999999999999" y="285.9" width="14.285714285714286" height="3.316666666666663" fill="rgb(28, 219, 169)"></rect><rect x="37.49999999999999" y="281.5833333333333" width="14.285714285714286" height="3.316666666666663" fill="rgb(28, 219, 169)"></rect><rect x="37.49999999999999" y="277.26666666666665" width="14.285714285714286" height="3.316666666666663" fill="rgb(28, 219, 169)"></rect><rect x="37.49999999999999" y="272.95" width="14.285714285714286" height="3.316666666666663" fill="rgb(28, 219, 169)"></rect><rect x="37.49999999999999" y="266.7833333333333" width="14.285714285714286" height="5.166666666666686" fill="rgb(96, 247, 96)"></rect><rect x="37.49999999999999" y="260.6166666666667" width="14.285714285714286" height="5.166666666666686" fill="rgb(96, 247, 96)"></rect><rect x="37.49999999999999" y="254.45" width="14.285714285714286" height="5.166666666666686" fill="rgb(96, 247, 96)"></rect><rect x="37.49999999999999" y="247.05" width="14.285714285714286" height="6.399999999999977" fill="rgb(175, 240, 91)"></rect><rect x="37.49999999999999" y="239.65" width="14.285714285714286" height="6.399999999999977" fill="rgb(175, 240, 91)"></rect><rect x="37.49999999999999" y="232.25" width="14.285714285714286" height="6.399999999999977" fill="rgb(175, 240, 91)"></rect></g><g><rect x="55.35714285714285" y="369.15" width="14.285714285714286" height="0.8500000000000227" fill="rgb(65, 125, 224)"></rect><rect x="55.35714285714285" y="367.3" width="14.285714285714286" height="0.8500000000000227" fill="rgb(65, 125, 224)"></rect><rect x="55.35714285714285" y="365.45" width="14.285714285714286" height="0.8500000000000227" fill="rgb(65, 125, 224)"></rect><rect x="55.35714285714285" y="363.6" width="14.285714285714286" height="0.8500000000000227" fill="rgb(65, 125, 224)"></rect><rect x="55.35714285714285" y="361.75" width="14.285714285714286" height="0.8500000000000227" fill="rgb(65, 125, 224)"></rect><rect x="55.35714285714285" y="359.9" width="14.285714285714286" height="0.8500000000000227" fill="rgb(65, 125, 224)"></rect><rect x="55.35714285714285" y="358.05" width="14.285714285714286" height="0.8500000000000227" fill="rgb(65, 125, 224)"></rect><rect x="55.35714285714285" y="356.2" width="14.285714285714286" height="0.8500000000000227" fill="rgb(65, 125, 224)"></rect><rect x="55.35714285714285" y="354.35" width="14.285714285714286" height="0.8500000000000227" fill="rgb(65, 125, 224)"></rect><rect x="55.35714285714285" y="352.5" width="14.285714285714286" height="0.8500000000000227" fill="rgb(65, 125, 224)"></rect><rect x="55.35714285714285" y="350.65" width="14.285714285714286" height="0.8500000000000227" fill="rgb(65, 125, 224)"></rect><rect x="55.35714285714285" y="347.56666666666666" width="14.285714285714286" height="2.0833333333333144" fill="rgb(33, 176, 213)"></rect><rect x="55.35714285714285" y="343.25" width="14.285714285714286" height="3.316666666666663" fill="rgb(28, 219, 169)"></rect><rect x="55.35714285714285" y="338.93333333333334" width="14.285714285714286" height="3.316666666666663" fill="rgb(28, 219, 169)"></rect><rect x="55.35714285714285" y="334.6166666666667" width="14.285714285714286" height="3.316666666666663" fill="rgb(28, 219, 169)"></rect><rect x="55.35714285714285" y="330.3" width="14.285714285714286" height="3.316666666666663" fill="rgb(28, 219, 169)"></rect><rect x="55.35714285714285" y="322.9" width="14.285714285714286" height="6.399999999999977" fill="rgb(175, 240, 91)"></rect><rect x="55.35714285714285" y="315.5" width="14.285714285714286" height="6.399999999999977" fill="rgb(175, 240, 91)"></rect><rect x="55.35714285714285" y="308.1" width="14.285714285714286" height="6.399999999999977" fill="rgb(175, 240, 91)"></rect><rect x="55.35714285714285" y="300.7" width="14.285714285714286" height="6.399999999999977" fill="rgb(175, 240, 91)"></rect><rect x="55.35714285714285" y="293.3" width="14.285714285714286" height="6.399999999999977" fill="rgb(175, 240, 91)"></rect><rect x="55.35714285714285" y="285.9" width="14.285714285714286" height="6.399999999999977" fill="rgb(175, 240, 91)"></rect><rect x="55.35714285714285" y="278.5" width="14.285714285714286" height="6.399999999999977" fill="rgb(175, 240, 91)"></rect><rect x="55.35714285714285" y="271.1" width="14.285714285714286" height="6.399999999999977" fill="rgb(175, 240, 91)"></rect><rect x="55.35714285714285" y="263.7" width="14.285714285714286" height="6.399999999999977" fill="rgb(175, 240, 91)"></rect></g><g><rect x="73.21428571428571" y="369.15" width="14.285714285714286" height="0.8500000000000227" fill="rgb(65, 125, 224)"></rect><rect x="73.21428571428571" y="367.3" width="14.285714285714286" height="0.8500000000000227" fill="rgb(65, 125, 224)"></rect><rect x="73.21428571428571" y="365.45" width="14.285714285714286" height="0.8500000000000227" fill="rgb(65, 125, 224)"></rect><rect x="73.21428571428571" y="363.6" width="14.285714285714286" height="0.8500000000000227" fill="rgb(65, 125, 224)"></rect><rect x="73.21428571428571" y="361.75" width="14.285714285714286" height="0.8500000000000227" fill="rgb(65, 125, 224)"></rect><rect x="73.21428571428571" y="359.9" width="14.285714285714286" height="0.8500000000000227" fill="rgb(65, 125, 224)"></rect><rect x="73.21428571428571" y="358.05" width="14.285714285714286" height="0.8500000000000227" fill="rgb(65, 125, 224)"></rect><rect x="73.21428571428571" y="356.2" width="14.285714285714286" height="0.8500000000000227" fill="rgb(65, 125, 224)"></rect><rect x="73.21428571428571" y="354.35" width="14.285714285714286" height="0.8500000000000227" fill="rgb(65, 125, 224)"></rect><rect x="73.21428571428571" y="352.5" width="14.285714285714286" height="0.8500000000000227" fill="rgb(65, 125, 224)"></rect><rect x="73.21428571428571" y="350.65" width="14.285714285714286" height="0.8500000000000227" fill="rgb(65, 125, 224)"></rect><rect x="73.21428571428571" y="348.8" width="14.285714285714286" height="0.8500000000000227" fill="rgb(65, 125, 224)"></rect><rect x="73.21428571428571" y="346.95" width="14.285714285714286" height="0.8500000000000227" fill="rgb(65, 125, 224)"></rect><rect x="73.21428571428571" y="345.1" width="14.285714285714286" height="0.8500000000000227" fill="rgb(65, 125, 224)"></rect><rect x="73.21428571428571" y="343.25" width="14.285714285714286" height="0.8500000000000227" fill="rgb(65, 125, 224)"></rect><rect x="73.21428571428571" y="341.4" width="14.285714285714286" height="0.8500000000000227" fill="rgb(65, 125, 224)"></rect><rect x="73.21428571428571" y="339.55" width="14.285714285714286" height="0.8500000000000227" fill="rgb(65, 125, 224)"></rect><rect x="73.21428571428571" y="337.7" width="14.285714285714286" height="0.8500000000000227" fill="rgb(65, 125, 224)"></rect><rect x="73.21428571428571" y="335.85" width="14.285714285714286" height="0.8500000000000227" fill="rgb(65, 125, 224)"></rect><rect x="73.21428571428571" y="334" width="14.285714285714286" height="0.8500000000000227" fill="rgb(65, 125, 224)"></rect><rect x="73.21428571428571" y="328.45" width="14.285714285714286" height="4.550000000000011" fill="rgb(64, 243, 115)"></rect><rect x="73.21428571428571" y="322.9" width="14.285714285714286" height="4.550000000000011" fill="rgb(64, 243, 115)"></rect><rect x="73.21428571428571" y="317.35" width="14.285714285714286" height="4.550000000000011" fill="rgb(64, 243, 115)"></rect><rect x="73.21428571428571" y="311.8" width="14.285714285714286" height="4.550000000000011" fill="rgb(64, 243, 115)"></rect><rect x="73.21428571428571" y="304.4" width="14.285714285714286" height="6.399999999999977" fill="rgb(175, 240, 91)"></rect><rect x="73.21428571428571" y="297" width="14.285714285714286" height="6.399999999999977" fill="rgb(175, 240, 91)"></rect><rect x="73.21428571428571" y="289.6" width="14.285714285714286" height="6.399999999999977" fill="rgb(175, 240, 91)"></rect><rect x="73.21428571428571" y="282.2" width="14.285714285714286" height="6.399999999999977" fill="rgb(175, 240, 91)"></rect><rect x="73.21428571428571" y="274.8" width="14.285714285714286" height="6.399999999999977" fill="rgb(175, 240, 91)"></rect><rect x="73.21428571428571" y="267.4" width="14.285714285714286" height="6.399999999999977" fill="rgb(175, 240, 91)"></rect><rect x="73.21428571428571" y="260" width="14.285714285714286" height="6.399999999999977" fill="rgb(175, 240, 91)"></rect><rect x="73.21428571428571" y="252.6" width="14.285714285714286" height="6.399999999999977" fill="rgb(175, 240, 91)"></rect><rect x="73.21428571428571" y="245.2" width="14.285714285714286" height="6.399999999999977" fill="rgb(175, 240, 91)"></rect></g><g><rect x="91.07142857142857" y="369.15" width="14.285714285714286" height="0.8500000000000227" fill="rgb(65, 125, 224)"></rect><rect x="91.07142857142857" y="367.3" width="14.285714285714286" height="0.8500000000000227" fill="rgb(65, 125, 224)"></rect><rect x="91.07142857142857" y="365.45" width="14.285714285714286" height="0.8500000000000227" fill="rgb(65, 125, 224)"></rect><rect x="91.07142857142857" y="363.6" width="14.285714285714286" height="0.8500000000000227" fill="rgb(65, 125, 224)"></rect><rect x="91.07142857142857" y="361.75" width="14.285714285714286" height="0.8500000000000227" fill="rgb(65, 125, 224)"></rect><rect x="91.07142857142857" y="359.9" width="14.285714285714286" height="0.8500000000000227" fill="rgb(65, 125, 224)"></rect><rect x="91.07142857142857" y="358.05" width="14.285714285714286" height="0.8500000000000227" fill="rgb(65, 125, 224)"></rect><rect x="91.07142857142857" y="356.2" width="14.285714285714286" height="0.8500000000000227" fill="rgb(65, 125, 224)"></rect><rect x="91.07142857142857" y="354.35" width="14.285714285714286" height="0.8500000000000227" fill="rgb(65, 125, 224)"></rect><rect x="91.07142857142857" y="352.5" width="14.285714285714286" height="0.8500000000000227" fill="rgb(65, 125, 224)"></rect><rect x="91.07142857142857" y="350.65" width="14.285714285714286" height="0.8500000000000227" fill="rgb(65, 125, 224)"></rect><rect x="91.07142857142857" y="348.8" width="14.285714285714286" height="0.8500000000000227" fill="rgb(65, 125, 224)"></rect><rect x="91.07142857142857" y="346.95" width="14.285714285714286" height="0.8500000000000227" fill="rgb(65, 125, 224)"></rect><rect x="91.07142857142857" y="345.1" width="14.285714285714286" height="0.8500000000000227" fill="rgb(65, 125, 224)"></rect><rect x="91.07142857142857" y="343.25" width="14.285714285714286" height="0.8500000000000227" fill="rgb(65, 125, 224)"></rect><rect x="91.07142857142857" y="341.4" width="14.285714285714286" height="0.8500000000000227" fill="rgb(65, 125, 224)"></rect><rect x="91.07142857142857" y="339.55" width="14.285714285714286" height="0.8500000000000227" fill="rgb(65, 125, 224)"></rect><rect x="91.07142857142857" y="337.7" width="14.285714285714286" height="0.8500000000000227" fill="rgb(65, 125, 224)"></rect><rect x="91.07142857142857" y="335.85" width="14.285714285714286" height="0.8500000000000227" fill="rgb(65, 125, 224)"></rect><rect x="91.07142857142857" y="334" width="14.285714285714286" height="0.8500000000000227" fill="rgb(65, 125, 224)"></rect><rect x="91.07142857142857" y="332.15" width="14.285714285714286" height="0.8500000000000227" fill="rgb(65, 125, 224)"></rect><rect x="91.07142857142857" y="330.3" width="14.285714285714286" height="0.8500000000000227" fill="rgb(65, 125, 224)"></rect><rect x="91.07142857142857" y="328.45" width="14.285714285714286" height="0.8500000000000227" fill="rgb(65, 125, 224)"></rect><rect x="91.07142857142857" y="326.6" width="14.285714285714286" height="0.8500000000000227" fill="rgb(65, 125, 224)"></rect><rect x="91.07142857142857" y="324.75" width="14.285714285714286" height="0.8500000000000227" fill="rgb(65, 125, 224)"></rect><rect x="91.07142857142857" y="322.9" width="14.285714285714286" height="0.8500000000000227" fill="rgb(65, 125, 224)"></rect><rect x="91.07142857142857" y="316.73333333333335" width="14.285714285714286" height="5.166666666666686" fill="rgb(96, 247, 96)"></rect><rect x="91.07142857142857" y="310.56666666666666" width="14.285714285714286" height="5.166666666666686" fill="rgb(96, 247, 96)"></rect><rect x="91.07142857142857" y="304.4" width="14.285714285714286" height="5.166666666666686" fill="rgb(96, 247, 96)"></rect><rect x="91.07142857142857" y="297" width="14.285714285714286" height="6.399999999999977" fill="rgb(175, 240, 91)"></rect><rect x="91.07142857142857" y="289.6" width="14.285714285714286" height="6.399999999999977" fill="rgb(175, 240, 91)"></rect><rect x="91.07142857142857" y="282.2" width="14.285714285714286" height="6.399999999999977" fill="rgb(175, 240, 91)"></rect><rect x="91.07142857142857" y="274.8" width="14.285714285714286" height="6.399999999999977" fill="rgb(175, 240, 91)"></rect><rect x="91.07142857142857" y="267.4" width="14.285714285714286" height="6.399999999999977" fill="rgb(175, 240, 91)"></rect></g><g><rect x="108.92857142857142" y="369.15" width="14.285714285714286" height="0.8500000000000227" fill="rgb(65, 125, 224)"></rect><rect x="108.92857142857142" y="367.3" width="14.285714285714286" height="0.8500000000000227" fill="rgb(65, 125, 224)"></rect><rect x="108.92857142857142" y="365.45" width="14.285714285714286" height="0.8500000000000227" fill="rgb(65, 125, 224)"></rect><rect x="108.92857142857142" y="363.6" width="14.285714285714286" height="0.8500000000000227" fill="rgb(65, 125, 224)"></rect><rect x="108.92857142857142" y="361.75" width="14.285714285714286" height="0.8500000000000227" fill="rgb(65, 125, 224)"></rect><rect x="108.92857142857142" y="359.9" width="14.285714285714286" height="0.8500000000000227" fill="rgb(65, 125, 224)"></rect><rect x="108.92857142857142" y="358.05" width="14.285714285714286" height="0.8500000000000227" fill="rgb(65, 125, 224)"></rect><rect x="108.92857142857142" y="356.2" width="14.285714285714286" height="0.8500000000000227" fill="rgb(65, 125, 224)"></rect><rect x="108.92857142857142" y="354.35" width="14.285714285714286" height="0.8500000000000227" fill="rgb(65, 125, 224)"></rect><rect x="108.92857142857142" y="352.5" width="14.285714285714286" height="0.8500000000000227" fill="rgb(65, 125, 224)"></rect><rect x="108.92857142857142" y="350.65" width="14.285714285714286" height="0.8500000000000227" fill="rgb(65, 125, 224)"></rect><rect x="108.92857142857142" y="348.8" width="14.285714285714286" height="0.8500000000000227" fill="rgb(65, 125, 224)"></rect><rect x="108.92857142857142" y="346.95" width="14.285714285714286" height="0.8500000000000227" fill="rgb(65, 125, 224)"></rect><rect x="108.92857142857142" y="345.1" width="14.285714285714286" height="0.8500000000000227" fill="rgb(65, 125, 224)"></rect><rect x="108.92857142857142" y="343.25" width="14.285714285714286" height="0.8500000000000227" fill="rgb(65, 125, 224)"></rect><rect x="108.92857142857142" y="341.4" width="14.285714285714286" height="0.8500000000000227" fill="rgb(65, 125, 224)"></rect><rect x="108.92857142857142" y="339.55" width="14.285714285714286" height="0.8500000000000227" fill="rgb(65, 125, 224)"></rect><rect x="108.92857142857142" y="334.6166666666667" width="14.285714285714286" height="3.933333333333337" fill="rgb(40, 234, 141)"></rect><rect x="108.92857142857142" y="329.68333333333334" width="14.285714285714286" height="3.933333333333337" fill="rgb(40, 234, 141)"></rect><rect x="108.92857142857142" y="324.75" width="14.285714285714286" height="3.933333333333337" fill="rgb(40, 234, 141)"></rect><rect x="108.92857142857142" y="319.81666666666666" width="14.285714285714286" height="3.933333333333337" fill="rgb(40, 234, 141)"></rect><rect x="108.92857142857142" y="312.4166666666667" width="14.285714285714286" height="6.399999999999977" fill="rgb(175, 240, 91)"></rect><rect x="108.92857142857142" y="305.01666666666665" width="14.285714285714286" height="6.399999999999977" fill="rgb(175, 240, 91)"></rect><rect x="108.92857142857142" y="297.6166666666667" width="14.285714285714286" height="6.399999999999977" fill="rgb(175, 240, 91)"></rect><rect x="108.92857142857142" y="290.2166666666667" width="14.285714285714286" height="6.399999999999977" fill="rgb(175, 240, 91)"></rect><rect x="108.92857142857142" y="282.81666666666666" width="14.285714285714286" height="6.399999999999977" fill="rgb(175, 240, 91)"></rect><rect x="108.92857142857142" y="275.4166666666667" width="14.285714285714286" height="6.399999999999977" fill="rgb(175, 240, 91)"></rect><rect x="108.92857142857142" y="268.01666666666665" width="14.285714285714286" height="6.399999999999977" fill="rgb(175, 240, 91)"></rect></g><g><rect x="126.78571428571428" y="369.76666666666665" width="14.285714285714286" height="0.2333333333333485" fill="rgb(84, 101, 214)"></rect><rect x="126.78571428571428" y="368.53333333333336" width="14.285714285714286" height="0.2333333333333485" fill="rgb(84, 101, 214)"></rect><rect x="126.78571428571428" y="366.68333333333334" width="14.285714285714286" height="0.8500000000000227" fill="rgb(65, 125, 224)"></rect><rect x="126.78571428571428" y="364.8333333333333" width="14.285714285714286" height="0.8500000000000227" fill="rgb(65, 125, 224)"></rect><rect x="126.78571428571428" y="362.98333333333335" width="14.285714285714286" height="0.8500000000000227" fill="rgb(65, 125, 224)"></rect><rect x="126.78571428571428" y="361.1333333333333" width="14.285714285714286" height="0.8500000000000227" fill="rgb(65, 125, 224)"></rect><rect x="126.78571428571428" y="359.28333333333336" width="14.285714285714286" height="0.8500000000000227" fill="rgb(65, 125, 224)"></rect><rect x="126.78571428571428" y="357.43333333333334" width="14.285714285714286" height="0.8500000000000227" fill="rgb(65, 125, 224)"></rect><rect x="126.78571428571428" y="355.5833333333333" width="14.285714285714286" height="0.8500000000000227" fill="rgb(65, 125, 224)"></rect><rect x="126.78571428571428" y="353.73333333333335" width="14.285714285714286" height="0.8500000000000227" fill="rgb(65, 125, 224)"></rect><rect x="126.78571428571428" y="351.8833333333333" width="14.285714285714286" height="0.8500000000000227" fill="rgb(65, 125, 224)"></rect><rect x="126.78571428571428" y="350.0333333333333" width="14.285714285714286" height="0.8500000000000227" fill="rgb(65, 125, 224)"></rect><rect x="126.78571428571428" y="348.18333333333334" width="14.285714285714286" height="0.8500000000000227" fill="rgb(65, 125, 224)"></rect><rect x="126.78571428571428" y="346.3333333333333" width="14.285714285714286" height="0.8500000000000227" fill="rgb(65, 125, 224)"></rect><rect x="126.78571428571428" y="344.48333333333335" width="14.285714285714286" height="0.8500000000000227" fill="rgb(65, 125, 224)"></rect><rect x="126.78571428571428" y="342.6333333333333" width="14.285714285714286" height="0.8500000000000227" fill="rgb(65, 125, 224)"></rect><rect x="126.78571428571428" y="340.78333333333336" width="14.285714285714286" height="0.8500000000000227" fill="rgb(65, 125, 224)"></rect><rect x="126.78571428571428" y="338.93333333333334" width="14.285714285714286" height="0.8500000000000227" fill="rgb(65, 125, 224)"></rect><rect x="126.78571428571428" y="337.0833333333333" width="14.285714285714286" height="0.8500000000000227" fill="rgb(65, 125, 224)"></rect><rect x="126.78571428571428" y="335.23333333333335" width="14.285714285714286" height="0.8500000000000227" fill="rgb(65, 125, 224)"></rect><rect x="126.78571428571428" y="333.3833333333333" width="14.285714285714286" height="0.8500000000000227" fill="rgb(65, 125, 224)"></rect><rect x="126.78571428571428" y="331.53333333333336" width="14.285714285714286" height="0.8500000000000227" fill="rgb(65, 125, 224)"></rect><rect x="126.78571428571428" y="329.68333333333334" width="14.285714285714286" height="0.8500000000000227" fill="rgb(65, 125, 224)"></rect><rect x="126.78571428571428" y="327.8333333333333" width="14.285714285714286" height="0.8500000000000227" fill="rgb(65, 125, 224)"></rect><rect x="126.78571428571428" y="325.98333333333335" width="14.285714285714286" height="0.8500000000000227" fill="rgb(65, 125, 224)"></rect><rect x="126.78571428571428" y="324.1333333333333" width="14.285714285714286" height="0.8500000000000227" fill="rgb(65, 125, 224)"></rect><rect x="126.78571428571428" y="322.28333333333336" width="14.285714285714286" height="0.8500000000000227" fill="rgb(65, 125, 224)"></rect><rect x="126.78571428571428" y="320.43333333333334" width="14.285714285714286" height="0.8500000000000227" fill="rgb(65, 125, 224)"></rect><rect x="126.78571428571428" y="318.5833333333333" width="14.285714285714286" height="0.8500000000000227" fill="rgb(65, 125, 224)"></rect><rect x="126.78571428571428" y="314.26666666666665" width="14.285714285714286" height="3.316666666666663" fill="rgb(28, 219, 169)"></rect><rect x="126.78571428571428" y="309.95" width="14.285714285714286" height="3.316666666666663" fill="rgb(28, 219, 169)"></rect><rect x="126.78571428571428" y="305.6333333333333" width="14.285714285714286" height="3.316666666666663" fill="rgb(28, 219, 169)"></rect><rect x="126.78571428571428" y="301.31666666666666" width="14.285714285714286" height="3.316666666666663" fill="rgb(28, 219, 169)"></rect><rect x="126.78571428571428" y="297" width="14.285714285714286" height="3.316666666666663" fill="rgb(28, 219, 169)"></rect><rect x="126.78571428571428" y="292.06666666666666" width="14.285714285714286" height="3.933333333333337" fill="rgb(40, 234, 141)"></rect><rect x="126.78571428571428" y="287.1333333333333" width="14.285714285714286" height="3.933333333333337" fill="rgb(40, 234, 141)"></rect><rect x="126.78571428571428" y="282.2" width="14.285714285714286" height="3.933333333333337" fill="rgb(40, 234, 141)"></rect><rect x="126.78571428571428" y="277.26666666666665" width="14.285714285714286" height="3.933333333333337" fill="rgb(40, 234, 141)"></rect><rect x="126.78571428571428" y="272.3333333333333" width="14.285714285714286" height="3.933333333333337" fill="rgb(40, 234, 141)"></rect><rect x="126.78571428571428" y="267.4" width="14.285714285714286" height="3.933333333333337" fill="rgb(40, 234, 141)"></rect><rect x="126.78571428571428" y="261.23333333333335" width="14.285714285714286" height="5.166666666666686" fill="rgb(96, 247, 96)"></rect><rect x="126.78571428571428" y="255.06666666666666" width="14.285714285714286" height="5.166666666666686" fill="rgb(96, 247, 96)"></rect><rect x="126.78571428571428" y="248.89999999999998" width="14.285714285714286" height="5.166666666666686" fill="rgb(96, 247, 96)"></rect><rect x="126.78571428571428" y="242.11666666666665" width="14.285714285714286" height="5.78333333333336" fill="rgb(135, 245, 87)"></rect><rect x="126.78571428571428" y="235.33333333333334" width="14.285714285714286" height="5.78333333333336" fill="rgb(135, 245, 87)"></rect><rect x="126.78571428571428" y="228.54999999999998" width="14.285714285714286" height="5.78333333333336" fill="rgb(135, 245, 87)"></rect><rect x="126.78571428571428" y="221.14999999999998" width="14.285714285714286" height="6.399999999999977" fill="rgb(175, 240, 91)"></rect><rect x="126.78571428571428" y="213.75" width="14.285714285714286" height="6.399999999999977" fill="rgb(175, 240, 91)"></rect><rect x="126.78571428571428" y="206.35" width="14.285714285714286" height="6.399999999999977" fill="rgb(175, 240, 91)"></rect><rect x="126.78571428571428" y="198.95" width="14.285714285714286" height="6.399999999999977" fill="rgb(175, 240, 91)"></rect><rect x="126.78571428571428" y="191.55" width="14.285714285714286" height="6.399999999999977" fill="rgb(175, 240, 91)"></rect><rect x="126.78571428571428" y="184.15" width="14.285714285714286" height="6.399999999999977" fill="rgb(175, 240, 91)"></rect><rect x="126.78571428571428" y="176.75" width="14.285714285714286" height="6.399999999999977" fill="rgb(175, 240, 91)"></rect><rect x="126.78571428571428" y="169.35" width="14.285714285714286" height="6.399999999999977" fill="rgb(175, 240, 91)"></rect><rect x="126.78571428571428" y="161.95000000000002" width="14.285714285714286" height="6.399999999999977" fill="rgb(175, 240, 91)"></rect><rect x="126.78571428571428" y="154.55" width="14.285714285714286" height="6.399999999999977" fill="rgb(175, 240, 91)"></rect><rect x="126.78571428571428" y="147.15" width="14.285714285714286" height="6.399999999999977" fill="rgb(175, 240, 91)"></rect><rect x="126.78571428571428" y="139.75" width="14.285714285714286" height="6.399999999999977" fill="rgb(175, 240, 91)"></rect><rect x="126.78571428571428" y="132.35" width="14.285714285714286" height="6.399999999999977" fill="rgb(175, 240, 91)"></rect><rect x="126.78571428571428" y="124.94999999999999" width="14.285714285714286" height="6.399999999999977" fill="rgb(175, 240, 91)"></rect><rect x="126.78571428571428" y="117.54999999999998" width="14.285714285714286" height="6.399999999999977" fill="rgb(175, 240, 91)"></rect><rect x="126.78571428571428" y="110.15000000000003" width="14.285714285714286" height="6.399999999999977" fill="rgb(175, 240, 91)"></rect><rect x="126.78571428571428" y="102.75" width="14.285714285714286" height="6.399999999999977" fill="rgb(175, 240, 91)"></rect><rect x="126.78571428571428" y="95.35000000000002" width="14.285714285714286" height="6.399999999999977" fill="rgb(175, 240, 91)"></rect><rect x="126.78571428571428" y="87.94999999999999" width="14.285714285714286" height="6.399999999999977" fill="rgb(175, 240, 91)"></rect><rect x="126.78571428571428" y="80.55000000000001" width="14.285714285714286" height="6.399999999999977" fill="rgb(175, 240, 91)"></rect><rect x="126.78571428571428" y="73.14999999999998" width="14.285714285714286" height="6.399999999999977" fill="rgb(175, 240, 91)"></rect></g><g><rect x="144.64285714285714" y="370.3833333333333" width="14.285714285714286" height="-0.38333333333332575" fill="rgb(99, 81, 195)"></rect><rect x="144.64285714285714" y="368.53333333333336" width="14.285714285714286" height="0.8500000000000227" fill="rgb(65, 125, 224)"></rect><rect x="144.64285714285714" y="366.68333333333334" width="14.285714285714286" height="0.8500000000000227" fill="rgb(65, 125, 224)"></rect><rect x="144.64285714285714" y="364.8333333333333" width="14.285714285714286" height="0.8500000000000227" fill="rgb(65, 125, 224)"></rect><rect x="144.64285714285714" y="362.98333333333335" width="14.285714285714286" height="0.8500000000000227" fill="rgb(65, 125, 224)"></rect><rect x="144.64285714285714" y="361.1333333333333" width="14.285714285714286" height="0.8500000000000227" fill="rgb(65, 125, 224)"></rect><rect x="144.64285714285714" y="359.28333333333336" width="14.285714285714286" height="0.8500000000000227" fill="rgb(65, 125, 224)"></rect><rect x="144.64285714285714" y="357.43333333333334" width="14.285714285714286" height="0.8500000000000227" fill="rgb(65, 125, 224)"></rect><rect x="144.64285714285714" y="355.5833333333333" width="14.285714285714286" height="0.8500000000000227" fill="rgb(65, 125, 224)"></rect><rect x="144.64285714285714" y="353.73333333333335" width="14.285714285714286" height="0.8500000000000227" fill="rgb(65, 125, 224)"></rect><rect x="144.64285714285714" y="351.8833333333333" width="14.285714285714286" height="0.8500000000000227" fill="rgb(65, 125, 224)"></rect><rect x="144.64285714285714" y="350.0333333333333" width="14.285714285714286" height="0.8500000000000227" fill="rgb(65, 125, 224)"></rect><rect x="144.64285714285714" y="348.18333333333334" width="14.285714285714286" height="0.8500000000000227" fill="rgb(65, 125, 224)"></rect><rect x="144.64285714285714" y="346.3333333333333" width="14.285714285714286" height="0.8500000000000227" fill="rgb(65, 125, 224)"></rect><rect x="144.64285714285714" y="344.48333333333335" width="14.285714285714286" height="0.8500000000000227" fill="rgb(65, 125, 224)"></rect><rect x="144.64285714285714" y="342.6333333333333" width="14.285714285714286" height="0.8500000000000227" fill="rgb(65, 125, 224)"></rect><rect x="144.64285714285714" y="340.78333333333336" width="14.285714285714286" height="0.8500000000000227" fill="rgb(65, 125, 224)"></rect><rect x="144.64285714285714" y="338.93333333333334" width="14.285714285714286" height="0.8500000000000227" fill="rgb(65, 125, 224)"></rect><rect x="144.64285714285714" y="337.0833333333333" width="14.285714285714286" height="0.8500000000000227" fill="rgb(65, 125, 224)"></rect><rect x="144.64285714285714" y="335.23333333333335" width="14.285714285714286" height="0.8500000000000227" fill="rgb(65, 125, 224)"></rect><rect x="144.64285714285714" y="333.3833333333333" width="14.285714285714286" height="0.8500000000000227" fill="rgb(65, 125, 224)"></rect><rect x="144.64285714285714" y="329.68333333333334" width="14.285714285714286" height="2.6999999999999886" fill="rgb(26, 199, 194)"></rect><rect x="144.64285714285714" y="325.98333333333335" width="14.285714285714286" height="2.6999999999999886" fill="rgb(26, 199, 194)"></rect><rect x="144.64285714285714" y="322.28333333333336" width="14.285714285714286" height="2.6999999999999886" fill="rgb(26, 199, 194)"></rect><rect x="144.64285714285714" y="317.35" width="14.285714285714286" height="3.933333333333337" fill="rgb(40, 234, 141)"></rect><rect x="144.64285714285714" y="312.4166666666667" width="14.285714285714286" height="3.933333333333337" fill="rgb(40, 234, 141)"></rect><rect x="144.64285714285714" y="307.48333333333335" width="14.285714285714286" height="3.933333333333337" fill="rgb(40, 234, 141)"></rect><rect x="144.64285714285714" y="302.55" width="14.285714285714286" height="3.933333333333337" fill="rgb(40, 234, 141)"></rect><rect x="144.64285714285714" y="297.6166666666667" width="14.285714285714286" height="3.933333333333337" fill="rgb(40, 234, 141)"></rect><rect x="144.64285714285714" y="291.45" width="14.285714285714286" height="5.166666666666686" fill="rgb(96, 247, 96)"></rect><rect x="144.64285714285714" y="285.2833333333333" width="14.285714285714286" height="5.166666666666686" fill="rgb(96, 247, 96)"></rect><rect x="144.64285714285714" y="279.1166666666667" width="14.285714285714286" height="5.166666666666686" fill="rgb(96, 247, 96)"></rect><rect x="144.64285714285714" y="272.95" width="14.285714285714286" height="5.166666666666686" fill="rgb(96, 247, 96)"></rect><rect x="144.64285714285714" y="266.7833333333333" width="14.285714285714286" height="5.166666666666686" fill="rgb(96, 247, 96)"></rect><rect x="144.64285714285714" y="260.6166666666667" width="14.285714285714286" height="5.166666666666686" fill="rgb(96, 247, 96)"></rect><rect x="144.64285714285714" y="254.45" width="14.285714285714286" height="5.166666666666686" fill="rgb(96, 247, 96)"></rect><rect x="144.64285714285714" y="247.66666666666666" width="14.285714285714286" height="5.78333333333336" fill="rgb(135, 245, 87)"></rect><rect x="144.64285714285714" y="240.88333333333335" width="14.285714285714286" height="5.78333333333336" fill="rgb(135, 245, 87)"></rect><rect x="144.64285714285714" y="233.48333333333335" width="14.285714285714286" height="6.399999999999977" fill="rgb(175, 240, 91)"></rect><rect x="144.64285714285714" y="226.08333333333334" width="14.285714285714286" height="6.399999999999977" fill="rgb(175, 240, 91)"></rect><rect x="144.64285714285714" y="218.68333333333334" width="14.285714285714286" height="6.399999999999977" fill="rgb(175, 240, 91)"></rect><rect x="144.64285714285714" y="211.28333333333333" width="14.285714285714286" height="6.399999999999977" fill="rgb(175, 240, 91)"></rect><rect x="144.64285714285714" y="203.88333333333333" width="14.285714285714286" height="6.399999999999977" fill="rgb(175, 240, 91)"></rect><rect x="144.64285714285714" y="196.48333333333335" width="14.285714285714286" height="6.399999999999977" fill="rgb(175, 240, 91)"></rect><rect x="144.64285714285714" y="189.08333333333334" width="14.285714285714286" height="6.399999999999977" fill="rgb(175, 240, 91)"></rect><rect x="144.64285714285714" y="181.68333333333337" width="14.285714285714286" height="6.399999999999977" fill="rgb(175, 240, 91)"></rect><rect x="144.64285714285714" y="174.28333333333336" width="14.285714285714286" height="6.399999999999977" fill="rgb(175, 240, 91)"></rect><rect x="144.64285714285714" y="166.88333333333335" width="14.285714285714286" height="6.399999999999977" fill="rgb(175, 240, 91)"></rect><rect x="144.64285714285714" y="159.48333333333335" width="14.285714285714286" height="6.399999999999977" fill="rgb(175, 240, 91)"></rect><rect x="144.64285714285714" y="152.08333333333334" width="14.285714285714286" height="6.399999999999977" fill="rgb(175, 240, 91)"></rect><rect x="144.64285714285714" y="144.68333333333334" width="14.285714285714286" height="6.399999999999977" fill="rgb(175, 240, 91)"></rect><rect x="144.64285714285714" y="137.28333333333336" width="14.285714285714286" height="6.399999999999977" fill="rgb(175, 240, 91)"></rect><rect x="144.64285714285714" y="129.8833333333333" width="14.285714285714286" height="6.399999999999977" fill="rgb(175, 240, 91)"></rect><rect x="144.64285714285714" y="122.48333333333329" width="14.285714285714286" height="6.399999999999977" fill="rgb(175, 240, 91)"></rect><rect x="144.64285714285714" y="115.08333333333329" width="14.285714285714286" height="6.399999999999977" fill="rgb(175, 240, 91)"></rect><rect x="144.64285714285714" y="107.68333333333334" width="14.285714285714286" height="6.399999999999977" fill="rgb(175, 240, 91)"></rect><rect x="144.64285714285714" y="100.2833333333333" width="14.285714285714286" height="6.399999999999977" fill="rgb(175, 240, 91)"></rect></g><g><rect x="162.5" y="369.15" width="14.285714285714286" height="0.8500000000000227" fill="rgb(65, 125, 224)"></rect><rect x="162.5" y="367.3" width="14.285714285714286" height="0.8500000000000227" fill="rgb(65, 125, 224)"></rect><rect x="162.5" y="365.45" width="14.285714285714286" height="0.8500000000000227" fill="rgb(65, 125, 224)"></rect><rect x="162.5" y="363.6" width="14.285714285714286" height="0.8500000000000227" fill="rgb(65, 125, 224)"></rect><rect x="162.5" y="361.75" width="14.285714285714286" height="0.8500000000000227" fill="rgb(65, 125, 224)"></rect><rect x="162.5" y="359.9" width="14.285714285714286" height="0.8500000000000227" fill="rgb(65, 125, 224)"></rect><rect x="162.5" y="358.05" width="14.285714285714286" height="0.8500000000000227" fill="rgb(65, 125, 224)"></rect><rect x="162.5" y="356.2" width="14.285714285714286" height="0.8500000000000227" fill="rgb(65, 125, 224)"></rect><rect x="162.5" y="354.35" width="14.285714285714286" height="0.8500000000000227" fill="rgb(65, 125, 224)"></rect><rect x="162.5" y="352.5" width="14.285714285714286" height="0.8500000000000227" fill="rgb(65, 125, 224)"></rect><rect x="162.5" y="350.65" width="14.285714285714286" height="0.8500000000000227" fill="rgb(65, 125, 224)"></rect><rect x="162.5" y="348.8" width="14.285714285714286" height="0.8500000000000227" fill="rgb(65, 125, 224)"></rect><rect x="162.5" y="346.95" width="14.285714285714286" height="0.8500000000000227" fill="rgb(65, 125, 224)"></rect><rect x="162.5" y="345.1" width="14.285714285714286" height="0.8500000000000227" fill="rgb(65, 125, 224)"></rect><rect x="162.5" y="343.25" width="14.285714285714286" height="0.8500000000000227" fill="rgb(65, 125, 224)"></rect><rect x="162.5" y="341.4" width="14.285714285714286" height="0.8500000000000227" fill="rgb(65, 125, 224)"></rect><rect x="162.5" y="339.55" width="14.285714285714286" height="0.8500000000000227" fill="rgb(65, 125, 224)"></rect><rect x="162.5" y="337.7" width="14.285714285714286" height="0.8500000000000227" fill="rgb(65, 125, 224)"></rect><rect x="162.5" y="335.85" width="14.285714285714286" height="0.8500000000000227" fill="rgb(65, 125, 224)"></rect><rect x="162.5" y="334" width="14.285714285714286" height="0.8500000000000227" fill="rgb(65, 125, 224)"></rect><rect x="162.5" y="332.15" width="14.285714285714286" height="0.8500000000000227" fill="rgb(65, 125, 224)"></rect><rect x="162.5" y="330.3" width="14.285714285714286" height="0.8500000000000227" fill="rgb(65, 125, 224)"></rect><rect x="162.5" y="328.45" width="14.285714285714286" height="0.8500000000000227" fill="rgb(65, 125, 224)"></rect><rect x="162.5" y="326.6" width="14.285714285714286" height="0.8500000000000227" fill="rgb(65, 125, 224)"></rect><rect x="162.5" y="324.75" width="14.285714285714286" height="0.8500000000000227" fill="rgb(65, 125, 224)"></rect><rect x="162.5" y="322.9" width="14.285714285714286" height="0.8500000000000227" fill="rgb(65, 125, 224)"></rect><rect x="162.5" y="321.05" width="14.285714285714286" height="0.8500000000000227" fill="rgb(65, 125, 224)"></rect><rect x="162.5" y="319.2" width="14.285714285714286" height="0.8500000000000227" fill="rgb(65, 125, 224)"></rect><rect x="162.5" y="317.35" width="14.285714285714286" height="0.8500000000000227" fill="rgb(65, 125, 224)"></rect><rect x="162.5" y="315.5" width="14.285714285714286" height="0.8500000000000227" fill="rgb(65, 125, 224)"></rect><rect x="162.5" y="313.65" width="14.285714285714286" height="0.8500000000000227" fill="rgb(65, 125, 224)"></rect><rect x="162.5" y="311.8" width="14.285714285714286" height="0.8500000000000227" fill="rgb(65, 125, 224)"></rect><rect x="162.5" y="309.95" width="14.285714285714286" height="0.8500000000000227" fill="rgb(65, 125, 224)"></rect><rect x="162.5" y="308.1" width="14.285714285714286" height="0.8500000000000227" fill="rgb(65, 125, 224)"></rect><rect x="162.5" y="306.25" width="14.285714285714286" height="0.8500000000000227" fill="rgb(65, 125, 224)"></rect><rect x="162.5" y="304.4" width="14.285714285714286" height="0.8500000000000227" fill="rgb(65, 125, 224)"></rect><rect x="162.5" y="302.55" width="14.285714285714286" height="0.8500000000000227" fill="rgb(65, 125, 224)"></rect><rect x="162.5" y="300.7" width="14.285714285714286" height="0.8500000000000227" fill="rgb(65, 125, 224)"></rect><rect x="162.5" y="298.85" width="14.285714285714286" height="0.8500000000000227" fill="rgb(65, 125, 224)"></rect><rect x="162.5" y="297" width="14.285714285714286" height="0.8500000000000227" fill="rgb(65, 125, 224)"></rect><rect x="162.5" y="295.15" width="14.285714285714286" height="0.8500000000000227" fill="rgb(65, 125, 224)"></rect><rect x="162.5" y="293.3" width="14.285714285714286" height="0.8500000000000227" fill="rgb(65, 125, 224)"></rect><rect x="162.5" y="291.45" width="14.285714285714286" height="0.8500000000000227" fill="rgb(65, 125, 224)"></rect><rect x="162.5" y="289.6" width="14.285714285714286" height="0.8500000000000227" fill="rgb(65, 125, 224)"></rect><rect x="162.5" y="287.75" width="14.285714285714286" height="0.8500000000000227" fill="rgb(65, 125, 224)"></rect><rect x="162.5" y="285.9" width="14.285714285714286" height="0.8500000000000227" fill="rgb(65, 125, 224)"></rect><rect x="162.5" y="284.05" width="14.285714285714286" height="0.8500000000000227" fill="rgb(65, 125, 224)"></rect><rect x="162.5" y="282.2" width="14.285714285714286" height="0.8500000000000227" fill="rgb(65, 125, 224)"></rect><rect x="162.5" y="280.35" width="14.285714285714286" height="0.8500000000000227" fill="rgb(65, 125, 224)"></rect><rect x="162.5" y="278.5" width="14.285714285714286" height="0.8500000000000227" fill="rgb(65, 125, 224)"></rect><rect x="162.5" y="276.65" width="14.285714285714286" height="0.8500000000000227" fill="rgb(65, 125, 224)"></rect><rect x="162.5" y="274.8" width="14.285714285714286" height="0.8500000000000227" fill="rgb(65, 125, 224)"></rect><rect x="162.5" y="272.95" width="14.285714285714286" height="0.8500000000000227" fill="rgb(65, 125, 224)"></rect><rect x="162.5" y="271.1" width="14.285714285714286" height="0.8500000000000227" fill="rgb(65, 125, 224)"></rect><rect x="162.5" y="269.25" width="14.285714285714286" height="0.8500000000000227" fill="rgb(65, 125, 224)"></rect><rect x="162.5" y="267.4" width="14.285714285714286" height="0.8500000000000227" fill="rgb(65, 125, 224)"></rect><rect x="162.5" y="265.55" width="14.285714285714286" height="0.8500000000000227" fill="rgb(65, 125, 224)"></rect><rect x="162.5" y="263.7" width="14.285714285714286" height="0.8500000000000227" fill="rgb(65, 125, 224)"></rect><rect x="162.5" y="261.85" width="14.285714285714286" height="0.8500000000000227" fill="rgb(65, 125, 224)"></rect><rect x="162.5" y="260" width="14.285714285714286" height="0.8500000000000227" fill="rgb(65, 125, 224)"></rect><rect x="162.5" y="258.15" width="14.285714285714286" height="0.8500000000000227" fill="rgb(65, 125, 224)"></rect><rect x="162.5" y="256.3" width="14.285714285714286" height="0.8500000000000227" fill="rgb(65, 125, 224)"></rect><rect x="162.5" y="254.45" width="14.285714285714286" height="0.8500000000000227" fill="rgb(65, 125, 224)"></rect><rect x="162.5" y="252.6" width="14.285714285714286" height="0.8500000000000227" fill="rgb(65, 125, 224)"></rect><rect x="162.5" y="250.75" width="14.285714285714286" height="0.8500000000000227" fill="rgb(65, 125, 224)"></rect><rect x="162.5" y="248.89999999999998" width="14.285714285714286" height="0.8500000000000227" fill="rgb(65, 125, 224)"></rect><rect x="162.5" y="243.96666666666664" width="14.285714285714286" height="3.933333333333337" fill="rgb(40, 234, 141)"></rect><rect x="162.5" y="239.03333333333336" width="14.285714285714286" height="3.933333333333337" fill="rgb(40, 234, 141)"></rect><rect x="162.5" y="232.86666666666667" width="14.285714285714286" height="5.166666666666686" fill="rgb(96, 247, 96)"></rect><rect x="162.5" y="226.7" width="14.285714285714286" height="5.166666666666686" fill="rgb(96, 247, 96)"></rect><rect x="162.5" y="219.3" width="14.285714285714286" height="6.399999999999977" fill="rgb(175, 240, 91)"></rect><rect x="162.5" y="211.9" width="14.285714285714286" height="6.399999999999977" fill="rgb(175, 240, 91)"></rect><rect x="162.5" y="204.5" width="14.285714285714286" height="6.399999999999977" fill="rgb(175, 240, 91)"></rect><rect x="162.5" y="197.10000000000002" width="14.285714285714286" height="6.399999999999977" fill="rgb(175, 240, 91)"></rect><rect x="162.5" y="189.70000000000002" width="14.285714285714286" height="6.399999999999977" fill="rgb(175, 240, 91)"></rect><rect x="162.5" y="182.29999999999998" width="14.285714285714286" height="6.399999999999977" fill="rgb(175, 240, 91)"></rect><rect x="162.5" y="174.89999999999998" width="14.285714285714286" height="6.399999999999977" fill="rgb(175, 240, 91)"></rect><rect x="162.5" y="167.49999999999997" width="14.285714285714286" height="6.399999999999977" fill="rgb(175, 240, 91)"></rect><rect x="162.5" y="160.10000000000002" width="14.285714285714286" height="6.399999999999977" fill="rgb(175, 240, 91)"></rect><rect x="162.5" y="152.70000000000002" width="14.285714285714286" height="6.399999999999977" fill="rgb(175, 240, 91)"></rect><rect x="162.5" y="145.3" width="14.285714285714286" height="6.399999999999977" fill="rgb(175, 240, 91)"></rect><rect x="162.5" y="137.9" width="14.285714285714286" height="6.399999999999977" fill="rgb(175, 240, 91)"></rect></g><g><rect x="180.35714285714286" y="369.15" width="14.285714285714286" height="0.8500000000000227" fill="rgb(65, 125, 224)"></rect><rect x="180.35714285714286" y="367.3" width="14.285714285714286" height="0.8500000000000227" fill="rgb(65, 125, 224)"></rect><rect x="180.35714285714286" y="365.45" width="14.285714285714286" height="0.8500000000000227" fill="rgb(65, 125, 224)"></rect><rect x="180.35714285714286" y="363.6" width="14.285714285714286" height="0.8500000000000227" fill="rgb(65, 125, 224)"></rect><rect x="180.35714285714286" y="361.75" width="14.285714285714286" height="0.8500000000000227" fill="rgb(65, 125, 224)"></rect><rect x="180.35714285714286" y="359.9" width="14.285714285714286" height="0.8500000000000227" fill="rgb(65, 125, 224)"></rect><rect x="180.35714285714286" y="358.05" width="14.285714285714286" height="0.8500000000000227" fill="rgb(65, 125, 224)"></rect><rect x="180.35714285714286" y="356.2" width="14.285714285714286" height="0.8500000000000227" fill="rgb(65, 125, 224)"></rect><rect x="180.35714285714286" y="354.35" width="14.285714285714286" height="0.8500000000000227" fill="rgb(65, 125, 224)"></rect><rect x="180.35714285714286" y="352.5" width="14.285714285714286" height="0.8500000000000227" fill="rgb(65, 125, 224)"></rect><rect x="180.35714285714286" y="350.65" width="14.285714285714286" height="0.8500000000000227" fill="rgb(65, 125, 224)"></rect><rect x="180.35714285714286" y="348.8" width="14.285714285714286" height="0.8500000000000227" fill="rgb(65, 125, 224)"></rect><rect x="180.35714285714286" y="346.95" width="14.285714285714286" height="0.8500000000000227" fill="rgb(65, 125, 224)"></rect><rect x="180.35714285714286" y="345.1" width="14.285714285714286" height="0.8500000000000227" fill="rgb(65, 125, 224)"></rect><rect x="180.35714285714286" y="343.25" width="14.285714285714286" height="0.8500000000000227" fill="rgb(65, 125, 224)"></rect><rect x="180.35714285714286" y="341.4" width="14.285714285714286" height="0.8500000000000227" fill="rgb(65, 125, 224)"></rect><rect x="180.35714285714286" y="339.55" width="14.285714285714286" height="0.8500000000000227" fill="rgb(65, 125, 224)"></rect><rect x="180.35714285714286" y="337.7" width="14.285714285714286" height="0.8500000000000227" fill="rgb(65, 125, 224)"></rect><rect x="180.35714285714286" y="335.85" width="14.285714285714286" height="0.8500000000000227" fill="rgb(65, 125, 224)"></rect><rect x="180.35714285714286" y="334" width="14.285714285714286" height="0.8500000000000227" fill="rgb(65, 125, 224)"></rect><rect x="180.35714285714286" y="332.15" width="14.285714285714286" height="0.8500000000000227" fill="rgb(65, 125, 224)"></rect><rect x="180.35714285714286" y="328.45" width="14.285714285714286" height="2.6999999999999886" fill="rgb(26, 199, 194)"></rect><rect x="180.35714285714286" y="324.75" width="14.285714285714286" height="2.6999999999999886" fill="rgb(26, 199, 194)"></rect><rect x="180.35714285714286" y="321.05" width="14.285714285714286" height="2.6999999999999886" fill="rgb(26, 199, 194)"></rect><rect x="180.35714285714286" y="317.35" width="14.285714285714286" height="2.6999999999999886" fill="rgb(26, 199, 194)"></rect><rect x="180.35714285714286" y="313.65" width="14.285714285714286" height="2.6999999999999886" fill="rgb(26, 199, 194)"></rect><rect x="180.35714285714286" y="309.95" width="14.285714285714286" height="2.6999999999999886" fill="rgb(26, 199, 194)"></rect><rect x="180.35714285714286" y="306.25" width="14.285714285714286" height="2.6999999999999886" fill="rgb(26, 199, 194)"></rect><rect x="180.35714285714286" y="301.31666666666666" width="14.285714285714286" height="3.933333333333337" fill="rgb(40, 234, 141)"></rect><rect x="180.35714285714286" y="296.3833333333333" width="14.285714285714286" height="3.933333333333337" fill="rgb(40, 234, 141)"></rect><rect x="180.35714285714286" y="291.45" width="14.285714285714286" height="3.933333333333337" fill="rgb(40, 234, 141)"></rect><rect x="180.35714285714286" y="286.51666666666665" width="14.285714285714286" height="3.933333333333337" fill="rgb(40, 234, 141)"></rect><rect x="180.35714285714286" y="279.73333333333335" width="14.285714285714286" height="5.78333333333336" fill="rgb(135, 245, 87)"></rect><rect x="180.35714285714286" y="272.95" width="14.285714285714286" height="5.78333333333336" fill="rgb(135, 245, 87)"></rect><rect x="180.35714285714286" y="266.1666666666667" width="14.285714285714286" height="5.78333333333336" fill="rgb(135, 245, 87)"></rect><rect x="180.35714285714286" y="259.3833333333333" width="14.285714285714286" height="5.78333333333336" fill="rgb(135, 245, 87)"></rect><rect x="180.35714285714286" y="252.6" width="14.285714285714286" height="5.78333333333336" fill="rgb(135, 245, 87)"></rect><rect x="180.35714285714286" y="245.81666666666666" width="14.285714285714286" height="5.78333333333336" fill="rgb(135, 245, 87)"></rect><rect x="180.35714285714286" y="239.03333333333336" width="14.285714285714286" height="5.78333333333336" fill="rgb(135, 245, 87)"></rect><rect x="180.35714285714286" y="232.25" width="14.285714285714286" height="5.78333333333336" fill="rgb(135, 245, 87)"></rect><rect x="180.35714285714286" y="225.46666666666664" width="14.285714285714286" height="5.78333333333336" fill="rgb(135, 245, 87)"></rect><rect x="180.35714285714286" y="218.68333333333334" width="14.285714285714286" height="5.78333333333336" fill="rgb(135, 245, 87)"></rect><rect x="180.35714285714286" y="211.9" width="14.285714285714286" height="5.78333333333336" fill="rgb(135, 245, 87)"></rect><rect x="180.35714285714286" y="205.11666666666665" width="14.285714285714286" height="5.78333333333336" fill="rgb(135, 245, 87)"></rect><rect x="180.35714285714286" y="197.71666666666664" width="14.285714285714286" height="6.399999999999977" fill="rgb(175, 240, 91)"></rect><rect x="180.35714285714286" y="190.31666666666666" width="14.285714285714286" height="6.399999999999977" fill="rgb(175, 240, 91)"></rect><rect x="180.35714285714286" y="182.91666666666669" width="14.285714285714286" height="6.399999999999977" fill="rgb(175, 240, 91)"></rect><rect x="180.35714285714286" y="175.51666666666668" width="14.285714285714286" height="6.399999999999977" fill="rgb(175, 240, 91)"></rect><rect x="180.35714285714286" y="168.11666666666667" width="14.285714285714286" height="6.399999999999977" fill="rgb(175, 240, 91)"></rect><rect x="180.35714285714286" y="160.71666666666667" width="14.285714285714286" height="6.399999999999977" fill="rgb(175, 240, 91)"></rect><rect x="180.35714285714286" y="153.31666666666666" width="14.285714285714286" height="6.399999999999977" fill="rgb(175, 240, 91)"></rect><rect x="180.35714285714286" y="145.91666666666666" width="14.285714285714286" height="6.399999999999977" fill="rgb(175, 240, 91)"></rect><rect x="180.35714285714286" y="138.51666666666665" width="14.285714285714286" height="6.399999999999977" fill="rgb(175, 240, 91)"></rect></g><g><rect x="198.21428571428572" y="370.3833333333333" width="14.285714285714286" height="-0.38333333333332575" fill="rgb(99, 81, 195)"></rect><rect x="198.21428571428572" y="368.53333333333336" width="14.285714285714286" height="0.8500000000000227" fill="rgb(65, 125, 224)"></rect><rect x="198.21428571428572" y="366.68333333333334" width="14.285714285714286" height="0.8500000000000227" fill="rgb(65, 125, 224)"></rect><rect x="198.21428571428572" y="364.8333333333333" width="14.285714285714286" height="0.8500000000000227" fill="rgb(65, 125, 224)"></rect><rect x="198.21428571428572" y="362.98333333333335" width="14.285714285714286" height="0.8500000000000227" fill="rgb(65, 125, 224)"></rect><rect x="198.21428571428572" y="361.1333333333333" width="14.285714285714286" height="0.8500000000000227" fill="rgb(65, 125, 224)"></rect><rect x="198.21428571428572" y="359.28333333333336" width="14.285714285714286" height="0.8500000000000227" fill="rgb(65, 125, 224)"></rect><rect x="198.21428571428572" y="357.43333333333334" width="14.285714285714286" height="0.8500000000000227" fill="rgb(65, 125, 224)"></rect><rect x="198.21428571428572" y="355.5833333333333" width="14.285714285714286" height="0.8500000000000227" fill="rgb(65, 125, 224)"></rect><rect x="198.21428571428572" y="353.73333333333335" width="14.285714285714286" height="0.8500000000000227" fill="rgb(65, 125, 224)"></rect><rect x="198.21428571428572" y="351.8833333333333" width="14.285714285714286" height="0.8500000000000227" fill="rgb(65, 125, 224)"></rect><rect x="198.21428571428572" y="350.0333333333333" width="14.285714285714286" height="0.8500000000000227" fill="rgb(65, 125, 224)"></rect><rect x="198.21428571428572" y="348.18333333333334" width="14.285714285714286" height="0.8500000000000227" fill="rgb(65, 125, 224)"></rect><rect x="198.21428571428572" y="345.7166666666667" width="14.285714285714286" height="1.4666666666666401" fill="rgb(47, 150, 224)"></rect><rect x="198.21428571428572" y="343.25" width="14.285714285714286" height="1.4666666666666401" fill="rgb(47, 150, 224)"></rect><rect x="198.21428571428572" y="340.78333333333336" width="14.285714285714286" height="1.4666666666666401" fill="rgb(47, 150, 224)"></rect><rect x="198.21428571428572" y="338.31666666666666" width="14.285714285714286" height="1.4666666666666401" fill="rgb(47, 150, 224)"></rect><rect x="198.21428571428572" y="335.85" width="14.285714285714286" height="1.4666666666666401" fill="rgb(47, 150, 224)"></rect><rect x="198.21428571428572" y="333.3833333333333" width="14.285714285714286" height="1.4666666666666401" fill="rgb(47, 150, 224)"></rect><rect x="198.21428571428572" y="330.9166666666667" width="14.285714285714286" height="1.4666666666666401" fill="rgb(47, 150, 224)"></rect><rect x="198.21428571428572" y="327.8333333333333" width="14.285714285714286" height="2.0833333333333144" fill="rgb(33, 176, 213)"></rect><rect x="198.21428571428572" y="324.75" width="14.285714285714286" height="2.0833333333333144" fill="rgb(33, 176, 213)"></rect><rect x="198.21428571428572" y="321.05" width="14.285714285714286" height="2.6999999999999886" fill="rgb(26, 199, 194)"></rect><rect x="198.21428571428572" y="317.35" width="14.285714285714286" height="2.6999999999999886" fill="rgb(26, 199, 194)"></rect><rect x="198.21428571428572" y="313.65" width="14.285714285714286" height="2.6999999999999886" fill="rgb(26, 199, 194)"></rect><rect x="198.21428571428572" y="309.95" width="14.285714285714286" height="2.6999999999999886" fill="rgb(26, 199, 194)"></rect><rect x="198.21428571428572" y="306.25" width="14.285714285714286" height="2.6999999999999886" fill="rgb(26, 199, 194)"></rect><rect x="198.21428571428572" y="302.55" width="14.285714285714286" height="2.6999999999999886" fill="rgb(26, 199, 194)"></rect><rect x="198.21428571428572" y="298.85" width="14.285714285714286" height="2.6999999999999886" fill="rgb(26, 199, 194)"></rect><rect x="198.21428571428572" y="295.15" width="14.285714285714286" height="2.6999999999999886" fill="rgb(26, 199, 194)"></rect><rect x="198.21428571428572" y="291.45" width="14.285714285714286" height="2.6999999999999886" fill="rgb(26, 199, 194)"></rect><rect x="198.21428571428572" y="287.75" width="14.285714285714286" height="2.6999999999999886" fill="rgb(26, 199, 194)"></rect><rect x="198.21428571428572" y="284.05" width="14.285714285714286" height="2.6999999999999886" fill="rgb(26, 199, 194)"></rect><rect x="198.21428571428572" y="280.35" width="14.285714285714286" height="2.6999999999999886" fill="rgb(26, 199, 194)"></rect><rect x="198.21428571428572" y="276.0333333333333" width="14.285714285714286" height="3.316666666666663" fill="rgb(28, 219, 169)"></rect><rect x="198.21428571428572" y="271.7166666666667" width="14.285714285714286" height="3.316666666666663" fill="rgb(28, 219, 169)"></rect><rect x="198.21428571428572" y="267.4" width="14.285714285714286" height="3.316666666666663" fill="rgb(28, 219, 169)"></rect><rect x="198.21428571428572" y="262.4666666666667" width="14.285714285714286" height="3.933333333333337" fill="rgb(40, 234, 141)"></rect><rect x="198.21428571428572" y="257.5333333333333" width="14.285714285714286" height="3.933333333333337" fill="rgb(40, 234, 141)"></rect><rect x="198.21428571428572" y="252.6" width="14.285714285714286" height="3.933333333333337" fill="rgb(40, 234, 141)"></rect><rect x="198.21428571428572" y="247.66666666666666" width="14.285714285714286" height="3.933333333333337" fill="rgb(40, 234, 141)"></rect><rect x="198.21428571428572" y="241.5" width="14.285714285714286" height="5.166666666666686" fill="rgb(96, 247, 96)"></rect><rect x="198.21428571428572" y="235.33333333333334" width="14.285714285714286" height="5.166666666666686" fill="rgb(96, 247, 96)"></rect><rect x="198.21428571428572" y="229.16666666666666" width="14.285714285714286" height="5.166666666666686" fill="rgb(96, 247, 96)"></rect><rect x="198.21428571428572" y="223" width="14.285714285714286" height="5.166666666666686" fill="rgb(96, 247, 96)"></rect><rect x="198.21428571428572" y="215.6" width="14.285714285714286" height="6.399999999999977" fill="rgb(175, 240, 91)"></rect><rect x="198.21428571428572" y="208.2" width="14.285714285714286" height="6.399999999999977" fill="rgb(175, 240, 91)"></rect><rect x="198.21428571428572" y="200.79999999999998" width="14.285714285714286" height="6.399999999999977" fill="rgb(175, 240, 91)"></rect><rect x="198.21428571428572" y="193.4" width="14.285714285714286" height="6.399999999999977" fill="rgb(175, 240, 91)"></rect><rect x="198.21428571428572" y="186" width="14.285714285714286" height="6.399999999999977" fill="rgb(175, 240, 91)"></rect><rect x="198.21428571428572" y="178.6" width="14.285714285714286" height="6.399999999999977" fill="rgb(175, 240, 91)"></rect><rect x="198.21428571428572" y="171.2" width="14.285714285714286" height="6.399999999999977" fill="rgb(175, 240, 91)"></rect><rect x="198.21428571428572" y="163.79999999999998" width="14.285714285714286" height="6.399999999999977" fill="rgb(175, 240, 91)"></rect><rect x="198.21428571428572" y="156.4" width="14.285714285714286" height="6.399999999999977" fill="rgb(175, 240, 91)"></rect><rect x="198.21428571428572" y="149" width="14.285714285714286" height="6.399999999999977" fill="rgb(175, 240, 91)"></rect><rect x="198.21428571428572" y="141.6" width="14.285714285714286" height="6.399999999999977" fill="rgb(175, 240, 91)"></rect><rect x="198.21428571428572" y="134.2" width="14.285714285714286" height="6.399999999999977" fill="rgb(175, 240, 91)"></rect><rect x="198.21428571428572" y="126.79999999999998" width="14.285714285714286" height="6.399999999999977" fill="rgb(175, 240, 91)"></rect><rect x="198.21428571428572" y="119.39999999999998" width="14.285714285714286" height="6.399999999999977" fill="rgb(175, 240, 91)"></rect><rect x="198.21428571428572" y="112" width="14.285714285714286" height="6.399999999999977" fill="rgb(175, 240, 91)"></rect><rect x="198.21428571428572" y="104.60000000000002" width="14.285714285714286" height="6.399999999999977" fill="rgb(175, 240, 91)"></rect><rect x="198.21428571428572" y="97.19999999999999" width="14.285714285714286" height="6.399999999999977" fill="rgb(175, 240, 91)"></rect><rect x="198.21428571428572" y="89.80000000000001" width="14.285714285714286" height="6.399999999999977" fill="rgb(175, 240, 91)"></rect><rect x="198.21428571428572" y="82.39999999999998" width="14.285714285714286" height="6.399999999999977" fill="rgb(175, 240, 91)"></rect><rect x="198.21428571428572" y="75" width="14.285714285714286" height="6.399999999999977" fill="rgb(175, 240, 91)"></rect><rect x="198.21428571428572" y="67.60000000000002" width="14.285714285714286" height="6.399999999999977" fill="rgb(175, 240, 91)"></rect><rect x="198.21428571428572" y="60.19999999999999" width="14.285714285714286" height="6.399999999999977" fill="rgb(175, 240, 91)"></rect><rect x="198.21428571428572" y="52.80000000000001" width="14.285714285714286" height="6.399999999999977" fill="rgb(175, 240, 91)"></rect><rect x="198.21428571428572" y="45.39999999999998" width="14.285714285714286" height="6.399999999999977" fill="rgb(175, 240, 91)"></rect><rect x="198.21428571428572" y="38" width="14.285714285714286" height="6.399999999999977" fill="rgb(175, 240, 91)"></rect><rect x="198.21428571428572" y="30.599999999999966" width="14.285714285714286" height="6.399999999999977" fill="rgb(175, 240, 91)"></rect><rect x="198.21428571428572" y="23.200000000000045" width="14.285714285714286" height="6.399999999999977" fill="rgb(175, 240, 91)"></rect><rect x="198.21428571428572" y="15.800000000000011" width="14.285714285714286" height="6.399999999999977" fill="rgb(175, 240, 91)"></rect><rect x="198.21428571428572" y="8.400000000000034" width="14.285714285714286" height="6.399999999999977" fill="rgb(175, 240, 91)"></rect><rect x="198.21428571428572" y="1" width="14.285714285714286" height="6.399999999999977" fill="rgb(175, 240, 91)"></rect></g><g><rect x="216.07142857142856" y="369.15" width="14.285714285714286" height="0.8500000000000227" fill="rgb(65, 125, 224)"></rect><rect x="216.07142857142856" y="367.3" width="14.285714285714286" height="0.8500000000000227" fill="rgb(65, 125, 224)"></rect><rect x="216.07142857142856" y="365.45" width="14.285714285714286" height="0.8500000000000227" fill="rgb(65, 125, 224)"></rect><rect x="216.07142857142856" y="363.6" width="14.285714285714286" height="0.8500000000000227" fill="rgb(65, 125, 224)"></rect><rect x="216.07142857142856" y="361.75" width="14.285714285714286" height="0.8500000000000227" fill="rgb(65, 125, 224)"></rect><rect x="216.07142857142856" y="359.9" width="14.285714285714286" height="0.8500000000000227" fill="rgb(65, 125, 224)"></rect><rect x="216.07142857142856" y="357.43333333333334" width="14.285714285714286" height="1.4666666666666401" fill="rgb(47, 150, 224)"></rect><rect x="216.07142857142856" y="354.9666666666667" width="14.285714285714286" height="1.4666666666666401" fill="rgb(47, 150, 224)"></rect><rect x="216.07142857142856" y="351.8833333333333" width="14.285714285714286" height="2.0833333333333144" fill="rgb(33, 176, 213)"></rect><rect x="216.07142857142856" y="348.8" width="14.285714285714286" height="2.0833333333333144" fill="rgb(33, 176, 213)"></rect><rect x="216.07142857142856" y="345.7166666666667" width="14.285714285714286" height="2.0833333333333144" fill="rgb(33, 176, 213)"></rect><rect x="216.07142857142856" y="342.6333333333333" width="14.285714285714286" height="2.0833333333333144" fill="rgb(33, 176, 213)"></rect><rect x="216.07142857142856" y="339.55" width="14.285714285714286" height="2.0833333333333144" fill="rgb(33, 176, 213)"></rect><rect x="216.07142857142856" y="336.4666666666667" width="14.285714285714286" height="2.0833333333333144" fill="rgb(33, 176, 213)"></rect><rect x="216.07142857142856" y="333.3833333333333" width="14.285714285714286" height="2.0833333333333144" fill="rgb(33, 176, 213)"></rect><rect x="216.07142857142856" y="330.3" width="14.285714285714286" height="2.0833333333333144" fill="rgb(33, 176, 213)"></rect><rect x="216.07142857142856" y="326.6" width="14.285714285714286" height="2.6999999999999886" fill="rgb(26, 199, 194)"></rect><rect x="216.07142857142856" y="322.9" width="14.285714285714286" height="2.6999999999999886" fill="rgb(26, 199, 194)"></rect><rect x="216.07142857142856" y="319.2" width="14.285714285714286" height="2.6999999999999886" fill="rgb(26, 199, 194)"></rect><rect x="216.07142857142856" y="314.8833333333333" width="14.285714285714286" height="3.316666666666663" fill="rgb(28, 219, 169)"></rect><rect x="216.07142857142856" y="310.56666666666666" width="14.285714285714286" height="3.316666666666663" fill="rgb(28, 219, 169)"></rect><rect x="216.07142857142856" y="306.25" width="14.285714285714286" height="3.316666666666663" fill="rgb(28, 219, 169)"></rect><rect x="216.07142857142856" y="301.93333333333334" width="14.285714285714286" height="3.316666666666663" fill="rgb(28, 219, 169)"></rect><rect x="216.07142857142856" y="297" width="14.285714285714286" height="3.933333333333337" fill="rgb(40, 234, 141)"></rect><rect x="216.07142857142856" y="292.06666666666666" width="14.285714285714286" height="3.933333333333337" fill="rgb(40, 234, 141)"></rect><rect x="216.07142857142856" y="287.1333333333333" width="14.285714285714286" height="3.933333333333337" fill="rgb(40, 234, 141)"></rect><rect x="216.07142857142856" y="282.2" width="14.285714285714286" height="3.933333333333337" fill="rgb(40, 234, 141)"></rect><rect x="216.07142857142856" y="277.26666666666665" width="14.285714285714286" height="3.933333333333337" fill="rgb(40, 234, 141)"></rect><rect x="216.07142857142856" y="272.3333333333333" width="14.285714285714286" height="3.933333333333337" fill="rgb(40, 234, 141)"></rect><rect x="216.07142857142856" y="267.4" width="14.285714285714286" height="3.933333333333337" fill="rgb(40, 234, 141)"></rect><rect x="216.07142857142856" y="262.4666666666667" width="14.285714285714286" height="3.933333333333337" fill="rgb(40, 234, 141)"></rect><rect x="216.07142857142856" y="257.5333333333333" width="14.285714285714286" height="3.933333333333337" fill="rgb(40, 234, 141)"></rect><rect x="216.07142857142856" y="252.6" width="14.285714285714286" height="3.933333333333337" fill="rgb(40, 234, 141)"></rect><rect x="216.07142857142856" y="247.66666666666666" width="14.285714285714286" height="3.933333333333337" fill="rgb(40, 234, 141)"></rect><rect x="216.07142857142856" y="242.73333333333335" width="14.285714285714286" height="3.933333333333337" fill="rgb(40, 234, 141)"></rect><rect x="216.07142857142856" y="237.8" width="14.285714285714286" height="3.933333333333337" fill="rgb(40, 234, 141)"></rect><rect x="216.07142857142856" y="232.86666666666667" width="14.285714285714286" height="3.933333333333337" fill="rgb(40, 234, 141)"></rect><rect x="216.07142857142856" y="227.93333333333334" width="14.285714285714286" height="3.933333333333337" fill="rgb(40, 234, 141)"></rect><rect x="216.07142857142856" y="223" width="14.285714285714286" height="3.933333333333337" fill="rgb(40, 234, 141)"></rect><rect x="216.07142857142856" y="218.06666666666666" width="14.285714285714286" height="3.933333333333337" fill="rgb(40, 234, 141)"></rect><rect x="216.07142857142856" y="213.13333333333335" width="14.285714285714286" height="3.933333333333337" fill="rgb(40, 234, 141)"></rect><rect x="216.07142857142856" y="208.2" width="14.285714285714286" height="3.933333333333337" fill="rgb(40, 234, 141)"></rect><rect x="216.07142857142856" y="203.26666666666665" width="14.285714285714286" height="3.933333333333337" fill="rgb(40, 234, 141)"></rect><rect x="216.07142857142856" y="198.33333333333334" width="14.285714285714286" height="3.933333333333337" fill="rgb(40, 234, 141)"></rect><rect x="216.07142857142856" y="193.4" width="14.285714285714286" height="3.933333333333337" fill="rgb(40, 234, 141)"></rect><rect x="216.07142857142856" y="188.46666666666667" width="14.285714285714286" height="3.933333333333337" fill="rgb(40, 234, 141)"></rect><rect x="216.07142857142856" y="183.53333333333336" width="14.285714285714286" height="3.933333333333337" fill="rgb(40, 234, 141)"></rect><rect x="216.07142857142856" y="178.6" width="14.285714285714286" height="3.933333333333337" fill="rgb(40, 234, 141)"></rect><rect x="216.07142857142856" y="173.66666666666666" width="14.285714285714286" height="3.933333333333337" fill="rgb(40, 234, 141)"></rect><rect x="216.07142857142856" y="168.73333333333335" width="14.285714285714286" height="3.933333333333337" fill="rgb(40, 234, 141)"></rect><rect x="216.07142857142856" y="163.79999999999998" width="14.285714285714286" height="3.933333333333337" fill="rgb(40, 234, 141)"></rect><rect x="216.07142857142856" y="158.86666666666665" width="14.285714285714286" height="3.933333333333337" fill="rgb(40, 234, 141)"></rect><rect x="216.07142857142856" y="151.46666666666664" width="14.285714285714286" height="6.399999999999977" fill="rgb(175, 240, 91)"></rect><rect x="216.07142857142856" y="144.06666666666663" width="14.285714285714286" height="6.399999999999977" fill="rgb(175, 240, 91)"></rect></g><g><rect x="233.92857142857142" y="369.15" width="14.285714285714286" height="0.8500000000000227" fill="rgb(65, 125, 224)"></rect><rect x="233.92857142857142" y="367.3" width="14.285714285714286" height="0.8500000000000227" fill="rgb(65, 125, 224)"></rect><rect x="233.92857142857142" y="365.45" width="14.285714285714286" height="0.8500000000000227" fill="rgb(65, 125, 224)"></rect><rect x="233.92857142857142" y="363.6" width="14.285714285714286" height="0.8500000000000227" fill="rgb(65, 125, 224)"></rect><rect x="233.92857142857142" y="361.75" width="14.285714285714286" height="0.8500000000000227" fill="rgb(65, 125, 224)"></rect><rect x="233.92857142857142" y="359.28333333333336" width="14.285714285714286" height="1.4666666666666401" fill="rgb(47, 150, 224)"></rect><rect x="233.92857142857142" y="356.81666666666666" width="14.285714285714286" height="1.4666666666666401" fill="rgb(47, 150, 224)"></rect><rect x="233.92857142857142" y="354.35" width="14.285714285714286" height="1.4666666666666401" fill="rgb(47, 150, 224)"></rect><rect x="233.92857142857142" y="351.8833333333333" width="14.285714285714286" height="1.4666666666666401" fill="rgb(47, 150, 224)"></rect><rect x="233.92857142857142" y="349.4166666666667" width="14.285714285714286" height="1.4666666666666401" fill="rgb(47, 150, 224)"></rect><rect x="233.92857142857142" y="346.3333333333333" width="14.285714285714286" height="2.0833333333333144" fill="rgb(33, 176, 213)"></rect><rect x="233.92857142857142" y="342.6333333333333" width="14.285714285714286" height="2.6999999999999886" fill="rgb(26, 199, 194)"></rect><rect x="233.92857142857142" y="338.93333333333334" width="14.285714285714286" height="2.6999999999999886" fill="rgb(26, 199, 194)"></rect><rect x="233.92857142857142" y="335.23333333333335" width="14.285714285714286" height="2.6999999999999886" fill="rgb(26, 199, 194)"></rect><rect x="233.92857142857142" y="331.53333333333336" width="14.285714285714286" height="2.6999999999999886" fill="rgb(26, 199, 194)"></rect><rect x="233.92857142857142" y="327.8333333333333" width="14.285714285714286" height="2.6999999999999886" fill="rgb(26, 199, 194)"></rect><rect x="233.92857142857142" y="324.1333333333333" width="14.285714285714286" height="2.6999999999999886" fill="rgb(26, 199, 194)"></rect><rect x="233.92857142857142" y="320.43333333333334" width="14.285714285714286" height="2.6999999999999886" fill="rgb(26, 199, 194)"></rect><rect x="233.92857142857142" y="316.73333333333335" width="14.285714285714286" height="2.6999999999999886" fill="rgb(26, 199, 194)"></rect><rect x="233.92857142857142" y="313.03333333333336" width="14.285714285714286" height="2.6999999999999886" fill="rgb(26, 199, 194)"></rect><rect x="233.92857142857142" y="309.3333333333333" width="14.285714285714286" height="2.6999999999999886" fill="rgb(26, 199, 194)"></rect><rect x="233.92857142857142" y="305.6333333333333" width="14.285714285714286" height="2.6999999999999886" fill="rgb(26, 199, 194)"></rect><rect x="233.92857142857142" y="301.93333333333334" width="14.285714285714286" height="2.6999999999999886" fill="rgb(26, 199, 194)"></rect><rect x="233.92857142857142" y="298.23333333333335" width="14.285714285714286" height="2.6999999999999886" fill="rgb(26, 199, 194)"></rect><rect x="233.92857142857142" y="294.5333333333333" width="14.285714285714286" height="2.6999999999999886" fill="rgb(26, 199, 194)"></rect><rect x="233.92857142857142" y="290.8333333333333" width="14.285714285714286" height="2.6999999999999886" fill="rgb(26, 199, 194)"></rect><rect x="233.92857142857142" y="287.1333333333333" width="14.285714285714286" height="2.6999999999999886" fill="rgb(26, 199, 194)"></rect><rect x="233.92857142857142" y="283.43333333333334" width="14.285714285714286" height="2.6999999999999886" fill="rgb(26, 199, 194)"></rect><rect x="233.92857142857142" y="278.5" width="14.285714285714286" height="3.933333333333337" fill="rgb(40, 234, 141)"></rect><rect x="233.92857142857142" y="273.56666666666666" width="14.285714285714286" height="3.933333333333337" fill="rgb(40, 234, 141)"></rect><rect x="233.92857142857142" y="268.6333333333333" width="14.285714285714286" height="3.933333333333337" fill="rgb(40, 234, 141)"></rect><rect x="233.92857142857142" y="263.7" width="14.285714285714286" height="3.933333333333337" fill="rgb(40, 234, 141)"></rect><rect x="233.92857142857142" y="258.15" width="14.285714285714286" height="4.550000000000011" fill="rgb(64, 243, 115)"></rect><rect x="233.92857142857142" y="250.75" width="14.285714285714286" height="6.399999999999977" fill="rgb(175, 240, 91)"></rect><rect x="233.92857142857142" y="243.35000000000002" width="14.285714285714286" height="6.399999999999977" fill="rgb(175, 240, 91)"></rect><rect x="233.92857142857142" y="235.95000000000002" width="14.285714285714286" height="6.399999999999977" fill="rgb(175, 240, 91)"></rect><rect x="233.92857142857142" y="228.54999999999998" width="14.285714285714286" height="6.399999999999977" fill="rgb(175, 240, 91)"></rect><rect x="233.92857142857142" y="221.14999999999998" width="14.285714285714286" height="6.399999999999977" fill="rgb(175, 240, 91)"></rect><rect x="233.92857142857142" y="213.75" width="14.285714285714286" height="6.399999999999977" fill="rgb(175, 240, 91)"></rect><rect x="233.92857142857142" y="206.35" width="14.285714285714286" height="6.399999999999977" fill="rgb(175, 240, 91)"></rect></g><path class="graph" fill="none" stroke="orange" stroke-width="1.5" d="M8.92857142857142,181.29999999999998L26.785714285714278,190.70987654320987L44.64285714285714,192.1153846153846L62.49999999999999,155.4L80.35714285714285,179.3939393939394L98.21428571428571,217.6470588235294L116.07142857142856,186.10119047619048L133.92857142857142,147.72388059701493L151.78571428571428,132.52923976608187L169.64285714285714,227.8658536585366L187.5,150.6761006289308L205.35714285714286,123.33333333333334L223.2142857142857,159.87654320987656L241.07142857142856,164.1875"></path><path class="chosenDur" fill="none" stroke="gray" stroke-width="0.4" d="M8.92857142857142,113.05555555555554L26.785714285714278,113.05555555555554L44.64285714285714,113.05555555555554L62.49999999999999,113.05555555555554L80.35714285714285,113.05555555555554L98.21428571428571,113.05555555555554L116.07142857142856,113.05555555555554L133.92857142857142,113.05555555555554L151.78571428571428,113.05555555555554L169.64285714285714,113.05555555555554L187.5,113.05555555555554L205.35714285714286,113.05555555555554L223.2142857142857,113.05555555555554L241.07142857142856,113.05555555555554"></path></g><g class="beschriftung"><text font-size="11px" fill="black" x="125" y="-20" style="font-weight: bold; text-anchor: middle;">Gesamt: Totale Dauer &amp; Animationszahl pro Aufgabe</text><g transform="translate(310, -5)"><text font-size="11px" fill="black" x="0" y="-5" dy="-0.4ex">Dauer in s</text><rect x="0" y="0" width="15" height="10" fill="rgb(175, 240, 91)"></rect><rect x="0" y="12" width="15" height="10" fill="rgb(135, 245, 87)"></rect><rect x="0" y="24" width="15" height="10" fill="rgb(96, 247, 96)"></rect><rect x="0" y="36" width="15" height="10" fill="rgb(64, 243, 115)"></rect><rect x="0" y="48" width="15" height="10" fill="rgb(40, 234, 141)"></rect><rect x="0" y="60" width="15" height="10" fill="rgb(28, 219, 169)"></rect><rect x="0" y="72" width="15" height="10" fill="rgb(26, 199, 194)"></rect><rect x="0" y="84" width="15" height="10" fill="rgb(33, 176, 213)"></rect><rect x="0" y="96" width="15" height="10" fill="rgb(47, 150, 224)"></rect><rect x="0" y="108" width="15" height="10" fill="rgb(65, 125, 224)"></rect><rect x="0" y="120" width="15" height="10" fill="rgb(84, 101, 214)"></rect><rect x="0" y="132" width="15" height="10" fill="rgb(99, 81, 195)"></rect><rect x="0" y="151.2" width="15" height="2" fill="orange"></rect><rect x="0" y="164.39999999999998" width="15" height="0.4" fill="gray"></rect><text class="legende" font-size="11px" fill="black" x="20" y="12" dy="-0.5ex">3 s</text><text class="legende" font-size="11px" fill="black" x="20" y="24" dy="-0.5ex">2.75 s</text><text class="legende" font-size="11px" fill="black" x="20" y="36" dy="-0.5ex">2.5 s</text><text class="legende" font-size="11px" fill="black" x="20" y="48" dy="-0.5ex">2.25 s</text><text class="legende" font-size="11px" fill="black" x="20" y="60" dy="-0.5ex">2 s</text><text class="legende" font-size="11px" fill="black" x="20" y="72" dy="-0.5ex">1.75 s</text><text class="legende" font-size="11px" fill="black" x="20" y="84" dy="-0.5ex">1.5 s</text><text class="legende" font-size="11px" fill="black" x="20" y="96" dy="-0.5ex">1.25 s</text><text class="legende" font-size="11px" fill="black" x="20" y="108" dy="-0.5ex">1 s</text><text class="legende" font-size="11px" fill="black" x="20" y="120" dy="-0.5ex">0.75 s</text><text class="legende" font-size="11px" fill="black" x="20" y="132" dy="-0.5ex">0.5 s</text><text class="legende" font-size="11px" fill="black" x="20" y="144" dy="-0.5ex">0.25 s</text><text class="legende" font-size="11px" fill="black" x="20" y="156" dy="-0.2ex">Mittel</text><text class="legende" font-size="11px" fill="black" x="20" y="168" dy="-0.2ex">fav. Dauer</text></g><text class="total" x="8.92857142857142" y="275.65" font-size="11px" fill="black" style="text-anchor: middle;" dy="-0.5ex">4</text><text class="total" x="26.785714285714278" y="273.18333333333334" font-size="11px" fill="black" style="text-anchor: middle;" dy="-0.5ex">5</text><text class="total" x="44.64285714285714" y="231.25" font-size="11px" fill="black" style="text-anchor: middle;" dy="-0.5ex">7</text><text class="total" x="62.49999999999999" y="262.7" font-size="11px" fill="black" style="text-anchor: middle;" dy="-0.5ex">4</text><text class="total" x="80.35714285714285" y="244.2" font-size="11px" fill="black" style="text-anchor: middle;" dy="-0.5ex">6</text><text class="total" x="98.21428571428571" y="266.4" font-size="11px" fill="black" style="text-anchor: middle;" dy="-0.5ex">6</text><text class="total" x="116.07142857142856" y="267.01666666666665" font-size="11px" fill="black" style="text-anchor: middle;" dy="-0.5ex">5</text><text class="total" x="133.92857142857142" y="72.14999999999998" font-size="11px" fill="black" style="text-anchor: middle;" dy="-0.5ex">11</text><text class="total" x="151.78571428571428" y="99.2833333333333" font-size="11px" fill="black" style="text-anchor: middle;" dy="-0.5ex">10</text><text class="total" x="169.64285714285714" y="136.9" font-size="11px" fill="black" style="text-anchor: middle;" dy="-0.5ex">14</text><text class="total" x="187.5" y="137.51666666666665" font-size="11px" fill="black" style="text-anchor: middle;" dy="-0.5ex">9</text><text class="total" x="205.35714285714286" y="0" font-size="11px" fill="black" style="text-anchor: middle;" dy="-0.5ex">13</text><text class="total" x="223.2142857142857" y="143.06666666666663" font-size="11px" fill="black" style="text-anchor: middle;" dy="-0.5ex">9</text><text class="total" x="241.07142857142856" y="205.35" font-size="11px" fill="black" style="text-anchor: middle;" dy="-0.5ex">7</text></g><g class="x axis" transform="translate(0,370)" fill="none" font-size="10" font-family="sans-serif" text-anchor="middle"><path class="domain" stroke="currentColor" d="M0.5,6V0.5H250.5V6"></path><g class="tick" opacity="1" transform="translate(8.92857142857142,0)"><line stroke="currentColor" y2="6"></line><text fill="black" y="9" dy=".71em" transform="translate(0,1)" font-size="11px" style="text-anchor: middle;">1</text></g><g class="tick" opacity="1" transform="translate(26.785714285714278,0)"><line stroke="currentColor" y2="6"></line><text fill="black" y="9" dy=".71em" transform="translate(0,1)" font-size="11px" style="text-anchor: middle;">2</text></g><g class="tick" opacity="1" transform="translate(44.64285714285714,0)"><line stroke="currentColor" y2="6"></line><text fill="black" y="9" dy=".71em" transform="translate(0,1)" font-size="11px" style="text-anchor: middle;">3</text></g><g class="tick" opacity="1" transform="translate(62.49999999999999,0)"><line stroke="currentColor" y2="6"></line><text fill="black" y="9" dy=".71em" transform="translate(0,1)" font-size="11px" style="text-anchor: middle;">4</text></g><g class="tick" opacity="1" transform="translate(80.35714285714285,0)"><line stroke="currentColor" y2="6"></line><text fill="black" y="9" dy=".71em" transform="translate(0,1)" font-size="11px" style="text-anchor: middle;">5</text></g><g class="tick" opacity="1" transform="translate(98.21428571428571,0)"><line stroke="currentColor" y2="6"></line><text fill="black" y="9" dy=".71em" transform="translate(0,1)" font-size="11px" style="text-anchor: middle;">6</text></g><g class="tick" opacity="1" transform="translate(116.07142857142856,0)"><line stroke="currentColor" y2="6"></line><text fill="black" y="9" dy=".71em" transform="translate(0,1)" font-size="11px" style="text-anchor: middle;">7</text></g><g class="tick" opacity="1" transform="translate(133.92857142857142,0)"><line stroke="currentColor" y2="6"></line><text fill="black" y="9" dy=".71em" transform="translate(0,1)" font-size="11px" style="text-anchor: middle;">8</text></g><g class="tick" opacity="1" transform="translate(151.78571428571428,0)"><line stroke="currentColor" y2="6"></line><text fill="black" y="9" dy=".71em" transform="translate(0,1)" font-size="11px" style="text-anchor: middle;">9</text></g><g class="tick" opacity="1" transform="translate(169.64285714285714,0)"><line stroke="currentColor" y2="6"></line><text fill="black" y="9" dy=".71em" transform="translate(0,1)" font-size="11px" style="text-anchor: middle;">10</text></g><g class="tick" opacity="1" transform="translate(187.5,0)"><line stroke="currentColor" y2="6"></line><text fill="black" y="9" dy=".71em" transform="translate(0,1)" font-size="11px" style="text-anchor: middle;">11</text></g><g class="tick" opacity="1" transform="translate(205.35714285714286,0)"><line stroke="currentColor" y2="6"></line><text fill="black" y="9" dy=".71em" transform="translate(0,1)" font-size="11px" style="text-anchor: middle;">12</text></g><g class="tick" opacity="1" transform="translate(223.2142857142857,0)"><line stroke="currentColor" y2="6"></line><text fill="black" y="9" dy=".71em" transform="translate(0,1)" font-size="11px" style="text-anchor: middle;">13</text></g><g class="tick" opacity="1" transform="translate(241.07142857142856,0)"><line stroke="currentColor" y2="6"></line><text fill="black" y="9" dy=".71em" transform="translate(0,1)" font-size="11px" style="text-anchor: middle;">14</text></g><text transform="translate(125, 23)" font-size="11px" fill="black" dy=".71em" style="text-anchor: middle;">Aufgaben-Nr.</text></g><g class="y axis" fill="none" font-size="10" font-family="sans-serif" text-anchor="end"><path class="domain" stroke="currentColor" d="M-6,370.5H0.5V0.5H-6"></path><g class="tick" opacity="1" transform="translate(0,370.5)"><line stroke="currentColor" x2="-6"></line><text fill="currentColor" x="-9" dy="0.32em">0</text></g><g class="tick" opacity="1" transform="translate(0,340.9)"><line stroke="currentColor" x2="-6"></line><text fill="currentColor" x="-9" dy="0.32em">2</text></g><g class="tick" opacity="1" transform="translate(0,311.3)"><line stroke="currentColor" x2="-6"></line><text fill="currentColor" x="-9" dy="0.32em">4</text></g><g class="tick" opacity="1" transform="translate(0,281.7)"><line stroke="currentColor" x2="-6"></line><text fill="currentColor" x="-9" dy="0.32em">6</text></g><g class="tick" opacity="1" transform="translate(0,252.1)"><line stroke="currentColor" x2="-6"></line><text fill="currentColor" x="-9" dy="0.32em">8</text></g><g class="tick" opacity="1" transform="translate(0,222.5)"><line stroke="currentColor" x2="-6"></line><text fill="currentColor" x="-9" dy="0.32em">10</text></g><g class="tick" opacity="1" transform="translate(0,192.9)"><line stroke="currentColor" x2="-6"></line><text fill="currentColor" x="-9" dy="0.32em">12</text></g><g class="tick" opacity="1" transform="translate(0,163.29999999999998)"><line stroke="currentColor" x2="-6"></line><text fill="currentColor" x="-9" dy="0.32em">14</text></g><g class="tick" opacity="1" transform="translate(0,133.7)"><line stroke="currentColor" x2="-6"></line><text fill="currentColor" x="-9" dy="0.32em">16</text></g><g class="tick" opacity="1" transform="translate(0,104.10000000000002)"><line stroke="currentColor" x2="-6"></line><text fill="currentColor" x="-9" dy="0.32em">18</text></g><g class="tick" opacity="1" transform="translate(0,74.5)"><line stroke="currentColor" x2="-6"></line><text fill="currentColor" x="-9" dy="0.32em">20</text></g><g class="tick" opacity="1" transform="translate(0,44.89999999999998)"><line stroke="currentColor" x2="-6"></line><text fill="currentColor" x="-9" dy="0.32em">22</text></g><g class="tick" opacity="1" transform="translate(0,15.300000000000011)"><line stroke="currentColor" x2="-6"></line><text fill="currentColor" x="-9" dy="0.32em">24</text></g><text transform="translate(-38,185) rotate(-90)" font-size="11px" fill="black" dy=".71em" style="text-anchor: middle;">Totale Dauer pro Person in sec</text></g><g class="y axis" transform="translate(250, 0)" fill="none" font-size="10" font-family="sans-serif" text-anchor="start"><path class="domain" stroke="currentColor" d="M6,370.5H0.5V0.5H6"></path><g class="tick" opacity="1" transform="translate(0,370.5)"><line stroke="currentColor" x2="6"></line><text fill="currentColor" x="9" dy="0.32em">0.0</text></g><g class="tick" opacity="1" transform="translate(0,345.8333333333333)"><line stroke="currentColor" x2="6"></line><text fill="currentColor" x="9" dy="0.32em">0.2</text></g><g class="tick" opacity="1" transform="translate(0,321.1666666666667)"><line stroke="currentColor" x2="6"></line><text fill="currentColor" x="9" dy="0.32em">0.4</text></g><g class="tick" opacity="1" transform="translate(0,296.5)"><line stroke="currentColor" x2="6"></line><text fill="currentColor" x="9" dy="0.32em">0.6</text></g><g class="tick" opacity="1" transform="translate(0,271.8333333333333)"><line stroke="currentColor" x2="6"></line><text fill="currentColor" x="9" dy="0.32em">0.8</text></g><g class="tick" opacity="1" transform="translate(0,247.16666666666669)"><line stroke="currentColor" x2="6"></line><text fill="currentColor" x="9" dy="0.32em">1.0</text></g><g class="tick" opacity="1" transform="translate(0,222.5)"><line stroke="currentColor" x2="6"></line><text fill="currentColor" x="9" dy="0.32em">1.2</text></g><g class="tick" opacity="1" transform="translate(0,197.83333333333334)"><line stroke="currentColor" x2="6"></line><text fill="currentColor" x="9" dy="0.32em">1.4</text></g><g class="tick" opacity="1" transform="translate(0,173.16666666666666)"><line stroke="currentColor" x2="6"></line><text fill="currentColor" x="9" dy="0.32em">1.6</text></g><g class="tick" opacity="1" transform="translate(0,148.5)"><line stroke="currentColor" x2="6"></line><text fill="currentColor" x="9" dy="0.32em">1.8</text></g><g class="tick" opacity="1" transform="translate(0,123.83333333333334)"><line stroke="currentColor" x2="6"></line><text fill="currentColor" x="9" dy="0.32em">2.0</text></g><g class="tick" opacity="1" transform="translate(0,99.16666666666663)"><line stroke="currentColor" x2="6"></line><text fill="currentColor" x="9" dy="0.32em">2.2</text></g><g class="tick" opacity="1" transform="translate(0,74.5)"><line stroke="currentColor" x2="6"></line><text fill="currentColor" x="9" dy="0.32em">2.4</text></g><g class="tick" opacity="1" transform="translate(0,49.833333333333314)"><line stroke="currentColor" x2="6"></line><text fill="currentColor" x="9" dy="0.32em">2.6</text></g><g class="tick" opacity="1" transform="translate(0,25.166666666666686)"><line stroke="currentColor" x2="6"></line><text fill="currentColor" x="9" dy="0.32em">2.8</text></g><g class="tick" opacity="1" transform="translate(0,0.5)"><line stroke="currentColor" x2="6"></line><text fill="currentColor" x="9" dy="0.32em">3.0</text></g><text transform="translate(38,185) rotate(-90)" font-size="11px" fill="black" dy="0em" style="text-anchor: middle;">Durchschnittl. Dauer pro Transition in sec</text></g></g></svg>