<?xml version="1.0" encoding="utf-8"?>
<!-- Generator: Adobe Illustrator 21.1.0, SVG Export Plug-In . SVG Version: 6.00 Build 0)  -->
<svg version="1.0" id="Ebene_1" xmlns="http://www.w3.org/2000/svg" xmlns:xlink="http://www.w3.org/1999/xlink" x="0px" y="0px"
	 viewBox="0 0 100 100" style="enable-background:new 0 0 100 100;" xml:space="preserve">
<path d="M27.2,19.8c-4.5,0-8.1,3.6-8.1,8.1s3.6,8.1,8.1,8.1c4.5,0,8.1-3.6,8.1-8.1S31.7,19.8,27.2,19.8z"/>
<path d="M49.1,19.8c-4.5,0-8.1,3.6-8.1,8.1s3.6,8.1,8.1,8.1c4.5,0,8.1-3.6,8.1-8.1S53.6,19.8,49.1,19.8z"/>
<path d="M71,19.8c-4.5,0-8.1,3.6-8.1,8.1S66.6,36,71,36s8.1-3.6,8.1-8.1S75.5,19.8,71,19.8z"/>
<path d="M27.2,41.7c-4.5,0-8.1,3.6-8.1,8.1c0,4.5,3.6,8.1,8.1,8.1c4.5,0,8.1-3.6,8.1-8.1C35.3,45.3,31.7,41.7,27.2,41.7z"/>
<path d="M27.2,63.5c-4.5,0-8.1,3.6-8.1,8.1c0,4.5,3.6,8.1,8.1,8.1c4.5,0,8.1-3.6,8.1-8.1C35.3,67.1,31.7,63.5,27.2,63.5z"/>
<path d="M49.1,41.7c-4.5,0-8.1,3.6-8.1,8.1c0,4.5,3.6,8.1,8.1,8.1c4.5,0,8.1-3.6,8.1-8.1C57.2,45.3,53.6,41.7,49.1,41.7z"/>
<path d="M49.1,63.5c-4.5,0-8.1,3.6-8.1,8.1c0,4.5,3.6,8.1,8.1,8.1c4.5,0,8.1-3.6,8.1-8.1C57.2,67.1,53.6,63.5,49.1,63.5z"/>
<path d="M71,41.7c-4.5,0-8.1,3.6-8.1,8.1c0,4.5,3.6,8.1,8.1,8.1s8.1-3.6,8.1-8.1C79.1,45.3,75.5,41.7,71,41.7z"/>
<path d="M71,63.5c-4.5,0-8.1,3.6-8.1,8.1c0,4.5,3.6,8.1,8.1,8.1s8.1-3.6,8.1-8.1C79.1,67.1,75.5,63.5,71,63.5z"/>
<path d="M77.3,99h-55C14.9,99,1,94.5,1,77.7V22.4C1,15.1,5.5,1.1,22.3,1.1h55c7.4,0,21.3,4.5,21.3,21.3v55.3
	C98.6,85.1,94.2,99,77.3,99z M9.5,22.4v55.3c0,12,10.7,12.8,12.8,12.8h55c12,0,12.8-10.7,12.8-12.8V22.4c0-12-10.7-12.8-12.8-12.8
	h-55C10.3,9.6,9.5,20.3,9.5,22.4z"/>
</svg>
