<?xml version="1.0" encoding="utf-8"?>
<!-- Generator: Adobe Illustrator 21.1.0, SVG Export Plug-In . SVG Version: 6.00 Build 0)  -->
<svg version="1.1" id="Ebene_1" xmlns="http://www.w3.org/2000/svg" xmlns:xlink="http://www.w3.org/1999/xlink" x="0px" y="0px"
	 viewBox="0 0 400 400" style="enable-background:new 0 0 400 400;" xml:space="preserve">
<style type="text/css">
	.st0{fill:none;stroke:#DAD9DD;stroke-width:24;}
	.st1{fill:none;stroke:#B3B1BB;stroke-width:24;}
	.st2{fill:none;stroke:#696679;stroke-width:24;}
	.st3{fill:none;stroke:#A19EAB;stroke-width:24;}
	.st4{fill:#A19EAB;}
	.st5{fill:#7B7A89;}
	.st6{fill:#B3B1BB;}
	.st7{fill:#DAD9DD;}
</style>
<path class="st7" d="M299,284.5L214.5,200l84.5-84.5c4-4,4-10.5,0-14.5c-4-4-10.5-4-14.5,0L200,185.5L115.5,101c-4-4-10.5-4-14.5,0
	c-4,4-4,10.5,0,14.5l84.5,84.5L101,284.5c-4,4-4,10.5,0,14.5c4,4,10.5,4,14.5,0l84.5-84.5l84.5,84.5c4,4,10.5,4,14.5,0
	C303,295,303,288.5,299,284.5z"/>
</svg>
