<svg id="Ebene_1" data-name="Ebene 1" xmlns="http://www.w3.org/2000/svg" viewBox="0 0 400 400"><defs><style>.cls-1{fill:#dad9dd;}.cls-2{fill:#a19eab;}.cls-3{fill:#7b7a89;}.cls-4{fill:#b3b1bb;}</style></defs><title>Field</title><path class="cls-1" d="M358.72,346.72H79.19a10.22,10.22,0,1,1,0-20.44H358.72a10.22,10.22,0,0,1,0,20.44Z"/><path class="cls-1" d="M59.06,44.23V303.76a10.22,10.22,0,1,1-20.44,0V44.23a10.22,10.22,0,0,1,20.44,0Z"/><polygon class="cls-2" points="269.69 174.58 354.16 212.23 391.1 172.02 306.63 134.37 269.69 174.58"/><polygon class="cls-2" points="179.88 212.73 264.35 250.38 348.34 218.21 263.87 180.56 179.88 212.73"/><polygon class="cls-2" points="102.65 258.14 187.12 295.8 259.01 255.53 174.54 217.88 102.65 258.14"/><polygon class="cls-2" points="13.51 216.03 97.98 253.68 142.4 229.64 57.93 191.99 13.51 216.03"/><polygon class="cls-1" points="198.54 161.16 197.47 197.54 261.72 171.88 298.85 131.96 250.47 155.43 198.54 161.16"/><polygon class="cls-3" points="207.04 86.75 166.42 110.44 145.24 130.55 197.43 153.82 250.89 148.09 291.51 124.4 207.04 86.75"/><polygon class="cls-4" points="192.95 157.22 141.59 133.19 105.03 163.91 64.41 187.6 148.89 225.25 189.5 201.56 192.95 157.22"/></svg>