<?xml version="1.0" encoding="utf-8"?>
<!-- Generator: Adobe Illustrator 21.1.0, SVG Export Plug-In . SVG Version: 6.00 Build 0)  -->
<svg version="1.1" id="Ebene_1" xmlns="http://www.w3.org/2000/svg" xmlns:xlink="http://www.w3.org/1999/xlink" x="0px" y="0px"
	 viewBox="0 0 100 100" style="enable-background:new 0 0 100 100;" xml:space="preserve">
<g>
	<path d="M86.7,56.3c-2.4,0-4.4,2-4.4,4.4v20.6H17.7V60.6c0-2.4-2-4.4-4.4-4.4c-2.4,0-4.4,2-4.4,4.4V90h82.1V60.6
		C91.1,58.2,89.1,56.3,86.7,56.3z"/>
	<path d="M46.9,67.2C46.9,67.2,46.9,67.3,46.9,67.2l3.1,3.4l27.9-30c1.7-1.8,1.6-4.5-0.2-6.2c-1.8-1.7-4.5-1.6-6.2,0.2L54.4,53V14.4
		c0-2.4-2-4.4-4.4-4.4s-4.4,2-4.4,4.4V53L28.6,34.7c-1.7-1.8-4.4-1.9-6.2-0.2c-1.8,1.6-1.9,4.4-0.2,6.2L46.9,67.2z"/>
</g>
</svg>
