<?xml version="1.0" encoding="utf-8"?>
<!-- Generator: Adobe Illustrator 21.1.0, SVG Export Plug-In . SVG Version: 6.00 Build 0)  -->
<svg version="1.1" xmlns="http://www.w3.org/2000/svg" xmlns:xlink="http://www.w3.org/1999/xlink" x="0px" y="0px" viewBox="0 0 100 100" style="enable-background:new 0 0 100 100;" xml:space="preserve">
</g>
<path d="M23.2,9.2c-2.5-2.4-6.4-2.3-8.8,0.3c-0.8,0.8-1.2,1.7-1.5,2.7c0,0.2-0.1,0.3-0.1,0.5c0,0.1,0,0.2,0,0.3
	c0,0.2-0.1,0.4-0.1,0.6l0.2,70.2c0.1,1.3,0.6,2.7,1.7,3.8c2.3,2.5,6.2,2.7,8.8,0.3c0,0,37.6-34.9,37.4-34.9l4.8-4.4L23.2,9.2z
	 M20.5,78.4V18.9L53,48.7L20.5,78.4z"/>
<g>
	<path d="M53.6,11.9c0,2.4,2,4.4,4.4,4.4h20.6v64.6H57.9c-2.4,0-4.4,2-4.4,4.4s2,4.4,4.4,4.4h29.4V7.6H57.9
		C55.5,7.5,53.6,9.5,53.6,11.9z"/>
</g>
</svg>
