<?xml version="1.0" encoding="utf-8"?>
<!-- Generator: Adobe Illustrator 21.1.0, SVG Export Plug-In . SVG Version: 6.00 Build 0)  -->
<svg version="1.1" id="Ebene_1" xmlns="http://www.w3.org/2000/svg" xmlns:xlink="http://www.w3.org/1999/xlink" x="0px" y="0px"
	 viewBox="0 0 100 100" style="enable-background:new 0 0 100 100;" xml:space="preserve">
<path d="M75.7,68.4c-4.3-3.1-10-3-14,0L42.2,54.2c1.3-2.7,1.5-5.9,0.6-8.7l19-13.8c4.1,2.9,9.7,3.1,14,0c5.3-3.9,6.5-11.3,2.6-16.7
	C74.5,9.6,67,8.4,61.7,12.3c-4.3,3.1-5.9,8.5-4.3,13.3l-19,13.8c-4.1-2.9-9.7-3.1-14,0c-5.3,3.9-6.5,11.4-2.6,16.7
	c3.6,4.9,10.1,6.3,15.3,3.5l20.3,14.8c-1.5,4.8,0.1,10.2,4.3,13.3c5.3,3.9,12.8,2.7,16.7-2.6C82.2,79.7,81,72.3,75.7,68.4z"/>
</svg>
