<?xml version="1.0" encoding="utf-8"?>
<!-- Generator: Adobe Illustrator 21.1.0, SVG Export Plug-In . SVG Version: 6.00 Build 0)  -->
<svg version="1.1" id="Ebene_1" xmlns="http://www.w3.org/2000/svg" xmlns:xlink="http://www.w3.org/1999/xlink" x="0px" y="0px"
	 viewBox="0 0 100 100" style="enable-background:new 0 0 100 100;" xml:space="preserve">
<path d="M82.2,28.8c-2.4-3.1-5-5.8-8.1-8.2c-2.7-2-5.6-3.7-9.1-5.2c-6.2-2.5-13.2-3.4-19.8-2.6c-5.5,0.7-10.8,2.5-15.4,5.2l0.9-4.1
	c0.2-0.6,0.3-1.3,0.4-1.9c0.4-1.7-0.5-3.8-2.5-4.3c-1.7-0.4-3.8,0.5-4.3,2.5l-3.2,13.7c-0.2,0.6-0.3,1.3-0.4,1.9
	c-0.1,0.6-0.1,1.2,0,1.7c0.1,0.3,0.2,0.6,0.3,0.9c0.5,0.9,1.2,1.5,2.2,1.7l14.1,3.3c0.5,0.1,1,0.2,1.5,0.3c1,0.2,2,0,2.9-0.5
	c0.7-0.5,1.3-1.2,1.4-2c0.4-1.7-0.5-3.8-2.5-4.3l-8.8-2c1.7-1.1,3.5-2.1,5.4-2.9c2.6-1,5.3-1.8,8.1-2.2c3-0.4,6.1-0.4,9.1,0
	c2.8,0.4,5.5,1.2,8.2,2.2c1.6,0.7,3.1,1.5,4.4,2.3c0.8,0.5,1.5,1,2.3,1.5c0.2,0.1,0.3,0.2,0.5,0.4l0.5,0.4c0.2,0.2,0.4,0.3,0.6,0.5
	c1.4,1.1,2.7,2.4,3.9,3.8c0.3,0.3,0.6,0.6,0.8,1c0.1,0.2,0.3,0.3,0.4,0.5l0.1,0.2c0.5,0.7,1.1,1.5,1.5,2.2c1,1.6,1.9,3.3,2.7,5.1
	c1,2.6,1.8,5.3,2.2,8.1c0.4,3,0.4,6.1,0,9.1c-0.4,2.8-1.2,5.5-2.2,8.2c-0.7,1.6-1.4,3.1-2.3,4.4c-0.5,0.8-1,1.5-1.5,2.3l-0.4,0.6v0
	c0,0-0.1,0.1-0.1,0.1l-0.8,1c-1.1,1.4-2.4,2.7-3.8,3.9c-0.3,0.3-0.7,0.6-1,0.8l-0.7,0.5c-0.7,0.5-1.5,1.1-2.2,1.5
	c-1.6,1-3.3,1.9-5.1,2.7c-2.6,1-5.3,1.8-8.1,2.2c-3,0.4-6.1,0.4-9.1,0c-2.8-0.4-5.5-1.2-8.2-2.2c-1.5-0.7-2.9-1.4-4.2-2.2
	c-0.7-0.4-1.4-0.9-2-1.3c-0.3-0.2-0.6-0.5-1-0.7l-0.2-0.1v0l0,0v0l-0.3-0.3c-1.4-1.1-2.7-2.4-3.9-3.7c-0.6-0.6-1.1-1.3-1.7-2
	l-0.5,0.4l0.4-0.6l-0.2-0.2c-0.1-0.2-0.3-0.4-0.4-0.5l-0.3-0.4c-0.2-0.3-0.4-0.5-0.6-0.8c-1.1-1.6-2-3.4-2.8-5.2
	c-1.1-2.7-1.8-5.5-2.2-8.3c-0.2-1.6-0.3-3.2-0.3-4.9c0-0.9-0.4-1.9-1.1-2.6c-0.7-0.7-1.5-0.9-2.4-1c-1.9,0.1-3.5,1.6-3.5,3.5
	c-0.1,8,2.3,16,6.7,22.5C21,81,27,86.1,33.7,89c5.3,2.3,10.8,3.5,16.3,3.5c1.3,0,2.6-0.1,3.9-0.2c7.2-0.8,13.9-3.3,19.4-7.3
	c6-4.4,10.6-10.1,13.3-16.5c2.8-6.5,3.9-13.6,3.1-20.3C88.9,40.9,86.3,34.2,82.2,28.8z"/>
</svg>
