<?xml version="1.0" encoding="utf-8"?>
<!-- Generator: Adobe Illustrator 21.1.0, SVG Export Plug-In . SVG Version: 6.00 Build 0)  -->
<svg version="1.1" id="Ebene_1" xmlns="http://www.w3.org/2000/svg" xmlns:xlink="http://www.w3.org/1999/xlink" x="0px" y="0px"
	 viewBox="0 0 100 100" style="enable-background:new 0 0 100 100;" xml:space="preserve">
<circle cx="50" cy="50" r="17.5"/>
<g>
	<path d="M63.2,22.8H36.3c-0.8,0-1.4-1.4-0.1-2.7L47.9,8.4c1.3-1.2,2.9-1.2,4.2,0l11.9,12C65.2,21.4,64.4,22.8,63.2,22.8z"/>
	<path d="M64,79.6l-11.9,12c-1.3,1.2-2.9,1.2-4.2,0L36.2,79.8c-1.3-1.3-0.7-2.7,0.1-2.7h26.9C64.4,77.2,65.2,78.6,64,79.6z"/>
</g>
<g>
	<path d="M22.8,36.8v26.9c0,0.8-1.4,1.4-2.7,0.1L8.4,52.1c-1.2-1.3-1.2-2.9,0-4.2l12-11.9C21.4,34.8,22.8,35.6,22.8,36.8z"/>
	<path d="M79.6,36l12,11.9c1.2,1.3,1.2,2.9,0,4.2L79.8,63.8c-1.3,1.3-2.7,0.7-2.7-0.1V36.8C77.2,35.6,78.6,34.8,79.6,36z"/>
</g>
</svg>
