<?xml version="1.0" encoding="utf-8"?>
<!-- Generator: Adobe Illustrator 21.1.0, SVG Export Plug-In . SVG Version: 6.00 Build 0)  -->
<svg version="1.1" id="Ebene_1" xmlns="http://www.w3.org/2000/svg" xmlns:xlink="http://www.w3.org/1999/xlink" x="0px" y="0px"
	 viewBox="0 0 100 100" style="enable-background:new 0 0 100 100;" xml:space="preserve">
<style type="text/css">
	.st0{fill:none;stroke:#000000;stroke-miterlimit:10;}
	.st1{fill:none;}
	.st2{fill:none;stroke:#000000;stroke-width:9;stroke-linecap:round;stroke-miterlimit:10;}
</style>
<path d="M8.1,43.2c-0.5,0-0.9-0.1-1.4-0.2c-2.4-0.8-3.7-3.3-2.9-5.7C10.9,15.6,25.3,8,37.2,3.9c2.3-0.8,4.9,0.4,5.7,2.7
	c0.8,2.3-0.4,4.9-2.7,5.7c-18.6,6.6-24.4,17.2-27.8,27.7C11.7,42,10,43.2,8.1,43.2z"/>
<path d="M38.6,96.6c-0.5,0-0.9-0.1-1.4-0.2C15.6,89.3,8,74.8,3.8,63c-0.8-2.3,0.4-4.9,2.7-5.7c2.3-0.8,4.9,0.4,5.7,2.7
	C18.9,78.6,29.5,84.4,40,87.8c2.4,0.8,3.7,3.3,2.9,5.7C42.3,95.4,40.5,96.6,38.6,96.6z"/>
<path d="M91.9,43.1c-1.9,0-3.7-1.2-4.3-3.1c-3.4-10.5-9.2-21.1-27.8-27.7c-2.3-0.8-3.6-3.4-2.7-5.7c0.8-2.3,3.4-3.6,5.7-2.7
	c22.5,8,29.6,22,33.4,33.4c0.8,2.4-0.5,4.9-2.9,5.7C92.8,43,92.4,43.1,91.9,43.1z"/>
<path d="M61.4,96.5c-1.9,0-3.7-1.2-4.3-3.1c-0.8-2.4,0.5-4.9,2.9-5.7c10.5-3.4,21.1-9.2,27.7-27.8c0.8-2.3,3.4-3.6,5.7-2.7
	c2.3,0.8,3.6,3.4,2.7,5.7c-7.9,22.5-22,29.6-33.4,33.4C62.3,96.4,61.8,96.5,61.4,96.5z"/>
<path d="M65.9,69.6c-0.5,0-31.4,0-31.4,0c-2.1,0-4.1-1.2-4.1-3.7c0,0,0-28.3,0-30.8c0-3,1.9-4.7,4.2-4.7h30.8
	c2.5,0.1,4.3,2.3,4.3,3.9v31.8C69.5,68,67.5,69.6,65.9,69.6z"/>
</svg>
