<?xml version="1.0" encoding="utf-8"?>
<!-- Generator: Adobe Illustrator 21.1.0, SVG Export Plug-In . SVG Version: 6.00 Build 0)  -->
<svg version="1.0" id="Ebene_1" xmlns="http://www.w3.org/2000/svg" xmlns:xlink="http://www.w3.org/1999/xlink" x="0px" y="0px"
	 viewBox="0 0 100 100" style="enable-background:new 0 0 100 100;" xml:space="preserve">
<path d="M26.4,35.6H6.8c-1.9,0-3.5-1.6-3.5-3.5c0-1.9,1.6-3.5,3.5-3.5h19.6c1.5,0,2.5,0,2.5-4.5V6.3
	c0-1.9,1.6-3.5,3.5-3.5S36,4.3,36,6.3v17.8C36,33.6,30.8,35.6,26.4,35.6z"/>
<path d="M32.6,96.2c-1.9,0-3.5-1.6-3.5-3.5V73.1c0-1.5,0-2.5-4.5-2.5H6.8c-1.9,0-3.5-1.6-3.5-3.5c0-1.9,1.6-3.5,3.5-3.5
	h17.8c9.5,0,11.5,5.2,11.5,9.6v19.6C36.1,94.6,34.5,96.2,32.6,96.2z"/>
<path d="M92.7,35.6H73.1c-4.4,0-9.6-2-9.6-11.5V6.3c0-1.9,1.6-3.5,3.5-3.5c1.9,0,3.5,1.6,3.5,3.5v17.8
	c0,4.5,1.1,4.5,2.6,4.5h19.6c1.9,0,3.5,1.6,3.5,3.5C96.2,34,94.6,35.6,92.7,35.6z"/>
<path d="M66.9,96.2c-1.9,0-3.5-1.6-3.5-3.5V73.1c0-4.4,2-9.6,11.5-9.6h17.8c1.9,0,3.5,1.6,3.5,3.5
	c0,1.9-1.6,3.5-3.5,3.5H74.9c-4.5,0-4.5,1.1-4.5,2.5v19.6C70.4,94.6,68.9,96.2,66.9,96.2z"/>
<path d="M32,53.6H6.1c-2.3,0-4.1-1.8-4.1-4.1s1.8-4.1,4.1-4.1H32c2.3,0,4.1,1.8,4.1,4.1S34.2,53.6,32,53.6z"/>
<path d="M93.9,54.1H68c-2.3,0-4.1-1.8-4.1-4.1S65.8,46,68,46h25.9c2.3,0,4.1,1.8,4.1,4.1S96.2,54.1,93.9,54.1z"/>
<path d="M50.1,96.8c-2.3,0-4.1-1.8-4.1-4.1V68.1c0-2.3,1.8-4.1,4.1-4.1s4.1,1.8,4.1,4.1v24.6
	C54.2,95,52.4,96.8,50.1,96.8z"/>
<path d="M49.9,35.6c-2.3,0-4.1-1.8-4.1-4.1V6.9c0-2.3,1.8-4.1,4.1-4.1S54,4.6,54,6.9v24.6C54,33.7,52.2,35.6,49.9,35.6z
	"/>
	<rect x="0" y="0" width="100" height="100" fill="transparent"/>
</svg>
