<svg version="1.1" xmlns="http://www.w3.org/2000/svg" xmlns:xlink="http://www.w3.org/1999/xlink" x="0px" y="0px" viewBox="0 0 841.9 595.3"  preserveAspectRatio="xMinYMid">
  <path fill="#fff" d="M805.9,427.6V417h-20.9v-8.7h14.6v-10.2h-14.6v-7.6h20.5v-10.6H772v47.7H805.9z M736.5,416.5v-25.5h4.6 c3.5,0,6,1.1,7.6,3.2c1.6,2.1,2.5,5.2,2.5,9.1c0,4.1-0.8,7.3-2.5,9.7c-1.7,2.4-4.4,3.6-8,3.6H736.5z M740.1,427.6 c3.8,0,7.2-0.5,10.2-1.6c3-1.1,5.5-2.7,7.6-4.8c2.1-2.1,3.6-4.7,4.7-7.7c1.1-3.1,1.6-6.6,1.6-10.6c0-7.8-2-13.5-6.1-17.3 c-4.1-3.8-9.9-5.7-17.5-5.7h-17v47.7H740.1z M713.6,427.6v-47.7h-12V406h-0.1l-14.2-26.2h-14.5v47.7h12v-27.9h0.1l15.9,27.9H713.6z M650.2,410c0,2.6-0.7,4.5-2,5.9c-1.4,1.4-3.2,2-5.6,2c-2.4,0-4.2-0.7-5.3-2c-1.2-1.4-1.7-3.3-1.7-5.9v-30.1h-13v27.6 c0,3.3,0.3,6.3,1,8.9c0.7,2.6,1.8,4.8,3.4,6.6c1.6,1.8,3.6,3.1,6.1,4.1c2.5,0.9,5.6,1.4,9.3,1.4s6.8-0.5,9.4-1.4 c2.6-0.9,4.8-2.3,6.4-4.1c1.7-1.8,2.9-4,3.7-6.6c0.8-2.6,1.2-5.6,1.2-8.9v-27.6h-13V410z M618.7,427.6l-15.4-30.7l13.2-17.1h-14 l-13.4,19h-0.1v-19h-13v47.7h13v-12.2l5.7-7.4l9.5,19.5H618.7z M542.7,400.3v-9.8h5.8c0.7,0,1.3,0.1,2,0.2c0.7,0.1,1.3,0.3,1.9,0.7 c0.6,0.3,1.1,0.8,1.5,1.5c0.4,0.6,0.6,1.5,0.6,2.6c0,1.1-0.2,2-0.7,2.6c-0.4,0.6-1,1.1-1.6,1.5c-0.6,0.4-1.4,0.6-2.1,0.7 c-0.8,0.1-1.5,0.2-2.2,0.2H542.7z M569.8,427.6l-9.5-20.9c2.2-1.2,4-2.8,5.3-4.8c1.3-2.1,2-4.6,2-7.5c0-9.6-6.5-14.4-19.5-14.4 h-18.4v47.7h13v-17.2h6l6.8,17.2H569.8z M507.2,410c0,2.6-0.7,4.5-2,5.9c-1.4,1.4-3.2,2-5.6,2c-2.4,0-4.2-0.7-5.3-2 c-1.2-1.4-1.7-3.3-1.7-5.9v-30.1h-13v27.6c0,3.3,0.3,6.3,1,8.9c0.7,2.6,1.8,4.8,3.4,6.6c1.6,1.8,3.6,3.1,6.1,4.1 c2.5,0.9,5.6,1.4,9.3,1.4c3.7,0,6.8-0.5,9.4-1.4c2.6-0.9,4.8-2.3,6.4-4.1c1.7-1.8,2.9-4,3.7-6.6c0.8-2.6,1.2-5.6,1.2-8.9v-27.6h-13 V410z M461.4,427.6v-37.2h12v-10.6h-36.9v10.6h12v37.2H461.4z M414.5,390.5h0.1l3.9,16.2h-7.9L414.5,390.5z M437,427.6l-13.7-47.7 h-17.1l-13.7,47.7h13.1l2.5-10.4H421l2.5,10.4H437z M386.6,427.6v-47.7h-12V406h-0.1l-14.2-26.2h-14.5v47.7h12v-27.9h0.1l15.9,27.9 H386.6z"/>
  <path fill="#fff" d="M770,340.4v-9.8h5.8c0.7,0,1.3,0.1,2,0.2c0.7,0.1,1.3,0.3,1.9,0.7c0.6,0.3,1.1,0.8,1.5,1.5 c0.4,0.6,0.6,1.5,0.6,2.6c0,1.1-0.2,2-0.7,2.6c-0.4,0.6-1,1.1-1.6,1.5c-0.6,0.4-1.4,0.6-2.1,0.7c-0.8,0.1-1.5,0.2-2.2,0.2H770z M797.1,367.7l-9.5-20.9c2.2-1.2,4-2.8,5.3-4.8c1.3-2.1,2-4.6,2-7.5c0-9.6-6.5-14.4-19.5-14.4H757v47.7h13v-17.2h6l6.8,17.2H797.1z M739.1,308.2h-9.6v8.2h9.6V308.2z M725.1,308.2h-9.4v8.2h9.4V308.2z M734.5,350.1c0,2.6-0.7,4.5-2,5.9c-1.4,1.4-3.2,2-5.6,2 c-2.4,0-4.2-0.7-5.3-2c-1.2-1.4-1.7-3.3-1.7-5.9V320h-13v27.6c0,3.3,0.3,6.3,1,8.9c0.7,2.6,1.8,4.8,3.4,6.6 c1.6,1.8,3.6,3.1,6.1,4.1c2.5,0.9,5.6,1.4,9.3,1.4c3.7,0,6.8-0.5,9.4-1.4c2.6-0.9,4.8-2.3,6.4-4.1c1.7-1.8,2.9-4,3.7-6.6 c0.8-2.6,1.2-5.6,1.2-8.9V320h-13V350.1z M679.8,367.7v-19.3H695v-10.2h-15.2v-7.6H701V320h-34.1v47.7H679.8z M640.8,367.7V320 h-16.6l-8.6,31.2h-0.1l-8.2-31.2h-16.8v47.7h12v-30.2h0.1l7.9,30.2h10.4l7.9-30.2h0.1v30.2H640.8z M567.7,350.1 c0,2.6-0.7,4.5-2,5.9c-1.4,1.4-3.2,2-5.6,2c-2.4,0-4.2-0.7-5.3-2c-1.2-1.4-1.7-3.3-1.7-5.9V320h-13v27.6c0,3.3,0.3,6.3,1,8.9 c0.7,2.6,1.8,4.8,3.4,6.6c1.6,1.8,3.6,3.1,6.1,4.1c2.5,0.9,5.6,1.4,9.3,1.4c3.7,0,6.8-0.5,9.4-1.4c2.6-0.9,4.8-2.3,6.4-4.1 c1.7-1.8,2.9-4,3.7-6.6c0.8-2.6,1.2-5.6,1.2-8.9V320h-13V350.1z M533.1,367.7v-10.6h-20.9v-8.7h14.6v-10.2h-14.6v-7.6h20.5V320 h-33.5v47.7H533.1z M490.2,330.6c-1.6-4.2-4-7.1-7-8.8c-3.1-1.7-6.9-2.6-11.4-2.6c-2.5,0-4.8,0.3-6.9,1c-2.1,0.7-4,1.6-5.5,2.8 c-1.5,1.2-2.7,2.7-3.6,4.3c-0.9,1.7-1.3,3.5-1.3,5.5c0,3.1,0.6,5.7,1.8,7.5c1.2,1.9,2.8,3.4,4.6,4.5c1.9,1.1,3.9,2,6,2.5 c2.1,0.6,4.1,1.1,6,1.7s3.4,1.2,4.6,1.9c1.2,0.8,1.8,1.8,1.8,3.3c0,1.4-0.6,2.5-1.8,3.2c-1.2,0.7-2.7,1.1-4.4,1.1 c-2.3,0-4.1-0.6-5.5-1.9c-1.4-1.2-2.2-2.9-2.6-4.9l-11.9,3.7c0.7,2.4,1.7,4.4,2.9,6.1c1.2,1.7,2.6,3,4.2,4.1c1.6,1,3.4,1.8,5.4,2.2 c2,0.5,4.2,0.7,6.6,0.7c2.8,0,5.4-0.3,7.7-1c2.3-0.7,4.4-1.6,6.1-2.9c1.7-1.3,3-2.9,3.9-4.8c0.9-1.9,1.4-4.1,1.4-6.6 c0-3-0.6-5.4-1.8-7.2c-1.2-1.8-2.7-3.3-4.5-4.3c-1.8-1.1-3.7-1.9-5.8-2.4c-2.1-0.6-4-1.1-5.8-1.6c-1.8-0.5-3.3-1.1-4.5-1.8 c-1.2-0.7-1.8-1.7-1.8-3.1c0-1.2,0.5-2.1,1.5-2.8c1-0.7,2.1-1,3.5-1c1.7,0,3.2,0.4,4.5,1.3c1.3,0.9,2.3,2.2,3,4.1L490.2,330.6z M433.5,350.1c0,2.6-0.7,4.5-2,5.9c-1.4,1.4-3.2,2-5.6,2c-2.4,0-4.2-0.7-5.3-2c-1.2-1.4-1.7-3.3-1.7-5.9V320h-13v27.6 c0,3.3,0.3,6.3,1,8.9c0.7,2.6,1.8,4.8,3.4,6.6c1.6,1.8,3.6,3.1,6.1,4.1c2.5,0.9,5.6,1.4,9.3,1.4c3.7,0,6.8-0.5,9.4-1.4 c2.6-0.9,4.8-2.3,6.4-4.1c1.7-1.8,2.9-4,3.7-6.6c0.8-2.6,1.2-5.6,1.2-8.9V320h-13V350.1z M396.2,367.7V320h-16.6l-8.6,31.2h-0.1 l-8.2-31.2h-16.8v47.7h12v-30.2h0.1l7.9,30.2h10.4l7.9-30.2h0.1v30.2H396.2z"/>
  <path fill="#AFCA0B" d="M410.5,236.5c-1.6,1.1-3.4,6.1-2.5,7.1c1.6,1.9,3.7,1.7,4.8-0.6c0.4-0.8,0.7-1.6,0.9-2.4 c0.8-2.1,0.5-2.9-1.4-4.1C411.8,236.1,411.2,236.1,410.5,236.5 M333.7,308.5c1-1.5,0-3.7-1.7-4.7c-1.5-0.9-2.8-0.5-4.1,1.1 c-0.4,0.5-18.6,30.2-23.9,39.6c-2,3.1,1.5,8.3,5.5,3.6c1-1.4,16.2-28.1,16.3-28.1c-0.2,1.9-2,17.1-2,22.8c1.2,11.7,9.3,6.8,7,1.7 c-1.8-3.5,0.1-13.6,0.5-17.7C331.8,322.6,332.6,310.3,333.7,308.5 M307.6,261.4c-0.8-3.4-1.7-6.7-1.5-10.2c0.1-2.4-0.2-11,3.5-16.5 c4-4.9,10.6,0.9,15.6-1.4c7.2-3.5,7.5-8.2,7.5-9c0.1-1.4-0.8-2.3-2.2-2c-2.2,0.1-5.1,2.7-6.5,4c-3.4,3.5-9.3-1.4-13-1.8 c-1.2-0.3-2.1,0.2-2.8,1.3c-2.6,5.5-5.1,8.2-5.1,7.2c-0.2-1.7-1.4-4.8-3.9-3.9c-1.2,0.4-1.5,1.4-1.5,2.5c-0.1,3.2,3.4,29,4,31 C302.4,266.5,308.5,267.2,307.6,261.4 M305.9,402c-0.5-1.2,0.2-2,0.3-2.1c0.3,0.5,1.2,2.7,1.5,3.2C307.6,403.2,306.8,404,305.9,402 M308.9,391.5c2.2-5.3,9.4-28,13.8-19.2c0.7,1.9,1,3.8,1.2,5.7c0.9,12.7-3.7,19.4-10.8,23.5c-0.6-1.3-3-6.3-3.8-7.5 C308.8,393.1,308.5,392.5,308.9,391.5 M295.1,417.8c-2.1,7,3.7,7,5.2,2.1c0.3-0.7,4.2-11.9,4.4-12.9c1.2,0.3,2.2,1.5,3.3,1.5 c1.6,0,2.2,0.8,2.9,2c6.7,13.4,9.1,16.7,16,16.2c2.9-0.4,6.1-4.2,5.3-6.6c-1.7-5.2-5.2,5.2-12.2-4c-2.1-2.9-3.2-6.1-4.2-9.5 c1.5-1.3,8.8-4.3,11.6-12.1c2.5-5.9,3.3-12.2,2.8-18.5c-0.1-5.7-5.8-17.4-14.2-9.5c-4.2,4.9-6.6,11.6-7.7,14.1 c-0.2,0.6-0.4,1.1-1.1,1.3c-1.8,0.5-2.5,1.9-2.8,3.5c-0.3,1.6-1.4,6.7-1.9,7.4c-2.2,2.4-2.6,5.2-2.3,8.2c0.1,1.4,0,2.7-0.5,4 C298.1,409.3,296.5,413.5,295.1,417.8 M237.8,361.7c4.2-5.6,13.8-17.3,13.8-17.1c-1.9,5-4.3,12.3-6.2,17.3c-0.8,2.1-1,2.3-3.3,1.8 C241,363.5,239,362.9,237.8,361.7 M250.9,363.1c0.7-4.1,2.7-7.4,4.4-11c2.6,2,4.9,3.8,7.5,5.7C259,360.1,255.3,362.1,250.9,363.1 M222,380.4c4.7-1.1,9.4-10,11.3-12.2c0,0,1.8,1.5,7.8,3.3c-0.3,0.8-6.6,19.2-6.6,19.9c0,1.4,3.4,6,7-4.9c0.4-0.6,2.9-7.5,4.9-13 c0.7-1.9,1.8-2.9,3.8-3.3c3.8-0.8,17.3-8.4,17.5-8.3c-0.5,1.5-6.1,15.1-8.4,20.4c-2.7,6.1-4.8,11.2-7.5,17.3c-2,4.7,3.2,7,5.7,2.6 c4.6-8.2,15.6-35.7,16.7-38.3c0.4-0.9,1-1.3,2.1-1.3c4,0.3,7.4,0.5,11.7-0.6c-8.9,12.4-15.7,23.4-21.1,35.3 c-1.4,3.1-2.6,6.3-3.1,9.7c-0.2,1.1,0,10.3,8.5,3.1c1.1-1,19.3-20.1,20-20.8c-0.2,0.7-7.7,19.7-9.2,23.5c-3.6,8.7,2,7.9,3.1,5.3 c0.3-0.7,9.9-22.8,14.3-33.1c1.5-2.6,0.1-9.9-5.8-5.1c-4.7,3.6-22.3,22-22.9,22.5c0.2-1.2,0.5-2.3,1-3.3 c4.2-9.4,9.2-18.4,15.2-26.7c3.4-4.7,11.6-13.3,12.6-16.8c0.6-2-0.3-6.4-5.1-3.6c-5.6,3.7-11.7,4.2-18.2,2.9 c-0.7-0.1-1.5-0.6-1.9-1.2c-0.9-1.4-2-1.8-3.5-1.2c-1.1,0.4-2,0.2-2.9-0.3c-1.5-0.9-7.4-6-8.9-7.5c-0.8-0.8-0.9-1.5-0.4-2.5 c1.1-3.7,2.5-7.9,3.4-11.1c1.5-5.8,0.2-9-4.5-3.5c-4.9,6.7-23.5,29-24.6,29.7c-0.4-0.2-0.6-0.4-0.9-0.5c-1.9-1.1-3.2-0.8-4.4,1 c-1.2,1.6-1.2,3.3-0.5,5.1c0.4,1,0.2,1.7-0.5,2.4c-0.5,0.5-5.7,6.4-7.7,8.8C217.6,376.5,219.1,380.4,222,380.4 M200,353.5 c-1.4,1.4,0,5.4,3.7,2.6c3.3-2.6,8.4-9.2,8.5-9.2c-0.2,0.5-5.2,12.4-5.2,19c0,3.4,2.6,4.9,5.7,3.5c5.8-3.3,19.6-18.7,39.6-50 c0.9-1.4,1.3-3.7,0.5-5.1c-1-1.6-3.7-0.9-5,0.4c-0.7,0.8-7.2,12.3-17.8,26.5c-10.4,14.4-15.7,20.2-16.5,19.9 c-1.2-0.6,3.7-14.2,9.1-28.8c2-5,8.3-13,9.8-15.3c2.3-3.6-2.9-9.2-5.3-5.1c-0.8,1.2-7.7,14.9-11.5,20 C211.3,338,200.7,352.3,200,353.5 M183.6,192.4c-0.2,0.7-0.2,1.4-0.2,2.2c0,1-1.3,3.6-1.6,4.4c-1.6,3.6-2.9,7.3-3.6,11.2 c-2.1,11.4-4.4,22.7-6.5,34.1c-1.4,7.4-2.5,14.9-2.4,22.4c0,2.1,0.4,4,1.1,5.9c0.7,1.7,1.9,2.8,3.7,3.2c2.1,0.4,5.8-2,2.1-6.6 c-0.8-0.7-1-1.5-1-2.5c-0.4-4,0.5-9.6,1-12.6c1-6,2.1-13.1,3.2-19.1c0.1,0,2.4-15.6,2.4-15.6c0,0.4-1.5,17.5-1.5,17.8 c-0.6,4-0.8,7.9-0.3,11.9c2.6,21.3,8.5,23.3,9.7,24c2.6,1.4,6.4,1,8.5-5.1c2.4-7.5,3.7-15.2,5.1-22.9c2.6-14.4,5-28.8,7.5-43.3 c0.7-4,1.3-8,4.5-11c1-0.9,0.8-2.3,0-3.4c-1.5-2.3-4.4-2.5-6.1-0.4c-0.8,1.1-1.4,2.5-1.7,3.8c-1.6,6.8-3.1,13.6-4.4,20.5 c-2.3,11.7-3.2,21.9-5.5,33.6c-1.2,6-2.6,13.4-4.6,19.3c-1.4,3.2-4-2.1-4.7-4.2c-1.3-4.4-1.8-8.9-2.2-13.4 c-0.4-8.9,2.3-24.7,3.4-34.5c0.6-5.4,0.8-11.1,1.1-16.5c0-0.4-0.4-3.5-3.1-4.8C185.9,189.9,184.1,190.7,183.6,192.4 M267.7,158.5 c-2.2,2.3-4.4,4.5-6.5,6.9c-2.9,3.3-5.2,7.1-7,11.2c-2.7,6.1-4.7,12.3-5.8,18.9c-1,6-2.1,12.1-3.2,18.2c-0.2-0.3-3.9-25.4-5-32.9 c0,0,2,0.2,4.6-2.3c1.3-1.2,3.3-4.8,2.8-8.9c-0.8-3.7-3.1-15.9-3.7-19.3c2.1-0.1,2-0.1,2.6,1.5c1.3,3.8,2.5,7.7,3.9,11.5 c2.8,5.6,7.7,0.9,6-2.6c-1.1-2.5-3.4-8.4-3.5-8.9C256.9,151.7,266.7,155,267.7,158.5 M249.1,138.2c-1.7-9.5,1.2-20.1,1.6-22.5 c4.3,3.3,7.2,7.1,7.2,12.5c0,3.3-1.1,6-4.2,7.5C252.2,136.4,250.8,137.2,249.1,138.2 M303.1,99.3c0.3-0.2,0.4-0.7,0.5-1.1 c0.4-2.1-1-3.9-3.3-4.3c-1.7-0.4-3.4,2.9-3.4,2.9c-1.4,5.3-2.3,10.8-2.9,16.3c-0.7,6.4-0.9,12.7-0.4,19.1 c0.5,11.4,3.8,19.1,2.8,19.1c-1.5,0-16.5-32-20.8-41.1c-1.2-2.6-2.8-5-4.3-7.5c-0.9-2.2-8.6-4.3-5.5,7.3c1.2,4.9,11.3,41,11.7,43.3 c-1.3,0.6-3,1.4-4.2,2c-0.2-0.2-2.6-4.8-8.5-6.8c-4-1.5-13.6-3.5-14.4-3.7c2.2-3.8,6.8-3.5,9.1-5.7c3.5-2.9,9.3-16-4.4-27.3 c-1-0.9-8.1-6.5-10.1,1.3c-0.2,0.8-2.9,15-1.6,24.8c0.3,1.4,0.3,2.8,0.4,4.2c-1.3,0.9-2.4,1.7-4.1,1c-1-0.4-4.1,0-3,3.7 c0.5,1.4,4.5,17.9,5.4,22.1c0.1,0.6,1.6,6.4-3.6,6.6c-4.9,0-9.4-18.4-9.7-19.2c-2.2-4.9-6.9-0.4-6,1.7c-4,3.9-8.3,7.8-8.7,8 c-1.9-4.2-3.7-8.3-5.6-12.5c0.9-1,13.6-14.7,19-20.2c2.2-2.2,5.3-4.7,7.7-6.8c0.7-0.5,1.4-0.9,2.4-0.8c1.2,0.1,2.1-0.6,2.6-1.7 c0.4-1,0.1-2.1-0.9-3c-1.4-1.2-2.9-1.4-4.6-0.6c-5.8,2.3-20.3,17.4-34.7,34.2c-2.5,2.8-9.8,13.4-11.3,15.6 c-0.8,1.2-4.5,4.5-2.6,6.8c0.7,1,4.1,4.3,9.3-6.5c2.3-4.1,8.6-12.1,9.1-12.8c1.9,4.2,3.6,7.9,5.4,11.7c-1.5,1-2.4,2.3-1.7,4.1 c0.8,2,2.7,1.8,4.4,1.7c0.4,0.7,5.8,12.4,6.2,12.8c2.4,2.8,6.3-0.1,5.1-2.5c-0.2-0.6-6.7-13.8-6.7-14c3.9-4.1,3.5-4.2,7.4-8.3 c1.6,4,8.2,16.4,8.2,16.6c-0.3,1.5-4.7,14.7-7.5,24.4c-1.5,5-5.3,16.6-6.2,17.1c-1.1-1.4-1.6-2.8-1.7-4.5c-0.2-6.7-6.3-4.9-6.2-1.1 c0.1,3.4,0.9,9.8,5.5,11.5c8.7,3.2,10.4-10.5,15.3-26.6c1.7-5.7,3-10.3,3.2-10.8c0.1,0.3,2.2,15,3.2,22.2c0.6,4.4,1.2,8.7,2.9,12.9 c3,5,8.5,1.4,9.2-5.4c0.9-7.4,4.5-43.7,20.1-56.4c0,0,5.3,3,5-2.9c0,0,2.5-1.1,3.1-1.4c0.2,0.5,3.9,13.8,5.5,20 c0.8,3.1,7.5,3.1,5.4-3c-1.6-5.4-4-13.7-5.7-19c0,0,3.2-1.2,2.6-3.7c-0.5-2.1-3.9-1.7-4.1-1.7c-2.3-8.7-7.7-29.5-7.6-29.1 c1.8,4.2,12.2,24.5,14.3,28c1.5,2.5,6.1,12.5,11.5,11.3c3.1-1.2,1.8-7.9,1.4-10c-1.4-7.3-2.3-14.6-2.8-22 c-0.7-9.5,0.1-18.8,2.5-28.1C302.1,100.8,302.3,99.9,303.1,99.3 M234.5,142.1c-0.4-1.9-1.4-6.3-1.5-6.4c-0.6-1.1-5.9-2.6-4.4,1.6 c0.5,1.4,2.1,5.9,2.6,6.6C231.9,144.7,234.6,144.9,234.5,142.1 M224.6,149.7c1.2,1,3.5,1.1,3.1-0.3c-1.1-2.2-2.2-7.2-2.2-7.3 c-1.7-2.7-4-0.6-4,0.6C221.5,145.5,222.7,147.7,224.6,149.7 M322.7,118.3c-2.5,1-5.9,2.1-8.4,2.5c-0.3-3.6,1.5-22.4,3-26.5 C318.9,101.3,321.2,111.6,322.7,118.3 M373.1,86.7c-6.7,2.4-30.2,10.5-30.2,10.5c-3.8-4.1-6.8,0.3-6,2.2c-4,1.5-8,2.7-12.2,3.8 c-0.2-0.9-2.3-9.9-3.2-13.8c-0.6-3.6-5.4-7.7-8.1,0.4c-2.5,7.8-3.8,15.8-4.7,23.9c-0.3,2.7-0.5,5.3-0.8,8c-1.9,0.3-3.7,0.7-4.1,2.9 c-0.4,2.3,1.2,3.2,3.1,3.9c-0.1,1-0.1,1.9-0.2,2.9c-0.3,3.4-0.7,6.8-0.8,10.3c-0.1,2.9,0,5.9,0.2,8.8c0.1,1.8,1.3,2.7,3.1,2.7 c2,0,3.6-1.6,3.6-3.7c-1.2-8.4,0.6-19.6,0.8-21.7c3.4-1,7.6-2.3,11-3.3c0.4,1.1,4.2,13.2,7.4,16.4c3.8,3.3,6.3-2.5,3.8-4.1 c-0.5-0.5-0.9-1.2-1.2-1.9c-1.9-4-4.8-12.1-4.9-12.6c0.7-0.4,4-2.2,5.1-2.8c1.4-0.8,1.4-4.6-3.1-3.8c-1.2,0.3-2.4,0.6-3.8,1 c-0.6-2.2-1.1-4.3-1.6-6.5c4.2-1.9,8.2-3.4,12.5-4.9c1,4,12.9,48.3,13,48.6c2.3,3.5,6.2,0.9,5.3-2.5c-0.6-2.3-12.2-44.7-13-48.1 c0.6-0.3,21.9-7.7,31.7-11C381.6,91.1,379.7,84,373.1,86.7 M387.1,116.3c-0.1-2.3-0.1-4.5,0-6.8c0.7-7.8-6.8-7.1-6.3-1.7 c0.1,2.3,0.2,4.5,0.2,6.8c0,1.9,0.1,3.8,0.1,5.7c0,2.3,0.7,13.6,0.6,18.5c-0.5,6.7-5.7,5.9-7.5,3.5c-5.2-7.2-7.6-26.9-9.7-33.3 c-0.7-3.6-8.2-4.2-6.6,1.1c1.4,3.3,2.8,6.6,3.7,10c1.5,5.6,3.7,27.8,14.9,30.5c4.3,1.1,11.1-1.4,11.2-10.9 C387.6,131.9,387.3,124.1,387.1,116.3 M280.7,188.5c0.1,1-0.8,8.4-1.7,9.9c-1.6,2.8-2.6,4.1-6.1,8.7c-9.5,9.4-3.6-9.9-1.8-12.8 C278.3,183,280.7,187.8,280.7,188.5 M242,253c-1.1,0.1-3.8,0.6-5.5-5.6c-3.2-9.6,1.8-11.2,3.4-8.8c2.7,3.1,4.3,6.7,6.4,10.1 C248.2,251.4,243.4,252.9,242,253 M217.5,263.3c-8.6,5.7-1.6-18.1,0.5-22.2c0.6-1.1,3.2-5.6,4.2-3.3 C225,246.6,222.2,260.1,217.5,263.3 M387.9,153.3c-4,1-7.6,2.8-11.2,4.5c-2.6,1.4-1.4,4.5-1.3,4.9c-0.6,0.9-3.3,6.2-9.6,8.5 c-2,0.8-4.3-0.3-5.2-2.3c-0.9-2.1-1.3-4.3,0-6.5c1.1-2,0.2-3.8-2.1-4.3c-2.7-0.6-4.3,0.3-5.4,2.9c-2.2,5.4-4.1,10.4-8,14.7 c-7.3,6.5-6-6-2.2-11.8c2.1-4.5-3.7-5.6-5.7-3.3c-0.9,0.8-2.7,3.8-3.1,4c-3.6,2.3-12.5,7-13,7.2c0-0.7,2.6-25.4,3.2-29.2 c0.3-1.9,0.9-2.9-1-3.4c-0.8-0.2-1.6-0.3-2.4-0.2c-1.9,0.2-2.8,1.3-2.8,3.2c0,1.1,0,2.2-0.1,3.3c-1,7.5-1.8,15-2,22.5 c-0.1,2.4-0.2,4.8-0.3,7.1c-0.9,0.8-1.8,1-2.9,0.7c-13.4-2.7-11.1,5.1-8,5.8c0.6,0.3,1.5,0.7,2.2,1c-0.3,0.7-5,8.9-7.8,13.4 c-1,1.6-8.7,14.1-11.6,3.6c-1.4-6.2-1.1-11.4-1.7-14.7c-0.7-2.8-2.4-4-5.3-4.1c-3.1-0.1-5.7,0.9-7.7,3.3c-1.7,2-3.2,4-4.7,6.1 c-2.6,3.9-4.3,8.2-5.3,12.9c-1.7,0.1-2.5,1.2-2.9,2.7c-0.5,1.5-1.1,2.9-1.4,4.4c-1.4,5.7-2.7,11.3-3.9,17c-1.1,5.2-3.3,15-5.2,16.7 c-1.2-1.9-7.1-12-11.6-12.7c-2.7-0.7-5,0.8-5.9,3.6c-0.9,2.8-1,5.7-0.8,8.6c0.2,3.9,1.1,7.6,3.1,11.1c2.4,4.7,7.8,5.2,8.3,5.3 c-4.5,11.4-6.7,2.5-7.6,0.3c-1.2-2.9-2-5.3-6.7-6.4c0-0.8,0.4-11,0.4-15.1c0-2.3-0.9-4.3-2.6-5.9c-3.5-3.2-9.8-4.1-13.9,8.2 c-1.2,4.3-2.4,8.6-3.2,13c-0.6,3.1-0.7,6.3-0.6,9.5c0.9,9.8,8.9,6.3,10.3,6c-0.1,0.4-0.8,2.5-0.9,3c-0.5,2.6,3.9,5.5,6,0.3 c1.1-3.6,2-7.3,3-11c0.2-0.6,0.2-3.7,1.8,0c0.9,1.9,4.4,8.4,5.5,9.4c3.1,2.6,7.3,2.1,9.7-1.1c1.1-1.5,6.2-11.2,6.6-11.7 c0.6,1.9,3,12.4,9.4,18.3c4,3.7,8.4,0.5,5.1-3.5c-2.2-3.6-10.8-9.3-6.9-24.1c1.1-2.4,5.1-6.9,7.5-9.4c3.6-4.5,3.8-1.1,3.7-0.3 c-0.9,6.7-1.9,13.5-2.7,20.2c-0.3,2.5-0.4,5.1-0.2,7.7c0.8,7.1,8.2,6.1,10.8,3.1c3.5-3.7,9.2-24.9,9.3-25.4c0,1.4-2.1,14.9-2.1,18 c0.1,3,0.8,5.2,3.4,6.9c2.8,1.6,9.8-3.1,9.3-5.7c-0.6-2.3-3.6-0.5-5.5,0.2c-0.9,0.1-1.4-1.5-0.6-6.8c0.8-8.4,1.2-23.8,1.4-26.1 c0.1-2.3-0.7-3.4-2-3.7c-1.6-0.4-2.5,0.3-3.3,2c-1.1,2.4-10.9,28.1-11.9,30.7c-0.2,0.6-2,5-2.9,4.7c-2-0.3,3.1-30,2.8-32.2 c-0.5-3-3.3-4.9-6.5-3.2c-1.2,0.6-2.5,1.4-3.6,2.2c-1.6,1.2-3.8,3.2-5.3,4.5c0.7-6.8,2.2-18,4-21.5c1.5,1.4,3.4,1.3,4.4,1.2 c3.3-0.4,6-2.1,8-4.8c0.1-0.1,5.2-6.3,6.3-6.8c0.6,0.8,2.3,5.3,7.6,5.7c9.6,0.5,17-16.5,21.7-24.4c0.3-0.5,0.8-1,1.2-1.6 c1.2,2,2.5,3.1,2.5,5.3c0,1,0.3,5.2,0.3,6.2c0.3,5.4-2.9,19.1,4.3,17.9c3.9-0.9,2.1-8.9,1.5-17.1c-0.6-8.9-0.2-18-0.2-18 c2.9-1.7,11.6-6.4,12-6.7c0.2,2.2,0.2,4.2,0.5,6.2c0.8,4.4,3.4,6.6,7.9,5.7c3.1-0.6,6.7-1.9,12.7-11.2c0.2,0.3,3,6.1,10.7,4.5 c9.4-2.6,13.3-9.8,13.7-10.4c1.4,3,2,5.4,0.6,15.1c-0.3,5.5,6.1,4.4,6.3,0.7c0.1-3.1,0.1-7.3,0-10.3c-0.4-5.8-2-9.2-2.2-10.4 c1.8-0.8,4.6-1.8,6.2-2.6C394.4,157.2,394.2,152,387.9,153.3 M405.5,120.8c0.5-5.8,9.8-16.6,11.6-15.4 C418.9,106.7,413.3,117,405.5,120.8 M434.8,142.5c-1.7-0.8-3.5-1.6-5.1-2.6c-6.5-4-13.5-6.9-20.9-8.9c-1.5-0.4-2.9-0.9-4.8-1.5 c0.7-0.7,3.5-3,4.5-3.7c3.5-2.5,6.8-5.2,9.5-8.6c3-3.9,4.9-8.1,5.2-13.1c0.2-3.4-4.2-5.9-6.9-4.6c-9.5,5.1-15,13.8-16.5,23.7 c-0.2,1-0.6,1.7-1.4,2.2c-11,4.7-1.3,8.3-0.7,8.6c-0.2,1.2-3.1,9,2.2,39.6c1.1,6.8,7.2,4.7,6.4-0.1c-0.7-4.4-3.9-23.5-3.7-29.1 c0.1-2.5,0.4-6.3,0.5-8.8c0.4-0.1,14.2,2.7,26.9,12.2C435.8,150.1,438.2,143.9,434.8,142.5 M480.2,193.3c-0.9-0.1-2.1-0.1-3-0.1 c-0.7,0-4,0.2-3.7-3.2c0.2-1.3,2.3-5.3,0.6-8c-1.3-2.3-3.3-2.6-5.1-0.7c-5.4,6.3-12.5,13.4-13.4,12.8c-0.7-0.4-0.2-1.8,0.1-2.8 c0.6-2.3,3.2-8.4,2.2-11.7c-1.3-3.3-2.8-4.1-5.6-1.8c-2.8,2.4-5.5,5-8.2,7.6c-14.1,14.3-28.1,39.2-28.4,39.8 c-1.4,2.6,1.2,4.9,2.9,2.9c3.3-4.7,7.1-10.5,10.4-15.2c5.9-8.5,12.2-15.2,18.9-22.9c0.4-0.5,1.1-1.7,1.7-1.2c0.3,0.7-0.5,5.3-0.4,7 c0.1,1.7,0.9,3.2,2,4.4c1.9,2.1,4.4,2.1,7.6,0.2c2.8-1.7,7.5-7,8.4-7.9c0.6,1.5,1.6,3,2.8,4.4c3,2.7,8.9,2.1,11.2-1.1 C482,194.6,481.6,193.5,480.2,193.3"/><path fill="#fff" d="M163.2,270.9c2.5-7.8-27.8-1.4-26.8-2.3c0.5-3,0.7-2-0.3-3.3c-1.4-1.8-6.3-1.4-9,0.8c-1.7,1.3-6,10-6.2,11.3 c-0.4,2.2-0.1,4.2,2.4,5.5c3.7,1.8,5.3,1.9,10.1-0.7c13-7.5,18.9-3.6,28.2-8.8C162.1,272.6,162.6,271.8,163.2,270.9 M258.9,291.2 c-5.1-0.6-8.4-2.6-11.1-7c-1.9-2.5-5.6-8.3-11.7-5.4c-1.5,0.8-14.7,9.1-19.8,12.4c-9.5,6.4-7.2-12.8-13.6-9.2 c-0.6,0.2-18.9,13.6-25.4,18.1c-6.5,4.8-10,1.2-11.5-1.4c-3.7-6,4.9-15.7-4.5-17.7c-11-2.8-19.9,27.9-28.7,25.9 c-10.6-2-2.3-14.7-9.6-15.2c-9.3-1.2-14.7,19-25.9,21.5c-1.8,0.4-9.6,1.1-7.6-4.3c11.3-27.9,20.7-56.9,33.5-82.6 c12.8-27.5,24.8-37.7,28.4-42.9c8.5-9.5-1.2-31.6-17-10.6c-2.4,4-4.8,7.9-7,12c-13.7,25-28.3,64.6-48.1,103.4 c-0.8,1.6-9.6,21-13.1,21.1c-0.4-0.1-7-2-9.4-1.5c-5.6,1.2-13.3,4.6-12,17.5c1.6,7.3,9.4,7,9.6,10.1c0.6,1.8,0,4.6-0.7,6.3 c-2,4.7-16.2,35.8-17.3,42.6c-1.7,8,1.2,13.2,5.4,14.4c8.2,1.9,7.9-0.3,13.3-15.9c1.1-3.5,15.9-36.1,20.2-43.4 c8.3-13.4,33.3-20.5,37.5-17.7c2.2,1,11.9,5.6,18.3,4.3c6.2-1.7,10.2-6.1,11.8-7.4c2.9-3.9,8.9,2.6,12.6,3.2 c12.2,1.2,33.2-20.4,36.1-11.4c1,1.4-1,13.1-1.2,15.7c-0.2,2.1,3.4,6.6,6.8,3.5c1.6-1.7,17-22.5,33.8-33.8 c4.6-4.3,11.6,2.8,12.8,3.7c4.7,3.5,9.3,4,14.2,0.8C260.7,298.5,264.4,291.8,258.9,291.2 M479,159.3c0.1-2.5,0.7-30.3-19.3-24.3 c-6.5,2.3-16.6,11.6-20.2,15.7c-5.5,6.3-11.1,12.5-16.3,19c-11.5,14.2-21.9,29.2-31.5,44.7c-4.3,6.9-8.9,13.7-13.4,20.5 c-1,1.6-4.3,4.5-6.1-0.8c-2.3-6.6-5.1-9.4,4.2-33.8c1-3.3-0.9-5.6-4.3-5.6c-0.7,0-5.9,0.9-7.4-0.3c-3-0.8-4.5-7.3-8.9-7.5 c-2.6-0.4-10.6-0.4-11.9,4.5c-0.4,1.7-0.7,3.5-1.2,5.2c-0.4,1.5,0.6,4.5,1.3,5.8c7.4,9.7,9.4,12.8,8.5,17.4 c-0.3,3-10.2,17.2-13.4,22c-6.6,9.9-32.7,43.4-37.9,51.1c-7.8,11.9-10.2,8-11.1,5.9c-0.5-1.1-2-6.8-2.6-8.3 c-1.1-2.4-3.5-3.1-5.7-1.7c-7.6,6.1-8.6,25-7.5,34.4c1.4,9.2,4.7,12.9,6.5,14.1c5.4,4.5,12.7-6.7,14.4-8.9 c19.2-25.4,59.2-78.2,60.1-79.3c0.7,2.6,4.2,9.2,2.8,17.1c-1.2,8.1-3.1,16-6,23.7c-1.5,3.9-5.7,13.8-6.1,14.9c-0.7,2.3-0.2,7,9.5,5 c9.9-1.5,14.2-12.4,15-14.2c5.1-11.1,10.1-22.3,15.2-33.4c3.5-7.8,6.6-15.8,10.7-23.3c10.2-19,21.7-37.2,34.3-54.7 c5.2-7.3,10.5-14.6,16.4-21.3c2.4-2.7,8.1-9.2,11.7-10.1c9.3-3,1.9,12.1,12.3,14.4C475.5,167.7,478.8,163.7,479,159.3 M404.5,287.7 c-3.1,0.5-5-1.6-5-5.7c0.7-10.1,13.7-14.8,16.8-15c2.1-0.3,3.6,0.9,4.4,2.7C425.5,279.6,409.9,287.4,404.5,287.7 M647.2,259.6 c0.1-1.9-0.5-2.8-2.5-2.9c-4.4-0.3-10.5,1-10.8-4.8c-0.5-2.2,2.3-12.1,3.2-15.2c0.3-1.1,2.2-12.3-19.5,10.1c-3.7,3.6-7.4,8.3-12,12 c-2.3,1.2-5.7,2-5.7-6.9c-0.5-5.7-7.9-1.5-8.9-1c-6.9,3.8-14.8,9.9-26,13.9c-4.6,0.4-6.6-1.9-5.7-6.4c0.5-2.4,2.3-9.8,2.3-11.2 c-0.1-3.3-2.1-5-5.3-4.4c-3.2,0.6-5.2,2.1-6.9,4.9c-1,1.6-6.9,13.4-11.9,17.9c-3.8,3.9-8.2,5.7-13.6,5.1 c-9.6-2.6-1.9-12.8-1.5-19.4c0.4-2.6-1.1-4.1-3.7-4c-9.7-0.5-14.1,27.1-38.9,30.3c-15,1.9,9.8-38.4,16.3-50.6 c5.2-15,58.7-19.5,97.5-31.4c9.3-3.3,12.1-5.1,11-8c-1.2-3.4-9.4-2.5-19.3-0.8c-21.2,4.3-68.2,14.1-69.5,14.4 c-5.4,0.1-7.4-2.2-6.4-6.5c0.4-2,5.2-12.3,9.2-22.3c2.3-7.3-3.7-12.5-11.6,0.8c-5,8.8-10,17.5-14.8,26.4c-2,3.7-5,5.9-9,7.1 c-13.1,3.7-44,12.8-46.4,13.8c-12.9,7.3-7.9,15.8-2.7,14.6c1.2-0.1,26.9-6.6,39.4-9.9c5.7-1.5,5.1,0.3,4.8,1.7 c-0.2,0.9-19.2,44.1-32.8,49.4c-0.8,0.5-7.9,5.7-8.2-4.8c0.1-4.7,0.8-9.2,1.7-13.8c0.9-4.4-2.3-7.5-6.7-6.6 c-1.1,0.2-2.8,1.4-14.2,1.8c-4.6,0.5-8.8,1.8-12.5,4.7c-26,18.7-23,35.5-21.3,38.3c7.5,12.6,22.4,7.7,26.2,6.9 c5-1.2,9.3-4,13.3-7.2c4.7-4.3,9.9-1.8,11.6-1.1c3.9,1.5,7.6,1.1,11-1c11.2-8.8,11.2-8.2,14.1-5.5c2.5,2.3,5.7,4.5,9,5.2 c8.7,2.6,25.6-6.6,28.3-7.8c8-3.1,8.5,5.9,16,6.3c7.7,0.1,17.1-4.7,21.5-6.9c4.9-2.5,3.9,3.7,12.3,1.7c10-2.8,21.9-11.2,26.2-12.8 c11.1-5.6,11.9-0.1,11.4,1.7c-0.4,1.2-6,10-7.1,13.7c-0.2,2.5,4.3,1.9,6,1.9c2.8-0.3,6.3-2.3,12.8-7.7 c13.4-13.1,22.1-18.6,24.2-19.6c2.3-1.1,5-1.2,7.1,0.6c2.3,2,5,3.4,8,3.8C641.7,268.8,646.8,264.9,647.2,259.6"/>
  <path fill="#fff" d="M541.9,488v-40h0.1l22.8,40h4.1v-44.9h-4.5v34.6h-0.2l-19.6-34.6h-7.1V488H541.9z M515.3,488h5v-44.9h-5V488z M502.3,488v-4.2h-21.3v-40.7h-5V488H502.3z M436.5,488v-20.4H447l9.1,20.4h5.4l-9.5-21.4c5.3-1.7,8.9-5.3,8.9-11.7 c0-7.5-5.3-11.8-15-11.8h-14.4V488H436.5z M436.5,447.4h9c6.4,0,10.5,1.8,10.5,7.8c0,5.7-3.6,8.2-10.4,8.2h-9V447.4z M390.5,443.1 V488h28.2v-4.2h-23.2v-17.2h15.6v-4.2h-15.6v-15.1h21.9v-4.2H390.5z M350.7,447.4h10.7c5.7,0,8.5,2.4,8.5,7.4 c0,3.8-2.9,7.6-10.4,7.6h-8.7V447.4z M350.7,466.6h8.6c7.1,0,11.7,3.4,11.7,9.1c0,5.6-3.6,8.1-10.9,8.1h-9.3V466.6z M345.7,488 h13.9c12.2,0,16.3-5.3,16.3-12.1c0-5.6-3.6-10.1-8.6-11.3l-0.1-0.1c5.4-1.9,7.6-5.4,7.6-10.3c0-6.1-4.7-11.1-12.6-11.1h-16.5V488z"/></svg>
