<svg id="Ebene_1" data-name="Ebene 1" xmlns="http://www.w3.org/2000/svg" viewBox="0 0 400 400"><defs><style>.cls-1,.cls-2,.cls-3,.cls-4{fill:none;stroke-width:24px;}.cls-1{stroke:#dad9dd;}.cls-2{stroke:#b3b1bb;}.cls-3{stroke:#696679;}.cls-4{stroke:#a19eab;}.cls-5{fill:#a19eab;}.cls-6{fill:#7b7a89;}.cls-7{fill:#b3b1bb;}.cls-8{fill:#dad9dd;}</style></defs><title>Petri</title><path class="cls-1" d="M315.6,81.44C381.08,145.23,382,250,318.25,315.5A164.57,164.57,0,0,1,170,362.78"/><path class="cls-2" d="M35.16,213.78A165.52,165.52,0,0,1,315.6,81.44"/><path class="cls-3" d="M61.72,290.87a165,165,0,0,1-26.56-77.09"/><path class="cls-4" d="M170,362.78A166,166,0,0,1,61.72,290.87"/><polygon class="cls-5" points="136 229.84 109.89 229.84 91.43 248.31 91.43 274.42 109.89 292.88 136 292.88 154.46 274.42 154.46 248.31 136 229.84"/><path class="cls-6" d="M107,215.35a31.52,31.52,0,1,0-31.52-31.52A31.52,31.52,0,0,0,107,215.35"/><rect class="cls-7" x="205.15" y="80.75" width="63.04" height="63.04"/><rect class="cls-8" x="253.23" y="215.35" width="63.04" height="63.04"/><polygon class="cls-7" points="167.52 65.33 141.41 65.33 122.94 83.8 122.94 109.91 141.41 128.37 167.52 128.37 185.98 109.91 185.98 83.8 167.52 65.33"/><polygon class="cls-8" points="317.16 136.26 291.05 136.26 272.58 154.72 272.58 180.83 291.05 199.3 317.16 199.3 335.62 180.83 335.62 154.72 317.16 136.26"/><polygon class="cls-8" points="218.2 270.23 192.09 270.23 173.63 288.69 173.63 314.8 192.09 333.26 218.2 333.26 236.66 314.8 236.66 288.69 218.2 270.23"/><path class="cls-7" d="M198.14,230.81a31.52,31.52,0,1,0-31.52-31.52,31.52,31.52,0,0,0,31.52,31.52"/></svg>