<svg id="Ebene_1" data-name="Ebene 1" xmlns="http://www.w3.org/2000/svg" viewBox="0 0 400 400"><defs><style>.cls-1{fill:#dad9dd;}.cls-2{fill:#a19eab;}.cls-3{fill:#b3b1bb;}.cls-4{fill:#7b7a89;}</style></defs><title>Process</title><path class="cls-1" d="M339.78,252.68H60.22a10.22,10.22,0,1,1,0-20.44H339.78a10.22,10.22,0,1,1,0,20.44Z"/><path class="cls-1" d="M339.34,168.63H60.66a10.22,10.22,0,0,1,0-20.44H339.34a10.22,10.22,0,0,1,0,20.44Z"/><path class="cls-1" d="M339.78,84.59H60.25a10.22,10.22,0,0,1,0-20.44H339.78a10.22,10.22,0,1,1,0,20.44Z"/><path class="cls-1" d="M339.78,336.72H60.25a10.22,10.22,0,1,1,0-20.44H339.78a10.22,10.22,0,1,1,0,20.44Z"/><polygon class="cls-2" points="190.93 126.14 178.09 138.99 178.09 334.61 190.93 347.45 209.09 347.45 221.94 334.61 221.94 138.99 209.09 126.14 190.93 126.14"/><polygon class="cls-3" points="99.42 45.21 86.57 58.05 86.57 257.29 99.42 270.13 117.58 270.13 130.42 257.29 130.42 58.05 117.58 45.21 99.42 45.21"/><path class="cls-4" d="M313.45,252.74V147.55a21.92,21.92,0,0,0-43.85,0V252.74a21.92,21.92,0,1,0,43.85,0"/></svg>