<?xml version="1.0" encoding="utf-8"?>
<!-- Generator: Adobe Illustrator 21.1.0, SVG Export Plug-In . SVG Version: 6.00 Build 0)  -->
<svg version="1.1" xmlns="http://www.w3.org/2000/svg" xmlns:xlink="http://www.w3.org/1999/xlink" x="0px" y="0px"
	 viewBox="0 0 100 100" style="enable-background:new 0 0 100 100;" xml:space="preserve">
<g>
	<path d="M50.1,12C60.3,12,69.9,16,77,23.1S88.1,39.8,88.1,50S84.2,69.8,77,77S60.3,88.1,50.1,88.1S30.3,84.1,23.2,77
		S12.1,60.3,12.1,50S16,30.3,23.2,23.1S39.9,12,50.1,12 M50.1,2c-26.7,0-48,21.3-48,48s21.3,48,48,48c26.7,0,48-21.3,48-48
		S76.8,2,50.1,2L50.1,2z"/>
</g>
<g>
	<path d="M50.1,30.1c11.2,0,20,8.8,20,20s-8.8,20-20,20s-20-8.8-20-20S38.9,30.1,50.1,30.1 M50.1,20.1c-16.7,0-30,13.3-30,30
		s13.3,30,30,30s30-13.3,30-30S66.8,20.1,50.1,20.1L50.1,20.1z"/>
</g>
<g>
	<path d="M50.1,40c-5.6,0-10,4.4-10,10s4.4,10,10,10s10-4.4,10-10C60.1,44.5,55.7,40,50.1,40z"/>
</g>
</svg>
